G04 EAGLE Gerber RS-274X export*
G75*
%MOMM*%
%FSLAX34Y34*%
%LPD*%
%INTop Copper*%
%IPPOS*%
%AMOC8*
5,1,8,0,0,1.08239X$1,22.5*%
G01*
%ADD10C,0.130000*%
%ADD11C,0.152400*%
%ADD12R,5.842000X5.842000*%
%ADD13C,1.950000*%
%ADD14R,3.400000X1.900000*%
%ADD15R,2.700000X1.600000*%
%ADD16R,1.600000X1.800000*%
%ADD17R,1.800000X1.600000*%
%ADD18R,2.200000X1.400000*%
%ADD19R,1.400000X2.200000*%
%ADD20C,1.408000*%
%ADD21R,3.850000X5.500000*%
%ADD22R,1.600000X1.803000*%
%ADD23R,1.600000X2.000000*%
%ADD24P,1.429621X8X292.500000*%
%ADD25P,1.429621X8X112.500000*%
%ADD26P,1.429621X8X202.500000*%
%ADD27P,1.429621X8X22.500000*%
%ADD28R,2.000000X1.600000*%
%ADD29R,1.600000X0.300000*%
%ADD30R,1.500000X2.000000*%
%ADD31C,1.208000*%
%ADD32C,1.270000*%
%ADD33R,1.780000X0.420000*%
%ADD34R,1.508000X1.508000*%
%ADD35C,0.756400*%

G36*
X29625Y10176D02*
X29625Y10176D01*
X29722Y10186D01*
X29746Y10196D01*
X29772Y10200D01*
X29858Y10246D01*
X29947Y10286D01*
X29966Y10303D01*
X29989Y10316D01*
X30056Y10386D01*
X30128Y10452D01*
X30141Y10475D01*
X30159Y10494D01*
X30200Y10582D01*
X30247Y10668D01*
X30251Y10693D01*
X30262Y10717D01*
X30273Y10814D01*
X30290Y10910D01*
X30287Y10936D01*
X30289Y10961D01*
X30269Y11057D01*
X30255Y11153D01*
X30243Y11176D01*
X30237Y11202D01*
X30187Y11285D01*
X30143Y11372D01*
X30124Y11391D01*
X30111Y11413D01*
X30037Y11476D01*
X29967Y11544D01*
X29939Y11560D01*
X29924Y11573D01*
X29893Y11585D01*
X29820Y11625D01*
X26648Y12939D01*
X24239Y15348D01*
X22935Y18496D01*
X22935Y21904D01*
X24239Y25052D01*
X26648Y27461D01*
X29128Y28488D01*
X29214Y28541D01*
X29303Y28590D01*
X29318Y28606D01*
X29337Y28617D01*
X29402Y28695D01*
X29471Y28770D01*
X29480Y28790D01*
X29494Y28807D01*
X29530Y28901D01*
X29572Y28994D01*
X29574Y29016D01*
X29582Y29037D01*
X29586Y29138D01*
X29596Y29239D01*
X29591Y29260D01*
X29592Y29282D01*
X29564Y29379D01*
X29542Y29478D01*
X29530Y29497D01*
X29524Y29519D01*
X29466Y29602D01*
X29413Y29688D01*
X29396Y29702D01*
X29384Y29721D01*
X29302Y29781D01*
X29246Y29828D01*
X29229Y29843D01*
X29228Y29843D01*
X29225Y29846D01*
X29200Y29857D01*
X29186Y29867D01*
X29155Y29878D01*
X29072Y29915D01*
X27822Y30321D01*
X26479Y31006D01*
X25258Y31892D01*
X24192Y32958D01*
X23306Y34179D01*
X22621Y35522D01*
X22155Y36957D01*
X22041Y37677D01*
X30738Y37677D01*
X30758Y37680D01*
X30777Y37678D01*
X30879Y37700D01*
X30981Y37717D01*
X30998Y37726D01*
X31018Y37730D01*
X31107Y37783D01*
X31198Y37832D01*
X31212Y37846D01*
X31229Y37856D01*
X31296Y37935D01*
X31367Y38010D01*
X31376Y38028D01*
X31389Y38043D01*
X31427Y38139D01*
X31471Y38233D01*
X31473Y38253D01*
X31481Y38271D01*
X31499Y38438D01*
X31499Y39201D01*
X31501Y39201D01*
X31501Y38438D01*
X31504Y38418D01*
X31502Y38399D01*
X31524Y38297D01*
X31541Y38195D01*
X31550Y38178D01*
X31554Y38158D01*
X31607Y38069D01*
X31656Y37978D01*
X31670Y37964D01*
X31680Y37947D01*
X31759Y37880D01*
X31834Y37809D01*
X31852Y37800D01*
X31867Y37787D01*
X31963Y37748D01*
X32057Y37705D01*
X32077Y37703D01*
X32095Y37695D01*
X32262Y37677D01*
X40986Y37677D01*
X41076Y37692D01*
X41167Y37699D01*
X41196Y37711D01*
X41228Y37717D01*
X41309Y37759D01*
X41393Y37795D01*
X41425Y37821D01*
X41446Y37832D01*
X41468Y37855D01*
X41524Y37900D01*
X45496Y41872D01*
X47059Y43435D01*
X68765Y43435D01*
X75060Y37140D01*
X75154Y37072D01*
X75249Y37002D01*
X75255Y37000D01*
X75260Y36996D01*
X75371Y36962D01*
X75482Y36926D01*
X75489Y36926D01*
X75495Y36924D01*
X75612Y36927D01*
X75728Y36928D01*
X75736Y36930D01*
X75741Y36930D01*
X75758Y36937D01*
X75890Y36975D01*
X77796Y37765D01*
X81204Y37765D01*
X84352Y36461D01*
X86761Y34052D01*
X88065Y30904D01*
X88065Y27496D01*
X86761Y24348D01*
X84352Y21939D01*
X81204Y20635D01*
X77796Y20635D01*
X74648Y21939D01*
X72960Y23627D01*
X72902Y23669D01*
X72850Y23719D01*
X72803Y23741D01*
X72761Y23771D01*
X72692Y23792D01*
X72627Y23822D01*
X72575Y23828D01*
X72525Y23843D01*
X72454Y23841D01*
X72383Y23849D01*
X72332Y23838D01*
X72280Y23837D01*
X72212Y23812D01*
X72142Y23797D01*
X72097Y23770D01*
X72049Y23752D01*
X71993Y23708D01*
X71931Y23671D01*
X71897Y23631D01*
X71857Y23599D01*
X71818Y23538D01*
X71771Y23484D01*
X71752Y23436D01*
X71724Y23392D01*
X71706Y23322D01*
X71679Y23256D01*
X71671Y23184D01*
X71663Y23153D01*
X71665Y23130D01*
X71661Y23089D01*
X71661Y20985D01*
X69200Y15046D01*
X65615Y11460D01*
X65573Y11402D01*
X65524Y11350D01*
X65502Y11303D01*
X65471Y11261D01*
X65450Y11192D01*
X65420Y11127D01*
X65414Y11075D01*
X65399Y11025D01*
X65401Y10954D01*
X65393Y10883D01*
X65404Y10832D01*
X65405Y10780D01*
X65430Y10712D01*
X65445Y10642D01*
X65472Y10597D01*
X65490Y10549D01*
X65535Y10493D01*
X65571Y10431D01*
X65611Y10397D01*
X65644Y10357D01*
X65704Y10318D01*
X65758Y10271D01*
X65807Y10252D01*
X65851Y10224D01*
X65920Y10206D01*
X65987Y10179D01*
X66058Y10171D01*
X66089Y10163D01*
X66112Y10165D01*
X66153Y10161D01*
X99594Y10161D01*
X99614Y10164D01*
X99633Y10162D01*
X99735Y10184D01*
X99837Y10200D01*
X99854Y10210D01*
X99874Y10214D01*
X99963Y10267D01*
X100054Y10316D01*
X100068Y10330D01*
X100085Y10340D01*
X100152Y10419D01*
X100224Y10494D01*
X100232Y10512D01*
X100245Y10527D01*
X100284Y10623D01*
X100327Y10717D01*
X100329Y10737D01*
X100337Y10755D01*
X100355Y10922D01*
X100355Y30447D01*
X101248Y31340D01*
X106680Y31340D01*
X106700Y31343D01*
X106719Y31341D01*
X106821Y31363D01*
X106923Y31379D01*
X106940Y31389D01*
X106960Y31393D01*
X107049Y31446D01*
X107140Y31495D01*
X107154Y31509D01*
X107171Y31519D01*
X107238Y31598D01*
X107310Y31673D01*
X107318Y31691D01*
X107331Y31706D01*
X107370Y31802D01*
X107413Y31896D01*
X107415Y31916D01*
X107423Y31934D01*
X107441Y32101D01*
X107441Y320301D01*
X107427Y320392D01*
X107419Y320482D01*
X107407Y320512D01*
X107402Y320544D01*
X107359Y320625D01*
X107323Y320709D01*
X107297Y320741D01*
X107286Y320762D01*
X107263Y320784D01*
X107218Y320840D01*
X96011Y332047D01*
X96011Y567113D01*
X137058Y608160D01*
X137100Y608218D01*
X137149Y608270D01*
X137171Y608317D01*
X137201Y608359D01*
X137222Y608428D01*
X137253Y608493D01*
X137258Y608545D01*
X137274Y608595D01*
X137272Y608666D01*
X137280Y608737D01*
X137269Y608788D01*
X137267Y608840D01*
X137243Y608908D01*
X137228Y608978D01*
X137201Y609023D01*
X137183Y609071D01*
X137138Y609127D01*
X137101Y609189D01*
X137062Y609223D01*
X137029Y609263D01*
X136969Y609302D01*
X136914Y609349D01*
X136866Y609368D01*
X136822Y609396D01*
X136753Y609414D01*
X136686Y609441D01*
X136615Y609449D01*
X136584Y609457D01*
X136560Y609455D01*
X136520Y609459D01*
X134323Y609459D01*
X134323Y619477D01*
X143341Y619477D01*
X143341Y616280D01*
X143352Y616210D01*
X143354Y616138D01*
X143372Y616089D01*
X143380Y616038D01*
X143414Y615974D01*
X143439Y615907D01*
X143471Y615866D01*
X143496Y615820D01*
X143547Y615771D01*
X143592Y615715D01*
X143636Y615687D01*
X143674Y615651D01*
X143739Y615621D01*
X143799Y615582D01*
X143850Y615569D01*
X143897Y615547D01*
X143968Y615539D01*
X144038Y615522D01*
X144090Y615526D01*
X144141Y615520D01*
X144212Y615535D01*
X144283Y615541D01*
X144331Y615561D01*
X144382Y615572D01*
X144443Y615609D01*
X144509Y615637D01*
X144565Y615682D01*
X144593Y615699D01*
X144608Y615716D01*
X144640Y615742D01*
X147604Y618706D01*
X147657Y618780D01*
X147717Y618850D01*
X147729Y618880D01*
X147748Y618906D01*
X147775Y618993D01*
X147809Y619078D01*
X147813Y619119D01*
X147820Y619141D01*
X147819Y619173D01*
X147827Y619245D01*
X147827Y673793D01*
X172016Y697982D01*
X172069Y698056D01*
X172129Y698126D01*
X172141Y698156D01*
X172160Y698182D01*
X172187Y698269D01*
X172221Y698354D01*
X172225Y698395D01*
X172232Y698417D01*
X172231Y698449D01*
X172239Y698521D01*
X172239Y702476D01*
X175348Y705585D01*
X178414Y705585D01*
X178434Y705588D01*
X178453Y705586D01*
X178555Y705608D01*
X178657Y705624D01*
X178674Y705634D01*
X178694Y705638D01*
X178783Y705691D01*
X178874Y705740D01*
X178888Y705754D01*
X178905Y705764D01*
X178972Y705843D01*
X179044Y705918D01*
X179052Y705936D01*
X179065Y705951D01*
X179104Y706047D01*
X179147Y706141D01*
X179149Y706161D01*
X179157Y706179D01*
X179175Y706346D01*
X179175Y725632D01*
X180068Y726525D01*
X197332Y726525D01*
X198225Y725632D01*
X198225Y704368D01*
X197332Y703475D01*
X192024Y703475D01*
X192004Y703472D01*
X191985Y703474D01*
X191883Y703452D01*
X191781Y703436D01*
X191764Y703426D01*
X191744Y703422D01*
X191655Y703369D01*
X191564Y703320D01*
X191550Y703306D01*
X191533Y703296D01*
X191466Y703217D01*
X191394Y703142D01*
X191386Y703124D01*
X191373Y703109D01*
X191334Y703013D01*
X191291Y702919D01*
X191289Y702899D01*
X191281Y702881D01*
X191263Y702714D01*
X191263Y699255D01*
X191277Y699164D01*
X191285Y699074D01*
X191297Y699044D01*
X191302Y699012D01*
X191345Y698931D01*
X191381Y698847D01*
X191407Y698815D01*
X191418Y698794D01*
X191441Y698772D01*
X191486Y698716D01*
X208654Y681548D01*
X208728Y681495D01*
X208798Y681435D01*
X208828Y681423D01*
X208854Y681404D01*
X208941Y681377D01*
X209026Y681343D01*
X209067Y681339D01*
X209089Y681332D01*
X209121Y681333D01*
X209192Y681325D01*
X225632Y681325D01*
X226525Y680432D01*
X226525Y663992D01*
X226539Y663902D01*
X226547Y663811D01*
X226559Y663782D01*
X226564Y663750D01*
X226607Y663669D01*
X226643Y663585D01*
X226669Y663553D01*
X226680Y663532D01*
X226703Y663510D01*
X226748Y663454D01*
X228562Y661640D01*
X228636Y661587D01*
X228706Y661527D01*
X228736Y661515D01*
X228762Y661496D01*
X228849Y661469D01*
X228934Y661435D01*
X228975Y661431D01*
X228997Y661424D01*
X229029Y661425D01*
X229101Y661417D01*
X247522Y661417D01*
X247639Y661436D01*
X247757Y661454D01*
X247761Y661456D01*
X247765Y661456D01*
X247869Y661512D01*
X247976Y661567D01*
X247979Y661570D01*
X247983Y661572D01*
X248064Y661657D01*
X248147Y661743D01*
X248149Y661747D01*
X248152Y661750D01*
X248202Y661857D01*
X248253Y661965D01*
X248254Y661969D01*
X248256Y661973D01*
X248268Y662089D01*
X248283Y662209D01*
X248282Y662214D01*
X248283Y662217D01*
X248280Y662231D01*
X248258Y662375D01*
X248059Y663116D01*
X248059Y664501D01*
X259212Y664501D01*
X259231Y664504D01*
X259251Y664502D01*
X259353Y664524D01*
X259455Y664540D01*
X259472Y664550D01*
X259492Y664554D01*
X259581Y664607D01*
X259672Y664656D01*
X259686Y664670D01*
X259703Y664680D01*
X259770Y664759D01*
X259841Y664834D01*
X259850Y664852D01*
X259863Y664867D01*
X259901Y664963D01*
X259945Y665057D01*
X259947Y665077D01*
X259955Y665095D01*
X259973Y665262D01*
X259973Y665838D01*
X259970Y665858D01*
X259972Y665877D01*
X259950Y665979D01*
X259933Y666081D01*
X259924Y666098D01*
X259920Y666118D01*
X259867Y666207D01*
X259818Y666298D01*
X259804Y666312D01*
X259794Y666329D01*
X259715Y666396D01*
X259640Y666468D01*
X259622Y666476D01*
X259607Y666489D01*
X259510Y666528D01*
X259417Y666571D01*
X259397Y666573D01*
X259379Y666581D01*
X259212Y666599D01*
X248059Y666599D01*
X248059Y667984D01*
X248232Y668631D01*
X248567Y669210D01*
X248852Y669495D01*
X248905Y669569D01*
X248965Y669639D01*
X248977Y669669D01*
X248996Y669695D01*
X249023Y669782D01*
X249057Y669867D01*
X249061Y669908D01*
X249068Y669930D01*
X249067Y669962D01*
X249075Y670034D01*
X249075Y674784D01*
X249083Y674790D01*
X249139Y674878D01*
X249199Y674961D01*
X249205Y674981D01*
X249216Y674997D01*
X249241Y675098D01*
X249271Y675197D01*
X249271Y675217D01*
X249276Y675236D01*
X249268Y675339D01*
X249265Y675442D01*
X249258Y675461D01*
X249257Y675481D01*
X249216Y675576D01*
X249181Y675673D01*
X249168Y675689D01*
X249160Y675707D01*
X249075Y675813D01*
X249075Y678540D01*
X249072Y678559D01*
X249074Y678578D01*
X249059Y678647D01*
X249053Y678721D01*
X249041Y678750D01*
X249036Y678782D01*
X249026Y678801D01*
X249022Y678818D01*
X248987Y678877D01*
X248957Y678947D01*
X248931Y678979D01*
X248920Y679000D01*
X248904Y679015D01*
X248896Y679029D01*
X248881Y679042D01*
X248852Y679078D01*
X220217Y707713D01*
X220217Y727895D01*
X221780Y729458D01*
X227198Y734876D01*
X227240Y734934D01*
X227289Y734986D01*
X227311Y735033D01*
X227341Y735075D01*
X227362Y735144D01*
X227393Y735209D01*
X227398Y735261D01*
X227414Y735311D01*
X227412Y735382D01*
X227420Y735453D01*
X227409Y735504D01*
X227407Y735556D01*
X227383Y735624D01*
X227368Y735694D01*
X227341Y735739D01*
X227323Y735787D01*
X227278Y735843D01*
X227241Y735905D01*
X227202Y735939D01*
X227169Y735979D01*
X227109Y736018D01*
X227054Y736065D01*
X227006Y736084D01*
X226962Y736112D01*
X226893Y736130D01*
X226826Y736157D01*
X226755Y736165D01*
X226724Y736173D01*
X226700Y736171D01*
X226660Y736175D01*
X224368Y736175D01*
X223475Y737068D01*
X223475Y754332D01*
X224368Y755225D01*
X245632Y755225D01*
X246525Y754332D01*
X246525Y737068D01*
X245632Y736175D01*
X235280Y736175D01*
X235190Y736161D01*
X235099Y736153D01*
X235070Y736141D01*
X235038Y736136D01*
X234957Y736093D01*
X234873Y736057D01*
X234841Y736031D01*
X234820Y736020D01*
X234798Y735997D01*
X234742Y735952D01*
X227314Y728524D01*
X227272Y728466D01*
X227223Y728414D01*
X227201Y728367D01*
X227171Y728325D01*
X227150Y728256D01*
X227119Y728191D01*
X227114Y728139D01*
X227098Y728089D01*
X227100Y728018D01*
X227092Y727947D01*
X227103Y727896D01*
X227105Y727844D01*
X227129Y727776D01*
X227144Y727706D01*
X227171Y727662D01*
X227189Y727613D01*
X227234Y727557D01*
X227271Y727495D01*
X227310Y727461D01*
X227343Y727421D01*
X227403Y727382D01*
X227458Y727335D01*
X227506Y727316D01*
X227550Y727288D01*
X227619Y727270D01*
X227686Y727243D01*
X227757Y727235D01*
X227788Y727227D01*
X227812Y727229D01*
X227852Y727225D01*
X245632Y727225D01*
X246525Y726332D01*
X246525Y720852D01*
X246528Y720832D01*
X246526Y720813D01*
X246548Y720711D01*
X246564Y720609D01*
X246574Y720592D01*
X246578Y720572D01*
X246631Y720483D01*
X246680Y720392D01*
X246694Y720378D01*
X246704Y720361D01*
X246783Y720294D01*
X246858Y720222D01*
X246876Y720214D01*
X246891Y720201D01*
X246987Y720162D01*
X247081Y720119D01*
X247101Y720117D01*
X247119Y720109D01*
X247286Y720091D01*
X282714Y720091D01*
X282734Y720094D01*
X282753Y720092D01*
X282855Y720114D01*
X282957Y720130D01*
X282974Y720140D01*
X282994Y720144D01*
X283083Y720197D01*
X283174Y720246D01*
X283188Y720260D01*
X283205Y720270D01*
X283272Y720349D01*
X283344Y720424D01*
X283352Y720442D01*
X283365Y720457D01*
X283404Y720553D01*
X283447Y720647D01*
X283449Y720667D01*
X283457Y720685D01*
X283475Y720852D01*
X283475Y726432D01*
X284368Y727325D01*
X305632Y727325D01*
X306525Y726432D01*
X306525Y709168D01*
X305632Y708275D01*
X298704Y708275D01*
X298684Y708272D01*
X298665Y708274D01*
X298563Y708252D01*
X298461Y708236D01*
X298444Y708226D01*
X298424Y708222D01*
X298335Y708169D01*
X298244Y708120D01*
X298230Y708106D01*
X298213Y708096D01*
X298146Y708017D01*
X298074Y707942D01*
X298066Y707924D01*
X298053Y707909D01*
X298014Y707813D01*
X297971Y707719D01*
X297969Y707699D01*
X297961Y707681D01*
X297943Y707514D01*
X297943Y688587D01*
X297957Y688496D01*
X297965Y688406D01*
X297977Y688376D01*
X297982Y688344D01*
X298025Y688263D01*
X298061Y688179D01*
X298087Y688147D01*
X298098Y688126D01*
X298121Y688104D01*
X298166Y688048D01*
X306160Y680054D01*
X306218Y680012D01*
X306270Y679963D01*
X306317Y679941D01*
X306359Y679911D01*
X306428Y679890D01*
X306493Y679859D01*
X306545Y679854D01*
X306595Y679838D01*
X306666Y679840D01*
X306737Y679832D01*
X306788Y679843D01*
X306840Y679845D01*
X306908Y679869D01*
X306978Y679884D01*
X307023Y679911D01*
X307071Y679929D01*
X307127Y679974D01*
X307189Y680011D01*
X307223Y680050D01*
X307263Y680083D01*
X307302Y680143D01*
X307349Y680198D01*
X307368Y680246D01*
X307396Y680290D01*
X307414Y680359D01*
X307441Y680426D01*
X307449Y680497D01*
X307457Y680528D01*
X307455Y680552D01*
X307459Y680592D01*
X307459Y680984D01*
X307632Y681631D01*
X307967Y682210D01*
X308440Y682683D01*
X309019Y683018D01*
X309666Y683191D01*
X317851Y683191D01*
X317851Y678838D01*
X317854Y678819D01*
X317852Y678799D01*
X317874Y678697D01*
X317890Y678595D01*
X317900Y678578D01*
X317904Y678558D01*
X317957Y678469D01*
X318006Y678378D01*
X318020Y678364D01*
X318030Y678347D01*
X318109Y678280D01*
X318184Y678209D01*
X318202Y678200D01*
X318217Y678187D01*
X318313Y678149D01*
X318407Y678105D01*
X318427Y678103D01*
X318445Y678095D01*
X318454Y678094D01*
X318467Y678019D01*
X318476Y678002D01*
X318480Y677982D01*
X318533Y677893D01*
X318582Y677802D01*
X318596Y677788D01*
X318606Y677771D01*
X318685Y677704D01*
X318760Y677632D01*
X318778Y677624D01*
X318793Y677611D01*
X318890Y677572D01*
X318983Y677529D01*
X319003Y677527D01*
X319021Y677519D01*
X319188Y677501D01*
X330341Y677501D01*
X330341Y676115D01*
X330168Y675469D01*
X329833Y674890D01*
X329548Y674605D01*
X329495Y674531D01*
X329435Y674461D01*
X329423Y674431D01*
X329404Y674405D01*
X329377Y674318D01*
X329343Y674233D01*
X329339Y674192D01*
X329332Y674170D01*
X329333Y674138D01*
X329325Y674066D01*
X329325Y669036D01*
X329328Y669016D01*
X329326Y668997D01*
X329348Y668895D01*
X329364Y668793D01*
X329374Y668776D01*
X329378Y668756D01*
X329431Y668667D01*
X329480Y668576D01*
X329494Y668562D01*
X329504Y668545D01*
X329583Y668478D01*
X329658Y668406D01*
X329676Y668398D01*
X329691Y668385D01*
X329787Y668346D01*
X329881Y668303D01*
X329901Y668301D01*
X329919Y668293D01*
X330086Y668275D01*
X332493Y668275D01*
X332584Y668289D01*
X332674Y668297D01*
X332704Y668309D01*
X332736Y668314D01*
X332817Y668357D01*
X332901Y668393D01*
X332933Y668419D01*
X332954Y668430D01*
X332976Y668453D01*
X333032Y668498D01*
X344252Y679718D01*
X344305Y679792D01*
X344365Y679862D01*
X344377Y679892D01*
X344396Y679918D01*
X344423Y680005D01*
X344457Y680090D01*
X344461Y680131D01*
X344468Y680153D01*
X344467Y680185D01*
X344475Y680257D01*
X344475Y695932D01*
X345368Y696825D01*
X364632Y696825D01*
X365525Y695932D01*
X365525Y679679D01*
X365539Y679588D01*
X365547Y679498D01*
X365559Y679468D01*
X365564Y679436D01*
X365607Y679355D01*
X365643Y679271D01*
X365669Y679239D01*
X365680Y679218D01*
X365703Y679196D01*
X365748Y679140D01*
X369676Y675212D01*
X369734Y675170D01*
X369786Y675121D01*
X369833Y675099D01*
X369875Y675069D01*
X369944Y675048D01*
X370009Y675017D01*
X370061Y675012D01*
X370111Y674996D01*
X370182Y674998D01*
X370253Y674990D01*
X370304Y675001D01*
X370356Y675003D01*
X370424Y675027D01*
X370494Y675042D01*
X370539Y675069D01*
X370587Y675087D01*
X370643Y675132D01*
X370705Y675169D01*
X370739Y675208D01*
X370779Y675241D01*
X370818Y675301D01*
X370865Y675356D01*
X370884Y675404D01*
X370912Y675448D01*
X370930Y675517D01*
X370957Y675584D01*
X370965Y675655D01*
X370973Y675686D01*
X370971Y675710D01*
X370975Y675750D01*
X370975Y681132D01*
X371868Y682025D01*
X389132Y682025D01*
X390025Y681132D01*
X390025Y661868D01*
X389132Y660975D01*
X384048Y660975D01*
X384028Y660972D01*
X384009Y660974D01*
X383907Y660952D01*
X383805Y660936D01*
X383788Y660926D01*
X383768Y660922D01*
X383679Y660869D01*
X383588Y660820D01*
X383574Y660806D01*
X383557Y660796D01*
X383490Y660717D01*
X383418Y660642D01*
X383410Y660624D01*
X383397Y660609D01*
X383358Y660513D01*
X383315Y660419D01*
X383313Y660399D01*
X383305Y660381D01*
X383287Y660214D01*
X383287Y588003D01*
X383301Y587912D01*
X383309Y587822D01*
X383321Y587792D01*
X383326Y587760D01*
X383369Y587679D01*
X383405Y587595D01*
X383431Y587563D01*
X383442Y587542D01*
X383465Y587520D01*
X383510Y587464D01*
X396476Y574498D01*
X396534Y574456D01*
X396586Y574407D01*
X396633Y574385D01*
X396675Y574355D01*
X396744Y574334D01*
X396809Y574303D01*
X396861Y574298D01*
X396911Y574282D01*
X396982Y574284D01*
X397053Y574276D01*
X397104Y574287D01*
X397156Y574289D01*
X397224Y574313D01*
X397294Y574328D01*
X397339Y574355D01*
X397387Y574373D01*
X397443Y574418D01*
X397505Y574455D01*
X397539Y574494D01*
X397579Y574527D01*
X397618Y574587D01*
X397665Y574642D01*
X397684Y574690D01*
X397712Y574734D01*
X397730Y574803D01*
X397757Y574870D01*
X397765Y574941D01*
X397773Y574972D01*
X397771Y574996D01*
X397775Y575036D01*
X397775Y576932D01*
X398668Y577825D01*
X438432Y577825D01*
X439325Y576932D01*
X439325Y520668D01*
X438432Y519775D01*
X398668Y519775D01*
X397775Y520668D01*
X397775Y523006D01*
X397764Y523076D01*
X397762Y523148D01*
X397744Y523197D01*
X397736Y523248D01*
X397702Y523312D01*
X397677Y523379D01*
X397645Y523420D01*
X397620Y523466D01*
X397568Y523515D01*
X397524Y523571D01*
X397480Y523599D01*
X397442Y523635D01*
X397377Y523665D01*
X397317Y523704D01*
X397266Y523717D01*
X397219Y523739D01*
X397148Y523747D01*
X397078Y523764D01*
X397026Y523760D01*
X396975Y523766D01*
X396904Y523751D01*
X396833Y523745D01*
X396785Y523725D01*
X396734Y523714D01*
X396673Y523677D01*
X396607Y523649D01*
X396551Y523604D01*
X396523Y523587D01*
X396508Y523570D01*
X396476Y523544D01*
X389567Y516635D01*
X303777Y516635D01*
X303686Y516621D01*
X303596Y516613D01*
X303566Y516601D01*
X303534Y516596D01*
X303453Y516553D01*
X303369Y516517D01*
X303337Y516491D01*
X303316Y516480D01*
X303294Y516457D01*
X303238Y516412D01*
X132754Y345928D01*
X132712Y345870D01*
X132663Y345818D01*
X132641Y345771D01*
X132611Y345729D01*
X132590Y345660D01*
X132559Y345595D01*
X132554Y345543D01*
X132538Y345493D01*
X132540Y345422D01*
X132532Y345351D01*
X132543Y345300D01*
X132545Y345248D01*
X132569Y345180D01*
X132584Y345110D01*
X132611Y345066D01*
X132629Y345017D01*
X132674Y344961D01*
X132711Y344899D01*
X132750Y344865D01*
X132783Y344825D01*
X132843Y344786D01*
X132898Y344739D01*
X132946Y344720D01*
X132990Y344692D01*
X133059Y344674D01*
X133126Y344647D01*
X133197Y344639D01*
X133228Y344631D01*
X133252Y344633D01*
X133292Y344629D01*
X136667Y344629D01*
X136766Y344530D01*
X136782Y344519D01*
X136794Y344503D01*
X136881Y344447D01*
X136965Y344387D01*
X136984Y344381D01*
X137001Y344370D01*
X137101Y344345D01*
X137200Y344314D01*
X137220Y344315D01*
X137240Y344310D01*
X137343Y344318D01*
X137446Y344321D01*
X137465Y344327D01*
X137485Y344329D01*
X137580Y344369D01*
X137677Y344405D01*
X137693Y344418D01*
X137711Y344425D01*
X137842Y344530D01*
X156025Y362713D01*
X260027Y362713D01*
X261572Y361168D01*
X261630Y361126D01*
X261682Y361077D01*
X261729Y361055D01*
X261771Y361025D01*
X261840Y361004D01*
X261905Y360973D01*
X261957Y360968D01*
X262007Y360952D01*
X262078Y360954D01*
X262149Y360946D01*
X262200Y360957D01*
X262252Y360959D01*
X262320Y360983D01*
X262390Y360998D01*
X262435Y361025D01*
X262483Y361043D01*
X262539Y361088D01*
X262601Y361125D01*
X262635Y361164D01*
X262675Y361197D01*
X262714Y361257D01*
X262761Y361312D01*
X262780Y361360D01*
X262808Y361404D01*
X262826Y361473D01*
X262853Y361540D01*
X262861Y361611D01*
X262869Y361642D01*
X262867Y361666D01*
X262871Y361706D01*
X262871Y364467D01*
X267666Y369262D01*
X267705Y369268D01*
X267722Y369278D01*
X267742Y369282D01*
X267831Y369335D01*
X267922Y369384D01*
X267936Y369398D01*
X267953Y369408D01*
X268020Y369487D01*
X268092Y369562D01*
X268100Y369580D01*
X268113Y369595D01*
X268152Y369691D01*
X268195Y369785D01*
X268197Y369805D01*
X268205Y369823D01*
X268223Y369990D01*
X268223Y370593D01*
X268209Y370684D01*
X268201Y370774D01*
X268189Y370804D01*
X268184Y370836D01*
X268141Y370917D01*
X268105Y371001D01*
X268079Y371033D01*
X268068Y371054D01*
X268045Y371076D01*
X268000Y371132D01*
X260480Y378652D01*
X260406Y378705D01*
X260336Y378765D01*
X260306Y378777D01*
X260280Y378796D01*
X260193Y378823D01*
X260108Y378857D01*
X260067Y378861D01*
X260045Y378868D01*
X260013Y378867D01*
X259941Y378875D01*
X234768Y378875D01*
X233875Y379768D01*
X233875Y400032D01*
X234768Y400925D01*
X270032Y400925D01*
X270925Y400032D01*
X270925Y379768D01*
X270032Y378875D01*
X268562Y378875D01*
X268492Y378864D01*
X268420Y378862D01*
X268371Y378844D01*
X268320Y378836D01*
X268256Y378802D01*
X268189Y378777D01*
X268148Y378745D01*
X268102Y378720D01*
X268053Y378668D01*
X267997Y378624D01*
X267969Y378580D01*
X267933Y378542D01*
X267903Y378477D01*
X267864Y378417D01*
X267851Y378366D01*
X267829Y378319D01*
X267821Y378248D01*
X267804Y378178D01*
X267808Y378126D01*
X267802Y378075D01*
X267817Y378004D01*
X267823Y377933D01*
X267843Y377885D01*
X267854Y377834D01*
X267891Y377773D01*
X267919Y377707D01*
X267964Y377651D01*
X267981Y377623D01*
X267998Y377608D01*
X268024Y377576D01*
X272797Y372803D01*
X272797Y369990D01*
X272800Y369970D01*
X272798Y369951D01*
X272820Y369849D01*
X272836Y369747D01*
X272846Y369730D01*
X272850Y369710D01*
X272903Y369621D01*
X272952Y369530D01*
X272966Y369516D01*
X272976Y369499D01*
X273055Y369432D01*
X273130Y369360D01*
X273148Y369352D01*
X273163Y369339D01*
X273259Y369300D01*
X273353Y369257D01*
X273373Y369255D01*
X273391Y369247D01*
X273558Y369229D01*
X274367Y369229D01*
X279129Y364467D01*
X279129Y357733D01*
X274367Y352971D01*
X271606Y352971D01*
X271536Y352960D01*
X271464Y352958D01*
X271415Y352940D01*
X271364Y352932D01*
X271300Y352898D01*
X271233Y352873D01*
X271192Y352841D01*
X271146Y352816D01*
X271097Y352765D01*
X271041Y352720D01*
X271013Y352676D01*
X270977Y352638D01*
X270947Y352573D01*
X270908Y352513D01*
X270895Y352462D01*
X270873Y352415D01*
X270865Y352344D01*
X270848Y352274D01*
X270852Y352222D01*
X270846Y352171D01*
X270861Y352100D01*
X270867Y352029D01*
X270887Y351981D01*
X270898Y351930D01*
X270935Y351869D01*
X270963Y351803D01*
X271008Y351747D01*
X271025Y351719D01*
X271042Y351704D01*
X271068Y351672D01*
X281140Y341600D01*
X282703Y340037D01*
X282703Y331285D01*
X281140Y329722D01*
X275142Y323724D01*
X275100Y323666D01*
X275051Y323614D01*
X275029Y323567D01*
X274999Y323525D01*
X274978Y323456D01*
X274947Y323391D01*
X274942Y323339D01*
X274926Y323289D01*
X274928Y323218D01*
X274920Y323147D01*
X274931Y323096D01*
X274933Y323044D01*
X274957Y322976D01*
X274972Y322906D01*
X274999Y322861D01*
X275017Y322813D01*
X275062Y322757D01*
X275099Y322695D01*
X275138Y322661D01*
X275171Y322621D01*
X275231Y322582D01*
X275286Y322535D01*
X275334Y322516D01*
X275378Y322488D01*
X275447Y322470D01*
X275514Y322443D01*
X275585Y322435D01*
X275616Y322427D01*
X275640Y322429D01*
X275680Y322425D01*
X280032Y322425D01*
X280925Y321532D01*
X280925Y315714D01*
X280936Y315644D01*
X280938Y315572D01*
X280956Y315523D01*
X280964Y315472D01*
X280998Y315408D01*
X281023Y315341D01*
X281055Y315300D01*
X281080Y315254D01*
X281132Y315205D01*
X281176Y315149D01*
X281220Y315121D01*
X281258Y315085D01*
X281323Y315055D01*
X281383Y315016D01*
X281434Y315003D01*
X281481Y314981D01*
X281552Y314973D01*
X281622Y314956D01*
X281674Y314960D01*
X281725Y314954D01*
X281796Y314969D01*
X281867Y314975D01*
X281915Y314995D01*
X281966Y315006D01*
X282027Y315043D01*
X282093Y315071D01*
X282149Y315116D01*
X282177Y315133D01*
X282192Y315150D01*
X282224Y315176D01*
X283240Y316192D01*
X284145Y317097D01*
X284170Y317132D01*
X284203Y317162D01*
X284242Y317232D01*
X284288Y317296D01*
X284301Y317338D01*
X284322Y317377D01*
X284337Y317455D01*
X284361Y317531D01*
X284359Y317575D01*
X284367Y317618D01*
X284356Y317697D01*
X284354Y317777D01*
X284339Y317818D01*
X284333Y317862D01*
X284275Y317995D01*
X284270Y318008D01*
X284268Y318011D01*
X284266Y318015D01*
X284032Y318419D01*
X283859Y319066D01*
X283859Y320139D01*
X294400Y320139D01*
X304941Y320139D01*
X304941Y319278D01*
X304944Y319258D01*
X304942Y319239D01*
X304964Y319137D01*
X304980Y319035D01*
X304990Y319018D01*
X304994Y318998D01*
X305047Y318909D01*
X305096Y318818D01*
X305110Y318804D01*
X305120Y318787D01*
X305199Y318720D01*
X305274Y318648D01*
X305292Y318640D01*
X305307Y318627D01*
X305403Y318588D01*
X305497Y318545D01*
X305517Y318543D01*
X305535Y318535D01*
X305702Y318517D01*
X322587Y318517D01*
X322678Y318531D01*
X322768Y318539D01*
X322798Y318551D01*
X322830Y318556D01*
X322911Y318599D01*
X322995Y318635D01*
X323027Y318661D01*
X323048Y318672D01*
X323070Y318695D01*
X323126Y318740D01*
X327157Y322771D01*
X327169Y322787D01*
X327184Y322799D01*
X327240Y322887D01*
X327300Y322971D01*
X327306Y322990D01*
X327317Y323006D01*
X327342Y323107D01*
X327373Y323206D01*
X327372Y323226D01*
X327377Y323245D01*
X327369Y323348D01*
X327366Y323451D01*
X327360Y323470D01*
X327358Y323490D01*
X327318Y323585D01*
X327282Y323683D01*
X327269Y323698D01*
X327262Y323716D01*
X327157Y323847D01*
X322871Y328133D01*
X322871Y334867D01*
X327633Y339629D01*
X328422Y339629D01*
X328442Y339632D01*
X328461Y339630D01*
X328563Y339652D01*
X328665Y339668D01*
X328682Y339678D01*
X328702Y339682D01*
X328791Y339735D01*
X328882Y339784D01*
X328896Y339798D01*
X328913Y339808D01*
X328980Y339887D01*
X329052Y339962D01*
X329060Y339980D01*
X329073Y339995D01*
X329112Y340091D01*
X329155Y340185D01*
X329157Y340205D01*
X329165Y340223D01*
X329183Y340390D01*
X329183Y360114D01*
X329180Y360134D01*
X329182Y360153D01*
X329160Y360255D01*
X329144Y360357D01*
X329134Y360374D01*
X329130Y360394D01*
X329077Y360483D01*
X329028Y360574D01*
X329014Y360588D01*
X329004Y360605D01*
X328925Y360672D01*
X328850Y360744D01*
X328832Y360752D01*
X328817Y360765D01*
X328721Y360804D01*
X328627Y360847D01*
X328607Y360849D01*
X328589Y360857D01*
X328422Y360875D01*
X316768Y360875D01*
X315875Y361768D01*
X315875Y382032D01*
X316768Y382925D01*
X352032Y382925D01*
X352925Y382032D01*
X352925Y361768D01*
X352032Y360875D01*
X334518Y360875D01*
X334498Y360872D01*
X334479Y360874D01*
X334377Y360852D01*
X334275Y360836D01*
X334258Y360826D01*
X334238Y360822D01*
X334149Y360769D01*
X334058Y360720D01*
X334044Y360706D01*
X334027Y360696D01*
X333960Y360617D01*
X333888Y360542D01*
X333880Y360524D01*
X333867Y360509D01*
X333828Y360413D01*
X333785Y360319D01*
X333783Y360299D01*
X333775Y360281D01*
X333757Y360114D01*
X333757Y340390D01*
X333760Y340370D01*
X333758Y340351D01*
X333780Y340249D01*
X333796Y340147D01*
X333806Y340130D01*
X333810Y340110D01*
X333863Y340021D01*
X333912Y339930D01*
X333926Y339916D01*
X333936Y339899D01*
X334015Y339832D01*
X334090Y339760D01*
X334108Y339752D01*
X334123Y339739D01*
X334219Y339700D01*
X334313Y339657D01*
X334333Y339655D01*
X334347Y339649D01*
X339129Y334867D01*
X339129Y328133D01*
X336908Y325912D01*
X336866Y325854D01*
X336817Y325802D01*
X336795Y325755D01*
X336764Y325713D01*
X336743Y325644D01*
X336713Y325579D01*
X336707Y325527D01*
X336692Y325477D01*
X336694Y325406D01*
X336686Y325335D01*
X336697Y325284D01*
X336698Y325232D01*
X336723Y325164D01*
X336738Y325094D01*
X336765Y325049D01*
X336783Y325001D01*
X336828Y324945D01*
X336865Y324883D01*
X336904Y324849D01*
X336937Y324809D01*
X336997Y324770D01*
X337051Y324723D01*
X337100Y324704D01*
X337144Y324676D01*
X337213Y324658D01*
X337280Y324631D01*
X337351Y324623D01*
X337382Y324615D01*
X337405Y324617D01*
X337446Y324613D01*
X385071Y324613D01*
X385162Y324627D01*
X385252Y324635D01*
X385282Y324647D01*
X385314Y324652D01*
X385395Y324695D01*
X385479Y324731D01*
X385511Y324757D01*
X385532Y324768D01*
X385554Y324791D01*
X385610Y324836D01*
X394251Y333477D01*
X394263Y333493D01*
X394278Y333505D01*
X394334Y333593D01*
X394394Y333677D01*
X394400Y333696D01*
X394411Y333712D01*
X394436Y333813D01*
X394467Y333912D01*
X394466Y333932D01*
X394471Y333951D01*
X394463Y334054D01*
X394460Y334157D01*
X394454Y334176D01*
X394452Y334196D01*
X394412Y334291D01*
X394376Y334389D01*
X394363Y334404D01*
X394356Y334422D01*
X394251Y334553D01*
X393871Y334933D01*
X393871Y341667D01*
X398633Y346429D01*
X405367Y346429D01*
X410129Y341667D01*
X410129Y334933D01*
X409704Y334508D01*
X409692Y334492D01*
X409677Y334480D01*
X409621Y334393D01*
X409561Y334309D01*
X409555Y334290D01*
X409544Y334273D01*
X409519Y334172D01*
X409488Y334074D01*
X409489Y334054D01*
X409484Y334034D01*
X409492Y333931D01*
X409495Y333828D01*
X409501Y333809D01*
X409503Y333789D01*
X409543Y333694D01*
X409579Y333597D01*
X409592Y333581D01*
X409599Y333563D01*
X409704Y333432D01*
X420586Y322550D01*
X420660Y322497D01*
X420730Y322437D01*
X420760Y322425D01*
X420786Y322406D01*
X420873Y322379D01*
X420958Y322345D01*
X420999Y322341D01*
X421021Y322334D01*
X421053Y322335D01*
X421124Y322327D01*
X433614Y322327D01*
X433634Y322330D01*
X433653Y322328D01*
X433755Y322350D01*
X433857Y322366D01*
X433874Y322376D01*
X433894Y322380D01*
X433983Y322433D01*
X434074Y322482D01*
X434088Y322496D01*
X434105Y322506D01*
X434172Y322585D01*
X434244Y322660D01*
X434252Y322678D01*
X434265Y322693D01*
X434304Y322789D01*
X434347Y322883D01*
X434349Y322903D01*
X434357Y322921D01*
X434375Y323088D01*
X434375Y332332D01*
X435268Y333225D01*
X458532Y333225D01*
X459425Y332332D01*
X459425Y317068D01*
X458532Y316175D01*
X444246Y316175D01*
X444226Y316172D01*
X444207Y316174D01*
X444105Y316152D01*
X444003Y316136D01*
X443986Y316126D01*
X443966Y316122D01*
X443877Y316069D01*
X443786Y316020D01*
X443772Y316006D01*
X443755Y315996D01*
X443688Y315917D01*
X443616Y315842D01*
X443608Y315824D01*
X443595Y315809D01*
X443556Y315713D01*
X443513Y315619D01*
X443511Y315599D01*
X443503Y315581D01*
X443485Y315414D01*
X443485Y292786D01*
X443488Y292766D01*
X443486Y292747D01*
X443508Y292645D01*
X443524Y292543D01*
X443534Y292526D01*
X443538Y292506D01*
X443591Y292417D01*
X443640Y292326D01*
X443654Y292312D01*
X443664Y292295D01*
X443743Y292228D01*
X443818Y292156D01*
X443836Y292148D01*
X443851Y292135D01*
X443947Y292096D01*
X444041Y292053D01*
X444061Y292051D01*
X444079Y292043D01*
X444246Y292025D01*
X449532Y292025D01*
X450425Y291132D01*
X450425Y271868D01*
X449532Y270975D01*
X432268Y270975D01*
X431375Y271868D01*
X431375Y291132D01*
X432268Y292025D01*
X438150Y292025D01*
X438170Y292028D01*
X438189Y292026D01*
X438291Y292048D01*
X438393Y292064D01*
X438410Y292074D01*
X438430Y292078D01*
X438519Y292131D01*
X438610Y292180D01*
X438624Y292194D01*
X438641Y292204D01*
X438708Y292283D01*
X438780Y292358D01*
X438788Y292376D01*
X438801Y292391D01*
X438840Y292487D01*
X438883Y292581D01*
X438885Y292601D01*
X438893Y292619D01*
X438911Y292786D01*
X438911Y315414D01*
X438908Y315434D01*
X438910Y315453D01*
X438888Y315555D01*
X438872Y315657D01*
X438862Y315674D01*
X438858Y315694D01*
X438805Y315783D01*
X438756Y315874D01*
X438742Y315888D01*
X438732Y315905D01*
X438653Y315972D01*
X438578Y316044D01*
X438560Y316052D01*
X438545Y316065D01*
X438449Y316104D01*
X438355Y316147D01*
X438335Y316149D01*
X438317Y316157D01*
X438150Y316175D01*
X435268Y316175D01*
X434364Y317080D01*
X434352Y317133D01*
X434336Y317235D01*
X434326Y317252D01*
X434322Y317272D01*
X434269Y317361D01*
X434220Y317452D01*
X434206Y317466D01*
X434196Y317483D01*
X434117Y317550D01*
X434042Y317622D01*
X434024Y317630D01*
X434009Y317643D01*
X433913Y317682D01*
X433819Y317725D01*
X433799Y317727D01*
X433781Y317735D01*
X433614Y317753D01*
X418915Y317753D01*
X417352Y319316D01*
X406470Y330198D01*
X406454Y330210D01*
X406442Y330225D01*
X406354Y330281D01*
X406270Y330341D01*
X406251Y330347D01*
X406235Y330358D01*
X406134Y330383D01*
X406035Y330414D01*
X406015Y330413D01*
X405996Y330418D01*
X405893Y330410D01*
X405789Y330407D01*
X405771Y330401D01*
X405751Y330399D01*
X405656Y330359D01*
X405558Y330323D01*
X405543Y330311D01*
X405525Y330303D01*
X405394Y330198D01*
X405367Y330171D01*
X398633Y330171D01*
X398561Y330243D01*
X398545Y330254D01*
X398533Y330270D01*
X398446Y330326D01*
X398362Y330386D01*
X398343Y330392D01*
X398326Y330403D01*
X398226Y330428D01*
X398127Y330459D01*
X398107Y330458D01*
X398087Y330463D01*
X397984Y330455D01*
X397881Y330452D01*
X397862Y330446D01*
X397842Y330444D01*
X397747Y330404D01*
X397650Y330368D01*
X397634Y330355D01*
X397616Y330348D01*
X397485Y330243D01*
X387281Y320039D01*
X331209Y320039D01*
X331119Y320025D01*
X331028Y320017D01*
X330998Y320005D01*
X330966Y320000D01*
X330885Y319957D01*
X330801Y319921D01*
X330769Y319895D01*
X330748Y319884D01*
X330726Y319861D01*
X330670Y319816D01*
X329908Y319054D01*
X329866Y318996D01*
X329817Y318944D01*
X329795Y318897D01*
X329765Y318855D01*
X329744Y318786D01*
X329713Y318721D01*
X329708Y318669D01*
X329692Y318619D01*
X329694Y318548D01*
X329686Y318477D01*
X329697Y318426D01*
X329699Y318374D01*
X329723Y318306D01*
X329738Y318236D01*
X329765Y318191D01*
X329783Y318143D01*
X329828Y318087D01*
X329865Y318025D01*
X329904Y317991D01*
X329937Y317951D01*
X329997Y317912D01*
X330052Y317865D01*
X330100Y317846D01*
X330144Y317818D01*
X330213Y317800D01*
X330280Y317773D01*
X330351Y317765D01*
X330382Y317757D01*
X330406Y317759D01*
X330446Y317755D01*
X362897Y317755D01*
X365490Y315162D01*
X365506Y315150D01*
X365518Y315135D01*
X365606Y315079D01*
X365690Y315019D01*
X365709Y315013D01*
X365725Y315002D01*
X365826Y314977D01*
X365925Y314946D01*
X365945Y314947D01*
X365964Y314942D01*
X366067Y314950D01*
X366170Y314953D01*
X366189Y314959D01*
X366209Y314961D01*
X366304Y315001D01*
X366402Y315037D01*
X366417Y315049D01*
X366435Y315057D01*
X366566Y315162D01*
X366633Y315229D01*
X373367Y315229D01*
X373666Y314930D01*
X373740Y314876D01*
X373809Y314817D01*
X373840Y314805D01*
X373866Y314786D01*
X373953Y314759D01*
X374038Y314725D01*
X374078Y314721D01*
X374101Y314714D01*
X374133Y314715D01*
X374204Y314707D01*
X393110Y314707D01*
X393130Y314710D01*
X393149Y314708D01*
X393251Y314730D01*
X393353Y314746D01*
X393370Y314756D01*
X393390Y314760D01*
X393479Y314813D01*
X393570Y314862D01*
X393584Y314876D01*
X393601Y314886D01*
X393668Y314965D01*
X393740Y315040D01*
X393748Y315058D01*
X393761Y315073D01*
X393800Y315169D01*
X393843Y315263D01*
X393845Y315283D01*
X393853Y315301D01*
X393871Y315468D01*
X393871Y316267D01*
X398633Y321029D01*
X405367Y321029D01*
X410129Y316267D01*
X410129Y309533D01*
X409831Y309235D01*
X409819Y309219D01*
X409804Y309207D01*
X409748Y309120D01*
X409688Y309036D01*
X409682Y309017D01*
X409671Y309000D01*
X409646Y308899D01*
X409615Y308801D01*
X409616Y308781D01*
X409611Y308761D01*
X409619Y308658D01*
X409622Y308555D01*
X409628Y308536D01*
X409630Y308516D01*
X409670Y308421D01*
X409706Y308324D01*
X409719Y308308D01*
X409726Y308290D01*
X409831Y308159D01*
X414529Y303461D01*
X414529Y292786D01*
X414532Y292766D01*
X414530Y292747D01*
X414552Y292645D01*
X414568Y292543D01*
X414578Y292526D01*
X414582Y292506D01*
X414635Y292417D01*
X414684Y292326D01*
X414698Y292312D01*
X414708Y292295D01*
X414787Y292228D01*
X414862Y292156D01*
X414880Y292148D01*
X414895Y292135D01*
X414991Y292096D01*
X415085Y292053D01*
X415105Y292051D01*
X415123Y292043D01*
X415290Y292025D01*
X421532Y292025D01*
X422425Y291132D01*
X422425Y271868D01*
X421532Y270975D01*
X404268Y270975D01*
X403375Y271868D01*
X403375Y291132D01*
X404268Y292025D01*
X409194Y292025D01*
X409214Y292028D01*
X409233Y292026D01*
X409335Y292048D01*
X409437Y292064D01*
X409454Y292074D01*
X409474Y292078D01*
X409563Y292131D01*
X409654Y292180D01*
X409668Y292194D01*
X409685Y292204D01*
X409752Y292283D01*
X409824Y292358D01*
X409832Y292376D01*
X409845Y292391D01*
X409884Y292487D01*
X409927Y292581D01*
X409929Y292601D01*
X409937Y292619D01*
X409955Y292786D01*
X409955Y301251D01*
X409941Y301342D01*
X409933Y301432D01*
X409921Y301462D01*
X409916Y301494D01*
X409873Y301575D01*
X409837Y301659D01*
X409811Y301691D01*
X409800Y301712D01*
X409777Y301734D01*
X409732Y301790D01*
X406597Y304925D01*
X406581Y304937D01*
X406569Y304952D01*
X406481Y305008D01*
X406397Y305068D01*
X406378Y305074D01*
X406362Y305085D01*
X406261Y305110D01*
X406162Y305141D01*
X406142Y305140D01*
X406123Y305145D01*
X406020Y305137D01*
X405917Y305134D01*
X405898Y305128D01*
X405878Y305126D01*
X405783Y305086D01*
X405685Y305050D01*
X405670Y305037D01*
X405652Y305030D01*
X405521Y304925D01*
X405367Y304771D01*
X398633Y304771D01*
X393840Y309564D01*
X393832Y309615D01*
X393822Y309632D01*
X393818Y309652D01*
X393765Y309741D01*
X393716Y309832D01*
X393702Y309846D01*
X393692Y309863D01*
X393613Y309930D01*
X393538Y310002D01*
X393520Y310010D01*
X393505Y310023D01*
X393409Y310062D01*
X393315Y310105D01*
X393295Y310107D01*
X393277Y310115D01*
X393110Y310133D01*
X378890Y310133D01*
X378870Y310130D01*
X378851Y310132D01*
X378749Y310110D01*
X378647Y310094D01*
X378630Y310084D01*
X378610Y310080D01*
X378521Y310027D01*
X378430Y309978D01*
X378416Y309964D01*
X378399Y309954D01*
X378332Y309875D01*
X378260Y309800D01*
X378252Y309782D01*
X378239Y309767D01*
X378200Y309671D01*
X378157Y309577D01*
X378155Y309557D01*
X378147Y309539D01*
X378129Y309372D01*
X378129Y303733D01*
X373367Y298971D01*
X366633Y298971D01*
X361871Y303733D01*
X361871Y310467D01*
X362256Y310852D01*
X362268Y310868D01*
X362283Y310880D01*
X362339Y310967D01*
X362399Y311051D01*
X362405Y311070D01*
X362416Y311087D01*
X362441Y311188D01*
X362472Y311286D01*
X362471Y311306D01*
X362476Y311326D01*
X362468Y311429D01*
X362465Y311532D01*
X362459Y311551D01*
X362457Y311571D01*
X362417Y311666D01*
X362381Y311763D01*
X362369Y311779D01*
X362361Y311797D01*
X362256Y311928D01*
X361226Y312958D01*
X361152Y313011D01*
X361082Y313071D01*
X361052Y313083D01*
X361026Y313102D01*
X360939Y313129D01*
X360854Y313163D01*
X360813Y313167D01*
X360791Y313174D01*
X360759Y313173D01*
X360687Y313181D01*
X337252Y313181D01*
X337182Y313170D01*
X337110Y313168D01*
X337061Y313150D01*
X337010Y313142D01*
X336946Y313108D01*
X336879Y313083D01*
X336838Y313051D01*
X336792Y313026D01*
X336743Y312974D01*
X336687Y312930D01*
X336659Y312886D01*
X336623Y312848D01*
X336593Y312783D01*
X336554Y312723D01*
X336541Y312672D01*
X336519Y312625D01*
X336511Y312554D01*
X336494Y312484D01*
X336498Y312432D01*
X336492Y312381D01*
X336507Y312310D01*
X336513Y312239D01*
X336533Y312191D01*
X336544Y312140D01*
X336581Y312079D01*
X336609Y312013D01*
X336654Y311957D01*
X336671Y311929D01*
X336688Y311914D01*
X336714Y311882D01*
X339129Y309467D01*
X339129Y302733D01*
X334367Y297971D01*
X327633Y297971D01*
X323626Y301978D01*
X323568Y302020D01*
X323516Y302069D01*
X323469Y302091D01*
X323427Y302122D01*
X323358Y302143D01*
X323293Y302173D01*
X323241Y302179D01*
X323191Y302194D01*
X323120Y302192D01*
X323049Y302200D01*
X322998Y302189D01*
X322946Y302188D01*
X322878Y302163D01*
X322808Y302148D01*
X322763Y302121D01*
X322715Y302103D01*
X322659Y302058D01*
X322597Y302021D01*
X322563Y301982D01*
X322523Y301949D01*
X322484Y301889D01*
X322437Y301835D01*
X322418Y301786D01*
X322390Y301742D01*
X322372Y301673D01*
X322345Y301606D01*
X322337Y301535D01*
X322329Y301504D01*
X322331Y301481D01*
X322327Y301440D01*
X322327Y281890D01*
X322330Y281870D01*
X322328Y281851D01*
X322350Y281749D01*
X322366Y281647D01*
X322376Y281630D01*
X322380Y281610D01*
X322433Y281521D01*
X322482Y281430D01*
X322496Y281416D01*
X322506Y281399D01*
X322585Y281332D01*
X322660Y281260D01*
X322678Y281252D01*
X322693Y281239D01*
X322789Y281200D01*
X322883Y281157D01*
X322903Y281155D01*
X322921Y281147D01*
X323088Y281129D01*
X323467Y281129D01*
X328229Y276367D01*
X328229Y269633D01*
X323467Y264871D01*
X323088Y264871D01*
X323068Y264868D01*
X323049Y264870D01*
X322947Y264848D01*
X322845Y264832D01*
X322828Y264822D01*
X322808Y264818D01*
X322719Y264765D01*
X322628Y264716D01*
X322614Y264702D01*
X322597Y264692D01*
X322530Y264613D01*
X322458Y264538D01*
X322450Y264520D01*
X322437Y264505D01*
X322398Y264409D01*
X322355Y264315D01*
X322353Y264295D01*
X322345Y264277D01*
X322327Y264110D01*
X322327Y232786D01*
X322330Y232766D01*
X322328Y232747D01*
X322350Y232645D01*
X322366Y232543D01*
X322376Y232526D01*
X322380Y232506D01*
X322433Y232417D01*
X322482Y232326D01*
X322496Y232312D01*
X322506Y232295D01*
X322585Y232228D01*
X322660Y232156D01*
X322678Y232148D01*
X322693Y232135D01*
X322789Y232096D01*
X322883Y232053D01*
X322903Y232051D01*
X322921Y232043D01*
X323088Y232025D01*
X327932Y232025D01*
X328825Y231132D01*
X328825Y215786D01*
X328836Y215716D01*
X328838Y215644D01*
X328856Y215595D01*
X328864Y215544D01*
X328898Y215480D01*
X328923Y215413D01*
X328955Y215372D01*
X328980Y215326D01*
X329032Y215277D01*
X329076Y215221D01*
X329120Y215193D01*
X329158Y215157D01*
X329223Y215127D01*
X329283Y215088D01*
X329334Y215075D01*
X329381Y215053D01*
X329452Y215045D01*
X329522Y215028D01*
X329574Y215032D01*
X329625Y215026D01*
X329696Y215041D01*
X329767Y215047D01*
X329815Y215067D01*
X329866Y215078D01*
X329927Y215115D01*
X329993Y215143D01*
X330049Y215188D01*
X330077Y215205D01*
X330092Y215222D01*
X330124Y215248D01*
X345763Y230887D01*
X388805Y230887D01*
X430531Y189161D01*
X430531Y108186D01*
X430534Y108166D01*
X430532Y108147D01*
X430554Y108045D01*
X430570Y107943D01*
X430580Y107926D01*
X430584Y107906D01*
X430637Y107817D01*
X430686Y107726D01*
X430700Y107712D01*
X430710Y107695D01*
X430789Y107628D01*
X430864Y107556D01*
X430882Y107548D01*
X430897Y107535D01*
X430993Y107496D01*
X431087Y107453D01*
X431107Y107451D01*
X431125Y107443D01*
X431292Y107425D01*
X442432Y107425D01*
X443325Y106532D01*
X443325Y89268D01*
X442432Y88375D01*
X414168Y88375D01*
X413275Y89268D01*
X413275Y106532D01*
X414168Y107425D01*
X425196Y107425D01*
X425216Y107428D01*
X425235Y107426D01*
X425337Y107448D01*
X425439Y107464D01*
X425456Y107474D01*
X425476Y107478D01*
X425565Y107531D01*
X425656Y107580D01*
X425670Y107594D01*
X425687Y107604D01*
X425754Y107683D01*
X425826Y107758D01*
X425834Y107776D01*
X425847Y107791D01*
X425886Y107887D01*
X425929Y107981D01*
X425931Y108001D01*
X425939Y108019D01*
X425957Y108186D01*
X425957Y186951D01*
X425943Y187042D01*
X425935Y187132D01*
X425923Y187162D01*
X425918Y187194D01*
X425875Y187275D01*
X425839Y187359D01*
X425813Y187391D01*
X425802Y187412D01*
X425779Y187434D01*
X425734Y187490D01*
X389424Y223800D01*
X389366Y223842D01*
X389314Y223891D01*
X389267Y223913D01*
X389225Y223943D01*
X389156Y223964D01*
X389091Y223995D01*
X389039Y224000D01*
X388989Y224016D01*
X388918Y224014D01*
X388847Y224022D01*
X388796Y224011D01*
X388744Y224009D01*
X388676Y223985D01*
X388606Y223970D01*
X388561Y223943D01*
X388513Y223925D01*
X388457Y223880D01*
X388395Y223843D01*
X388361Y223804D01*
X388321Y223771D01*
X388282Y223711D01*
X388235Y223656D01*
X388216Y223608D01*
X388188Y223564D01*
X388170Y223495D01*
X388143Y223428D01*
X388135Y223357D01*
X388127Y223326D01*
X388129Y223302D01*
X388125Y223262D01*
X388125Y206468D01*
X387232Y205575D01*
X362287Y205575D01*
X362196Y205561D01*
X362106Y205553D01*
X362076Y205541D01*
X362044Y205536D01*
X361963Y205493D01*
X361879Y205457D01*
X361847Y205431D01*
X361826Y205420D01*
X361804Y205397D01*
X361748Y205352D01*
X353792Y197396D01*
X353739Y197322D01*
X353679Y197252D01*
X353667Y197222D01*
X353648Y197196D01*
X353621Y197109D01*
X353587Y197024D01*
X353583Y196983D01*
X353576Y196961D01*
X353577Y196929D01*
X353569Y196857D01*
X353569Y187651D01*
X353580Y187581D01*
X353582Y187509D01*
X353600Y187460D01*
X353608Y187409D01*
X353642Y187345D01*
X353667Y187278D01*
X353699Y187237D01*
X353724Y187191D01*
X353776Y187142D01*
X353820Y187086D01*
X353864Y187058D01*
X353902Y187022D01*
X353967Y186992D01*
X354027Y186953D01*
X354078Y186940D01*
X354125Y186918D01*
X354196Y186910D01*
X354266Y186893D01*
X354318Y186897D01*
X354369Y186891D01*
X354440Y186906D01*
X354511Y186912D01*
X354559Y186932D01*
X354610Y186943D01*
X354671Y186980D01*
X354737Y187008D01*
X354793Y187053D01*
X354821Y187070D01*
X354836Y187087D01*
X354868Y187113D01*
X355180Y187425D01*
X359576Y187425D01*
X362685Y184316D01*
X362685Y179920D01*
X359888Y177123D01*
X359835Y177049D01*
X359775Y176979D01*
X359763Y176949D01*
X359744Y176923D01*
X359717Y176836D01*
X359683Y176751D01*
X359679Y176710D01*
X359672Y176688D01*
X359673Y176656D01*
X359665Y176585D01*
X359665Y83886D01*
X359668Y83866D01*
X359666Y83847D01*
X359688Y83745D01*
X359704Y83643D01*
X359714Y83626D01*
X359718Y83606D01*
X359771Y83517D01*
X359820Y83426D01*
X359834Y83412D01*
X359844Y83395D01*
X359923Y83328D01*
X359998Y83256D01*
X360016Y83248D01*
X360031Y83235D01*
X360127Y83196D01*
X360221Y83153D01*
X360241Y83151D01*
X360259Y83143D01*
X360426Y83125D01*
X368732Y83125D01*
X369625Y82232D01*
X369625Y64968D01*
X368732Y64075D01*
X347468Y64075D01*
X346575Y64968D01*
X346575Y82232D01*
X347468Y83125D01*
X354330Y83125D01*
X354350Y83128D01*
X354369Y83126D01*
X354471Y83148D01*
X354573Y83164D01*
X354590Y83174D01*
X354610Y83178D01*
X354699Y83231D01*
X354790Y83280D01*
X354804Y83294D01*
X354821Y83304D01*
X354888Y83383D01*
X354960Y83458D01*
X354968Y83476D01*
X354981Y83491D01*
X355020Y83587D01*
X355063Y83681D01*
X355065Y83701D01*
X355073Y83719D01*
X355091Y83886D01*
X355091Y176585D01*
X355076Y176676D01*
X355069Y176768D01*
X355055Y176805D01*
X355052Y176827D01*
X355051Y176827D01*
X355036Y176856D01*
X355011Y176925D01*
X354969Y176982D01*
X354936Y177045D01*
X354898Y177081D01*
X354867Y177124D01*
X354809Y177165D01*
X354758Y177214D01*
X354710Y177236D01*
X354667Y177267D01*
X354599Y177288D01*
X354535Y177318D01*
X354482Y177324D01*
X354431Y177339D01*
X354361Y177337D01*
X354291Y177345D01*
X354239Y177334D01*
X354185Y177332D01*
X354119Y177308D01*
X354050Y177293D01*
X354005Y177265D01*
X353955Y177247D01*
X353900Y177203D01*
X353839Y177166D01*
X353805Y177126D01*
X353763Y177093D01*
X353725Y177033D01*
X353679Y176979D01*
X353659Y176930D01*
X353631Y176885D01*
X353614Y176817D01*
X353587Y176751D01*
X353579Y176678D01*
X353571Y176647D01*
X353573Y176624D01*
X353569Y176585D01*
X353569Y104971D01*
X352006Y103408D01*
X309662Y61064D01*
X309620Y61006D01*
X309571Y60954D01*
X309549Y60907D01*
X309519Y60865D01*
X309498Y60796D01*
X309467Y60731D01*
X309462Y60679D01*
X309446Y60629D01*
X309448Y60558D01*
X309440Y60487D01*
X309451Y60436D01*
X309453Y60384D01*
X309477Y60316D01*
X309492Y60246D01*
X309519Y60201D01*
X309537Y60153D01*
X309582Y60097D01*
X309619Y60035D01*
X309658Y60001D01*
X309691Y59961D01*
X309751Y59922D01*
X309806Y59875D01*
X309854Y59856D01*
X309898Y59828D01*
X309967Y59810D01*
X310034Y59783D01*
X310105Y59775D01*
X310136Y59767D01*
X310160Y59769D01*
X310200Y59765D01*
X313372Y59765D01*
X314265Y58872D01*
X314265Y42528D01*
X313372Y41635D01*
X297028Y41635D01*
X296135Y42528D01*
X296135Y58872D01*
X297028Y59765D01*
X302514Y59765D01*
X302534Y59768D01*
X302553Y59766D01*
X302655Y59788D01*
X302757Y59804D01*
X302774Y59814D01*
X302794Y59818D01*
X302883Y59871D01*
X302974Y59920D01*
X302988Y59934D01*
X303005Y59944D01*
X303072Y60023D01*
X303144Y60098D01*
X303152Y60116D01*
X303165Y60131D01*
X303204Y60227D01*
X303247Y60321D01*
X303249Y60341D01*
X303257Y60359D01*
X303275Y60526D01*
X303275Y61145D01*
X309966Y67836D01*
X310008Y67894D01*
X310057Y67946D01*
X310079Y67993D01*
X310109Y68035D01*
X310130Y68104D01*
X310161Y68169D01*
X310166Y68221D01*
X310182Y68271D01*
X310180Y68342D01*
X310188Y68413D01*
X310177Y68464D01*
X310175Y68516D01*
X310151Y68584D01*
X310136Y68654D01*
X310109Y68699D01*
X310091Y68747D01*
X310046Y68803D01*
X310009Y68865D01*
X309970Y68899D01*
X309937Y68939D01*
X309877Y68978D01*
X309822Y69025D01*
X309774Y69044D01*
X309730Y69072D01*
X309661Y69090D01*
X309594Y69117D01*
X309523Y69125D01*
X309492Y69133D01*
X309468Y69131D01*
X309428Y69135D01*
X297028Y69135D01*
X296135Y70028D01*
X296135Y86372D01*
X297028Y87265D01*
X313372Y87265D01*
X314265Y86372D01*
X314265Y73972D01*
X314276Y73902D01*
X314278Y73830D01*
X314296Y73781D01*
X314304Y73730D01*
X314338Y73666D01*
X314363Y73599D01*
X314395Y73558D01*
X314420Y73512D01*
X314472Y73463D01*
X314516Y73407D01*
X314560Y73379D01*
X314598Y73343D01*
X314663Y73313D01*
X314723Y73274D01*
X314774Y73261D01*
X314821Y73239D01*
X314892Y73231D01*
X314962Y73214D01*
X315014Y73218D01*
X315065Y73212D01*
X315136Y73227D01*
X315207Y73233D01*
X315255Y73253D01*
X315306Y73264D01*
X315367Y73301D01*
X315433Y73329D01*
X315489Y73374D01*
X315517Y73391D01*
X315532Y73408D01*
X315564Y73434D01*
X348772Y106642D01*
X348825Y106716D01*
X348885Y106786D01*
X348897Y106816D01*
X348916Y106842D01*
X348943Y106929D01*
X348977Y107014D01*
X348981Y107055D01*
X348988Y107077D01*
X348987Y107109D01*
X348995Y107181D01*
X348995Y199067D01*
X354204Y204276D01*
X354246Y204334D01*
X354295Y204386D01*
X354317Y204433D01*
X354347Y204475D01*
X354368Y204544D01*
X354399Y204609D01*
X354404Y204661D01*
X354420Y204711D01*
X354418Y204782D01*
X354426Y204853D01*
X354415Y204904D01*
X354413Y204956D01*
X354389Y205024D01*
X354374Y205094D01*
X354347Y205139D01*
X354329Y205187D01*
X354284Y205243D01*
X354247Y205305D01*
X354208Y205339D01*
X354175Y205379D01*
X354115Y205418D01*
X354060Y205465D01*
X354012Y205484D01*
X353968Y205512D01*
X353899Y205530D01*
X353832Y205557D01*
X353761Y205565D01*
X353730Y205573D01*
X353706Y205571D01*
X353666Y205575D01*
X351968Y205575D01*
X351075Y206468D01*
X351075Y225552D01*
X351072Y225572D01*
X351074Y225591D01*
X351052Y225693D01*
X351036Y225795D01*
X351026Y225812D01*
X351022Y225832D01*
X350969Y225921D01*
X350920Y226012D01*
X350906Y226026D01*
X350896Y226043D01*
X350817Y226110D01*
X350742Y226182D01*
X350724Y226190D01*
X350709Y226203D01*
X350613Y226242D01*
X350519Y226285D01*
X350499Y226287D01*
X350481Y226295D01*
X350314Y226313D01*
X347973Y226313D01*
X347882Y226299D01*
X347792Y226291D01*
X347762Y226279D01*
X347730Y226274D01*
X347649Y226231D01*
X347565Y226195D01*
X347533Y226169D01*
X347512Y226158D01*
X347490Y226135D01*
X347434Y226090D01*
X328607Y207263D01*
X303853Y207263D01*
X300364Y210752D01*
X300290Y210805D01*
X300220Y210865D01*
X300190Y210877D01*
X300164Y210896D01*
X300077Y210923D01*
X299992Y210957D01*
X299951Y210961D01*
X299929Y210968D01*
X299897Y210967D01*
X299825Y210975D01*
X282668Y210975D01*
X281775Y211868D01*
X281775Y231132D01*
X282668Y232025D01*
X288798Y232025D01*
X288818Y232028D01*
X288837Y232026D01*
X288939Y232048D01*
X289041Y232064D01*
X289058Y232074D01*
X289078Y232078D01*
X289167Y232131D01*
X289258Y232180D01*
X289272Y232194D01*
X289289Y232204D01*
X289356Y232283D01*
X289428Y232358D01*
X289436Y232376D01*
X289449Y232391D01*
X289488Y232487D01*
X289531Y232581D01*
X289533Y232601D01*
X289541Y232619D01*
X289559Y232786D01*
X289559Y266330D01*
X289545Y266420D01*
X289537Y266511D01*
X289525Y266540D01*
X289520Y266572D01*
X289477Y266653D01*
X289441Y266737D01*
X289415Y266769D01*
X289404Y266790D01*
X289381Y266812D01*
X289336Y266868D01*
X286571Y269633D01*
X286571Y276367D01*
X291420Y281215D01*
X291453Y281235D01*
X291544Y281284D01*
X291558Y281298D01*
X291575Y281308D01*
X291642Y281387D01*
X291714Y281462D01*
X291722Y281480D01*
X291735Y281495D01*
X291774Y281591D01*
X291817Y281685D01*
X291819Y281705D01*
X291827Y281723D01*
X291845Y281890D01*
X291845Y297114D01*
X291842Y297134D01*
X291844Y297153D01*
X291822Y297255D01*
X291806Y297357D01*
X291796Y297374D01*
X291792Y297394D01*
X291739Y297483D01*
X291690Y297574D01*
X291676Y297588D01*
X291666Y297605D01*
X291587Y297672D01*
X291512Y297744D01*
X291494Y297752D01*
X291479Y297765D01*
X291383Y297804D01*
X291289Y297847D01*
X291269Y297849D01*
X291251Y297857D01*
X291084Y297875D01*
X285768Y297875D01*
X285214Y298430D01*
X285198Y298441D01*
X285185Y298457D01*
X285098Y298513D01*
X285014Y298573D01*
X284995Y298579D01*
X284979Y298590D01*
X284878Y298615D01*
X284779Y298646D01*
X284759Y298645D01*
X284740Y298650D01*
X284637Y298642D01*
X284533Y298639D01*
X284515Y298632D01*
X284495Y298631D01*
X284400Y298590D01*
X284302Y298555D01*
X284287Y298542D01*
X284268Y298534D01*
X284138Y298430D01*
X250121Y264413D01*
X178885Y264413D01*
X150152Y293146D01*
X150078Y293199D01*
X150008Y293259D01*
X149978Y293271D01*
X149952Y293290D01*
X149865Y293317D01*
X149780Y293351D01*
X149739Y293355D01*
X149717Y293362D01*
X149685Y293361D01*
X149613Y293369D01*
X146990Y293369D01*
X146970Y293366D01*
X146951Y293368D01*
X146849Y293346D01*
X146747Y293330D01*
X146730Y293320D01*
X146710Y293316D01*
X146621Y293263D01*
X146530Y293214D01*
X146516Y293200D01*
X146499Y293190D01*
X146432Y293111D01*
X146360Y293036D01*
X146352Y293018D01*
X146339Y293003D01*
X146300Y292907D01*
X146257Y292813D01*
X146255Y292793D01*
X146247Y292775D01*
X146232Y292636D01*
X141467Y287871D01*
X138586Y287871D01*
X138516Y287860D01*
X138444Y287858D01*
X138395Y287840D01*
X138344Y287832D01*
X138280Y287798D01*
X138213Y287773D01*
X138172Y287741D01*
X138126Y287716D01*
X138077Y287664D01*
X138021Y287620D01*
X137993Y287576D01*
X137957Y287538D01*
X137927Y287473D01*
X137888Y287413D01*
X137875Y287362D01*
X137853Y287315D01*
X137845Y287244D01*
X137828Y287174D01*
X137832Y287122D01*
X137826Y287071D01*
X137841Y287000D01*
X137847Y286929D01*
X137867Y286881D01*
X137878Y286830D01*
X137915Y286769D01*
X137943Y286703D01*
X137988Y286647D01*
X138005Y286619D01*
X138022Y286604D01*
X138048Y286572D01*
X256795Y167825D01*
X256795Y153026D01*
X256798Y153006D01*
X256796Y152987D01*
X256818Y152885D01*
X256834Y152783D01*
X256844Y152766D01*
X256848Y152746D01*
X256901Y152657D01*
X256950Y152566D01*
X256964Y152552D01*
X256974Y152535D01*
X257053Y152468D01*
X257128Y152396D01*
X257146Y152388D01*
X257161Y152375D01*
X257257Y152336D01*
X257351Y152293D01*
X257371Y152291D01*
X257389Y152283D01*
X257556Y152265D01*
X263372Y152265D01*
X264265Y151372D01*
X264265Y135028D01*
X263372Y134135D01*
X247028Y134135D01*
X246135Y135028D01*
X246135Y151372D01*
X247028Y152265D01*
X251460Y152265D01*
X251480Y152268D01*
X251499Y152266D01*
X251601Y152288D01*
X251703Y152304D01*
X251720Y152314D01*
X251740Y152318D01*
X251829Y152371D01*
X251920Y152420D01*
X251934Y152434D01*
X251951Y152444D01*
X252018Y152523D01*
X252090Y152598D01*
X252098Y152616D01*
X252111Y152631D01*
X252150Y152727D01*
X252193Y152821D01*
X252195Y152841D01*
X252203Y152859D01*
X252221Y153026D01*
X252221Y165615D01*
X252207Y165706D01*
X252199Y165796D01*
X252187Y165826D01*
X252182Y165858D01*
X252139Y165939D01*
X252103Y166023D01*
X252077Y166055D01*
X252066Y166076D01*
X252043Y166098D01*
X251998Y166154D01*
X124744Y293408D01*
X124686Y293450D01*
X124634Y293499D01*
X124587Y293521D01*
X124545Y293551D01*
X124476Y293572D01*
X124411Y293603D01*
X124359Y293608D01*
X124309Y293624D01*
X124238Y293622D01*
X124167Y293630D01*
X124116Y293619D01*
X124064Y293617D01*
X123996Y293593D01*
X123926Y293578D01*
X123882Y293551D01*
X123833Y293533D01*
X123777Y293488D01*
X123715Y293451D01*
X123681Y293412D01*
X123641Y293379D01*
X123602Y293319D01*
X123555Y293264D01*
X123536Y293216D01*
X123508Y293172D01*
X123490Y293103D01*
X123463Y293036D01*
X123455Y292965D01*
X123447Y292934D01*
X123449Y292910D01*
X123445Y292870D01*
X123445Y288537D01*
X123459Y288446D01*
X123467Y288356D01*
X123479Y288326D01*
X123484Y288294D01*
X123527Y288213D01*
X123563Y288129D01*
X123589Y288097D01*
X123600Y288076D01*
X123623Y288054D01*
X123668Y287998D01*
X204979Y206687D01*
X204979Y32101D01*
X204982Y32081D01*
X204980Y32062D01*
X205002Y31960D01*
X205018Y31858D01*
X205028Y31841D01*
X205032Y31821D01*
X205085Y31732D01*
X205134Y31641D01*
X205148Y31627D01*
X205158Y31610D01*
X205237Y31543D01*
X205312Y31471D01*
X205330Y31463D01*
X205345Y31450D01*
X205441Y31411D01*
X205535Y31368D01*
X205555Y31366D01*
X205573Y31358D01*
X205740Y31340D01*
X211452Y31340D01*
X212345Y30447D01*
X212345Y10922D01*
X212348Y10902D01*
X212346Y10883D01*
X212368Y10781D01*
X212384Y10679D01*
X212394Y10662D01*
X212398Y10642D01*
X212451Y10553D01*
X212500Y10462D01*
X212514Y10448D01*
X212524Y10431D01*
X212603Y10364D01*
X212678Y10292D01*
X212696Y10284D01*
X212711Y10271D01*
X212807Y10232D01*
X212901Y10189D01*
X212921Y10187D01*
X212939Y10179D01*
X213106Y10161D01*
X375094Y10161D01*
X375114Y10164D01*
X375133Y10162D01*
X375235Y10184D01*
X375337Y10200D01*
X375354Y10210D01*
X375374Y10214D01*
X375463Y10267D01*
X375554Y10316D01*
X375568Y10330D01*
X375585Y10340D01*
X375652Y10419D01*
X375724Y10494D01*
X375732Y10512D01*
X375745Y10527D01*
X375784Y10623D01*
X375827Y10717D01*
X375829Y10737D01*
X375837Y10755D01*
X375855Y10922D01*
X375855Y23693D01*
X375841Y23784D01*
X375833Y23874D01*
X375821Y23904D01*
X375816Y23936D01*
X375773Y24017D01*
X375737Y24101D01*
X375711Y24133D01*
X375700Y24154D01*
X375677Y24176D01*
X375632Y24232D01*
X364012Y35852D01*
X363938Y35905D01*
X363868Y35965D01*
X363838Y35977D01*
X363812Y35996D01*
X363725Y36023D01*
X363640Y36057D01*
X363599Y36061D01*
X363577Y36068D01*
X363545Y36067D01*
X363473Y36075D01*
X347468Y36075D01*
X346575Y36968D01*
X346575Y54232D01*
X347468Y55125D01*
X368732Y55125D01*
X369625Y54232D01*
X369625Y37023D01*
X369639Y36932D01*
X369647Y36842D01*
X369659Y36812D01*
X369664Y36780D01*
X369707Y36699D01*
X369743Y36615D01*
X369769Y36583D01*
X369780Y36562D01*
X369803Y36540D01*
X369848Y36484D01*
X376169Y30163D01*
X376243Y30110D01*
X376313Y30050D01*
X376343Y30038D01*
X376369Y30019D01*
X376456Y29992D01*
X376541Y29958D01*
X376582Y29954D01*
X376604Y29947D01*
X376636Y29948D01*
X376708Y29940D01*
X394012Y29940D01*
X394905Y29047D01*
X394905Y10922D01*
X394908Y10902D01*
X394906Y10883D01*
X394928Y10781D01*
X394944Y10679D01*
X394954Y10662D01*
X394958Y10642D01*
X395011Y10553D01*
X395060Y10462D01*
X395074Y10448D01*
X395084Y10431D01*
X395163Y10364D01*
X395238Y10292D01*
X395256Y10284D01*
X395271Y10271D01*
X395367Y10232D01*
X395461Y10189D01*
X395481Y10187D01*
X395499Y10179D01*
X395666Y10161D01*
X402518Y10161D01*
X402538Y10164D01*
X402557Y10162D01*
X402659Y10184D01*
X402761Y10200D01*
X402778Y10210D01*
X402798Y10214D01*
X402887Y10267D01*
X402978Y10316D01*
X402992Y10330D01*
X403009Y10340D01*
X403076Y10419D01*
X403148Y10494D01*
X403156Y10512D01*
X403169Y10527D01*
X403208Y10623D01*
X403251Y10717D01*
X403253Y10737D01*
X403261Y10755D01*
X403279Y10922D01*
X403279Y17877D01*
X413058Y17877D01*
X413078Y17880D01*
X413097Y17878D01*
X413199Y17900D01*
X413301Y17917D01*
X413318Y17926D01*
X413338Y17930D01*
X413427Y17983D01*
X413518Y18032D01*
X413532Y18046D01*
X413549Y18056D01*
X413616Y18135D01*
X413687Y18210D01*
X413696Y18228D01*
X413709Y18243D01*
X413748Y18339D01*
X413791Y18433D01*
X413793Y18453D01*
X413801Y18471D01*
X413819Y18638D01*
X413819Y19401D01*
X413821Y19401D01*
X413821Y18638D01*
X413824Y18618D01*
X413822Y18599D01*
X413844Y18497D01*
X413861Y18395D01*
X413870Y18378D01*
X413874Y18358D01*
X413927Y18269D01*
X413976Y18178D01*
X413990Y18164D01*
X414000Y18147D01*
X414079Y18080D01*
X414154Y18009D01*
X414172Y18000D01*
X414187Y17987D01*
X414283Y17948D01*
X414377Y17905D01*
X414397Y17903D01*
X414415Y17895D01*
X414582Y17877D01*
X424361Y17877D01*
X424361Y10922D01*
X424364Y10902D01*
X424362Y10883D01*
X424384Y10781D01*
X424400Y10679D01*
X424410Y10662D01*
X424414Y10642D01*
X424467Y10553D01*
X424516Y10462D01*
X424530Y10448D01*
X424540Y10431D01*
X424619Y10364D01*
X424694Y10292D01*
X424712Y10284D01*
X424727Y10271D01*
X424823Y10232D01*
X424917Y10189D01*
X424937Y10187D01*
X424955Y10179D01*
X425122Y10161D01*
X485347Y10161D01*
X485417Y10172D01*
X485489Y10174D01*
X485538Y10192D01*
X485589Y10200D01*
X485653Y10234D01*
X485720Y10259D01*
X485761Y10291D01*
X485807Y10316D01*
X485856Y10368D01*
X485912Y10412D01*
X485940Y10456D01*
X485976Y10494D01*
X486006Y10559D01*
X486045Y10619D01*
X486058Y10670D01*
X486080Y10717D01*
X486088Y10788D01*
X486105Y10858D01*
X486101Y10910D01*
X486107Y10961D01*
X486092Y11032D01*
X486086Y11103D01*
X486066Y11151D01*
X486055Y11202D01*
X486018Y11263D01*
X485990Y11329D01*
X485945Y11385D01*
X485929Y11413D01*
X485911Y11428D01*
X485885Y11460D01*
X481800Y15546D01*
X480921Y17667D01*
X480883Y17728D01*
X480854Y17794D01*
X480819Y17832D01*
X480791Y17876D01*
X480736Y17922D01*
X480687Y17975D01*
X480642Y18000D01*
X480602Y18033D01*
X480535Y18059D01*
X480472Y18093D01*
X480421Y18103D01*
X480372Y18121D01*
X480301Y18124D01*
X480230Y18137D01*
X480178Y18130D01*
X480126Y18132D01*
X480057Y18112D01*
X479987Y18101D01*
X479940Y18078D01*
X479890Y18063D01*
X479831Y18022D01*
X479767Y17990D01*
X479731Y17953D01*
X479688Y17923D01*
X479645Y17865D01*
X479595Y17814D01*
X479561Y17751D01*
X479541Y17726D01*
X479534Y17703D01*
X479514Y17667D01*
X478761Y15848D01*
X476352Y13439D01*
X473204Y12135D01*
X469796Y12135D01*
X466648Y13439D01*
X464239Y15848D01*
X462935Y18996D01*
X462935Y22404D01*
X464239Y25552D01*
X466648Y27961D01*
X469128Y28988D01*
X469214Y29041D01*
X469303Y29090D01*
X469318Y29106D01*
X469337Y29117D01*
X469402Y29196D01*
X469471Y29270D01*
X469480Y29290D01*
X469494Y29307D01*
X469530Y29402D01*
X469572Y29494D01*
X469574Y29516D01*
X469582Y29537D01*
X469586Y29638D01*
X469596Y29739D01*
X469592Y29760D01*
X469592Y29782D01*
X469564Y29880D01*
X469542Y29978D01*
X469530Y29997D01*
X469524Y30019D01*
X469466Y30102D01*
X469413Y30188D01*
X469396Y30202D01*
X469384Y30221D01*
X469302Y30281D01*
X469225Y30346D01*
X469200Y30357D01*
X469186Y30367D01*
X469155Y30378D01*
X469072Y30415D01*
X467822Y30821D01*
X466479Y31506D01*
X465258Y32392D01*
X464192Y33458D01*
X463306Y34679D01*
X462621Y36022D01*
X462155Y37457D01*
X462041Y38177D01*
X470738Y38177D01*
X470758Y38180D01*
X470777Y38178D01*
X470879Y38200D01*
X470981Y38217D01*
X470998Y38226D01*
X471018Y38230D01*
X471107Y38283D01*
X471198Y38332D01*
X471212Y38346D01*
X471229Y38356D01*
X471296Y38435D01*
X471367Y38510D01*
X471376Y38528D01*
X471389Y38543D01*
X471427Y38639D01*
X471471Y38733D01*
X471473Y38753D01*
X471481Y38771D01*
X471499Y38938D01*
X471499Y39701D01*
X471501Y39701D01*
X471501Y38938D01*
X471504Y38918D01*
X471502Y38899D01*
X471524Y38797D01*
X471541Y38695D01*
X471550Y38678D01*
X471554Y38658D01*
X471607Y38569D01*
X471656Y38478D01*
X471670Y38464D01*
X471680Y38447D01*
X471759Y38380D01*
X471834Y38309D01*
X471852Y38300D01*
X471867Y38287D01*
X471963Y38248D01*
X472057Y38205D01*
X472077Y38203D01*
X472095Y38195D01*
X472262Y38177D01*
X481160Y38177D01*
X481250Y38192D01*
X481341Y38199D01*
X481370Y38211D01*
X481402Y38217D01*
X481483Y38259D01*
X481567Y38295D01*
X481599Y38321D01*
X481620Y38332D01*
X481642Y38355D01*
X481698Y38400D01*
X487495Y44197D01*
X507677Y44197D01*
X514476Y37398D01*
X514570Y37330D01*
X514665Y37260D01*
X514671Y37258D01*
X514676Y37254D01*
X514787Y37220D01*
X514898Y37184D01*
X514905Y37184D01*
X514911Y37182D01*
X515027Y37185D01*
X515144Y37186D01*
X515152Y37188D01*
X515157Y37188D01*
X515174Y37195D01*
X515305Y37233D01*
X517796Y38265D01*
X521204Y38265D01*
X524352Y36961D01*
X526761Y34552D01*
X528065Y31404D01*
X528065Y27996D01*
X526761Y24848D01*
X524352Y22439D01*
X521204Y21135D01*
X517796Y21135D01*
X514648Y22439D01*
X512960Y24127D01*
X512902Y24169D01*
X512850Y24219D01*
X512803Y24241D01*
X512761Y24271D01*
X512692Y24292D01*
X512627Y24322D01*
X512575Y24328D01*
X512525Y24343D01*
X512454Y24341D01*
X512383Y24349D01*
X512332Y24338D01*
X512280Y24337D01*
X512212Y24312D01*
X512142Y24297D01*
X512097Y24270D01*
X512049Y24252D01*
X511993Y24208D01*
X511931Y24171D01*
X511897Y24131D01*
X511857Y24099D01*
X511818Y24038D01*
X511771Y23984D01*
X511752Y23936D01*
X511724Y23892D01*
X511706Y23822D01*
X511679Y23756D01*
X511671Y23684D01*
X511663Y23653D01*
X511665Y23630D01*
X511661Y23589D01*
X511661Y21485D01*
X509200Y15546D01*
X505115Y11460D01*
X505073Y11402D01*
X505024Y11350D01*
X505002Y11303D01*
X504971Y11261D01*
X504950Y11192D01*
X504920Y11127D01*
X504914Y11075D01*
X504899Y11025D01*
X504901Y10954D01*
X504893Y10883D01*
X504904Y10832D01*
X504905Y10780D01*
X504930Y10712D01*
X504945Y10642D01*
X504972Y10597D01*
X504990Y10549D01*
X505035Y10493D01*
X505071Y10431D01*
X505111Y10397D01*
X505144Y10357D01*
X505204Y10318D01*
X505258Y10271D01*
X505307Y10252D01*
X505351Y10224D01*
X505420Y10206D01*
X505487Y10179D01*
X505558Y10171D01*
X505589Y10163D01*
X505612Y10165D01*
X505653Y10161D01*
X539078Y10161D01*
X539098Y10164D01*
X539117Y10162D01*
X539219Y10184D01*
X539321Y10200D01*
X539338Y10210D01*
X539358Y10214D01*
X539447Y10267D01*
X539538Y10316D01*
X539552Y10330D01*
X539569Y10340D01*
X539636Y10419D01*
X539708Y10494D01*
X539716Y10512D01*
X539729Y10527D01*
X539768Y10623D01*
X539811Y10717D01*
X539813Y10737D01*
X539821Y10755D01*
X539839Y10922D01*
X539839Y759078D01*
X539836Y759098D01*
X539838Y759117D01*
X539816Y759219D01*
X539800Y759321D01*
X539790Y759338D01*
X539786Y759358D01*
X539733Y759447D01*
X539684Y759538D01*
X539670Y759552D01*
X539660Y759569D01*
X539581Y759636D01*
X539506Y759708D01*
X539488Y759716D01*
X539473Y759729D01*
X539377Y759768D01*
X539283Y759811D01*
X539263Y759813D01*
X539245Y759821D01*
X539078Y759839D01*
X10922Y759839D01*
X10902Y759836D01*
X10883Y759838D01*
X10781Y759816D01*
X10679Y759800D01*
X10662Y759790D01*
X10642Y759786D01*
X10553Y759733D01*
X10462Y759684D01*
X10448Y759670D01*
X10431Y759660D01*
X10364Y759581D01*
X10292Y759506D01*
X10284Y759488D01*
X10271Y759473D01*
X10232Y759377D01*
X10189Y759283D01*
X10187Y759263D01*
X10179Y759245D01*
X10161Y759078D01*
X10161Y648162D01*
X10164Y648142D01*
X10162Y648123D01*
X10184Y648021D01*
X10200Y647919D01*
X10210Y647902D01*
X10214Y647882D01*
X10267Y647793D01*
X10316Y647702D01*
X10330Y647688D01*
X10340Y647671D01*
X10419Y647604D01*
X10494Y647532D01*
X10512Y647524D01*
X10527Y647511D01*
X10623Y647472D01*
X10717Y647429D01*
X10737Y647427D01*
X10755Y647419D01*
X10922Y647401D01*
X12244Y647401D01*
X12289Y647408D01*
X12335Y647406D01*
X12410Y647428D01*
X12486Y647440D01*
X12527Y647462D01*
X12571Y647475D01*
X12635Y647519D01*
X12704Y647556D01*
X12735Y647589D01*
X12773Y647615D01*
X12820Y647678D01*
X12873Y647734D01*
X12893Y647776D01*
X12920Y647812D01*
X12944Y647886D01*
X12977Y647957D01*
X12982Y648003D01*
X12996Y648046D01*
X12995Y648124D01*
X13004Y648201D01*
X12994Y648246D01*
X12994Y648292D01*
X12956Y648424D01*
X12952Y648442D01*
X12949Y648446D01*
X12947Y648453D01*
X12375Y649834D01*
X12375Y652966D01*
X13574Y655861D01*
X15789Y658076D01*
X18684Y659275D01*
X34516Y659275D01*
X37411Y658076D01*
X39626Y655861D01*
X40825Y652966D01*
X40825Y649834D01*
X39626Y646939D01*
X37411Y644724D01*
X34516Y643525D01*
X18684Y643525D01*
X18653Y643538D01*
X18609Y643548D01*
X18567Y643568D01*
X18490Y643576D01*
X18414Y643594D01*
X18368Y643590D01*
X18323Y643595D01*
X18246Y643578D01*
X18169Y643571D01*
X18127Y643552D01*
X18082Y643542D01*
X18015Y643503D01*
X17944Y643471D01*
X17910Y643440D01*
X17871Y643416D01*
X17820Y643357D01*
X17763Y643304D01*
X17741Y643264D01*
X17711Y643229D01*
X17682Y643157D01*
X17645Y643089D01*
X17636Y643044D01*
X17619Y643001D01*
X17604Y642865D01*
X17601Y642847D01*
X17602Y642842D01*
X17601Y642835D01*
X17601Y586709D01*
X17608Y586663D01*
X17606Y586617D01*
X17628Y586542D01*
X17640Y586466D01*
X17662Y586425D01*
X17675Y586381D01*
X17719Y586317D01*
X17756Y586248D01*
X17789Y586217D01*
X17815Y586179D01*
X17878Y586133D01*
X17934Y586079D01*
X17976Y586060D01*
X18013Y586032D01*
X18087Y586008D01*
X18157Y585975D01*
X18203Y585970D01*
X18247Y585956D01*
X18324Y585957D01*
X18401Y585948D01*
X18447Y585958D01*
X18493Y585959D01*
X18514Y585965D01*
X33645Y585965D01*
X36425Y584813D01*
X38553Y582685D01*
X39705Y579905D01*
X39705Y576895D01*
X38553Y574115D01*
X36425Y571987D01*
X33645Y570835D01*
X18555Y570835D01*
X15775Y571987D01*
X13647Y574115D01*
X12495Y576895D01*
X12495Y579905D01*
X13647Y582685D01*
X15062Y584100D01*
X15103Y584158D01*
X15153Y584210D01*
X15175Y584257D01*
X15205Y584299D01*
X15226Y584368D01*
X15256Y584433D01*
X15262Y584485D01*
X15278Y584535D01*
X15276Y584606D01*
X15284Y584677D01*
X15272Y584728D01*
X15271Y584780D01*
X15247Y584848D01*
X15231Y584918D01*
X15205Y584963D01*
X15187Y585011D01*
X15142Y585067D01*
X15105Y585129D01*
X15066Y585163D01*
X15033Y585203D01*
X14973Y585242D01*
X14918Y585289D01*
X14870Y585308D01*
X14826Y585336D01*
X14757Y585354D01*
X14690Y585381D01*
X14619Y585389D01*
X14588Y585397D01*
X14564Y585395D01*
X14523Y585399D01*
X10922Y585399D01*
X10902Y585396D01*
X10883Y585398D01*
X10781Y585376D01*
X10679Y585360D01*
X10662Y585350D01*
X10642Y585346D01*
X10553Y585293D01*
X10462Y585244D01*
X10448Y585230D01*
X10431Y585220D01*
X10364Y585141D01*
X10292Y585066D01*
X10284Y585048D01*
X10271Y585033D01*
X10232Y584937D01*
X10189Y584843D01*
X10187Y584823D01*
X10179Y584805D01*
X10161Y584638D01*
X10161Y10922D01*
X10164Y10902D01*
X10162Y10883D01*
X10184Y10781D01*
X10200Y10679D01*
X10210Y10662D01*
X10214Y10642D01*
X10267Y10553D01*
X10316Y10462D01*
X10330Y10448D01*
X10340Y10431D01*
X10419Y10364D01*
X10494Y10292D01*
X10512Y10284D01*
X10527Y10271D01*
X10623Y10232D01*
X10717Y10189D01*
X10737Y10187D01*
X10755Y10179D01*
X10922Y10161D01*
X29529Y10161D01*
X29625Y10176D01*
G37*
G36*
X274430Y494293D02*
X274430Y494293D01*
X274501Y494299D01*
X274549Y494319D01*
X274600Y494330D01*
X274661Y494367D01*
X274727Y494395D01*
X274783Y494440D01*
X274811Y494457D01*
X274826Y494474D01*
X274858Y494500D01*
X299113Y518755D01*
X299124Y518771D01*
X299140Y518783D01*
X299196Y518870D01*
X299256Y518954D01*
X299262Y518973D01*
X299273Y518990D01*
X299298Y519091D01*
X299329Y519189D01*
X299328Y519209D01*
X299333Y519229D01*
X299325Y519332D01*
X299322Y519435D01*
X299315Y519454D01*
X299314Y519474D01*
X299273Y519569D01*
X299238Y519666D01*
X299225Y519682D01*
X299217Y519700D01*
X299113Y519831D01*
X298275Y520668D01*
X298275Y576932D01*
X299168Y577825D01*
X316230Y577825D01*
X316250Y577828D01*
X316269Y577826D01*
X316371Y577848D01*
X316473Y577864D01*
X316490Y577874D01*
X316510Y577878D01*
X316599Y577931D01*
X316690Y577980D01*
X316704Y577994D01*
X316721Y578004D01*
X316788Y578083D01*
X316860Y578158D01*
X316868Y578176D01*
X316881Y578191D01*
X316920Y578287D01*
X316963Y578381D01*
X316965Y578401D01*
X316973Y578419D01*
X316991Y578586D01*
X316991Y628664D01*
X316988Y628684D01*
X316990Y628703D01*
X316968Y628805D01*
X316952Y628907D01*
X316942Y628924D01*
X316938Y628944D01*
X316885Y629033D01*
X316836Y629124D01*
X316822Y629138D01*
X316812Y629155D01*
X316733Y629222D01*
X316658Y629294D01*
X316640Y629302D01*
X316625Y629315D01*
X316529Y629354D01*
X316435Y629397D01*
X316415Y629399D01*
X316397Y629407D01*
X316230Y629425D01*
X309368Y629425D01*
X308475Y630318D01*
X308475Y635784D01*
X308483Y635790D01*
X308539Y635877D01*
X308599Y635961D01*
X308605Y635980D01*
X308616Y635997D01*
X308641Y636097D01*
X308671Y636196D01*
X308671Y636216D01*
X308676Y636236D01*
X308668Y636339D01*
X308665Y636442D01*
X308658Y636461D01*
X308657Y636481D01*
X308616Y636576D01*
X308581Y636673D01*
X308568Y636689D01*
X308560Y636707D01*
X308475Y636813D01*
X308475Y641566D01*
X308461Y641656D01*
X308453Y641747D01*
X308441Y641777D01*
X308436Y641809D01*
X308393Y641890D01*
X308357Y641974D01*
X308331Y642006D01*
X308320Y642026D01*
X308297Y642049D01*
X308252Y642105D01*
X307967Y642390D01*
X307632Y642969D01*
X307459Y643616D01*
X307459Y645001D01*
X318612Y645001D01*
X318631Y645004D01*
X318651Y645002D01*
X318753Y645024D01*
X318855Y645040D01*
X318872Y645050D01*
X318892Y645054D01*
X318908Y645064D01*
X318983Y645029D01*
X319003Y645027D01*
X319021Y645019D01*
X319188Y645001D01*
X330341Y645001D01*
X330341Y643615D01*
X330168Y642969D01*
X329833Y642390D01*
X329548Y642105D01*
X329495Y642031D01*
X329435Y641961D01*
X329423Y641931D01*
X329404Y641905D01*
X329377Y641818D01*
X329343Y641733D01*
X329339Y641692D01*
X329332Y641670D01*
X329333Y641638D01*
X329325Y641566D01*
X329325Y636816D01*
X329317Y636810D01*
X329261Y636722D01*
X329201Y636639D01*
X329195Y636619D01*
X329184Y636603D01*
X329159Y636502D01*
X329129Y636403D01*
X329129Y636383D01*
X329124Y636364D01*
X329132Y636261D01*
X329135Y636158D01*
X329142Y636139D01*
X329143Y636119D01*
X329184Y636024D01*
X329219Y635927D01*
X329232Y635911D01*
X329240Y635893D01*
X329325Y635787D01*
X329325Y630318D01*
X328432Y629425D01*
X322326Y629425D01*
X322306Y629422D01*
X322287Y629424D01*
X322185Y629402D01*
X322083Y629386D01*
X322066Y629376D01*
X322046Y629372D01*
X321957Y629319D01*
X321866Y629270D01*
X321852Y629256D01*
X321835Y629246D01*
X321768Y629167D01*
X321696Y629092D01*
X321688Y629074D01*
X321675Y629059D01*
X321636Y628963D01*
X321593Y628869D01*
X321591Y628849D01*
X321583Y628831D01*
X321565Y628664D01*
X321565Y578586D01*
X321568Y578566D01*
X321566Y578547D01*
X321588Y578445D01*
X321604Y578343D01*
X321614Y578326D01*
X321618Y578306D01*
X321671Y578217D01*
X321720Y578126D01*
X321734Y578112D01*
X321744Y578095D01*
X321823Y578028D01*
X321898Y577956D01*
X321916Y577948D01*
X321931Y577935D01*
X322027Y577896D01*
X322121Y577853D01*
X322141Y577851D01*
X322159Y577843D01*
X322326Y577825D01*
X338932Y577825D01*
X339825Y576932D01*
X339825Y521970D01*
X339828Y521950D01*
X339826Y521931D01*
X339848Y521829D01*
X339864Y521727D01*
X339874Y521710D01*
X339878Y521690D01*
X339931Y521601D01*
X339980Y521510D01*
X339994Y521496D01*
X340004Y521479D01*
X340083Y521412D01*
X340158Y521340D01*
X340176Y521332D01*
X340191Y521319D01*
X340287Y521280D01*
X340381Y521237D01*
X340401Y521235D01*
X340419Y521227D01*
X340586Y521209D01*
X387357Y521209D01*
X387448Y521223D01*
X387538Y521231D01*
X387568Y521243D01*
X387600Y521248D01*
X387681Y521291D01*
X387765Y521327D01*
X387797Y521353D01*
X387818Y521364D01*
X387840Y521387D01*
X387896Y521432D01*
X397552Y531088D01*
X397596Y531148D01*
X397634Y531189D01*
X397641Y531203D01*
X397665Y531232D01*
X397677Y531262D01*
X397696Y531288D01*
X397723Y531375D01*
X397737Y531411D01*
X397738Y531412D01*
X397757Y531460D01*
X397761Y531501D01*
X397768Y531523D01*
X397767Y531555D01*
X397775Y531627D01*
X397775Y566415D01*
X397761Y566506D01*
X397753Y566596D01*
X397741Y566626D01*
X397736Y566658D01*
X397693Y566739D01*
X397657Y566823D01*
X397631Y566855D01*
X397620Y566876D01*
X397597Y566898D01*
X397552Y566954D01*
X378713Y585793D01*
X378713Y660214D01*
X378710Y660234D01*
X378712Y660253D01*
X378690Y660355D01*
X378674Y660457D01*
X378664Y660474D01*
X378660Y660494D01*
X378607Y660583D01*
X378558Y660674D01*
X378544Y660688D01*
X378534Y660705D01*
X378455Y660772D01*
X378380Y660844D01*
X378362Y660852D01*
X378347Y660865D01*
X378251Y660904D01*
X378157Y660947D01*
X378137Y660949D01*
X378119Y660957D01*
X377952Y660975D01*
X371868Y660975D01*
X370975Y661868D01*
X370975Y669036D01*
X370972Y669056D01*
X370974Y669075D01*
X370952Y669177D01*
X370936Y669279D01*
X370926Y669296D01*
X370922Y669316D01*
X370869Y669405D01*
X370820Y669496D01*
X370806Y669510D01*
X370796Y669527D01*
X370717Y669594D01*
X370642Y669666D01*
X370624Y669674D01*
X370609Y669687D01*
X370513Y669726D01*
X370419Y669769D01*
X370399Y669771D01*
X370381Y669779D01*
X370214Y669797D01*
X368623Y669797D01*
X367060Y671360D01*
X360868Y677552D01*
X360794Y677605D01*
X360724Y677665D01*
X360694Y677677D01*
X360668Y677696D01*
X360581Y677723D01*
X360496Y677757D01*
X360455Y677761D01*
X360433Y677768D01*
X360401Y677767D01*
X360329Y677775D01*
X349093Y677775D01*
X349002Y677761D01*
X348912Y677753D01*
X348882Y677741D01*
X348850Y677736D01*
X348769Y677693D01*
X348685Y677657D01*
X348653Y677631D01*
X348632Y677620D01*
X348610Y677597D01*
X348554Y677552D01*
X334703Y663701D01*
X330579Y663701D01*
X330485Y663686D01*
X330390Y663677D01*
X330364Y663666D01*
X330337Y663662D01*
X330252Y663617D01*
X330165Y663579D01*
X330144Y663560D01*
X330119Y663546D01*
X330054Y663477D01*
X329983Y663413D01*
X329969Y663389D01*
X329950Y663368D01*
X329910Y663282D01*
X329863Y663198D01*
X329858Y663171D01*
X329846Y663145D01*
X329836Y663050D01*
X329818Y662957D01*
X329822Y662929D01*
X329819Y662901D01*
X329839Y662807D01*
X329853Y662713D01*
X329867Y662681D01*
X329871Y662660D01*
X329888Y662632D01*
X329920Y662559D01*
X330168Y662131D01*
X330341Y661484D01*
X330341Y660099D01*
X319188Y660099D01*
X319169Y660096D01*
X319149Y660098D01*
X319047Y660076D01*
X318945Y660060D01*
X318928Y660050D01*
X318908Y660046D01*
X318892Y660036D01*
X318817Y660071D01*
X318797Y660073D01*
X318779Y660081D01*
X318612Y660099D01*
X307459Y660099D01*
X307459Y661484D01*
X307632Y662131D01*
X307967Y662710D01*
X308252Y662995D01*
X308305Y663069D01*
X308365Y663139D01*
X308377Y663169D01*
X308396Y663195D01*
X308423Y663282D01*
X308457Y663367D01*
X308461Y663408D01*
X308468Y663430D01*
X308467Y663462D01*
X308475Y663534D01*
X308475Y664097D01*
X308474Y664108D01*
X308474Y664114D01*
X308467Y664145D01*
X308461Y664188D01*
X308453Y664278D01*
X308441Y664308D01*
X308436Y664340D01*
X308393Y664421D01*
X308357Y664505D01*
X308331Y664537D01*
X308320Y664558D01*
X308297Y664580D01*
X308252Y664636D01*
X297218Y675670D01*
X297144Y675723D01*
X297074Y675783D01*
X297044Y675795D01*
X297018Y675814D01*
X296931Y675841D01*
X296846Y675875D01*
X296805Y675879D01*
X296783Y675886D01*
X296751Y675885D01*
X296679Y675893D01*
X270651Y675893D01*
X270580Y675882D01*
X270508Y675880D01*
X270459Y675862D01*
X270408Y675854D01*
X270345Y675820D01*
X270277Y675795D01*
X270237Y675763D01*
X270191Y675738D01*
X270141Y675686D01*
X270085Y675641D01*
X270057Y675598D01*
X270021Y675560D01*
X269991Y675495D01*
X269952Y675434D01*
X269940Y675384D01*
X269918Y675337D01*
X269910Y675266D01*
X269892Y675196D01*
X269896Y675144D01*
X269891Y675093D01*
X269906Y675022D01*
X269911Y674951D01*
X269925Y674920D01*
X269925Y673171D01*
X269939Y673080D01*
X269947Y672990D01*
X269959Y672960D01*
X269964Y672928D01*
X270007Y672847D01*
X270043Y672763D01*
X270069Y672731D01*
X270080Y672710D01*
X270103Y672688D01*
X270148Y672632D01*
X273559Y669221D01*
X273559Y495038D01*
X273570Y494968D01*
X273572Y494896D01*
X273590Y494847D01*
X273598Y494796D01*
X273632Y494732D01*
X273657Y494665D01*
X273689Y494624D01*
X273714Y494578D01*
X273766Y494529D01*
X273810Y494473D01*
X273854Y494445D01*
X273892Y494409D01*
X273957Y494379D01*
X274017Y494340D01*
X274068Y494327D01*
X274115Y494305D01*
X274186Y494297D01*
X274256Y494280D01*
X274308Y494284D01*
X274359Y494278D01*
X274430Y494293D01*
G37*
%LPC*%
G36*
X22358Y684565D02*
X22358Y684565D01*
X21465Y685458D01*
X21465Y745142D01*
X22358Y746035D01*
X82042Y746035D01*
X82935Y745142D01*
X82935Y685458D01*
X82042Y684565D01*
X22358Y684565D01*
G37*
%LPD*%
%LPC*%
G36*
X463458Y684565D02*
X463458Y684565D01*
X462565Y685458D01*
X462565Y745142D01*
X463458Y746035D01*
X523142Y746035D01*
X524035Y745142D01*
X524035Y685458D01*
X523142Y684565D01*
X463458Y684565D01*
G37*
%LPD*%
%LPC*%
G36*
X414168Y60375D02*
X414168Y60375D01*
X413275Y61268D01*
X413275Y78532D01*
X414168Y79425D01*
X442432Y79425D01*
X443325Y78532D01*
X443325Y73152D01*
X443328Y73132D01*
X443326Y73113D01*
X443348Y73011D01*
X443364Y72909D01*
X443374Y72892D01*
X443378Y72872D01*
X443431Y72783D01*
X443480Y72692D01*
X443494Y72678D01*
X443504Y72661D01*
X443583Y72594D01*
X443658Y72522D01*
X443676Y72514D01*
X443691Y72501D01*
X443787Y72462D01*
X443881Y72419D01*
X443901Y72417D01*
X443919Y72409D01*
X444086Y72391D01*
X462835Y72391D01*
X462950Y72410D01*
X463066Y72427D01*
X463072Y72429D01*
X463078Y72430D01*
X463181Y72485D01*
X463286Y72538D01*
X463290Y72543D01*
X463296Y72546D01*
X463375Y72630D01*
X463458Y72714D01*
X463462Y72720D01*
X463465Y72724D01*
X463473Y72741D01*
X463539Y72861D01*
X464239Y74552D01*
X466648Y76961D01*
X469796Y78265D01*
X473204Y78265D01*
X476352Y76961D01*
X478761Y74552D01*
X479461Y72861D01*
X479523Y72761D01*
X479583Y72661D01*
X479587Y72657D01*
X479591Y72652D01*
X479681Y72577D01*
X479770Y72501D01*
X479775Y72499D01*
X479780Y72495D01*
X479889Y72453D01*
X479998Y72409D01*
X480005Y72408D01*
X480010Y72407D01*
X480028Y72406D01*
X480165Y72391D01*
X494037Y72391D01*
X494128Y72405D01*
X494218Y72413D01*
X494248Y72425D01*
X494280Y72430D01*
X494361Y72473D01*
X494445Y72509D01*
X494477Y72535D01*
X494498Y72546D01*
X494520Y72569D01*
X494576Y72614D01*
X499202Y77240D01*
X499244Y77298D01*
X499293Y77350D01*
X499315Y77397D01*
X499345Y77439D01*
X499366Y77508D01*
X499397Y77573D01*
X499402Y77625D01*
X499418Y77675D01*
X499416Y77746D01*
X499424Y77817D01*
X499413Y77868D01*
X499411Y77920D01*
X499387Y77988D01*
X499372Y78058D01*
X499345Y78103D01*
X499327Y78151D01*
X499282Y78207D01*
X499245Y78269D01*
X499206Y78303D01*
X499173Y78343D01*
X499113Y78382D01*
X499058Y78429D01*
X499010Y78448D01*
X498966Y78476D01*
X498897Y78494D01*
X498830Y78521D01*
X498759Y78529D01*
X498728Y78537D01*
X498704Y78535D01*
X498664Y78539D01*
X492285Y78539D01*
X486346Y81000D01*
X481800Y85546D01*
X480921Y87667D01*
X480883Y87728D01*
X480854Y87794D01*
X480819Y87832D01*
X480791Y87876D01*
X480736Y87922D01*
X480687Y87975D01*
X480642Y88000D01*
X480602Y88033D01*
X480535Y88059D01*
X480472Y88093D01*
X480421Y88103D01*
X480372Y88121D01*
X480301Y88124D01*
X480230Y88137D01*
X480178Y88130D01*
X480126Y88132D01*
X480057Y88112D01*
X479987Y88101D01*
X479940Y88078D01*
X479890Y88063D01*
X479831Y88022D01*
X479767Y87990D01*
X479731Y87953D01*
X479688Y87923D01*
X479645Y87865D01*
X479595Y87814D01*
X479561Y87751D01*
X479541Y87726D01*
X479534Y87703D01*
X479514Y87667D01*
X478761Y85848D01*
X476352Y83439D01*
X473204Y82135D01*
X469796Y82135D01*
X466648Y83439D01*
X464239Y85848D01*
X462935Y88996D01*
X462935Y92404D01*
X464239Y95552D01*
X466648Y97961D01*
X469796Y99265D01*
X473204Y99265D01*
X476352Y97961D01*
X478040Y96273D01*
X478098Y96231D01*
X478150Y96181D01*
X478197Y96159D01*
X478239Y96129D01*
X478308Y96108D01*
X478373Y96078D01*
X478425Y96072D01*
X478475Y96057D01*
X478546Y96059D01*
X478617Y96051D01*
X478668Y96062D01*
X478720Y96063D01*
X478788Y96088D01*
X478858Y96103D01*
X478903Y96130D01*
X478951Y96148D01*
X479007Y96192D01*
X479069Y96229D01*
X479103Y96269D01*
X479143Y96301D01*
X479182Y96362D01*
X479229Y96416D01*
X479248Y96464D01*
X479276Y96508D01*
X479294Y96578D01*
X479321Y96644D01*
X479329Y96716D01*
X479337Y96747D01*
X479335Y96770D01*
X479339Y96811D01*
X479339Y97915D01*
X481800Y103854D01*
X486346Y108400D01*
X492285Y110861D01*
X498715Y110861D01*
X504654Y108400D01*
X509200Y103854D01*
X511661Y97915D01*
X511661Y93811D01*
X511672Y93740D01*
X511674Y93668D01*
X511692Y93620D01*
X511700Y93568D01*
X511734Y93505D01*
X511759Y93437D01*
X511791Y93397D01*
X511816Y93351D01*
X511868Y93301D01*
X511912Y93245D01*
X511956Y93217D01*
X511994Y93181D01*
X512059Y93151D01*
X512119Y93112D01*
X512170Y93100D01*
X512217Y93078D01*
X512288Y93070D01*
X512358Y93052D01*
X512410Y93056D01*
X512461Y93051D01*
X512532Y93066D01*
X512603Y93072D01*
X512651Y93092D01*
X512702Y93103D01*
X512763Y93140D01*
X512829Y93168D01*
X512885Y93213D01*
X512913Y93229D01*
X512928Y93247D01*
X512960Y93273D01*
X514648Y94961D01*
X517796Y96265D01*
X521204Y96265D01*
X524352Y94961D01*
X526761Y92552D01*
X528065Y89404D01*
X528065Y85996D01*
X526761Y82848D01*
X524352Y80439D01*
X521204Y79135D01*
X517796Y79135D01*
X514648Y80439D01*
X512297Y82791D01*
X512281Y82802D01*
X512268Y82818D01*
X512181Y82874D01*
X512097Y82934D01*
X512078Y82940D01*
X512062Y82951D01*
X511961Y82976D01*
X511862Y83006D01*
X511842Y83006D01*
X511823Y83011D01*
X511720Y83003D01*
X511616Y83000D01*
X511598Y82993D01*
X511578Y82992D01*
X511483Y82951D01*
X511385Y82916D01*
X511370Y82903D01*
X511351Y82895D01*
X511220Y82791D01*
X497810Y69380D01*
X496247Y67817D01*
X480499Y67817D01*
X480384Y67798D01*
X480268Y67781D01*
X480263Y67779D01*
X480256Y67778D01*
X480154Y67723D01*
X480049Y67670D01*
X480045Y67665D01*
X480039Y67662D01*
X479959Y67578D01*
X479877Y67494D01*
X479873Y67488D01*
X479870Y67484D01*
X479862Y67467D01*
X479796Y67347D01*
X478761Y64848D01*
X476352Y62439D01*
X473204Y61135D01*
X469796Y61135D01*
X466648Y62439D01*
X464239Y64848D01*
X463204Y67347D01*
X463143Y67447D01*
X463083Y67547D01*
X463078Y67551D01*
X463074Y67556D01*
X462984Y67631D01*
X462896Y67707D01*
X462890Y67709D01*
X462885Y67713D01*
X462777Y67755D01*
X462668Y67799D01*
X462660Y67800D01*
X462655Y67801D01*
X462637Y67802D01*
X462501Y67817D01*
X444086Y67817D01*
X444066Y67814D01*
X444047Y67816D01*
X443945Y67794D01*
X443843Y67778D01*
X443826Y67768D01*
X443806Y67764D01*
X443717Y67711D01*
X443626Y67662D01*
X443612Y67648D01*
X443595Y67638D01*
X443528Y67559D01*
X443456Y67484D01*
X443448Y67466D01*
X443435Y67451D01*
X443396Y67355D01*
X443353Y67261D01*
X443351Y67241D01*
X443343Y67223D01*
X443325Y67056D01*
X443325Y61268D01*
X442432Y60375D01*
X414168Y60375D01*
G37*
%LPD*%
%LPC*%
G36*
X29796Y60635D02*
X29796Y60635D01*
X26648Y61939D01*
X24239Y64348D01*
X22935Y67496D01*
X22935Y70904D01*
X24239Y74052D01*
X26648Y76461D01*
X29796Y77765D01*
X33204Y77765D01*
X36352Y76461D01*
X38761Y74052D01*
X39570Y72099D01*
X39631Y71999D01*
X39691Y71899D01*
X39696Y71895D01*
X39699Y71890D01*
X39789Y71815D01*
X39878Y71739D01*
X39884Y71737D01*
X39889Y71733D01*
X39997Y71691D01*
X40106Y71647D01*
X40114Y71646D01*
X40118Y71645D01*
X40137Y71644D01*
X40273Y71629D01*
X60459Y71629D01*
X60550Y71643D01*
X60640Y71651D01*
X60670Y71663D01*
X60702Y71668D01*
X60783Y71711D01*
X60867Y71747D01*
X60899Y71773D01*
X60920Y71784D01*
X60942Y71807D01*
X60998Y71852D01*
X71661Y82515D01*
X71729Y82609D01*
X71799Y82704D01*
X71801Y82710D01*
X71805Y82715D01*
X71839Y82826D01*
X71876Y82938D01*
X71875Y82944D01*
X71877Y82950D01*
X71874Y83067D01*
X71873Y83184D01*
X71871Y83191D01*
X71871Y83196D01*
X71865Y83214D01*
X71826Y83345D01*
X70916Y85544D01*
X70910Y85600D01*
X70900Y85624D01*
X70896Y85650D01*
X70850Y85736D01*
X70810Y85825D01*
X70793Y85844D01*
X70780Y85867D01*
X70710Y85934D01*
X70644Y86006D01*
X70621Y86018D01*
X70602Y86036D01*
X70514Y86078D01*
X70428Y86124D01*
X70403Y86129D01*
X70379Y86140D01*
X70282Y86151D01*
X70186Y86168D01*
X70160Y86164D01*
X70135Y86167D01*
X70040Y86147D01*
X69943Y86132D01*
X69920Y86121D01*
X69894Y86115D01*
X69810Y86065D01*
X69724Y86021D01*
X69706Y86002D01*
X69683Y85989D01*
X69620Y85915D01*
X69552Y85845D01*
X69536Y85817D01*
X69523Y85802D01*
X69511Y85771D01*
X69471Y85698D01*
X69200Y85046D01*
X64654Y80500D01*
X58715Y78039D01*
X52285Y78039D01*
X46346Y80500D01*
X41800Y85046D01*
X40921Y87167D01*
X40883Y87228D01*
X40854Y87294D01*
X40819Y87332D01*
X40791Y87376D01*
X40736Y87422D01*
X40687Y87475D01*
X40642Y87500D01*
X40602Y87533D01*
X40535Y87559D01*
X40472Y87593D01*
X40421Y87603D01*
X40372Y87621D01*
X40301Y87624D01*
X40230Y87637D01*
X40178Y87630D01*
X40126Y87632D01*
X40057Y87612D01*
X39987Y87601D01*
X39940Y87578D01*
X39890Y87563D01*
X39831Y87522D01*
X39767Y87490D01*
X39731Y87453D01*
X39688Y87423D01*
X39645Y87365D01*
X39595Y87314D01*
X39561Y87251D01*
X39541Y87226D01*
X39534Y87203D01*
X39514Y87167D01*
X38761Y85348D01*
X36352Y82939D01*
X33204Y81635D01*
X29796Y81635D01*
X26648Y82939D01*
X24239Y85348D01*
X22935Y88496D01*
X22935Y91904D01*
X24239Y95052D01*
X26648Y97461D01*
X29796Y98765D01*
X31969Y98765D01*
X32060Y98779D01*
X32150Y98787D01*
X32180Y98799D01*
X32212Y98804D01*
X32293Y98847D01*
X32377Y98883D01*
X32409Y98909D01*
X32430Y98920D01*
X32452Y98943D01*
X32508Y98988D01*
X47059Y113539D01*
X71518Y113539D01*
X71633Y113558D01*
X71749Y113575D01*
X71755Y113577D01*
X71761Y113578D01*
X71864Y113633D01*
X71968Y113686D01*
X71973Y113691D01*
X71978Y113694D01*
X72059Y113778D01*
X72141Y113862D01*
X72144Y113868D01*
X72148Y113872D01*
X72155Y113889D01*
X72221Y114009D01*
X72239Y114052D01*
X74648Y116461D01*
X77796Y117765D01*
X81204Y117765D01*
X84352Y116461D01*
X86761Y114052D01*
X88065Y110904D01*
X88065Y107496D01*
X86761Y104348D01*
X84352Y101939D01*
X81204Y100635D01*
X77796Y100635D01*
X74648Y101939D01*
X72239Y104348D01*
X70935Y107496D01*
X70935Y108204D01*
X70932Y108224D01*
X70934Y108243D01*
X70912Y108345D01*
X70896Y108447D01*
X70886Y108464D01*
X70882Y108484D01*
X70829Y108573D01*
X70780Y108664D01*
X70766Y108678D01*
X70756Y108695D01*
X70677Y108762D01*
X70602Y108834D01*
X70584Y108842D01*
X70569Y108855D01*
X70473Y108894D01*
X70379Y108937D01*
X70359Y108939D01*
X70341Y108947D01*
X70174Y108965D01*
X65427Y108965D01*
X65357Y108954D01*
X65285Y108952D01*
X65236Y108934D01*
X65185Y108926D01*
X65121Y108892D01*
X65054Y108867D01*
X65013Y108835D01*
X64967Y108810D01*
X64918Y108758D01*
X64862Y108714D01*
X64834Y108670D01*
X64798Y108632D01*
X64768Y108567D01*
X64729Y108507D01*
X64716Y108456D01*
X64694Y108409D01*
X64686Y108338D01*
X64669Y108268D01*
X64673Y108216D01*
X64667Y108165D01*
X64682Y108094D01*
X64688Y108023D01*
X64708Y107975D01*
X64719Y107924D01*
X64756Y107863D01*
X64784Y107797D01*
X64829Y107741D01*
X64845Y107713D01*
X64863Y107698D01*
X64889Y107666D01*
X69200Y103354D01*
X71661Y97415D01*
X71661Y93311D01*
X71672Y93240D01*
X71674Y93168D01*
X71692Y93120D01*
X71700Y93068D01*
X71734Y93005D01*
X71759Y92937D01*
X71791Y92897D01*
X71816Y92851D01*
X71868Y92801D01*
X71912Y92745D01*
X71956Y92717D01*
X71994Y92681D01*
X72059Y92651D01*
X72119Y92612D01*
X72170Y92600D01*
X72217Y92578D01*
X72288Y92570D01*
X72358Y92552D01*
X72410Y92556D01*
X72461Y92551D01*
X72532Y92566D01*
X72603Y92572D01*
X72651Y92592D01*
X72702Y92603D01*
X72763Y92640D01*
X72829Y92668D01*
X72885Y92713D01*
X72913Y92729D01*
X72928Y92747D01*
X72960Y92773D01*
X74648Y94461D01*
X77796Y95765D01*
X81204Y95765D01*
X84352Y94461D01*
X86761Y92052D01*
X88065Y88904D01*
X88065Y85496D01*
X86761Y82348D01*
X84352Y79939D01*
X81204Y78635D01*
X77796Y78635D01*
X75758Y79480D01*
X75645Y79506D01*
X75531Y79535D01*
X75525Y79534D01*
X75519Y79536D01*
X75402Y79525D01*
X75286Y79516D01*
X75280Y79513D01*
X75274Y79513D01*
X75166Y79465D01*
X75059Y79419D01*
X75054Y79415D01*
X75049Y79413D01*
X75035Y79400D01*
X74928Y79315D01*
X62669Y67055D01*
X40391Y67055D01*
X40276Y67036D01*
X40160Y67019D01*
X40154Y67017D01*
X40148Y67016D01*
X40045Y66961D01*
X39940Y66908D01*
X39936Y66903D01*
X39931Y66900D01*
X39851Y66816D01*
X39768Y66732D01*
X39765Y66726D01*
X39761Y66722D01*
X39753Y66705D01*
X39687Y66585D01*
X38761Y64348D01*
X36352Y61939D01*
X33204Y60635D01*
X29796Y60635D01*
G37*
%LPD*%
%LPC*%
G36*
X77599Y600399D02*
X77599Y600399D01*
X77599Y601162D01*
X77596Y601182D01*
X77598Y601201D01*
X77576Y601303D01*
X77559Y601405D01*
X77550Y601422D01*
X77546Y601442D01*
X77493Y601531D01*
X77444Y601622D01*
X77430Y601636D01*
X77420Y601653D01*
X77341Y601720D01*
X77266Y601791D01*
X77248Y601800D01*
X77233Y601813D01*
X77137Y601852D01*
X77043Y601895D01*
X77023Y601897D01*
X77005Y601905D01*
X76838Y601923D01*
X69883Y601923D01*
X69818Y601913D01*
X69752Y601912D01*
X69672Y601889D01*
X69640Y601883D01*
X69623Y601874D01*
X69591Y601865D01*
X67105Y600835D01*
X52015Y600835D01*
X49235Y601987D01*
X47107Y604115D01*
X45955Y606895D01*
X45955Y609905D01*
X47107Y612685D01*
X49235Y614813D01*
X51368Y615697D01*
X51429Y615735D01*
X51495Y615764D01*
X51533Y615799D01*
X51577Y615826D01*
X51623Y615882D01*
X51676Y615930D01*
X51701Y615976D01*
X51734Y616016D01*
X51760Y616083D01*
X51794Y616146D01*
X51804Y616197D01*
X51822Y616245D01*
X51825Y616317D01*
X51838Y616388D01*
X51830Y616439D01*
X51833Y616491D01*
X51813Y616560D01*
X51802Y616631D01*
X51779Y616677D01*
X51764Y616727D01*
X51723Y616786D01*
X51691Y616850D01*
X51654Y616887D01*
X51624Y616929D01*
X51566Y616972D01*
X51515Y617022D01*
X51452Y617057D01*
X51427Y617076D01*
X51404Y617083D01*
X51368Y617103D01*
X49235Y617987D01*
X47107Y620115D01*
X45955Y622895D01*
X45955Y625905D01*
X47107Y628685D01*
X49235Y630813D01*
X52015Y631965D01*
X67105Y631965D01*
X68983Y631187D01*
X69027Y631176D01*
X69069Y631157D01*
X69146Y631148D01*
X69222Y631131D01*
X69268Y631135D01*
X69313Y631130D01*
X69390Y631146D01*
X69467Y631154D01*
X69509Y631172D01*
X69554Y631182D01*
X69621Y631222D01*
X69692Y631254D01*
X69726Y631285D01*
X69765Y631308D01*
X69816Y631367D01*
X69873Y631420D01*
X69895Y631460D01*
X69925Y631495D01*
X69954Y631567D01*
X69991Y631636D01*
X70000Y631681D01*
X70017Y631723D01*
X70032Y631859D01*
X70035Y631878D01*
X70034Y631883D01*
X70035Y631890D01*
X70035Y633905D01*
X71187Y636685D01*
X73315Y638813D01*
X76095Y639965D01*
X91185Y639965D01*
X93965Y638813D01*
X96093Y636685D01*
X97245Y633905D01*
X97245Y630895D01*
X96093Y628115D01*
X93965Y625987D01*
X91832Y625103D01*
X91771Y625065D01*
X91705Y625036D01*
X91667Y625001D01*
X91623Y624974D01*
X91577Y624918D01*
X91524Y624870D01*
X91499Y624824D01*
X91466Y624784D01*
X91440Y624717D01*
X91406Y624654D01*
X91396Y624603D01*
X91378Y624555D01*
X91375Y624483D01*
X91362Y624412D01*
X91370Y624361D01*
X91367Y624309D01*
X91387Y624240D01*
X91398Y624169D01*
X91421Y624123D01*
X91436Y624073D01*
X91477Y624014D01*
X91509Y623950D01*
X91546Y623913D01*
X91576Y623871D01*
X91634Y623828D01*
X91685Y623778D01*
X91748Y623743D01*
X91773Y623724D01*
X91796Y623717D01*
X91832Y623697D01*
X93965Y622813D01*
X96093Y620685D01*
X97245Y617905D01*
X97245Y614895D01*
X96093Y612115D01*
X93965Y609987D01*
X93159Y609653D01*
X93098Y609615D01*
X93033Y609586D01*
X92994Y609551D01*
X92950Y609524D01*
X92904Y609468D01*
X92852Y609420D01*
X92827Y609374D01*
X92793Y609334D01*
X92768Y609267D01*
X92733Y609204D01*
X92724Y609153D01*
X92705Y609104D01*
X92702Y609033D01*
X92689Y608962D01*
X92697Y608911D01*
X92695Y608859D01*
X92715Y608790D01*
X92725Y608719D01*
X92749Y608672D01*
X92763Y608622D01*
X92804Y608564D01*
X92837Y608500D01*
X92874Y608463D01*
X92904Y608420D01*
X92961Y608378D01*
X93012Y608327D01*
X93075Y608293D01*
X93101Y608274D01*
X93123Y608266D01*
X93159Y608247D01*
X93745Y608004D01*
X95150Y607065D01*
X96345Y605870D01*
X97284Y604465D01*
X97931Y602903D01*
X98126Y601923D01*
X78362Y601923D01*
X78342Y601920D01*
X78323Y601922D01*
X78221Y601900D01*
X78119Y601883D01*
X78102Y601874D01*
X78082Y601870D01*
X77993Y601817D01*
X77902Y601768D01*
X77888Y601754D01*
X77871Y601744D01*
X77804Y601665D01*
X77733Y601590D01*
X77724Y601572D01*
X77711Y601557D01*
X77673Y601461D01*
X77629Y601367D01*
X77627Y601347D01*
X77619Y601329D01*
X77601Y601162D01*
X77601Y600399D01*
X77599Y600399D01*
G37*
%LPD*%
%LPC*%
G36*
X351968Y244575D02*
X351968Y244575D01*
X351075Y245468D01*
X351075Y265732D01*
X351968Y266625D01*
X367284Y266625D01*
X367304Y266628D01*
X367323Y266626D01*
X367425Y266648D01*
X367527Y266664D01*
X367544Y266674D01*
X367564Y266678D01*
X367653Y266731D01*
X367744Y266780D01*
X367758Y266794D01*
X367775Y266804D01*
X367842Y266883D01*
X367914Y266958D01*
X367922Y266976D01*
X367935Y266991D01*
X367974Y267087D01*
X368017Y267181D01*
X368019Y267201D01*
X368027Y267219D01*
X368045Y267386D01*
X368045Y272810D01*
X368043Y272822D01*
X368044Y272831D01*
X368043Y272838D01*
X368044Y272849D01*
X368022Y272951D01*
X368006Y273053D01*
X367996Y273070D01*
X367992Y273090D01*
X367939Y273179D01*
X367890Y273270D01*
X367876Y273284D01*
X367866Y273301D01*
X367787Y273368D01*
X367712Y273440D01*
X367694Y273448D01*
X367679Y273461D01*
X367583Y273500D01*
X367489Y273543D01*
X367469Y273545D01*
X367451Y273553D01*
X367284Y273571D01*
X366633Y273571D01*
X361871Y278333D01*
X361871Y285067D01*
X366633Y289829D01*
X373367Y289829D01*
X378129Y285067D01*
X378129Y278333D01*
X373365Y273569D01*
X373360Y273568D01*
X373341Y273570D01*
X373239Y273548D01*
X373137Y273532D01*
X373120Y273522D01*
X373100Y273518D01*
X373011Y273465D01*
X372920Y273416D01*
X372906Y273402D01*
X372889Y273392D01*
X372822Y273313D01*
X372750Y273238D01*
X372742Y273220D01*
X372729Y273205D01*
X372690Y273109D01*
X372647Y273015D01*
X372645Y272995D01*
X372637Y272977D01*
X372619Y272810D01*
X372619Y267386D01*
X372622Y267366D01*
X372620Y267347D01*
X372642Y267245D01*
X372658Y267143D01*
X372668Y267126D01*
X372672Y267106D01*
X372725Y267017D01*
X372774Y266926D01*
X372788Y266912D01*
X372798Y266895D01*
X372877Y266828D01*
X372952Y266756D01*
X372970Y266748D01*
X372985Y266735D01*
X373081Y266696D01*
X373175Y266653D01*
X373195Y266651D01*
X373213Y266643D01*
X373380Y266625D01*
X387232Y266625D01*
X388125Y265732D01*
X388125Y245468D01*
X387232Y244575D01*
X351968Y244575D01*
G37*
%LPD*%
%LPC*%
G36*
X504157Y553975D02*
X504157Y553975D01*
X500013Y555692D01*
X496842Y558863D01*
X495125Y563007D01*
X495125Y586993D01*
X496842Y591137D01*
X500013Y594308D01*
X504157Y596025D01*
X508643Y596025D01*
X512787Y594308D01*
X515958Y591137D01*
X517675Y586993D01*
X517675Y563007D01*
X515958Y558863D01*
X512787Y555692D01*
X508643Y553975D01*
X504157Y553975D01*
G37*
%LPD*%
%LPC*%
G36*
X504157Y618975D02*
X504157Y618975D01*
X500013Y620692D01*
X496842Y623863D01*
X495125Y628007D01*
X495125Y651993D01*
X496842Y656137D01*
X500013Y659308D01*
X504157Y661025D01*
X508643Y661025D01*
X512787Y659308D01*
X515958Y656137D01*
X517675Y651993D01*
X517675Y628007D01*
X515958Y623863D01*
X512787Y620692D01*
X508643Y618975D01*
X504157Y618975D01*
G37*
%LPD*%
G36*
X262130Y337990D02*
X262130Y337990D01*
X262149Y337988D01*
X262251Y338010D01*
X262353Y338026D01*
X262370Y338036D01*
X262390Y338040D01*
X262479Y338093D01*
X262570Y338142D01*
X262584Y338156D01*
X262601Y338166D01*
X262668Y338245D01*
X262740Y338320D01*
X262748Y338338D01*
X262761Y338353D01*
X262800Y338449D01*
X262843Y338543D01*
X262845Y338563D01*
X262853Y338581D01*
X262871Y338748D01*
X262871Y339067D01*
X267633Y343829D01*
X270606Y343829D01*
X270676Y343840D01*
X270748Y343842D01*
X270797Y343860D01*
X270848Y343868D01*
X270912Y343902D01*
X270979Y343927D01*
X271020Y343959D01*
X271066Y343984D01*
X271115Y344035D01*
X271171Y344080D01*
X271199Y344124D01*
X271235Y344162D01*
X271265Y344227D01*
X271304Y344287D01*
X271317Y344338D01*
X271339Y344385D01*
X271347Y344456D01*
X271364Y344526D01*
X271360Y344578D01*
X271366Y344629D01*
X271351Y344700D01*
X271345Y344771D01*
X271325Y344819D01*
X271314Y344870D01*
X271277Y344931D01*
X271249Y344997D01*
X271204Y345053D01*
X271187Y345081D01*
X271170Y345096D01*
X271144Y345128D01*
X258356Y357916D01*
X258282Y357969D01*
X258212Y358029D01*
X258182Y358041D01*
X258156Y358060D01*
X258069Y358087D01*
X257984Y358121D01*
X257943Y358125D01*
X257921Y358132D01*
X257889Y358131D01*
X257818Y358139D01*
X227894Y358139D01*
X227824Y358128D01*
X227752Y358126D01*
X227703Y358108D01*
X227652Y358100D01*
X227588Y358066D01*
X227521Y358041D01*
X227480Y358009D01*
X227434Y357984D01*
X227385Y357932D01*
X227329Y357888D01*
X227301Y357844D01*
X227265Y357806D01*
X227235Y357741D01*
X227196Y357681D01*
X227183Y357630D01*
X227161Y357583D01*
X227153Y357512D01*
X227136Y357442D01*
X227140Y357390D01*
X227134Y357339D01*
X227149Y357268D01*
X227155Y357197D01*
X227175Y357149D01*
X227186Y357098D01*
X227223Y357037D01*
X227251Y356971D01*
X227296Y356915D01*
X227313Y356887D01*
X227330Y356872D01*
X227356Y356840D01*
X230129Y354067D01*
X230129Y347333D01*
X230065Y347269D01*
X230054Y347253D01*
X230038Y347241D01*
X229982Y347154D01*
X229922Y347070D01*
X229916Y347051D01*
X229905Y347034D01*
X229880Y346934D01*
X229849Y346835D01*
X229850Y346815D01*
X229845Y346795D01*
X229853Y346692D01*
X229856Y346589D01*
X229862Y346570D01*
X229864Y346550D01*
X229904Y346455D01*
X229940Y346358D01*
X229953Y346342D01*
X229960Y346324D01*
X230065Y346193D01*
X233935Y342323D01*
X233935Y342090D01*
X233938Y342070D01*
X233936Y342051D01*
X233958Y341949D01*
X233974Y341847D01*
X233984Y341830D01*
X233988Y341810D01*
X234041Y341721D01*
X234090Y341630D01*
X234104Y341616D01*
X234114Y341599D01*
X234193Y341532D01*
X234268Y341460D01*
X234286Y341452D01*
X234301Y341439D01*
X234397Y341400D01*
X234491Y341357D01*
X234511Y341355D01*
X234529Y341347D01*
X234696Y341329D01*
X255241Y341329D01*
X255272Y341334D01*
X255374Y341340D01*
X256045Y341460D01*
X256055Y341455D01*
X256074Y341439D01*
X256166Y341402D01*
X256255Y341359D01*
X256279Y341356D01*
X256302Y341347D01*
X256456Y341330D01*
X256937Y340849D01*
X256962Y340831D01*
X257039Y340763D01*
X260821Y338124D01*
X260843Y338113D01*
X260862Y338097D01*
X260954Y338060D01*
X261043Y338017D01*
X261067Y338014D01*
X261090Y338005D01*
X261257Y337987D01*
X262110Y337987D01*
X262130Y337990D01*
G37*
G36*
X238276Y317802D02*
X238276Y317802D01*
X238351Y317804D01*
X238396Y317820D01*
X238444Y317827D01*
X238511Y317862D01*
X238582Y317888D01*
X238620Y317918D01*
X238662Y317940D01*
X238715Y317995D01*
X238774Y318042D01*
X238800Y318082D01*
X238834Y318117D01*
X238866Y318185D01*
X238907Y318249D01*
X238919Y318295D01*
X238940Y318339D01*
X238949Y318414D01*
X238967Y318487D01*
X238964Y318535D01*
X238969Y318583D01*
X238950Y318710D01*
X238948Y318733D01*
X238946Y318739D01*
X238944Y318749D01*
X238859Y319066D01*
X238859Y320139D01*
X249400Y320139D01*
X249419Y320142D01*
X249439Y320140D01*
X249540Y320162D01*
X249642Y320178D01*
X249660Y320188D01*
X249679Y320192D01*
X249769Y320245D01*
X249860Y320293D01*
X249873Y320308D01*
X249891Y320318D01*
X249891Y320319D01*
X249958Y320397D01*
X249999Y320440D01*
X250030Y320472D01*
X250038Y320490D01*
X250051Y320505D01*
X250090Y320602D01*
X250133Y320695D01*
X250135Y320715D01*
X250143Y320734D01*
X250161Y320900D01*
X250161Y324941D01*
X257734Y324941D01*
X258381Y324768D01*
X258960Y324433D01*
X259442Y323951D01*
X259459Y323939D01*
X259471Y323924D01*
X259558Y323868D01*
X259642Y323807D01*
X259661Y323801D01*
X259678Y323791D01*
X259778Y323765D01*
X259877Y323735D01*
X259897Y323735D01*
X259916Y323731D01*
X260019Y323739D01*
X260123Y323741D01*
X260142Y323748D01*
X260162Y323750D01*
X260257Y323790D01*
X260354Y323826D01*
X260370Y323838D01*
X260388Y323846D01*
X260519Y323951D01*
X263428Y326860D01*
X265000Y328432D01*
X265014Y328434D01*
X265086Y328436D01*
X265135Y328454D01*
X265186Y328462D01*
X265250Y328496D01*
X265317Y328521D01*
X265358Y328553D01*
X265404Y328578D01*
X265453Y328630D01*
X265509Y328674D01*
X265537Y328718D01*
X265573Y328756D01*
X265603Y328821D01*
X265642Y328881D01*
X265655Y328932D01*
X265677Y328979D01*
X265685Y329050D01*
X265702Y329120D01*
X265698Y329172D01*
X265704Y329223D01*
X265689Y329294D01*
X265683Y329365D01*
X265663Y329413D01*
X265652Y329464D01*
X265615Y329525D01*
X265587Y329591D01*
X265542Y329647D01*
X265525Y329675D01*
X265508Y329690D01*
X265482Y329722D01*
X262871Y332333D01*
X262871Y332652D01*
X262868Y332672D01*
X262870Y332691D01*
X262848Y332793D01*
X262832Y332895D01*
X262822Y332912D01*
X262818Y332932D01*
X262765Y333021D01*
X262716Y333112D01*
X262702Y333126D01*
X262692Y333143D01*
X262613Y333210D01*
X262538Y333282D01*
X262520Y333290D01*
X262505Y333303D01*
X262409Y333342D01*
X262315Y333385D01*
X262295Y333387D01*
X262277Y333395D01*
X262110Y333413D01*
X260567Y333413D01*
X260537Y333408D01*
X260434Y333402D01*
X259763Y333282D01*
X259753Y333287D01*
X259735Y333303D01*
X259643Y333340D01*
X259554Y333383D01*
X259529Y333386D01*
X259506Y333395D01*
X259352Y333412D01*
X258872Y333893D01*
X258846Y333911D01*
X258769Y333979D01*
X254987Y336618D01*
X254976Y336624D01*
X254973Y336627D01*
X254963Y336630D01*
X254946Y336645D01*
X254855Y336682D01*
X254765Y336725D01*
X254741Y336728D01*
X254718Y336737D01*
X254551Y336755D01*
X234696Y336755D01*
X234676Y336752D01*
X234657Y336754D01*
X234555Y336732D01*
X234453Y336716D01*
X234436Y336706D01*
X234416Y336702D01*
X234327Y336649D01*
X234236Y336600D01*
X234222Y336586D01*
X234205Y336576D01*
X234138Y336497D01*
X234066Y336422D01*
X234058Y336404D01*
X234045Y336389D01*
X234006Y336293D01*
X233963Y336199D01*
X233961Y336179D01*
X233953Y336161D01*
X233935Y335994D01*
X233935Y322064D01*
X233949Y321974D01*
X233957Y321883D01*
X233969Y321854D01*
X233974Y321822D01*
X234017Y321741D01*
X234053Y321657D01*
X234079Y321625D01*
X234090Y321604D01*
X234113Y321582D01*
X234158Y321526D01*
X237671Y318013D01*
X237710Y317985D01*
X237742Y317950D01*
X237809Y317914D01*
X237870Y317870D01*
X237916Y317856D01*
X237958Y317833D01*
X238033Y317820D01*
X238105Y317797D01*
X238153Y317799D01*
X238201Y317790D01*
X238276Y317802D01*
G37*
%LPC*%
G36*
X67600Y572399D02*
X67600Y572399D01*
X67599Y572400D01*
X67599Y586400D01*
X67600Y586401D01*
X92600Y586401D01*
X92601Y586400D01*
X92601Y572400D01*
X92600Y572399D01*
X67600Y572399D01*
G37*
%LPD*%
%LPC*%
G36*
X67600Y646399D02*
X67600Y646399D01*
X67599Y646400D01*
X67599Y660400D01*
X67600Y660401D01*
X92600Y660401D01*
X92601Y660400D01*
X92601Y646400D01*
X92600Y646399D01*
X67600Y646399D01*
G37*
%LPD*%
%LPC*%
G36*
X297028Y134135D02*
X297028Y134135D01*
X296135Y135028D01*
X296135Y151372D01*
X297028Y152265D01*
X313372Y152265D01*
X314265Y151372D01*
X314265Y135028D01*
X313372Y134135D01*
X297028Y134135D01*
G37*
%LPD*%
%LPC*%
G36*
X272028Y69135D02*
X272028Y69135D01*
X271135Y70028D01*
X271135Y86372D01*
X272028Y87265D01*
X288372Y87265D01*
X289265Y86372D01*
X289265Y70028D01*
X288372Y69135D01*
X272028Y69135D01*
G37*
%LPD*%
%LPC*%
G36*
X272028Y41635D02*
X272028Y41635D01*
X271135Y42528D01*
X271135Y58872D01*
X272028Y59765D01*
X288372Y59765D01*
X289265Y58872D01*
X289265Y42528D01*
X288372Y41635D01*
X272028Y41635D01*
G37*
%LPD*%
%LPC*%
G36*
X517796Y101135D02*
X517796Y101135D01*
X514648Y102439D01*
X512239Y104848D01*
X510935Y107996D01*
X510935Y111404D01*
X512239Y114552D01*
X514648Y116961D01*
X517796Y118265D01*
X521204Y118265D01*
X524352Y116961D01*
X526761Y114552D01*
X528065Y111404D01*
X528065Y107996D01*
X526761Y104848D01*
X524352Y102439D01*
X521204Y101135D01*
X517796Y101135D01*
G37*
%LPD*%
%LPC*%
G36*
X253923Y430423D02*
X253923Y430423D01*
X253923Y440941D01*
X269734Y440941D01*
X270381Y440768D01*
X270960Y440433D01*
X271433Y439960D01*
X271768Y439381D01*
X271941Y438734D01*
X271941Y430423D01*
X253923Y430423D01*
G37*
%LPD*%
%LPC*%
G36*
X335923Y412423D02*
X335923Y412423D01*
X335923Y422941D01*
X351734Y422941D01*
X352381Y422768D01*
X352960Y422433D01*
X353433Y421960D01*
X353768Y421381D01*
X353941Y420734D01*
X353941Y412423D01*
X335923Y412423D01*
G37*
%LPD*%
%LPC*%
G36*
X253923Y427377D02*
X253923Y427377D01*
X271941Y427377D01*
X271941Y419066D01*
X271768Y418419D01*
X271433Y417840D01*
X270960Y417367D01*
X270381Y417032D01*
X269734Y416859D01*
X253923Y416859D01*
X253923Y427377D01*
G37*
%LPD*%
%LPC*%
G36*
X335923Y409377D02*
X335923Y409377D01*
X353941Y409377D01*
X353941Y401066D01*
X353768Y400419D01*
X353433Y399840D01*
X352960Y399367D01*
X352381Y399032D01*
X351734Y398859D01*
X335923Y398859D01*
X335923Y409377D01*
G37*
%LPD*%
%LPC*%
G36*
X232859Y430423D02*
X232859Y430423D01*
X232859Y438734D01*
X233032Y439381D01*
X233367Y439960D01*
X233840Y440433D01*
X234419Y440768D01*
X235066Y440941D01*
X250877Y440941D01*
X250877Y430423D01*
X232859Y430423D01*
G37*
%LPD*%
%LPC*%
G36*
X314859Y412423D02*
X314859Y412423D01*
X314859Y420734D01*
X315032Y421381D01*
X315367Y421960D01*
X315840Y422433D01*
X316419Y422768D01*
X317066Y422941D01*
X332877Y422941D01*
X332877Y412423D01*
X314859Y412423D01*
G37*
%LPD*%
%LPC*%
G36*
X317066Y398859D02*
X317066Y398859D01*
X316419Y399032D01*
X315840Y399367D01*
X315367Y399840D01*
X315032Y400419D01*
X314859Y401066D01*
X314859Y409377D01*
X332877Y409377D01*
X332877Y398859D01*
X317066Y398859D01*
G37*
%LPD*%
%LPC*%
G36*
X235066Y416859D02*
X235066Y416859D01*
X234419Y417032D01*
X233840Y417367D01*
X233367Y417840D01*
X233032Y418419D01*
X232859Y419066D01*
X232859Y427377D01*
X250877Y427377D01*
X250877Y416859D01*
X235066Y416859D01*
G37*
%LPD*%
%LPC*%
G36*
X79123Y591819D02*
X79123Y591819D01*
X79123Y598877D01*
X98126Y598877D01*
X97931Y597897D01*
X97284Y596335D01*
X96345Y594930D01*
X95150Y593735D01*
X93745Y592796D01*
X92183Y592149D01*
X90525Y591819D01*
X79123Y591819D01*
G37*
%LPD*%
%LPC*%
G36*
X162223Y716523D02*
X162223Y716523D01*
X162223Y727541D01*
X169034Y727541D01*
X169681Y727368D01*
X170260Y727033D01*
X170733Y726560D01*
X171068Y725981D01*
X171241Y725334D01*
X171241Y716523D01*
X162223Y716523D01*
G37*
%LPD*%
%LPC*%
G36*
X296523Y747323D02*
X296523Y747323D01*
X296523Y756341D01*
X305334Y756341D01*
X305981Y756168D01*
X306560Y755833D01*
X307033Y755360D01*
X307368Y754781D01*
X307541Y754134D01*
X307541Y747323D01*
X296523Y747323D01*
G37*
%LPD*%
%LPC*%
G36*
X296523Y744277D02*
X296523Y744277D01*
X307541Y744277D01*
X307541Y737466D01*
X307368Y736819D01*
X307033Y736240D01*
X306560Y735767D01*
X305981Y735432D01*
X305334Y735259D01*
X296523Y735259D01*
X296523Y744277D01*
G37*
%LPD*%
%LPC*%
G36*
X282459Y747323D02*
X282459Y747323D01*
X282459Y754134D01*
X282632Y754781D01*
X282967Y755360D01*
X283440Y755833D01*
X284019Y756168D01*
X284666Y756341D01*
X293477Y756341D01*
X293477Y747323D01*
X282459Y747323D01*
G37*
%LPD*%
%LPC*%
G36*
X150159Y716523D02*
X150159Y716523D01*
X150159Y725334D01*
X150332Y725981D01*
X150667Y726560D01*
X151140Y727033D01*
X151719Y727368D01*
X152366Y727541D01*
X159177Y727541D01*
X159177Y716523D01*
X150159Y716523D01*
G37*
%LPD*%
%LPC*%
G36*
X162223Y702459D02*
X162223Y702459D01*
X162223Y713477D01*
X171241Y713477D01*
X171241Y704666D01*
X171068Y704019D01*
X170733Y703440D01*
X170260Y702967D01*
X169681Y702632D01*
X169034Y702459D01*
X162223Y702459D01*
G37*
%LPD*%
%LPC*%
G36*
X152366Y702459D02*
X152366Y702459D01*
X151719Y702632D01*
X151140Y702967D01*
X150667Y703440D01*
X150332Y704019D01*
X150159Y704666D01*
X150159Y713477D01*
X159177Y713477D01*
X159177Y702459D01*
X152366Y702459D01*
G37*
%LPD*%
%LPC*%
G36*
X284666Y735259D02*
X284666Y735259D01*
X284019Y735432D01*
X283440Y735767D01*
X282967Y736240D01*
X282632Y736819D01*
X282459Y737466D01*
X282459Y744277D01*
X293477Y744277D01*
X293477Y735259D01*
X284666Y735259D01*
G37*
%LPD*%
%LPC*%
G36*
X480423Y326223D02*
X480423Y326223D01*
X480423Y334241D01*
X490234Y334241D01*
X490881Y334068D01*
X491460Y333733D01*
X491933Y333260D01*
X492268Y332681D01*
X492441Y332034D01*
X492441Y326223D01*
X480423Y326223D01*
G37*
%LPD*%
%LPC*%
G36*
X240223Y250123D02*
X240223Y250123D01*
X240223Y262141D01*
X246034Y262141D01*
X246681Y261968D01*
X247260Y261633D01*
X247733Y261160D01*
X248068Y260581D01*
X248241Y259934D01*
X248241Y250123D01*
X240223Y250123D01*
G37*
%LPD*%
%LPC*%
G36*
X465359Y326223D02*
X465359Y326223D01*
X465359Y332034D01*
X465532Y332681D01*
X465867Y333260D01*
X466340Y333733D01*
X466919Y334068D01*
X467566Y334241D01*
X477377Y334241D01*
X477377Y326223D01*
X465359Y326223D01*
G37*
%LPD*%
%LPC*%
G36*
X240223Y235059D02*
X240223Y235059D01*
X240223Y247077D01*
X248241Y247077D01*
X248241Y237266D01*
X248068Y236619D01*
X247733Y236040D01*
X247260Y235567D01*
X246681Y235232D01*
X246034Y235059D01*
X240223Y235059D01*
G37*
%LPD*%
%LPC*%
G36*
X229159Y250123D02*
X229159Y250123D01*
X229159Y259934D01*
X229332Y260581D01*
X229667Y261160D01*
X230140Y261633D01*
X230719Y261968D01*
X231366Y262141D01*
X237177Y262141D01*
X237177Y250123D01*
X229159Y250123D01*
G37*
%LPD*%
%LPC*%
G36*
X480423Y315159D02*
X480423Y315159D01*
X480423Y323177D01*
X492441Y323177D01*
X492441Y317366D01*
X492268Y316719D01*
X491933Y316140D01*
X491460Y315667D01*
X490881Y315332D01*
X490234Y315159D01*
X480423Y315159D01*
G37*
%LPD*%
%LPC*%
G36*
X231366Y235059D02*
X231366Y235059D01*
X230719Y235232D01*
X230140Y235567D01*
X229667Y236040D01*
X229332Y236619D01*
X229159Y237266D01*
X229159Y247077D01*
X237177Y247077D01*
X237177Y235059D01*
X231366Y235059D01*
G37*
%LPD*%
%LPC*%
G36*
X467566Y315159D02*
X467566Y315159D01*
X466919Y315332D01*
X466340Y315667D01*
X465867Y316140D01*
X465532Y316719D01*
X465359Y317366D01*
X465359Y323177D01*
X477377Y323177D01*
X477377Y315159D01*
X467566Y315159D01*
G37*
%LPD*%
%LPC*%
G36*
X415343Y20923D02*
X415343Y20923D01*
X415343Y30956D01*
X422154Y30956D01*
X422801Y30783D01*
X423380Y30448D01*
X423853Y29975D01*
X424188Y29396D01*
X424361Y28749D01*
X424361Y20923D01*
X415343Y20923D01*
G37*
%LPD*%
%LPC*%
G36*
X403279Y20923D02*
X403279Y20923D01*
X403279Y28749D01*
X403452Y29396D01*
X403787Y29975D01*
X404260Y30448D01*
X404839Y30783D01*
X405486Y30956D01*
X412297Y30956D01*
X412297Y20923D01*
X403279Y20923D01*
G37*
%LPD*%
%LPC*%
G36*
X410023Y673023D02*
X410023Y673023D01*
X410023Y683041D01*
X416834Y683041D01*
X417481Y682868D01*
X418060Y682533D01*
X418533Y682060D01*
X418868Y681481D01*
X419041Y680834D01*
X419041Y673023D01*
X410023Y673023D01*
G37*
%LPD*%
%LPC*%
G36*
X134323Y622523D02*
X134323Y622523D01*
X134323Y632541D01*
X141134Y632541D01*
X141781Y632368D01*
X142360Y632033D01*
X142833Y631560D01*
X143168Y630981D01*
X143341Y630334D01*
X143341Y622523D01*
X134323Y622523D01*
G37*
%LPD*%
%LPC*%
G36*
X356523Y716823D02*
X356523Y716823D01*
X356523Y725841D01*
X364334Y725841D01*
X364981Y725668D01*
X365560Y725333D01*
X366033Y724860D01*
X366368Y724281D01*
X366541Y723634D01*
X366541Y716823D01*
X356523Y716823D01*
G37*
%LPD*%
%LPC*%
G36*
X134823Y650523D02*
X134823Y650523D01*
X134823Y660541D01*
X141634Y660541D01*
X142281Y660368D01*
X142860Y660033D01*
X143333Y659560D01*
X143668Y658981D01*
X143841Y658334D01*
X143841Y650523D01*
X134823Y650523D01*
G37*
%LPD*%
%LPC*%
G36*
X343459Y716823D02*
X343459Y716823D01*
X343459Y723634D01*
X343632Y724281D01*
X343967Y724860D01*
X344440Y725333D01*
X345019Y725668D01*
X345666Y725841D01*
X353477Y725841D01*
X353477Y716823D01*
X343459Y716823D01*
G37*
%LPD*%
%LPC*%
G36*
X122759Y650523D02*
X122759Y650523D01*
X122759Y658334D01*
X122932Y658981D01*
X123267Y659560D01*
X123740Y660033D01*
X124319Y660368D01*
X124966Y660541D01*
X131777Y660541D01*
X131777Y650523D01*
X122759Y650523D01*
G37*
%LPD*%
%LPC*%
G36*
X122259Y622523D02*
X122259Y622523D01*
X122259Y630334D01*
X122432Y630981D01*
X122767Y631560D01*
X123240Y632033D01*
X123819Y632368D01*
X124466Y632541D01*
X131277Y632541D01*
X131277Y622523D01*
X122259Y622523D01*
G37*
%LPD*%
%LPC*%
G36*
X397959Y673023D02*
X397959Y673023D01*
X397959Y680834D01*
X398132Y681481D01*
X398467Y682060D01*
X398940Y682533D01*
X399519Y682868D01*
X400166Y683041D01*
X406977Y683041D01*
X406977Y673023D01*
X397959Y673023D01*
G37*
%LPD*%
%LPC*%
G36*
X356523Y704759D02*
X356523Y704759D01*
X356523Y713777D01*
X366541Y713777D01*
X366541Y706966D01*
X366368Y706319D01*
X366033Y705740D01*
X365560Y705267D01*
X364981Y704932D01*
X364334Y704759D01*
X356523Y704759D01*
G37*
%LPD*%
%LPC*%
G36*
X134823Y637459D02*
X134823Y637459D01*
X134823Y647477D01*
X143841Y647477D01*
X143841Y639666D01*
X143668Y639019D01*
X143333Y638440D01*
X142860Y637967D01*
X142281Y637632D01*
X141634Y637459D01*
X134823Y637459D01*
G37*
%LPD*%
%LPC*%
G36*
X410023Y659959D02*
X410023Y659959D01*
X410023Y669977D01*
X419041Y669977D01*
X419041Y662166D01*
X418868Y661519D01*
X418533Y660940D01*
X418060Y660467D01*
X417481Y660132D01*
X416834Y659959D01*
X410023Y659959D01*
G37*
%LPD*%
%LPC*%
G36*
X124966Y637459D02*
X124966Y637459D01*
X124319Y637632D01*
X123740Y637967D01*
X123267Y638440D01*
X122932Y639019D01*
X122759Y639666D01*
X122759Y647477D01*
X131777Y647477D01*
X131777Y637459D01*
X124966Y637459D01*
G37*
%LPD*%
%LPC*%
G36*
X124466Y609459D02*
X124466Y609459D01*
X123819Y609632D01*
X123240Y609967D01*
X122767Y610440D01*
X122432Y611019D01*
X122259Y611666D01*
X122259Y619477D01*
X131277Y619477D01*
X131277Y609459D01*
X124466Y609459D01*
G37*
%LPD*%
%LPC*%
G36*
X400166Y659959D02*
X400166Y659959D01*
X399519Y660132D01*
X398940Y660467D01*
X398467Y660940D01*
X398132Y661519D01*
X397959Y662166D01*
X397959Y669977D01*
X406977Y669977D01*
X406977Y659959D01*
X400166Y659959D01*
G37*
%LPD*%
%LPC*%
G36*
X345666Y704759D02*
X345666Y704759D01*
X345019Y704932D01*
X344440Y705267D01*
X343967Y705740D01*
X343632Y706319D01*
X343459Y706966D01*
X343459Y713777D01*
X353477Y713777D01*
X353477Y704759D01*
X345666Y704759D01*
G37*
%LPD*%
%LPC*%
G36*
X256723Y52223D02*
X256723Y52223D01*
X256723Y60781D01*
X263074Y60781D01*
X263721Y60608D01*
X264300Y60273D01*
X264773Y59800D01*
X265108Y59221D01*
X265281Y58574D01*
X265281Y52223D01*
X256723Y52223D01*
G37*
%LPD*%
%LPC*%
G36*
X256723Y79723D02*
X256723Y79723D01*
X256723Y88281D01*
X263074Y88281D01*
X263721Y88108D01*
X264300Y87773D01*
X264773Y87300D01*
X265108Y86721D01*
X265281Y86074D01*
X265281Y79723D01*
X256723Y79723D01*
G37*
%LPD*%
%LPC*%
G36*
X245119Y79723D02*
X245119Y79723D01*
X245119Y86074D01*
X245292Y86721D01*
X245627Y87300D01*
X246100Y87773D01*
X246679Y88108D01*
X247326Y88281D01*
X253677Y88281D01*
X253677Y79723D01*
X245119Y79723D01*
G37*
%LPD*%
%LPC*%
G36*
X245119Y52223D02*
X245119Y52223D01*
X245119Y58574D01*
X245292Y59221D01*
X245627Y59800D01*
X246100Y60273D01*
X246679Y60608D01*
X247326Y60781D01*
X253677Y60781D01*
X253677Y52223D01*
X245119Y52223D01*
G37*
%LPD*%
%LPC*%
G36*
X256723Y40619D02*
X256723Y40619D01*
X256723Y49177D01*
X265281Y49177D01*
X265281Y42826D01*
X265108Y42179D01*
X264773Y41600D01*
X264300Y41127D01*
X263721Y40792D01*
X263074Y40619D01*
X256723Y40619D01*
G37*
%LPD*%
%LPC*%
G36*
X256723Y68119D02*
X256723Y68119D01*
X256723Y76677D01*
X265281Y76677D01*
X265281Y70326D01*
X265108Y69679D01*
X264773Y69100D01*
X264300Y68627D01*
X263721Y68292D01*
X263074Y68119D01*
X256723Y68119D01*
G37*
%LPD*%
%LPC*%
G36*
X247326Y68119D02*
X247326Y68119D01*
X246679Y68292D01*
X246100Y68627D01*
X245627Y69100D01*
X245292Y69679D01*
X245119Y70326D01*
X245119Y76677D01*
X253677Y76677D01*
X253677Y68119D01*
X247326Y68119D01*
G37*
%LPD*%
%LPC*%
G36*
X247326Y40619D02*
X247326Y40619D01*
X246679Y40792D01*
X246100Y41127D01*
X245627Y41600D01*
X245292Y42179D01*
X245119Y42826D01*
X245119Y49177D01*
X253677Y49177D01*
X253677Y40619D01*
X247326Y40619D01*
G37*
%LPD*%
%LPC*%
G36*
X319949Y653599D02*
X319949Y653599D01*
X319949Y658001D01*
X330341Y658001D01*
X330341Y656616D01*
X330175Y655997D01*
X330164Y655882D01*
X330150Y655769D01*
X330151Y655759D01*
X330151Y655752D01*
X330156Y655731D01*
X330175Y655603D01*
X330341Y654984D01*
X330341Y653599D01*
X319949Y653599D01*
G37*
%LPD*%
%LPC*%
G36*
X319949Y647099D02*
X319949Y647099D01*
X319949Y651501D01*
X330341Y651501D01*
X330341Y650116D01*
X330175Y649497D01*
X330164Y649382D01*
X330150Y649269D01*
X330151Y649259D01*
X330151Y649252D01*
X330156Y649231D01*
X330175Y649103D01*
X330341Y648484D01*
X330341Y647099D01*
X319949Y647099D01*
G37*
%LPD*%
%LPC*%
G36*
X307459Y647099D02*
X307459Y647099D01*
X307459Y648484D01*
X307625Y649103D01*
X307636Y649218D01*
X307650Y649331D01*
X307649Y649341D01*
X307649Y649348D01*
X307644Y649369D01*
X307625Y649497D01*
X307459Y650116D01*
X307459Y651501D01*
X317851Y651501D01*
X317851Y647099D01*
X307459Y647099D01*
G37*
%LPD*%
%LPC*%
G36*
X307459Y653599D02*
X307459Y653599D01*
X307459Y654984D01*
X307625Y655603D01*
X307636Y655717D01*
X307650Y655831D01*
X307649Y655841D01*
X307649Y655848D01*
X307644Y655869D01*
X307625Y655997D01*
X307459Y656616D01*
X307459Y658001D01*
X317851Y658001D01*
X317851Y653599D01*
X307459Y653599D01*
G37*
%LPD*%
%LPC*%
G36*
X521023Y61223D02*
X521023Y61223D01*
X521023Y69159D01*
X521743Y69045D01*
X523178Y68579D01*
X524521Y67894D01*
X525742Y67008D01*
X526808Y65942D01*
X527694Y64721D01*
X528379Y63378D01*
X528845Y61943D01*
X528959Y61223D01*
X521023Y61223D01*
G37*
%LPD*%
%LPC*%
G36*
X33023Y40723D02*
X33023Y40723D01*
X33023Y48659D01*
X33743Y48545D01*
X35178Y48079D01*
X36521Y47394D01*
X37742Y46508D01*
X38808Y45442D01*
X39694Y44221D01*
X40379Y42878D01*
X40845Y41443D01*
X40959Y40723D01*
X33023Y40723D01*
G37*
%LPD*%
%LPC*%
G36*
X473023Y41223D02*
X473023Y41223D01*
X473023Y49159D01*
X473743Y49045D01*
X475178Y48579D01*
X476521Y47894D01*
X477742Y47008D01*
X478808Y45942D01*
X479694Y44721D01*
X480379Y43378D01*
X480845Y41943D01*
X480959Y41223D01*
X473023Y41223D01*
G37*
%LPD*%
%LPC*%
G36*
X81023Y60723D02*
X81023Y60723D01*
X81023Y68659D01*
X81743Y68545D01*
X83178Y68079D01*
X84521Y67394D01*
X85742Y66508D01*
X86808Y65442D01*
X87694Y64221D01*
X88379Y62878D01*
X88845Y61443D01*
X88959Y60723D01*
X81023Y60723D01*
G37*
%LPD*%
%LPC*%
G36*
X81023Y57677D02*
X81023Y57677D01*
X88959Y57677D01*
X88845Y56957D01*
X88379Y55522D01*
X87694Y54179D01*
X86808Y52958D01*
X85742Y51892D01*
X84521Y51006D01*
X83178Y50321D01*
X81743Y49855D01*
X81023Y49741D01*
X81023Y57677D01*
G37*
%LPD*%
%LPC*%
G36*
X462041Y41223D02*
X462041Y41223D01*
X462155Y41943D01*
X462621Y43378D01*
X463306Y44721D01*
X464192Y45942D01*
X465258Y47008D01*
X466479Y47894D01*
X467822Y48579D01*
X469257Y49045D01*
X469977Y49159D01*
X469977Y41223D01*
X462041Y41223D01*
G37*
%LPD*%
%LPC*%
G36*
X22041Y40723D02*
X22041Y40723D01*
X22155Y41443D01*
X22621Y42878D01*
X23306Y44221D01*
X24192Y45442D01*
X25258Y46508D01*
X26479Y47394D01*
X27822Y48079D01*
X29257Y48545D01*
X29977Y48659D01*
X29977Y40723D01*
X22041Y40723D01*
G37*
%LPD*%
%LPC*%
G36*
X70041Y60723D02*
X70041Y60723D01*
X70155Y61443D01*
X70621Y62878D01*
X71306Y64221D01*
X72192Y65442D01*
X73258Y66508D01*
X74479Y67394D01*
X75822Y68079D01*
X77257Y68545D01*
X77977Y68659D01*
X77977Y60723D01*
X70041Y60723D01*
G37*
%LPD*%
%LPC*%
G36*
X510041Y61223D02*
X510041Y61223D01*
X510155Y61943D01*
X510621Y63378D01*
X511306Y64721D01*
X512192Y65942D01*
X513258Y67008D01*
X514479Y67894D01*
X515822Y68579D01*
X517257Y69045D01*
X517977Y69159D01*
X517977Y61223D01*
X510041Y61223D01*
G37*
%LPD*%
%LPC*%
G36*
X521023Y58177D02*
X521023Y58177D01*
X528959Y58177D01*
X528845Y57457D01*
X528379Y56022D01*
X527694Y54679D01*
X526808Y53458D01*
X525742Y52392D01*
X524521Y51506D01*
X523178Y50821D01*
X521743Y50355D01*
X521023Y50241D01*
X521023Y58177D01*
G37*
%LPD*%
%LPC*%
G36*
X77257Y49855D02*
X77257Y49855D01*
X75822Y50321D01*
X74479Y51006D01*
X73258Y51892D01*
X72192Y52958D01*
X71306Y54179D01*
X70621Y55522D01*
X70155Y56957D01*
X70041Y57677D01*
X77977Y57677D01*
X77977Y49741D01*
X77257Y49855D01*
G37*
%LPD*%
%LPC*%
G36*
X517257Y50355D02*
X517257Y50355D01*
X515822Y50821D01*
X514479Y51506D01*
X513258Y52392D01*
X512192Y53458D01*
X511306Y54679D01*
X510621Y56022D01*
X510155Y57457D01*
X510041Y58177D01*
X517977Y58177D01*
X517977Y50241D01*
X517257Y50355D01*
G37*
%LPD*%
%LPC*%
G36*
X319949Y679599D02*
X319949Y679599D01*
X319949Y683191D01*
X328134Y683191D01*
X328781Y683018D01*
X329360Y682683D01*
X329833Y682210D01*
X330168Y681631D01*
X330341Y680984D01*
X330341Y679599D01*
X319949Y679599D01*
G37*
%LPD*%
%LPC*%
G36*
X75097Y592149D02*
X75097Y592149D01*
X73535Y592796D01*
X72130Y593735D01*
X70935Y594930D01*
X69996Y596335D01*
X69349Y597897D01*
X69154Y598877D01*
X76077Y598877D01*
X76077Y591954D01*
X75097Y592149D01*
G37*
%LPD*%
%LPC*%
G36*
X283859Y321661D02*
X283859Y321661D01*
X283859Y322734D01*
X284032Y323381D01*
X284367Y323960D01*
X284840Y324433D01*
X285419Y324768D01*
X286066Y324941D01*
X293639Y324941D01*
X293639Y321661D01*
X283859Y321661D01*
G37*
%LPD*%
%LPC*%
G36*
X238859Y321661D02*
X238859Y321661D01*
X238859Y322734D01*
X239032Y323381D01*
X239367Y323960D01*
X239840Y324433D01*
X240419Y324768D01*
X241066Y324941D01*
X248639Y324941D01*
X248639Y321661D01*
X238859Y321661D01*
G37*
%LPD*%
%LPC*%
G36*
X295161Y321661D02*
X295161Y321661D01*
X295161Y324941D01*
X302734Y324941D01*
X303381Y324768D01*
X303960Y324433D01*
X304433Y323960D01*
X304768Y323381D01*
X304941Y322734D01*
X304941Y321661D01*
X295161Y321661D01*
G37*
%LPD*%
%LPC*%
G36*
X519499Y59699D02*
X519499Y59699D01*
X519499Y59701D01*
X519501Y59701D01*
X519501Y59699D01*
X519499Y59699D01*
G37*
%LPD*%
%LPC*%
G36*
X79499Y59199D02*
X79499Y59199D01*
X79499Y59201D01*
X79501Y59201D01*
X79501Y59199D01*
X79499Y59199D01*
G37*
%LPD*%
%LPC*%
G36*
X255199Y50699D02*
X255199Y50699D01*
X255199Y50701D01*
X255201Y50701D01*
X255201Y50699D01*
X255199Y50699D01*
G37*
%LPD*%
%LPC*%
G36*
X255199Y78199D02*
X255199Y78199D01*
X255199Y78201D01*
X255201Y78201D01*
X255201Y78199D01*
X255199Y78199D01*
G37*
%LPD*%
%LPC*%
G36*
X133299Y648999D02*
X133299Y648999D01*
X133299Y649001D01*
X133301Y649001D01*
X133301Y648999D01*
X133299Y648999D01*
G37*
%LPD*%
%LPC*%
G36*
X294999Y745799D02*
X294999Y745799D01*
X294999Y745801D01*
X295001Y745801D01*
X295001Y745799D01*
X294999Y745799D01*
G37*
%LPD*%
%LPC*%
G36*
X408499Y671499D02*
X408499Y671499D01*
X408499Y671501D01*
X408501Y671501D01*
X408501Y671499D01*
X408499Y671499D01*
G37*
%LPD*%
%LPC*%
G36*
X238699Y248599D02*
X238699Y248599D01*
X238699Y248601D01*
X238701Y248601D01*
X238701Y248599D01*
X238699Y248599D01*
G37*
%LPD*%
%LPC*%
G36*
X354999Y715299D02*
X354999Y715299D01*
X354999Y715301D01*
X355001Y715301D01*
X355001Y715299D01*
X354999Y715299D01*
G37*
%LPD*%
%LPC*%
G36*
X334399Y410899D02*
X334399Y410899D01*
X334399Y410901D01*
X334401Y410901D01*
X334401Y410899D01*
X334399Y410899D01*
G37*
%LPD*%
%LPC*%
G36*
X252399Y428899D02*
X252399Y428899D01*
X252399Y428901D01*
X252401Y428901D01*
X252401Y428899D01*
X252399Y428899D01*
G37*
%LPD*%
%LPC*%
G36*
X132799Y620999D02*
X132799Y620999D01*
X132799Y621001D01*
X132801Y621001D01*
X132801Y620999D01*
X132799Y620999D01*
G37*
%LPD*%
%LPC*%
G36*
X160699Y714999D02*
X160699Y714999D01*
X160699Y715001D01*
X160701Y715001D01*
X160701Y714999D01*
X160699Y714999D01*
G37*
%LPD*%
%LPC*%
G36*
X478899Y324699D02*
X478899Y324699D01*
X478899Y324701D01*
X478901Y324701D01*
X478901Y324699D01*
X478899Y324699D01*
G37*
%LPD*%
D10*
X0Y0D02*
X0Y-129500D01*
X550000Y-129500D02*
X550000Y0D01*
X549350Y-110000D02*
X650Y-110000D01*
X26000Y-106808D01*
X26000Y-113192D01*
X650Y-110000D01*
X26000Y-108700D01*
X26000Y-111300D02*
X650Y-110000D01*
X26000Y-107400D01*
X26000Y-112600D02*
X650Y-110000D01*
X524000Y-106808D02*
X549350Y-110000D01*
X524000Y-106808D02*
X524000Y-113192D01*
X549350Y-110000D01*
X524000Y-108700D01*
X524000Y-111300D02*
X549350Y-110000D01*
X524000Y-107400D01*
X524000Y-112600D02*
X549350Y-110000D01*
D11*
X249271Y-103493D02*
X243852Y-103493D01*
X249271Y-103493D02*
X249389Y-103491D01*
X249507Y-103485D01*
X249625Y-103476D01*
X249742Y-103462D01*
X249859Y-103445D01*
X249976Y-103424D01*
X250091Y-103399D01*
X250206Y-103370D01*
X250320Y-103337D01*
X250432Y-103301D01*
X250543Y-103261D01*
X250653Y-103218D01*
X250762Y-103171D01*
X250869Y-103121D01*
X250974Y-103066D01*
X251077Y-103009D01*
X251178Y-102948D01*
X251278Y-102884D01*
X251375Y-102817D01*
X251470Y-102747D01*
X251562Y-102673D01*
X251653Y-102597D01*
X251740Y-102517D01*
X251825Y-102435D01*
X251907Y-102350D01*
X251987Y-102263D01*
X252063Y-102172D01*
X252137Y-102080D01*
X252207Y-101985D01*
X252274Y-101888D01*
X252338Y-101788D01*
X252399Y-101687D01*
X252456Y-101584D01*
X252511Y-101479D01*
X252561Y-101372D01*
X252608Y-101263D01*
X252651Y-101153D01*
X252691Y-101042D01*
X252727Y-100930D01*
X252760Y-100816D01*
X252789Y-100701D01*
X252814Y-100586D01*
X252835Y-100469D01*
X252852Y-100352D01*
X252866Y-100235D01*
X252875Y-100117D01*
X252881Y-99999D01*
X252883Y-99881D01*
X252883Y-98074D01*
X252881Y-97956D01*
X252875Y-97838D01*
X252866Y-97720D01*
X252852Y-97603D01*
X252835Y-97486D01*
X252814Y-97369D01*
X252789Y-97254D01*
X252760Y-97139D01*
X252727Y-97025D01*
X252691Y-96913D01*
X252651Y-96802D01*
X252608Y-96692D01*
X252561Y-96583D01*
X252511Y-96476D01*
X252456Y-96371D01*
X252399Y-96268D01*
X252338Y-96167D01*
X252274Y-96067D01*
X252207Y-95970D01*
X252137Y-95875D01*
X252063Y-95783D01*
X251987Y-95692D01*
X251907Y-95605D01*
X251825Y-95520D01*
X251740Y-95438D01*
X251653Y-95358D01*
X251562Y-95282D01*
X251470Y-95208D01*
X251375Y-95138D01*
X251278Y-95071D01*
X251178Y-95007D01*
X251077Y-94946D01*
X250974Y-94889D01*
X250869Y-94834D01*
X250762Y-94784D01*
X250653Y-94737D01*
X250543Y-94694D01*
X250432Y-94654D01*
X250320Y-94618D01*
X250206Y-94585D01*
X250091Y-94556D01*
X249976Y-94531D01*
X249859Y-94510D01*
X249742Y-94493D01*
X249625Y-94479D01*
X249507Y-94470D01*
X249389Y-94464D01*
X249271Y-94462D01*
X243852Y-94462D01*
X243852Y-87237D01*
X252883Y-87237D01*
X259483Y-103493D02*
X264902Y-103493D01*
X265020Y-103491D01*
X265138Y-103485D01*
X265256Y-103476D01*
X265373Y-103462D01*
X265490Y-103445D01*
X265607Y-103424D01*
X265722Y-103399D01*
X265837Y-103370D01*
X265951Y-103337D01*
X266063Y-103301D01*
X266174Y-103261D01*
X266284Y-103218D01*
X266393Y-103171D01*
X266500Y-103121D01*
X266605Y-103066D01*
X266708Y-103009D01*
X266809Y-102948D01*
X266909Y-102884D01*
X267006Y-102817D01*
X267101Y-102747D01*
X267193Y-102673D01*
X267284Y-102597D01*
X267371Y-102517D01*
X267456Y-102435D01*
X267538Y-102350D01*
X267618Y-102263D01*
X267694Y-102172D01*
X267768Y-102080D01*
X267838Y-101985D01*
X267905Y-101888D01*
X267969Y-101788D01*
X268030Y-101687D01*
X268087Y-101584D01*
X268142Y-101479D01*
X268192Y-101372D01*
X268239Y-101263D01*
X268282Y-101153D01*
X268322Y-101042D01*
X268358Y-100930D01*
X268391Y-100816D01*
X268420Y-100701D01*
X268445Y-100586D01*
X268466Y-100469D01*
X268483Y-100352D01*
X268497Y-100235D01*
X268506Y-100117D01*
X268512Y-99999D01*
X268514Y-99881D01*
X268514Y-98074D01*
X268512Y-97956D01*
X268506Y-97838D01*
X268497Y-97720D01*
X268483Y-97603D01*
X268466Y-97486D01*
X268445Y-97369D01*
X268420Y-97254D01*
X268391Y-97139D01*
X268358Y-97025D01*
X268322Y-96913D01*
X268282Y-96802D01*
X268239Y-96692D01*
X268192Y-96583D01*
X268142Y-96476D01*
X268087Y-96371D01*
X268030Y-96268D01*
X267969Y-96167D01*
X267905Y-96067D01*
X267838Y-95970D01*
X267768Y-95875D01*
X267694Y-95783D01*
X267618Y-95692D01*
X267538Y-95605D01*
X267456Y-95520D01*
X267371Y-95438D01*
X267284Y-95358D01*
X267193Y-95282D01*
X267101Y-95208D01*
X267006Y-95138D01*
X266909Y-95071D01*
X266809Y-95007D01*
X266708Y-94946D01*
X266605Y-94889D01*
X266500Y-94834D01*
X266393Y-94784D01*
X266284Y-94737D01*
X266174Y-94694D01*
X266063Y-94654D01*
X265951Y-94618D01*
X265837Y-94585D01*
X265722Y-94556D01*
X265607Y-94531D01*
X265490Y-94510D01*
X265373Y-94493D01*
X265256Y-94479D01*
X265138Y-94470D01*
X265020Y-94464D01*
X264902Y-94462D01*
X259483Y-94462D01*
X259483Y-87237D01*
X268514Y-87237D01*
X274489Y-102590D02*
X274489Y-103493D01*
X274489Y-102590D02*
X275392Y-102590D01*
X275392Y-103493D01*
X274489Y-103493D01*
X281367Y-95365D02*
X281371Y-95045D01*
X281382Y-94726D01*
X281401Y-94406D01*
X281428Y-94088D01*
X281462Y-93770D01*
X281504Y-93453D01*
X281554Y-93137D01*
X281611Y-92822D01*
X281675Y-92509D01*
X281747Y-92197D01*
X281826Y-91887D01*
X281913Y-91580D01*
X282007Y-91274D01*
X282108Y-90971D01*
X282217Y-90670D01*
X282332Y-90372D01*
X282455Y-90076D01*
X282585Y-89784D01*
X282722Y-89495D01*
X282722Y-89494D02*
X282761Y-89386D01*
X282804Y-89279D01*
X282850Y-89174D01*
X282900Y-89071D01*
X282954Y-88969D01*
X283011Y-88869D01*
X283072Y-88771D01*
X283136Y-88675D01*
X283203Y-88582D01*
X283273Y-88491D01*
X283347Y-88402D01*
X283423Y-88316D01*
X283503Y-88233D01*
X283585Y-88152D01*
X283670Y-88074D01*
X283757Y-88000D01*
X283848Y-87928D01*
X283940Y-87859D01*
X284035Y-87794D01*
X284132Y-87732D01*
X284231Y-87673D01*
X284332Y-87618D01*
X284435Y-87567D01*
X284540Y-87519D01*
X284646Y-87474D01*
X284753Y-87433D01*
X284862Y-87396D01*
X284973Y-87363D01*
X285084Y-87334D01*
X285196Y-87308D01*
X285309Y-87286D01*
X285423Y-87269D01*
X285537Y-87255D01*
X285652Y-87245D01*
X285767Y-87239D01*
X285882Y-87237D01*
X285997Y-87239D01*
X286112Y-87245D01*
X286227Y-87255D01*
X286341Y-87269D01*
X286455Y-87286D01*
X286568Y-87308D01*
X286680Y-87334D01*
X286792Y-87363D01*
X286902Y-87396D01*
X287011Y-87433D01*
X287119Y-87474D01*
X287225Y-87519D01*
X287330Y-87567D01*
X287432Y-87618D01*
X287534Y-87674D01*
X287633Y-87732D01*
X287730Y-87794D01*
X287825Y-87860D01*
X287917Y-87928D01*
X288007Y-88000D01*
X288095Y-88074D01*
X288180Y-88152D01*
X288262Y-88233D01*
X288341Y-88316D01*
X288418Y-88402D01*
X288491Y-88491D01*
X288562Y-88582D01*
X288629Y-88676D01*
X288693Y-88771D01*
X288754Y-88869D01*
X288811Y-88969D01*
X288864Y-89071D01*
X288915Y-89175D01*
X288961Y-89280D01*
X289004Y-89387D01*
X289043Y-89495D01*
X289180Y-89784D01*
X289310Y-90076D01*
X289433Y-90372D01*
X289548Y-90670D01*
X289657Y-90971D01*
X289758Y-91274D01*
X289852Y-91580D01*
X289939Y-91887D01*
X290018Y-92197D01*
X290090Y-92509D01*
X290154Y-92822D01*
X290211Y-93137D01*
X290261Y-93453D01*
X290303Y-93770D01*
X290337Y-94088D01*
X290364Y-94406D01*
X290383Y-94726D01*
X290394Y-95045D01*
X290398Y-95365D01*
X281367Y-95365D02*
X281371Y-95685D01*
X281382Y-96004D01*
X281401Y-96324D01*
X281428Y-96642D01*
X281462Y-96960D01*
X281504Y-97277D01*
X281554Y-97593D01*
X281611Y-97908D01*
X281675Y-98221D01*
X281747Y-98533D01*
X281826Y-98843D01*
X281913Y-99150D01*
X282007Y-99456D01*
X282108Y-99759D01*
X282217Y-100060D01*
X282332Y-100358D01*
X282455Y-100654D01*
X282585Y-100946D01*
X282722Y-101235D01*
X282721Y-101236D02*
X282760Y-101344D01*
X282803Y-101451D01*
X282849Y-101556D01*
X282900Y-101660D01*
X282953Y-101762D01*
X283010Y-101862D01*
X283071Y-101960D01*
X283135Y-102055D01*
X283202Y-102149D01*
X283273Y-102240D01*
X283346Y-102329D01*
X283423Y-102415D01*
X283502Y-102498D01*
X283584Y-102579D01*
X283669Y-102657D01*
X283757Y-102731D01*
X283847Y-102803D01*
X283940Y-102872D01*
X284034Y-102937D01*
X284131Y-102999D01*
X284231Y-103057D01*
X284332Y-103113D01*
X284434Y-103164D01*
X284539Y-103212D01*
X284645Y-103257D01*
X284753Y-103298D01*
X284862Y-103335D01*
X284972Y-103368D01*
X285084Y-103397D01*
X285196Y-103423D01*
X285309Y-103445D01*
X285423Y-103462D01*
X285537Y-103476D01*
X285652Y-103486D01*
X285767Y-103492D01*
X285882Y-103494D01*
X289043Y-101235D02*
X289180Y-100946D01*
X289310Y-100654D01*
X289433Y-100358D01*
X289548Y-100060D01*
X289657Y-99759D01*
X289758Y-99456D01*
X289852Y-99150D01*
X289939Y-98843D01*
X290018Y-98533D01*
X290090Y-98221D01*
X290154Y-97908D01*
X290211Y-97593D01*
X290261Y-97277D01*
X290303Y-96960D01*
X290337Y-96642D01*
X290364Y-96324D01*
X290383Y-96004D01*
X290394Y-95685D01*
X290398Y-95365D01*
X289043Y-101235D02*
X289004Y-101343D01*
X288961Y-101450D01*
X288915Y-101555D01*
X288864Y-101659D01*
X288811Y-101761D01*
X288754Y-101861D01*
X288693Y-101959D01*
X288629Y-102054D01*
X288562Y-102148D01*
X288491Y-102239D01*
X288418Y-102328D01*
X288341Y-102414D01*
X288262Y-102497D01*
X288180Y-102578D01*
X288095Y-102656D01*
X288007Y-102730D01*
X287917Y-102802D01*
X287824Y-102871D01*
X287730Y-102936D01*
X287633Y-102998D01*
X287533Y-103056D01*
X287432Y-103112D01*
X287329Y-103163D01*
X287225Y-103211D01*
X287119Y-103256D01*
X287011Y-103297D01*
X286902Y-103334D01*
X286792Y-103367D01*
X286680Y-103396D01*
X286568Y-103422D01*
X286455Y-103444D01*
X286341Y-103461D01*
X286227Y-103475D01*
X286112Y-103485D01*
X285997Y-103491D01*
X285882Y-103493D01*
X282270Y-99881D02*
X289495Y-90849D01*
X296998Y-95365D02*
X297002Y-95045D01*
X297013Y-94726D01*
X297032Y-94406D01*
X297059Y-94088D01*
X297093Y-93770D01*
X297135Y-93453D01*
X297185Y-93137D01*
X297242Y-92822D01*
X297306Y-92509D01*
X297378Y-92197D01*
X297457Y-91887D01*
X297544Y-91580D01*
X297638Y-91274D01*
X297739Y-90971D01*
X297848Y-90670D01*
X297963Y-90372D01*
X298086Y-90076D01*
X298216Y-89784D01*
X298353Y-89495D01*
X298354Y-89494D02*
X298393Y-89386D01*
X298436Y-89279D01*
X298482Y-89174D01*
X298532Y-89071D01*
X298586Y-88969D01*
X298643Y-88869D01*
X298704Y-88771D01*
X298768Y-88675D01*
X298835Y-88582D01*
X298905Y-88491D01*
X298979Y-88402D01*
X299055Y-88316D01*
X299135Y-88233D01*
X299217Y-88152D01*
X299302Y-88074D01*
X299389Y-88000D01*
X299480Y-87928D01*
X299572Y-87859D01*
X299667Y-87794D01*
X299764Y-87732D01*
X299863Y-87673D01*
X299964Y-87618D01*
X300067Y-87567D01*
X300172Y-87519D01*
X300278Y-87474D01*
X300385Y-87433D01*
X300494Y-87396D01*
X300605Y-87363D01*
X300716Y-87334D01*
X300828Y-87308D01*
X300941Y-87286D01*
X301055Y-87269D01*
X301169Y-87255D01*
X301284Y-87245D01*
X301399Y-87239D01*
X301514Y-87237D01*
X301629Y-87239D01*
X301744Y-87245D01*
X301859Y-87255D01*
X301973Y-87269D01*
X302087Y-87286D01*
X302200Y-87308D01*
X302312Y-87334D01*
X302424Y-87363D01*
X302534Y-87396D01*
X302643Y-87433D01*
X302751Y-87474D01*
X302857Y-87519D01*
X302962Y-87567D01*
X303064Y-87618D01*
X303166Y-87674D01*
X303265Y-87732D01*
X303362Y-87794D01*
X303457Y-87860D01*
X303549Y-87928D01*
X303639Y-88000D01*
X303727Y-88074D01*
X303812Y-88152D01*
X303894Y-88233D01*
X303973Y-88316D01*
X304050Y-88402D01*
X304123Y-88491D01*
X304194Y-88582D01*
X304261Y-88676D01*
X304325Y-88771D01*
X304386Y-88869D01*
X304443Y-88969D01*
X304496Y-89071D01*
X304547Y-89175D01*
X304593Y-89280D01*
X304636Y-89387D01*
X304675Y-89495D01*
X304674Y-89495D02*
X304811Y-89784D01*
X304941Y-90076D01*
X305064Y-90372D01*
X305179Y-90670D01*
X305288Y-90971D01*
X305389Y-91274D01*
X305483Y-91580D01*
X305570Y-91887D01*
X305649Y-92197D01*
X305721Y-92509D01*
X305785Y-92822D01*
X305842Y-93137D01*
X305892Y-93453D01*
X305934Y-93770D01*
X305968Y-94088D01*
X305995Y-94406D01*
X306014Y-94726D01*
X306025Y-95045D01*
X306029Y-95365D01*
X296998Y-95365D02*
X297002Y-95685D01*
X297013Y-96004D01*
X297032Y-96324D01*
X297059Y-96642D01*
X297093Y-96960D01*
X297135Y-97277D01*
X297185Y-97593D01*
X297242Y-97908D01*
X297306Y-98221D01*
X297378Y-98533D01*
X297457Y-98843D01*
X297544Y-99150D01*
X297638Y-99456D01*
X297739Y-99759D01*
X297848Y-100060D01*
X297963Y-100358D01*
X298086Y-100654D01*
X298216Y-100946D01*
X298353Y-101235D01*
X298353Y-101236D02*
X298392Y-101344D01*
X298435Y-101451D01*
X298481Y-101556D01*
X298532Y-101660D01*
X298585Y-101762D01*
X298642Y-101862D01*
X298703Y-101960D01*
X298767Y-102055D01*
X298834Y-102149D01*
X298905Y-102240D01*
X298978Y-102329D01*
X299055Y-102415D01*
X299134Y-102498D01*
X299216Y-102579D01*
X299301Y-102657D01*
X299389Y-102731D01*
X299479Y-102803D01*
X299572Y-102872D01*
X299666Y-102937D01*
X299763Y-102999D01*
X299863Y-103057D01*
X299964Y-103113D01*
X300066Y-103164D01*
X300171Y-103212D01*
X300277Y-103257D01*
X300385Y-103298D01*
X300494Y-103335D01*
X300604Y-103368D01*
X300716Y-103397D01*
X300828Y-103423D01*
X300941Y-103445D01*
X301055Y-103462D01*
X301169Y-103476D01*
X301284Y-103486D01*
X301399Y-103492D01*
X301514Y-103494D01*
X304674Y-101235D02*
X304811Y-100946D01*
X304941Y-100654D01*
X305064Y-100358D01*
X305179Y-100060D01*
X305288Y-99759D01*
X305389Y-99456D01*
X305483Y-99150D01*
X305570Y-98843D01*
X305649Y-98533D01*
X305721Y-98221D01*
X305785Y-97908D01*
X305842Y-97593D01*
X305892Y-97277D01*
X305934Y-96960D01*
X305968Y-96642D01*
X305995Y-96324D01*
X306014Y-96004D01*
X306025Y-95685D01*
X306029Y-95365D01*
X304675Y-101235D02*
X304636Y-101343D01*
X304593Y-101450D01*
X304547Y-101555D01*
X304496Y-101659D01*
X304443Y-101761D01*
X304386Y-101861D01*
X304325Y-101959D01*
X304261Y-102054D01*
X304194Y-102148D01*
X304123Y-102239D01*
X304050Y-102328D01*
X303973Y-102414D01*
X303894Y-102497D01*
X303812Y-102578D01*
X303727Y-102656D01*
X303639Y-102730D01*
X303549Y-102802D01*
X303456Y-102871D01*
X303362Y-102936D01*
X303265Y-102998D01*
X303165Y-103056D01*
X303064Y-103112D01*
X302961Y-103163D01*
X302857Y-103211D01*
X302751Y-103256D01*
X302643Y-103297D01*
X302534Y-103334D01*
X302424Y-103367D01*
X302312Y-103396D01*
X302200Y-103422D01*
X302087Y-103444D01*
X301973Y-103461D01*
X301859Y-103475D01*
X301744Y-103485D01*
X301629Y-103491D01*
X301514Y-103493D01*
X297901Y-99881D02*
X305126Y-90849D01*
D10*
X0Y0D02*
X-89500Y0D01*
X-89500Y770000D02*
X0Y770000D01*
X-70000Y769350D02*
X-70000Y650D01*
X-73192Y26000D01*
X-66808Y26000D01*
X-70000Y650D01*
X-71300Y26000D01*
X-68700Y26000D02*
X-70000Y650D01*
X-72600Y26000D01*
X-67400Y26000D02*
X-70000Y650D01*
X-73192Y744000D02*
X-70000Y769350D01*
X-73192Y744000D02*
X-66808Y744000D01*
X-70000Y769350D01*
X-71300Y744000D01*
X-68700Y744000D02*
X-70000Y769350D01*
X-72600Y744000D01*
X-67400Y744000D02*
X-70000Y769350D01*
D11*
X-90957Y353852D02*
X-92763Y353852D01*
X-92763Y362883D01*
X-76507Y358368D01*
X-90957Y369483D02*
X-92763Y369483D01*
X-92763Y378514D01*
X-76507Y373999D01*
X-76507Y384489D02*
X-77410Y384489D01*
X-77410Y385392D01*
X-76507Y385392D01*
X-76507Y384489D01*
X-84635Y391367D02*
X-84955Y391371D01*
X-85274Y391382D01*
X-85594Y391401D01*
X-85912Y391428D01*
X-86230Y391462D01*
X-86547Y391504D01*
X-86863Y391554D01*
X-87178Y391611D01*
X-87491Y391675D01*
X-87803Y391747D01*
X-88113Y391826D01*
X-88420Y391913D01*
X-88726Y392007D01*
X-89029Y392108D01*
X-89330Y392217D01*
X-89628Y392332D01*
X-89924Y392455D01*
X-90216Y392585D01*
X-90505Y392722D01*
X-90506Y392721D02*
X-90614Y392760D01*
X-90721Y392803D01*
X-90826Y392849D01*
X-90930Y392900D01*
X-91032Y392953D01*
X-91132Y393010D01*
X-91230Y393071D01*
X-91325Y393135D01*
X-91419Y393202D01*
X-91510Y393273D01*
X-91599Y393346D01*
X-91685Y393423D01*
X-91768Y393502D01*
X-91849Y393584D01*
X-91927Y393669D01*
X-92001Y393757D01*
X-92073Y393847D01*
X-92141Y393939D01*
X-92207Y394034D01*
X-92269Y394131D01*
X-92327Y394230D01*
X-92383Y394332D01*
X-92434Y394434D01*
X-92482Y394539D01*
X-92527Y394645D01*
X-92568Y394753D01*
X-92605Y394862D01*
X-92638Y394972D01*
X-92667Y395084D01*
X-92693Y395196D01*
X-92715Y395309D01*
X-92732Y395423D01*
X-92746Y395537D01*
X-92756Y395652D01*
X-92762Y395767D01*
X-92764Y395882D01*
X-92763Y395882D02*
X-92761Y395997D01*
X-92755Y396112D01*
X-92745Y396227D01*
X-92731Y396341D01*
X-92714Y396455D01*
X-92692Y396568D01*
X-92666Y396680D01*
X-92637Y396792D01*
X-92604Y396902D01*
X-92567Y397011D01*
X-92526Y397119D01*
X-92481Y397225D01*
X-92433Y397330D01*
X-92382Y397432D01*
X-92326Y397533D01*
X-92268Y397633D01*
X-92206Y397730D01*
X-92141Y397824D01*
X-92072Y397917D01*
X-92000Y398007D01*
X-91926Y398095D01*
X-91848Y398180D01*
X-91767Y398262D01*
X-91684Y398341D01*
X-91598Y398418D01*
X-91509Y398491D01*
X-91418Y398562D01*
X-91324Y398629D01*
X-91229Y398693D01*
X-91131Y398754D01*
X-91031Y398811D01*
X-90929Y398864D01*
X-90825Y398915D01*
X-90720Y398961D01*
X-90613Y399004D01*
X-90505Y399043D01*
X-90216Y399180D01*
X-89924Y399310D01*
X-89628Y399433D01*
X-89330Y399548D01*
X-89029Y399657D01*
X-88726Y399758D01*
X-88420Y399852D01*
X-88113Y399939D01*
X-87803Y400018D01*
X-87491Y400090D01*
X-87178Y400154D01*
X-86863Y400211D01*
X-86547Y400261D01*
X-86230Y400303D01*
X-85912Y400337D01*
X-85594Y400364D01*
X-85274Y400383D01*
X-84955Y400394D01*
X-84635Y400398D01*
X-84635Y391367D02*
X-84315Y391371D01*
X-83996Y391382D01*
X-83676Y391401D01*
X-83358Y391428D01*
X-83040Y391462D01*
X-82723Y391504D01*
X-82407Y391554D01*
X-82092Y391611D01*
X-81779Y391675D01*
X-81467Y391747D01*
X-81157Y391826D01*
X-80850Y391913D01*
X-80544Y392007D01*
X-80241Y392108D01*
X-79940Y392217D01*
X-79642Y392332D01*
X-79346Y392455D01*
X-79054Y392585D01*
X-78765Y392722D01*
X-78765Y392721D02*
X-78657Y392760D01*
X-78550Y392803D01*
X-78445Y392849D01*
X-78341Y392900D01*
X-78239Y392953D01*
X-78139Y393010D01*
X-78041Y393071D01*
X-77946Y393135D01*
X-77852Y393202D01*
X-77761Y393273D01*
X-77672Y393346D01*
X-77586Y393423D01*
X-77503Y393502D01*
X-77422Y393584D01*
X-77344Y393669D01*
X-77270Y393757D01*
X-77198Y393847D01*
X-77129Y393940D01*
X-77064Y394034D01*
X-77002Y394131D01*
X-76944Y394231D01*
X-76888Y394332D01*
X-76837Y394434D01*
X-76789Y394539D01*
X-76744Y394645D01*
X-76703Y394753D01*
X-76666Y394862D01*
X-76633Y394972D01*
X-76604Y395084D01*
X-76578Y395196D01*
X-76556Y395309D01*
X-76539Y395423D01*
X-76525Y395537D01*
X-76515Y395652D01*
X-76509Y395767D01*
X-76507Y395882D01*
X-78765Y399043D02*
X-79054Y399180D01*
X-79346Y399310D01*
X-79642Y399433D01*
X-79940Y399548D01*
X-80241Y399657D01*
X-80544Y399758D01*
X-80850Y399852D01*
X-81157Y399939D01*
X-81467Y400018D01*
X-81779Y400090D01*
X-82092Y400154D01*
X-82407Y400211D01*
X-82723Y400261D01*
X-83040Y400303D01*
X-83358Y400337D01*
X-83676Y400364D01*
X-83996Y400383D01*
X-84315Y400394D01*
X-84635Y400398D01*
X-78765Y399043D02*
X-78657Y399004D01*
X-78550Y398961D01*
X-78445Y398915D01*
X-78341Y398864D01*
X-78239Y398811D01*
X-78139Y398754D01*
X-78041Y398693D01*
X-77946Y398629D01*
X-77852Y398562D01*
X-77761Y398491D01*
X-77672Y398418D01*
X-77586Y398341D01*
X-77503Y398262D01*
X-77422Y398180D01*
X-77344Y398095D01*
X-77270Y398007D01*
X-77198Y397917D01*
X-77129Y397824D01*
X-77064Y397730D01*
X-77002Y397633D01*
X-76944Y397533D01*
X-76888Y397432D01*
X-76837Y397329D01*
X-76789Y397225D01*
X-76744Y397119D01*
X-76703Y397011D01*
X-76666Y396902D01*
X-76633Y396792D01*
X-76604Y396680D01*
X-76578Y396568D01*
X-76556Y396455D01*
X-76539Y396341D01*
X-76525Y396227D01*
X-76515Y396112D01*
X-76509Y395997D01*
X-76507Y395882D01*
X-80119Y392270D02*
X-89151Y399495D01*
X-84635Y406998D02*
X-84955Y407002D01*
X-85274Y407013D01*
X-85594Y407032D01*
X-85912Y407059D01*
X-86230Y407093D01*
X-86547Y407135D01*
X-86863Y407185D01*
X-87178Y407242D01*
X-87491Y407306D01*
X-87803Y407378D01*
X-88113Y407457D01*
X-88420Y407544D01*
X-88726Y407638D01*
X-89029Y407739D01*
X-89330Y407848D01*
X-89628Y407963D01*
X-89924Y408086D01*
X-90216Y408216D01*
X-90505Y408353D01*
X-90506Y408353D02*
X-90614Y408392D01*
X-90721Y408435D01*
X-90826Y408481D01*
X-90930Y408532D01*
X-91032Y408585D01*
X-91132Y408642D01*
X-91230Y408703D01*
X-91325Y408767D01*
X-91419Y408834D01*
X-91510Y408905D01*
X-91599Y408978D01*
X-91685Y409055D01*
X-91768Y409134D01*
X-91849Y409216D01*
X-91927Y409301D01*
X-92001Y409389D01*
X-92073Y409479D01*
X-92141Y409571D01*
X-92207Y409666D01*
X-92269Y409763D01*
X-92327Y409862D01*
X-92383Y409964D01*
X-92434Y410066D01*
X-92482Y410171D01*
X-92527Y410277D01*
X-92568Y410385D01*
X-92605Y410494D01*
X-92638Y410604D01*
X-92667Y410716D01*
X-92693Y410828D01*
X-92715Y410941D01*
X-92732Y411055D01*
X-92746Y411169D01*
X-92756Y411284D01*
X-92762Y411399D01*
X-92764Y411514D01*
X-92763Y411514D02*
X-92761Y411629D01*
X-92755Y411744D01*
X-92745Y411859D01*
X-92731Y411973D01*
X-92714Y412087D01*
X-92692Y412200D01*
X-92666Y412312D01*
X-92637Y412424D01*
X-92604Y412534D01*
X-92567Y412643D01*
X-92526Y412751D01*
X-92481Y412857D01*
X-92433Y412962D01*
X-92382Y413064D01*
X-92326Y413165D01*
X-92268Y413265D01*
X-92206Y413362D01*
X-92141Y413456D01*
X-92072Y413549D01*
X-92000Y413639D01*
X-91926Y413727D01*
X-91848Y413812D01*
X-91767Y413894D01*
X-91684Y413973D01*
X-91598Y414050D01*
X-91509Y414123D01*
X-91418Y414194D01*
X-91324Y414261D01*
X-91229Y414325D01*
X-91131Y414386D01*
X-91031Y414443D01*
X-90929Y414496D01*
X-90825Y414547D01*
X-90720Y414593D01*
X-90613Y414636D01*
X-90505Y414675D01*
X-90505Y414674D02*
X-90216Y414811D01*
X-89924Y414941D01*
X-89628Y415064D01*
X-89330Y415179D01*
X-89029Y415288D01*
X-88726Y415389D01*
X-88420Y415483D01*
X-88113Y415570D01*
X-87803Y415649D01*
X-87491Y415721D01*
X-87178Y415785D01*
X-86863Y415842D01*
X-86547Y415892D01*
X-86230Y415934D01*
X-85912Y415968D01*
X-85594Y415995D01*
X-85274Y416014D01*
X-84955Y416025D01*
X-84635Y416029D01*
X-84635Y406998D02*
X-84315Y407002D01*
X-83996Y407013D01*
X-83676Y407032D01*
X-83358Y407059D01*
X-83040Y407093D01*
X-82723Y407135D01*
X-82407Y407185D01*
X-82092Y407242D01*
X-81779Y407306D01*
X-81467Y407378D01*
X-81157Y407457D01*
X-80850Y407544D01*
X-80544Y407638D01*
X-80241Y407739D01*
X-79940Y407848D01*
X-79642Y407963D01*
X-79346Y408086D01*
X-79054Y408216D01*
X-78765Y408353D01*
X-78657Y408392D01*
X-78550Y408435D01*
X-78445Y408481D01*
X-78341Y408532D01*
X-78239Y408585D01*
X-78139Y408642D01*
X-78041Y408703D01*
X-77946Y408767D01*
X-77852Y408834D01*
X-77761Y408905D01*
X-77672Y408978D01*
X-77586Y409055D01*
X-77503Y409134D01*
X-77422Y409216D01*
X-77344Y409301D01*
X-77270Y409389D01*
X-77198Y409479D01*
X-77129Y409572D01*
X-77064Y409666D01*
X-77002Y409763D01*
X-76944Y409863D01*
X-76888Y409964D01*
X-76837Y410066D01*
X-76789Y410171D01*
X-76744Y410277D01*
X-76703Y410385D01*
X-76666Y410494D01*
X-76633Y410604D01*
X-76604Y410716D01*
X-76578Y410828D01*
X-76556Y410941D01*
X-76539Y411055D01*
X-76525Y411169D01*
X-76515Y411284D01*
X-76509Y411399D01*
X-76507Y411514D01*
X-78765Y414674D02*
X-79054Y414811D01*
X-79346Y414941D01*
X-79642Y415064D01*
X-79940Y415179D01*
X-80241Y415288D01*
X-80544Y415389D01*
X-80850Y415483D01*
X-81157Y415570D01*
X-81467Y415649D01*
X-81779Y415721D01*
X-82092Y415785D01*
X-82407Y415842D01*
X-82723Y415892D01*
X-83040Y415934D01*
X-83358Y415968D01*
X-83676Y415995D01*
X-83996Y416014D01*
X-84315Y416025D01*
X-84635Y416029D01*
X-78765Y414675D02*
X-78657Y414636D01*
X-78550Y414593D01*
X-78445Y414547D01*
X-78341Y414496D01*
X-78239Y414443D01*
X-78139Y414386D01*
X-78041Y414325D01*
X-77946Y414261D01*
X-77852Y414194D01*
X-77761Y414123D01*
X-77672Y414050D01*
X-77586Y413973D01*
X-77503Y413894D01*
X-77422Y413812D01*
X-77344Y413727D01*
X-77270Y413639D01*
X-77198Y413549D01*
X-77129Y413456D01*
X-77064Y413362D01*
X-77002Y413265D01*
X-76944Y413165D01*
X-76888Y413064D01*
X-76837Y412961D01*
X-76789Y412857D01*
X-76744Y412751D01*
X-76703Y412643D01*
X-76666Y412534D01*
X-76633Y412424D01*
X-76604Y412312D01*
X-76578Y412200D01*
X-76556Y412087D01*
X-76539Y411973D01*
X-76525Y411859D01*
X-76515Y411744D01*
X-76509Y411629D01*
X-76507Y411514D01*
X-80119Y407901D02*
X-89151Y415126D01*
D12*
X52200Y715300D03*
X493300Y715300D03*
D13*
X506400Y649750D02*
X506400Y630250D01*
X506400Y584750D02*
X506400Y565250D01*
D14*
X252400Y428900D03*
X252400Y389900D03*
D15*
X428300Y97900D03*
X428300Y69900D03*
D16*
X319300Y221500D03*
X291300Y221500D03*
D17*
X172500Y350100D03*
X172500Y322100D03*
D18*
X478900Y324700D03*
X446900Y324700D03*
D19*
X238700Y248600D03*
X238700Y280600D03*
D16*
X440900Y281500D03*
X412900Y281500D03*
D17*
X355000Y715300D03*
X355000Y687300D03*
D16*
X408500Y671500D03*
X380500Y671500D03*
X161300Y649000D03*
X133300Y649000D03*
X160800Y621000D03*
X132800Y621000D03*
D14*
X334400Y410900D03*
X334400Y371900D03*
X369600Y216600D03*
X369600Y255600D03*
D20*
X31500Y20200D03*
X31500Y39200D03*
X31500Y69200D03*
X31500Y90200D03*
X79500Y29200D03*
X79500Y59200D03*
X79500Y87200D03*
X79500Y109200D03*
D21*
X418550Y548800D03*
X319050Y548800D03*
D22*
X109880Y20800D03*
X138320Y20800D03*
X174380Y20800D03*
X202820Y20800D03*
D20*
X471500Y20700D03*
X471500Y39700D03*
X471500Y69700D03*
X471500Y90700D03*
X519500Y29700D03*
X519500Y59700D03*
X519500Y87700D03*
X519500Y109700D03*
D23*
X133900Y568500D03*
X161900Y568500D03*
D24*
X331000Y331500D03*
X331000Y306100D03*
D25*
X370000Y281700D03*
X370000Y307100D03*
D24*
X402000Y338300D03*
X402000Y312900D03*
D26*
X320100Y273000D03*
X294700Y273000D03*
D24*
X271000Y361100D03*
X271000Y335700D03*
D27*
X107900Y336500D03*
X133300Y336500D03*
X138100Y296000D03*
X163500Y296000D03*
D24*
X222000Y350700D03*
X222000Y325300D03*
D28*
X235000Y717700D03*
X235000Y745700D03*
X295000Y745800D03*
X295000Y717800D03*
X215000Y671800D03*
X215000Y643800D03*
D23*
X160700Y715000D03*
X188700Y715000D03*
D29*
X294400Y300900D03*
X294400Y305900D03*
X294400Y310900D03*
X294400Y315900D03*
X294400Y320900D03*
X249400Y320900D03*
X249400Y315900D03*
X249400Y310900D03*
X249400Y305900D03*
X249400Y300900D03*
D30*
X271900Y310900D03*
D31*
X89680Y616400D02*
X77600Y616400D01*
X77600Y600400D02*
X89680Y600400D01*
X89680Y632400D02*
X77600Y632400D01*
X65600Y624400D02*
X53520Y624400D01*
X53520Y608400D02*
X65600Y608400D01*
X32140Y578400D02*
X20060Y578400D01*
D32*
X20250Y651400D02*
X32950Y651400D01*
D33*
X318900Y633050D03*
X318900Y639550D03*
X318900Y646050D03*
X318900Y652550D03*
X318900Y659050D03*
X318900Y665550D03*
X318900Y672050D03*
X318900Y678550D03*
X259500Y678550D03*
X259500Y672050D03*
X259500Y665550D03*
X259500Y659050D03*
X259500Y652550D03*
X259500Y646050D03*
X259500Y639550D03*
X259500Y633050D03*
D34*
X305200Y50700D03*
X280200Y50700D03*
X255200Y50700D03*
X255200Y78200D03*
X280200Y78200D03*
X305200Y78200D03*
X255200Y143200D03*
X305200Y143200D03*
D28*
X358100Y45600D03*
X358100Y73600D03*
D22*
X385380Y19400D03*
X413820Y19400D03*
D35*
X322000Y707000D03*
X317000Y694000D03*
X290000Y661000D03*
X288000Y646000D03*
X330000Y623000D03*
X344000Y623000D03*
X337000Y635000D03*
X238000Y347000D03*
X249000Y347000D03*
X241000Y332000D03*
X254000Y332000D03*
X295000Y332000D03*
X303000Y339000D03*
D11*
X109728Y321564D02*
X109728Y21336D01*
X109728Y321564D02*
X98298Y332994D01*
X98298Y566166D01*
X150114Y617982D01*
X150114Y672846D01*
X177546Y700278D01*
X109728Y21336D02*
X109880Y20800D01*
D35*
X177546Y700278D03*
D11*
X122682Y115062D02*
X122682Y36576D01*
X137922Y21336D01*
X138320Y20800D01*
D35*
X122682Y115062D03*
D11*
X259842Y671322D02*
X268224Y671322D01*
X271272Y668274D01*
X271272Y492252D01*
X121158Y342138D01*
X121158Y287274D01*
X202692Y205740D01*
X202692Y21336D01*
X259842Y671322D02*
X259500Y672050D01*
X202692Y21336D02*
X202820Y20800D01*
X173736Y21336D02*
X173736Y230124D01*
X118110Y285750D01*
X118110Y553212D01*
X133350Y568452D01*
X173736Y21336D02*
X174380Y20800D01*
X133350Y568452D02*
X133900Y568500D01*
X227838Y659130D02*
X259080Y659130D01*
X227838Y659130D02*
X215646Y671322D01*
X259080Y659130D02*
X259500Y659050D01*
X215646Y671322D02*
X215000Y671800D01*
X188976Y697992D02*
X188976Y714756D01*
X188976Y697992D02*
X214884Y672084D01*
X188976Y714756D02*
X188700Y715000D01*
X214884Y672084D02*
X215000Y671800D01*
X310896Y672084D02*
X318516Y672084D01*
X310896Y672084D02*
X295656Y687324D01*
X295656Y717042D01*
X318516Y672084D02*
X318900Y672050D01*
X295656Y717042D02*
X295000Y717800D01*
X294894Y717804D02*
X235458Y717804D01*
X235000Y717700D01*
X294894Y717804D02*
X295000Y717800D01*
X319278Y639318D02*
X319278Y633222D01*
X318900Y633050D01*
X319278Y639318D02*
X318900Y639550D01*
X319278Y632460D02*
X319278Y549402D01*
X319278Y632460D02*
X318900Y633050D01*
X319278Y549402D02*
X319050Y548800D01*
X259842Y643890D02*
X259842Y645414D01*
X259842Y643890D02*
X259842Y640080D01*
X259500Y639550D01*
X259842Y645414D02*
X259500Y646050D01*
X259842Y646176D02*
X259842Y652272D01*
X259500Y652550D01*
X259842Y646176D02*
X259500Y646050D01*
X259842Y643890D02*
X215646Y643890D01*
X215000Y643800D01*
X160782Y643890D02*
X160782Y648462D01*
X160782Y643890D02*
X160782Y621030D01*
X160800Y621000D01*
X160782Y648462D02*
X161300Y649000D01*
X161544Y620268D02*
X161544Y569214D01*
X161900Y568500D01*
X161544Y620268D02*
X160800Y621000D01*
X160782Y643890D02*
X214884Y643890D01*
X215000Y643800D01*
X161300Y649000D02*
X160782Y643890D01*
X249174Y294894D02*
X249174Y291084D01*
X249174Y294894D02*
X249174Y300228D01*
X249174Y291084D02*
X239268Y281178D01*
X249174Y300228D02*
X249400Y300900D01*
X239268Y281178D02*
X238700Y280600D01*
X249174Y294894D02*
X260604Y294894D01*
X357378Y182118D02*
X357378Y73914D01*
X358100Y73600D01*
X161544Y391668D02*
X161544Y568452D01*
X161900Y568500D01*
D35*
X260604Y294894D03*
X357378Y182118D03*
X161544Y391668D03*
D11*
X441198Y319278D02*
X441198Y281940D01*
X441198Y319278D02*
X446532Y324612D01*
X441198Y281940D02*
X440900Y281500D01*
X446532Y324612D02*
X446900Y324700D01*
X323850Y316230D02*
X294894Y316230D01*
X323850Y316230D02*
X329946Y322326D01*
X386334Y322326D01*
X401574Y337566D01*
X294894Y316230D02*
X294400Y315900D01*
X401574Y337566D02*
X402000Y338300D01*
X419862Y320040D02*
X441198Y320040D01*
X419862Y320040D02*
X402336Y337566D01*
X441198Y320040D02*
X446900Y324700D01*
X402336Y337566D02*
X402000Y338300D01*
X150876Y295656D02*
X138684Y295656D01*
X150876Y295656D02*
X179832Y266700D01*
X249174Y266700D01*
X283464Y300990D01*
X283464Y313182D01*
X285750Y315468D01*
X294132Y315468D01*
X138684Y295656D02*
X138100Y296000D01*
X294132Y315468D02*
X294400Y315900D01*
X294132Y300228D02*
X294132Y273558D01*
X294132Y300228D02*
X294400Y300900D01*
X294132Y273558D02*
X294700Y273000D01*
X291846Y270510D02*
X291846Y221742D01*
X291846Y270510D02*
X294132Y272796D01*
X291846Y221742D02*
X291300Y221500D01*
X294132Y272796D02*
X294700Y273000D01*
X428244Y188214D02*
X428244Y98298D01*
X428244Y188214D02*
X387858Y228600D01*
X346710Y228600D01*
X327660Y209550D01*
X304800Y209550D01*
X292608Y221742D01*
X428244Y98298D02*
X428300Y97900D01*
X292608Y221742D02*
X291300Y221500D01*
X249174Y306324D02*
X240792Y306324D01*
X222504Y324612D01*
X249174Y306324D02*
X249400Y305900D01*
X222504Y324612D02*
X222000Y325300D01*
X219456Y322326D02*
X172974Y322326D01*
X219456Y322326D02*
X221742Y324612D01*
X172974Y322326D02*
X172500Y322100D01*
X221742Y324612D02*
X222000Y325300D01*
X331470Y332232D02*
X331470Y369570D01*
X333756Y371856D01*
X331470Y332232D02*
X331000Y331500D01*
X333756Y371856D02*
X334400Y371900D01*
X370332Y281178D02*
X370332Y256032D01*
X370332Y281178D02*
X370000Y281700D01*
X370332Y256032D02*
X369600Y255600D01*
X412242Y281940D02*
X412242Y302514D01*
X402336Y312420D01*
X412242Y281940D02*
X412900Y281500D01*
X402336Y312420D02*
X402000Y312900D01*
X323850Y311658D02*
X294894Y311658D01*
X323850Y311658D02*
X327660Y315468D01*
X361950Y315468D01*
X369570Y307848D01*
X294894Y311658D02*
X294400Y310900D01*
X369570Y307848D02*
X370000Y307100D01*
X374904Y312420D02*
X401574Y312420D01*
X374904Y312420D02*
X370332Y307848D01*
X401574Y312420D02*
X402000Y312900D01*
X370332Y307848D02*
X370000Y307100D01*
X330708Y306324D02*
X320040Y306324D01*
X294894Y306324D01*
X294400Y305900D01*
X330708Y306324D02*
X331000Y306100D01*
X320040Y272796D02*
X320040Y221742D01*
X319300Y221500D01*
X320040Y272796D02*
X320100Y273000D01*
X320040Y273558D02*
X320040Y306324D01*
X320040Y273558D02*
X320100Y273000D01*
X257556Y316230D02*
X249936Y316230D01*
X257556Y316230D02*
X261366Y320040D01*
X261366Y321564D01*
X265938Y326136D01*
X274320Y326136D01*
X280416Y332232D01*
X280416Y339090D01*
X259080Y360426D01*
X156972Y360426D01*
X133350Y336804D01*
X249400Y315900D02*
X249936Y316230D01*
X133300Y336500D02*
X133350Y336804D01*
X163068Y306324D02*
X163068Y296418D01*
X163068Y306324D02*
X133350Y336042D01*
X163068Y296418D02*
X163500Y296000D01*
X133350Y336042D02*
X133300Y336500D01*
X270510Y361188D02*
X270510Y371856D01*
X252984Y389382D01*
X270510Y361188D02*
X271000Y361100D01*
X252984Y389382D02*
X252400Y389900D01*
X249174Y311658D02*
X240792Y311658D01*
X231648Y320802D01*
X231648Y339042D02*
X231648Y341376D01*
X222504Y350520D01*
X249174Y311658D02*
X249400Y310900D01*
X222504Y350520D02*
X222000Y350700D01*
X221742Y350520D02*
X172974Y350520D01*
X172500Y350100D01*
X221742Y350520D02*
X222000Y350700D01*
X231648Y339042D02*
X255510Y339042D01*
X260298Y335700D02*
X271000Y335700D01*
X260298Y335700D02*
X255510Y339042D01*
X231648Y339042D02*
X231648Y320802D01*
X305562Y60198D02*
X305562Y51054D01*
X305562Y60198D02*
X351282Y105918D01*
X351282Y198120D01*
X369570Y216408D01*
X305562Y51054D02*
X305200Y50700D01*
X369570Y216408D02*
X369600Y216600D01*
X32004Y95250D02*
X32004Y90678D01*
X32004Y95250D02*
X48006Y111252D01*
X77724Y111252D01*
X79248Y109728D01*
X32004Y90678D02*
X31500Y90200D01*
X79248Y109728D02*
X79500Y109200D01*
X61722Y69342D02*
X32004Y69342D01*
X61722Y69342D02*
X79248Y86868D01*
X32004Y69342D02*
X31500Y69200D01*
X79248Y86868D02*
X79500Y87200D01*
X32004Y25146D02*
X32004Y20574D01*
X32004Y25146D02*
X48006Y41148D01*
X67818Y41148D01*
X79248Y29718D01*
X32004Y20574D02*
X31500Y20200D01*
X79248Y29718D02*
X79500Y29200D01*
X471678Y25146D02*
X471678Y21336D01*
X471678Y25146D02*
X488442Y41910D01*
X506730Y41910D01*
X518922Y29718D01*
X471678Y21336D02*
X471500Y20700D01*
X518922Y29718D02*
X519500Y29700D01*
X470916Y70104D02*
X429006Y70104D01*
X428300Y69900D01*
X470916Y70104D02*
X471500Y69700D01*
X512826Y87630D02*
X518922Y87630D01*
X512826Y87630D02*
X495300Y70104D01*
X471678Y70104D01*
X518922Y87630D02*
X519500Y87700D01*
X471678Y70104D02*
X471500Y69700D01*
X333756Y665988D02*
X319278Y665988D01*
X333756Y665988D02*
X354330Y686562D01*
X319278Y665988D02*
X318900Y665550D01*
X354330Y686562D02*
X355000Y687300D01*
X297942Y678180D02*
X259842Y678180D01*
X297942Y678180D02*
X310134Y665988D01*
X318516Y665988D01*
X259842Y678180D02*
X259500Y678550D01*
X318516Y665988D02*
X318900Y665550D01*
X369570Y672084D02*
X380238Y672084D01*
X369570Y672084D02*
X355092Y686562D01*
X380238Y672084D02*
X380500Y671500D01*
X355092Y686562D02*
X355000Y687300D01*
X234696Y739140D02*
X234696Y745236D01*
X234696Y739140D02*
X222504Y726948D01*
X222504Y708660D01*
X252222Y678942D01*
X259080Y678942D01*
X234696Y745236D02*
X235000Y745700D01*
X259080Y678942D02*
X259500Y678550D01*
X254508Y166878D02*
X254508Y143256D01*
X254508Y166878D02*
X124206Y297180D01*
X124206Y340614D01*
X302514Y518922D01*
X388620Y518922D01*
X418338Y548640D01*
X255200Y143200D02*
X254508Y143256D01*
X418338Y548640D02*
X418550Y548800D01*
X381000Y586740D02*
X381000Y671322D01*
X381000Y586740D02*
X418338Y549402D01*
X381000Y671322D02*
X380500Y671500D01*
X418338Y549402D02*
X418550Y548800D01*
X384810Y19812D02*
X383286Y19812D01*
X358140Y44958D01*
X384810Y19812D02*
X385380Y19400D01*
X358140Y44958D02*
X358100Y45600D01*
M02*
