G04 EAGLE Gerber RS-274X export*
G75*
%MOMM*%
%FSLAX34Y34*%
%LPD*%
%INBottom Copper*%
%IPPOS*%
%AMOC8*
5,1,8,0,0,1.08239X$1,22.5*%
G01*
%ADD10R,5.842000X5.842000*%
%ADD11C,1.950000*%
%ADD12R,1.600000X1.800000*%
%ADD13R,1.900000X3.400000*%
%ADD14R,1.600000X2.700000*%
%ADD15R,1.800000X1.600000*%
%ADD16C,1.408000*%
%ADD17R,2.000000X1.600000*%
%ADD18P,1.429621X8X292.500000*%
%ADD19P,1.429621X8X112.500000*%
%ADD20P,1.429621X8X202.500000*%
%ADD21P,1.429621X8X22.500000*%
%ADD22R,1.600000X2.000000*%
%ADD23R,0.600000X0.900000*%
%ADD24R,0.350000X1.200000*%
%ADD25R,0.900000X0.600000*%
%ADD26C,1.208000*%
%ADD27C,1.270000*%
%ADD28R,1.508000X1.508000*%
%ADD29C,0.152400*%
%ADD30C,0.756400*%

G36*
X29625Y10176D02*
X29625Y10176D01*
X29722Y10186D01*
X29746Y10196D01*
X29772Y10200D01*
X29858Y10246D01*
X29947Y10286D01*
X29966Y10303D01*
X29989Y10316D01*
X30056Y10386D01*
X30128Y10452D01*
X30141Y10475D01*
X30159Y10494D01*
X30200Y10582D01*
X30247Y10668D01*
X30251Y10693D01*
X30262Y10717D01*
X30273Y10814D01*
X30290Y10910D01*
X30287Y10936D01*
X30289Y10961D01*
X30269Y11057D01*
X30255Y11153D01*
X30243Y11176D01*
X30237Y11202D01*
X30187Y11285D01*
X30143Y11372D01*
X30124Y11391D01*
X30111Y11413D01*
X30037Y11476D01*
X29967Y11544D01*
X29939Y11560D01*
X29924Y11573D01*
X29893Y11585D01*
X29821Y11625D01*
X26648Y12939D01*
X24239Y15348D01*
X22935Y18496D01*
X22935Y21904D01*
X24239Y25052D01*
X26648Y27461D01*
X29128Y28488D01*
X29214Y28541D01*
X29303Y28590D01*
X29318Y28606D01*
X29337Y28617D01*
X29402Y28696D01*
X29471Y28770D01*
X29480Y28790D01*
X29494Y28807D01*
X29530Y28902D01*
X29572Y28994D01*
X29574Y29016D01*
X29582Y29037D01*
X29586Y29138D01*
X29596Y29239D01*
X29592Y29260D01*
X29592Y29282D01*
X29564Y29380D01*
X29542Y29478D01*
X29530Y29497D01*
X29524Y29519D01*
X29466Y29602D01*
X29413Y29688D01*
X29396Y29702D01*
X29384Y29721D01*
X29302Y29781D01*
X29247Y29828D01*
X29229Y29843D01*
X29228Y29843D01*
X29225Y29846D01*
X29200Y29857D01*
X29186Y29867D01*
X29155Y29878D01*
X29072Y29915D01*
X27822Y30321D01*
X26479Y31006D01*
X25258Y31892D01*
X24192Y32958D01*
X23306Y34179D01*
X22621Y35522D01*
X22155Y36957D01*
X22041Y37677D01*
X30738Y37677D01*
X30758Y37680D01*
X30777Y37678D01*
X30879Y37700D01*
X30981Y37717D01*
X30998Y37726D01*
X31018Y37730D01*
X31107Y37783D01*
X31198Y37832D01*
X31212Y37846D01*
X31229Y37856D01*
X31296Y37935D01*
X31367Y38010D01*
X31376Y38028D01*
X31389Y38043D01*
X31427Y38139D01*
X31471Y38233D01*
X31473Y38253D01*
X31481Y38271D01*
X31499Y38438D01*
X31499Y39201D01*
X31501Y39201D01*
X31501Y38438D01*
X31504Y38418D01*
X31502Y38399D01*
X31524Y38297D01*
X31541Y38195D01*
X31550Y38178D01*
X31554Y38158D01*
X31607Y38069D01*
X31656Y37978D01*
X31670Y37964D01*
X31680Y37947D01*
X31759Y37880D01*
X31834Y37809D01*
X31852Y37800D01*
X31867Y37787D01*
X31963Y37748D01*
X32057Y37705D01*
X32077Y37703D01*
X32095Y37695D01*
X32262Y37677D01*
X40959Y37677D01*
X40845Y36957D01*
X40379Y35522D01*
X39694Y34179D01*
X38808Y32958D01*
X37742Y31892D01*
X36521Y31006D01*
X35178Y30321D01*
X33928Y29915D01*
X33926Y29914D01*
X33923Y29913D01*
X33854Y29877D01*
X33838Y29869D01*
X33746Y29828D01*
X33729Y29813D01*
X33710Y29802D01*
X33639Y29730D01*
X33564Y29661D01*
X33554Y29642D01*
X33538Y29626D01*
X33495Y29534D01*
X33446Y29446D01*
X33442Y29424D01*
X33432Y29404D01*
X33420Y29303D01*
X33402Y29204D01*
X33405Y29182D01*
X33403Y29160D01*
X33423Y29061D01*
X33438Y28960D01*
X33448Y28940D01*
X33453Y28919D01*
X33503Y28832D01*
X33549Y28741D01*
X33565Y28725D01*
X33576Y28706D01*
X33653Y28640D01*
X33725Y28569D01*
X33749Y28555D01*
X33762Y28544D01*
X33792Y28532D01*
X33872Y28488D01*
X36352Y27461D01*
X38040Y25773D01*
X38098Y25731D01*
X38150Y25681D01*
X38197Y25659D01*
X38239Y25629D01*
X38308Y25608D01*
X38373Y25578D01*
X38425Y25572D01*
X38475Y25557D01*
X38546Y25559D01*
X38617Y25551D01*
X38668Y25562D01*
X38720Y25563D01*
X38788Y25588D01*
X38858Y25603D01*
X38903Y25630D01*
X38951Y25648D01*
X39007Y25692D01*
X39069Y25729D01*
X39103Y25769D01*
X39143Y25801D01*
X39182Y25862D01*
X39229Y25916D01*
X39248Y25964D01*
X39276Y26008D01*
X39294Y26078D01*
X39321Y26144D01*
X39329Y26216D01*
X39337Y26247D01*
X39335Y26270D01*
X39339Y26311D01*
X39339Y27415D01*
X41800Y33354D01*
X46346Y37900D01*
X52285Y40361D01*
X58715Y40361D01*
X64654Y37900D01*
X69200Y33354D01*
X69872Y31733D01*
X69910Y31672D01*
X69939Y31606D01*
X69974Y31568D01*
X70002Y31524D01*
X70057Y31478D01*
X70105Y31425D01*
X70151Y31400D01*
X70191Y31367D01*
X70258Y31341D01*
X70321Y31307D01*
X70372Y31297D01*
X70421Y31279D01*
X70492Y31276D01*
X70563Y31263D01*
X70615Y31270D01*
X70667Y31268D01*
X70735Y31288D01*
X70806Y31299D01*
X70853Y31322D01*
X70903Y31337D01*
X70962Y31378D01*
X71026Y31410D01*
X71062Y31447D01*
X71105Y31477D01*
X71148Y31535D01*
X71198Y31586D01*
X71232Y31649D01*
X71252Y31674D01*
X71259Y31697D01*
X71279Y31733D01*
X72239Y34052D01*
X74648Y36461D01*
X77796Y37765D01*
X81204Y37765D01*
X84352Y36461D01*
X86761Y34052D01*
X87730Y31713D01*
X87792Y31613D01*
X87851Y31513D01*
X87856Y31509D01*
X87859Y31504D01*
X87950Y31429D01*
X88038Y31353D01*
X88044Y31351D01*
X88049Y31347D01*
X88157Y31305D01*
X88266Y31261D01*
X88274Y31260D01*
X88278Y31259D01*
X88297Y31258D01*
X88433Y31243D01*
X464243Y31243D01*
X466909Y28577D01*
X467003Y28509D01*
X467097Y28439D01*
X467103Y28437D01*
X467108Y28434D01*
X467219Y28400D01*
X467331Y28363D01*
X467337Y28363D01*
X467343Y28361D01*
X467460Y28364D01*
X467577Y28366D01*
X467584Y28368D01*
X467589Y28368D01*
X467607Y28374D01*
X467738Y28412D01*
X469128Y28988D01*
X469214Y29041D01*
X469303Y29090D01*
X469318Y29106D01*
X469337Y29117D01*
X469402Y29195D01*
X469471Y29270D01*
X469480Y29290D01*
X469494Y29307D01*
X469530Y29401D01*
X469572Y29494D01*
X469574Y29516D01*
X469582Y29537D01*
X469586Y29638D01*
X469596Y29739D01*
X469591Y29760D01*
X469592Y29782D01*
X469564Y29879D01*
X469542Y29978D01*
X469530Y29997D01*
X469524Y30019D01*
X469466Y30102D01*
X469413Y30188D01*
X469396Y30202D01*
X469384Y30221D01*
X469302Y30281D01*
X469225Y30346D01*
X469200Y30357D01*
X469186Y30367D01*
X469155Y30378D01*
X469072Y30415D01*
X467822Y30821D01*
X466479Y31506D01*
X465258Y32392D01*
X464192Y33458D01*
X463306Y34679D01*
X462621Y36022D01*
X462155Y37457D01*
X462041Y38177D01*
X470738Y38177D01*
X470758Y38180D01*
X470777Y38178D01*
X470879Y38200D01*
X470981Y38217D01*
X470998Y38226D01*
X471018Y38230D01*
X471107Y38283D01*
X471198Y38332D01*
X471212Y38346D01*
X471229Y38356D01*
X471296Y38435D01*
X471367Y38510D01*
X471376Y38528D01*
X471389Y38543D01*
X471427Y38639D01*
X471471Y38733D01*
X471473Y38753D01*
X471481Y38771D01*
X471499Y38938D01*
X471499Y39701D01*
X471501Y39701D01*
X471501Y38938D01*
X471504Y38918D01*
X471502Y38899D01*
X471524Y38797D01*
X471541Y38695D01*
X471550Y38678D01*
X471554Y38658D01*
X471607Y38569D01*
X471656Y38478D01*
X471670Y38464D01*
X471680Y38447D01*
X471759Y38380D01*
X471834Y38309D01*
X471852Y38300D01*
X471867Y38287D01*
X471963Y38248D01*
X472057Y38205D01*
X472077Y38203D01*
X472095Y38195D01*
X472262Y38177D01*
X480959Y38177D01*
X480845Y37457D01*
X480379Y36022D01*
X479694Y34679D01*
X478808Y33458D01*
X477742Y32392D01*
X476521Y31506D01*
X475178Y30821D01*
X473928Y30415D01*
X473838Y30369D01*
X473746Y30328D01*
X473729Y30313D01*
X473710Y30302D01*
X473639Y30230D01*
X473564Y30161D01*
X473554Y30142D01*
X473538Y30126D01*
X473495Y30034D01*
X473446Y29946D01*
X473442Y29924D01*
X473432Y29904D01*
X473420Y29803D01*
X473402Y29704D01*
X473405Y29682D01*
X473403Y29660D01*
X473423Y29561D01*
X473438Y29460D01*
X473448Y29440D01*
X473453Y29419D01*
X473503Y29332D01*
X473549Y29241D01*
X473565Y29225D01*
X473577Y29206D01*
X473653Y29140D01*
X473725Y29069D01*
X473749Y29055D01*
X473762Y29044D01*
X473792Y29032D01*
X473872Y28988D01*
X476352Y27961D01*
X478040Y26273D01*
X478098Y26231D01*
X478150Y26181D01*
X478197Y26159D01*
X478239Y26129D01*
X478308Y26108D01*
X478373Y26078D01*
X478425Y26072D01*
X478475Y26057D01*
X478546Y26059D01*
X478617Y26051D01*
X478668Y26062D01*
X478720Y26063D01*
X478788Y26088D01*
X478858Y26103D01*
X478903Y26130D01*
X478951Y26148D01*
X479007Y26192D01*
X479069Y26229D01*
X479103Y26269D01*
X479143Y26301D01*
X479182Y26362D01*
X479229Y26416D01*
X479248Y26464D01*
X479276Y26508D01*
X479294Y26578D01*
X479321Y26644D01*
X479329Y26716D01*
X479337Y26747D01*
X479335Y26770D01*
X479339Y26811D01*
X479339Y27915D01*
X481800Y33854D01*
X486346Y38400D01*
X492285Y40861D01*
X498715Y40861D01*
X504654Y38400D01*
X509200Y33854D01*
X509872Y32233D01*
X509910Y32172D01*
X509939Y32106D01*
X509974Y32068D01*
X510002Y32024D01*
X510057Y31978D01*
X510105Y31925D01*
X510151Y31900D01*
X510191Y31867D01*
X510258Y31841D01*
X510321Y31807D01*
X510372Y31797D01*
X510421Y31779D01*
X510492Y31776D01*
X510563Y31763D01*
X510615Y31770D01*
X510667Y31768D01*
X510735Y31788D01*
X510806Y31799D01*
X510853Y31822D01*
X510903Y31837D01*
X510962Y31878D01*
X511026Y31910D01*
X511062Y31947D01*
X511105Y31977D01*
X511148Y32035D01*
X511198Y32086D01*
X511232Y32149D01*
X511252Y32174D01*
X511259Y32197D01*
X511279Y32233D01*
X512239Y34552D01*
X514648Y36961D01*
X517796Y38265D01*
X521204Y38265D01*
X524352Y36961D01*
X526761Y34552D01*
X528065Y31404D01*
X528065Y27996D01*
X526761Y24848D01*
X524352Y22439D01*
X521204Y21135D01*
X517796Y21135D01*
X514648Y22439D01*
X512960Y24127D01*
X512902Y24169D01*
X512850Y24219D01*
X512803Y24241D01*
X512761Y24271D01*
X512692Y24292D01*
X512627Y24322D01*
X512575Y24328D01*
X512525Y24343D01*
X512454Y24341D01*
X512383Y24349D01*
X512332Y24338D01*
X512280Y24337D01*
X512212Y24312D01*
X512142Y24297D01*
X512097Y24270D01*
X512049Y24252D01*
X511993Y24208D01*
X511931Y24171D01*
X511897Y24131D01*
X511857Y24099D01*
X511818Y24038D01*
X511771Y23984D01*
X511752Y23936D01*
X511724Y23892D01*
X511706Y23822D01*
X511679Y23756D01*
X511671Y23684D01*
X511663Y23653D01*
X511665Y23630D01*
X511661Y23589D01*
X511661Y21485D01*
X509200Y15546D01*
X505115Y11460D01*
X505073Y11402D01*
X505024Y11350D01*
X505002Y11303D01*
X504971Y11261D01*
X504950Y11192D01*
X504920Y11127D01*
X504914Y11075D01*
X504899Y11025D01*
X504901Y10954D01*
X504893Y10883D01*
X504904Y10832D01*
X504905Y10780D01*
X504930Y10712D01*
X504945Y10642D01*
X504972Y10597D01*
X504990Y10549D01*
X505035Y10493D01*
X505071Y10431D01*
X505111Y10397D01*
X505144Y10357D01*
X505204Y10318D01*
X505258Y10271D01*
X505307Y10252D01*
X505351Y10224D01*
X505420Y10206D01*
X505487Y10179D01*
X505558Y10171D01*
X505589Y10163D01*
X505612Y10165D01*
X505653Y10161D01*
X539078Y10161D01*
X539098Y10164D01*
X539117Y10162D01*
X539219Y10184D01*
X539321Y10200D01*
X539338Y10210D01*
X539358Y10214D01*
X539447Y10267D01*
X539538Y10316D01*
X539552Y10330D01*
X539569Y10340D01*
X539636Y10419D01*
X539708Y10494D01*
X539716Y10512D01*
X539729Y10527D01*
X539768Y10623D01*
X539811Y10717D01*
X539813Y10737D01*
X539821Y10755D01*
X539839Y10922D01*
X539839Y759078D01*
X539836Y759098D01*
X539838Y759117D01*
X539816Y759219D01*
X539800Y759321D01*
X539790Y759338D01*
X539786Y759358D01*
X539733Y759447D01*
X539684Y759538D01*
X539670Y759552D01*
X539660Y759569D01*
X539581Y759636D01*
X539506Y759708D01*
X539488Y759716D01*
X539473Y759729D01*
X539377Y759768D01*
X539283Y759811D01*
X539263Y759813D01*
X539245Y759821D01*
X539078Y759839D01*
X139270Y759839D01*
X139244Y759835D01*
X139218Y759837D01*
X139194Y759832D01*
X139179Y759832D01*
X139120Y759815D01*
X139028Y759800D01*
X139004Y759787D01*
X138979Y759781D01*
X138953Y759765D01*
X138943Y759762D01*
X138904Y759735D01*
X138896Y759730D01*
X138810Y759684D01*
X138792Y759665D01*
X138770Y759651D01*
X138748Y759625D01*
X138742Y759621D01*
X138722Y759593D01*
X138708Y759577D01*
X138641Y759506D01*
X138630Y759482D01*
X138613Y759462D01*
X138600Y759428D01*
X138596Y759423D01*
X138588Y759396D01*
X138578Y759371D01*
X138537Y759283D01*
X138534Y759257D01*
X138525Y759232D01*
X138523Y759195D01*
X138521Y759189D01*
X138522Y759159D01*
X138521Y759135D01*
X138510Y759039D01*
X138516Y759013D01*
X138515Y758986D01*
X138525Y758951D01*
X138525Y758943D01*
X138538Y758907D01*
X138542Y758893D01*
X138562Y758798D01*
X138576Y758776D01*
X138583Y758750D01*
X138603Y758722D01*
X138607Y758711D01*
X138639Y758670D01*
X138689Y758587D01*
X138709Y758570D01*
X138724Y758548D01*
X138749Y758530D01*
X138759Y758517D01*
X138842Y758456D01*
X138876Y758427D01*
X138888Y758422D01*
X138894Y758418D01*
X138919Y758403D01*
X138921Y758402D01*
X138923Y758401D01*
X139560Y758033D01*
X140033Y757560D01*
X140368Y756981D01*
X140541Y756334D01*
X140541Y749523D01*
X128762Y749523D01*
X128742Y749520D01*
X128723Y749522D01*
X128621Y749500D01*
X128519Y749483D01*
X128502Y749474D01*
X128482Y749470D01*
X128393Y749417D01*
X128302Y749368D01*
X128288Y749354D01*
X128271Y749344D01*
X128204Y749265D01*
X128133Y749190D01*
X128124Y749172D01*
X128111Y749157D01*
X128072Y749061D01*
X128029Y748967D01*
X128027Y748947D01*
X128019Y748929D01*
X128001Y748762D01*
X128001Y747999D01*
X127999Y747999D01*
X127999Y748762D01*
X127996Y748782D01*
X127998Y748801D01*
X127976Y748903D01*
X127959Y749005D01*
X127950Y749022D01*
X127946Y749042D01*
X127893Y749131D01*
X127844Y749222D01*
X127830Y749236D01*
X127820Y749253D01*
X127741Y749320D01*
X127666Y749391D01*
X127648Y749400D01*
X127633Y749413D01*
X127537Y749452D01*
X127443Y749495D01*
X127423Y749497D01*
X127405Y749505D01*
X127238Y749523D01*
X115459Y749523D01*
X115459Y756334D01*
X115632Y756981D01*
X115967Y757560D01*
X116440Y758033D01*
X117106Y758418D01*
X117121Y758430D01*
X117147Y758441D01*
X117166Y758459D01*
X117190Y758472D01*
X117251Y758537D01*
X117296Y758573D01*
X117304Y758586D01*
X117328Y758608D01*
X117341Y758631D01*
X117359Y758650D01*
X117400Y758738D01*
X117402Y758741D01*
X117427Y758782D01*
X117430Y758792D01*
X117447Y758823D01*
X117452Y758849D01*
X117463Y758873D01*
X117473Y758969D01*
X117477Y758988D01*
X117485Y759021D01*
X117484Y759028D01*
X117491Y759065D01*
X117487Y759091D01*
X117490Y759117D01*
X117469Y759212D01*
X117465Y759238D01*
X117463Y759266D01*
X117460Y759271D01*
X117455Y759309D01*
X117443Y759332D01*
X117438Y759358D01*
X117388Y759441D01*
X117376Y759464D01*
X117364Y759491D01*
X117360Y759496D01*
X117344Y759528D01*
X117325Y759546D01*
X117311Y759569D01*
X117238Y759632D01*
X117224Y759645D01*
X117199Y759673D01*
X117192Y759677D01*
X117168Y759700D01*
X117144Y759712D01*
X117124Y759729D01*
X117034Y759765D01*
X117031Y759767D01*
X116984Y759793D01*
X116973Y759795D01*
X116947Y759808D01*
X116921Y759811D01*
X116896Y759821D01*
X116744Y759838D01*
X116742Y759838D01*
X116730Y759839D01*
X10922Y759839D01*
X10902Y759836D01*
X10883Y759838D01*
X10781Y759816D01*
X10679Y759800D01*
X10662Y759790D01*
X10642Y759786D01*
X10553Y759733D01*
X10462Y759684D01*
X10448Y759670D01*
X10431Y759660D01*
X10364Y759581D01*
X10292Y759506D01*
X10284Y759488D01*
X10271Y759473D01*
X10232Y759377D01*
X10189Y759283D01*
X10187Y759263D01*
X10179Y759245D01*
X10161Y759078D01*
X10161Y10922D01*
X10164Y10902D01*
X10162Y10883D01*
X10184Y10781D01*
X10200Y10679D01*
X10210Y10662D01*
X10214Y10642D01*
X10267Y10553D01*
X10316Y10462D01*
X10330Y10448D01*
X10340Y10431D01*
X10419Y10364D01*
X10494Y10292D01*
X10512Y10284D01*
X10527Y10271D01*
X10623Y10232D01*
X10717Y10189D01*
X10737Y10187D01*
X10755Y10179D01*
X10922Y10161D01*
X29529Y10161D01*
X29625Y10176D01*
G37*
%LPC*%
G36*
X272028Y69135D02*
X272028Y69135D01*
X271135Y70028D01*
X271135Y77359D01*
X271121Y77450D01*
X271113Y77540D01*
X271101Y77570D01*
X271096Y77602D01*
X271053Y77683D01*
X271017Y77767D01*
X270991Y77799D01*
X270980Y77820D01*
X270957Y77842D01*
X270912Y77898D01*
X266580Y82230D01*
X266522Y82272D01*
X266470Y82321D01*
X266423Y82343D01*
X266381Y82373D01*
X266312Y82394D01*
X266247Y82425D01*
X266195Y82430D01*
X266145Y82446D01*
X266074Y82444D01*
X266003Y82452D01*
X265952Y82441D01*
X265900Y82439D01*
X265832Y82415D01*
X265762Y82400D01*
X265717Y82373D01*
X265669Y82355D01*
X265613Y82310D01*
X265551Y82273D01*
X265517Y82234D01*
X265477Y82201D01*
X265438Y82141D01*
X265391Y82086D01*
X265372Y82038D01*
X265344Y81994D01*
X265326Y81925D01*
X265299Y81858D01*
X265291Y81787D01*
X265283Y81756D01*
X265285Y81732D01*
X265281Y81692D01*
X265281Y79723D01*
X256723Y79723D01*
X256723Y88281D01*
X258692Y88281D01*
X258762Y88292D01*
X258834Y88294D01*
X258883Y88312D01*
X258934Y88320D01*
X258998Y88354D01*
X259065Y88379D01*
X259106Y88411D01*
X259152Y88436D01*
X259201Y88488D01*
X259257Y88532D01*
X259285Y88576D01*
X259321Y88614D01*
X259351Y88679D01*
X259390Y88739D01*
X259403Y88790D01*
X259425Y88837D01*
X259433Y88908D01*
X259450Y88978D01*
X259446Y89030D01*
X259452Y89081D01*
X259437Y89152D01*
X259431Y89223D01*
X259411Y89271D01*
X259400Y89322D01*
X259363Y89383D01*
X259335Y89449D01*
X259290Y89505D01*
X259273Y89533D01*
X259256Y89548D01*
X259230Y89580D01*
X242354Y106456D01*
X242280Y106509D01*
X242210Y106569D01*
X242180Y106581D01*
X242154Y106600D01*
X242067Y106627D01*
X241982Y106661D01*
X241941Y106665D01*
X241919Y106672D01*
X241887Y106671D01*
X241815Y106679D01*
X88235Y106679D01*
X88120Y106660D01*
X88004Y106643D01*
X87998Y106641D01*
X87992Y106640D01*
X87890Y106585D01*
X87785Y106532D01*
X87780Y106527D01*
X87775Y106524D01*
X87695Y106440D01*
X87612Y106356D01*
X87609Y106350D01*
X87605Y106346D01*
X87598Y106329D01*
X87532Y106209D01*
X86761Y104348D01*
X84352Y101939D01*
X81204Y100635D01*
X77796Y100635D01*
X74648Y101939D01*
X72239Y104348D01*
X70935Y107496D01*
X70935Y110904D01*
X72239Y114052D01*
X74648Y116461D01*
X77796Y117765D01*
X81204Y117765D01*
X84352Y116461D01*
X86761Y114052D01*
X87725Y111723D01*
X87787Y111623D01*
X87847Y111523D01*
X87852Y111519D01*
X87855Y111514D01*
X87945Y111439D01*
X88034Y111363D01*
X88040Y111361D01*
X88045Y111357D01*
X88153Y111315D01*
X88262Y111271D01*
X88270Y111270D01*
X88274Y111269D01*
X88292Y111268D01*
X88429Y111253D01*
X117149Y111253D01*
X117219Y111264D01*
X117291Y111266D01*
X117340Y111284D01*
X117391Y111292D01*
X117455Y111326D01*
X117522Y111351D01*
X117563Y111383D01*
X117609Y111408D01*
X117658Y111460D01*
X117714Y111504D01*
X117742Y111548D01*
X117778Y111586D01*
X117808Y111651D01*
X117847Y111711D01*
X117860Y111762D01*
X117882Y111809D01*
X117890Y111880D01*
X117907Y111950D01*
X117903Y112002D01*
X117909Y112053D01*
X117894Y112124D01*
X117888Y112195D01*
X117868Y112243D01*
X117857Y112294D01*
X117820Y112355D01*
X117792Y112421D01*
X117747Y112477D01*
X117730Y112505D01*
X117713Y112520D01*
X117687Y112552D01*
X117375Y112864D01*
X117375Y117260D01*
X120172Y120057D01*
X120225Y120131D01*
X120285Y120201D01*
X120297Y120231D01*
X120316Y120257D01*
X120343Y120344D01*
X120377Y120429D01*
X120381Y120470D01*
X120388Y120492D01*
X120387Y120524D01*
X120395Y120595D01*
X120395Y224101D01*
X120394Y224109D01*
X120394Y224111D01*
X120392Y224124D01*
X120384Y224172D01*
X120382Y224244D01*
X120364Y224293D01*
X120356Y224344D01*
X120322Y224407D01*
X120297Y224475D01*
X120265Y224515D01*
X120240Y224561D01*
X120188Y224611D01*
X120144Y224667D01*
X120100Y224695D01*
X120062Y224731D01*
X119997Y224761D01*
X119937Y224800D01*
X119886Y224812D01*
X119839Y224834D01*
X119768Y224842D01*
X119698Y224860D01*
X119646Y224856D01*
X119595Y224861D01*
X119524Y224846D01*
X119453Y224841D01*
X119405Y224820D01*
X119354Y224809D01*
X119293Y224772D01*
X119227Y224744D01*
X119171Y224699D01*
X119143Y224683D01*
X119128Y224665D01*
X119096Y224639D01*
X118532Y224075D01*
X98268Y224075D01*
X97375Y224968D01*
X97375Y260232D01*
X98268Y261125D01*
X105156Y261125D01*
X105176Y261128D01*
X105195Y261126D01*
X105297Y261148D01*
X105399Y261164D01*
X105416Y261174D01*
X105436Y261178D01*
X105525Y261231D01*
X105616Y261280D01*
X105630Y261294D01*
X105647Y261304D01*
X105714Y261383D01*
X105786Y261458D01*
X105794Y261476D01*
X105807Y261491D01*
X105846Y261587D01*
X105889Y261681D01*
X105891Y261701D01*
X105899Y261719D01*
X105917Y261886D01*
X105917Y327610D01*
X105915Y327626D01*
X105916Y327641D01*
X105916Y327644D01*
X105916Y327649D01*
X105894Y327751D01*
X105878Y327853D01*
X105868Y327870D01*
X105864Y327890D01*
X105811Y327979D01*
X105762Y328070D01*
X105748Y328084D01*
X105738Y328101D01*
X105659Y328168D01*
X105584Y328240D01*
X105566Y328248D01*
X105551Y328261D01*
X105455Y328300D01*
X105361Y328343D01*
X105341Y328345D01*
X105323Y328353D01*
X105156Y328371D01*
X104533Y328371D01*
X99771Y333133D01*
X99771Y339867D01*
X104533Y344629D01*
X111267Y344629D01*
X116029Y339867D01*
X116029Y333133D01*
X111267Y328371D01*
X111252Y328371D01*
X111232Y328368D01*
X111213Y328370D01*
X111111Y328348D01*
X111009Y328332D01*
X110992Y328322D01*
X110972Y328318D01*
X110883Y328265D01*
X110792Y328216D01*
X110778Y328202D01*
X110761Y328192D01*
X110694Y328113D01*
X110622Y328038D01*
X110614Y328020D01*
X110601Y328005D01*
X110562Y327909D01*
X110519Y327815D01*
X110517Y327795D01*
X110509Y327777D01*
X110491Y327610D01*
X110491Y261886D01*
X110494Y261866D01*
X110492Y261847D01*
X110514Y261745D01*
X110530Y261643D01*
X110540Y261626D01*
X110544Y261606D01*
X110597Y261517D01*
X110646Y261426D01*
X110660Y261412D01*
X110670Y261395D01*
X110749Y261328D01*
X110824Y261256D01*
X110842Y261248D01*
X110857Y261235D01*
X110953Y261196D01*
X111047Y261153D01*
X111067Y261151D01*
X111085Y261143D01*
X111252Y261125D01*
X118532Y261125D01*
X119096Y260561D01*
X119154Y260519D01*
X119206Y260469D01*
X119253Y260447D01*
X119295Y260417D01*
X119364Y260396D01*
X119429Y260366D01*
X119481Y260360D01*
X119531Y260345D01*
X119602Y260347D01*
X119673Y260339D01*
X119724Y260350D01*
X119776Y260351D01*
X119844Y260376D01*
X119914Y260391D01*
X119959Y260418D01*
X120007Y260435D01*
X120063Y260480D01*
X120125Y260517D01*
X120159Y260557D01*
X120199Y260589D01*
X120238Y260649D01*
X120285Y260704D01*
X120304Y260752D01*
X120332Y260796D01*
X120350Y260866D01*
X120377Y260932D01*
X120385Y261003D01*
X120393Y261035D01*
X120391Y261058D01*
X120395Y261099D01*
X120395Y536633D01*
X210088Y626326D01*
X210141Y626400D01*
X210201Y626470D01*
X210213Y626500D01*
X210232Y626526D01*
X210259Y626613D01*
X210293Y626698D01*
X210297Y626739D01*
X210304Y626761D01*
X210303Y626793D01*
X210311Y626865D01*
X210311Y664714D01*
X210308Y664734D01*
X210310Y664753D01*
X210288Y664855D01*
X210272Y664957D01*
X210262Y664974D01*
X210258Y664994D01*
X210205Y665083D01*
X210156Y665174D01*
X210142Y665188D01*
X210132Y665205D01*
X210053Y665272D01*
X209978Y665344D01*
X209960Y665352D01*
X209945Y665365D01*
X209849Y665404D01*
X209755Y665447D01*
X209735Y665449D01*
X209717Y665457D01*
X209550Y665475D01*
X207868Y665475D01*
X206975Y666368D01*
X206975Y673632D01*
X207555Y674212D01*
X207567Y674228D01*
X207583Y674240D01*
X207613Y674287D01*
X207629Y674304D01*
X207641Y674331D01*
X207699Y674411D01*
X207705Y674430D01*
X207716Y674447D01*
X207741Y674548D01*
X207771Y674647D01*
X207771Y674666D01*
X207776Y674686D01*
X207768Y674789D01*
X207765Y674892D01*
X207758Y674911D01*
X207757Y674931D01*
X207716Y675026D01*
X207681Y675123D01*
X207668Y675139D01*
X207660Y675157D01*
X207555Y675288D01*
X206975Y675868D01*
X206975Y679678D01*
X206964Y679748D01*
X206962Y679820D01*
X206944Y679869D01*
X206936Y679920D01*
X206902Y679984D01*
X206877Y680051D01*
X206845Y680092D01*
X206820Y680138D01*
X206768Y680187D01*
X206724Y680243D01*
X206680Y680271D01*
X206642Y680307D01*
X206577Y680337D01*
X206517Y680376D01*
X206466Y680389D01*
X206419Y680411D01*
X206348Y680419D01*
X206278Y680436D01*
X206226Y680432D01*
X206175Y680438D01*
X206104Y680423D01*
X206033Y680417D01*
X205985Y680397D01*
X205934Y680386D01*
X205873Y680349D01*
X205807Y680321D01*
X205751Y680276D01*
X205723Y680259D01*
X205708Y680242D01*
X205676Y680216D01*
X202154Y676694D01*
X202101Y676620D01*
X202041Y676550D01*
X202029Y676520D01*
X202010Y676494D01*
X201983Y676407D01*
X201949Y676322D01*
X201945Y676281D01*
X201938Y676259D01*
X201939Y676227D01*
X201931Y676155D01*
X201931Y650286D01*
X201934Y650266D01*
X201932Y650247D01*
X201954Y650145D01*
X201970Y650043D01*
X201980Y650026D01*
X201984Y650006D01*
X202037Y649917D01*
X202086Y649826D01*
X202100Y649812D01*
X202110Y649795D01*
X202189Y649728D01*
X202264Y649656D01*
X202282Y649648D01*
X202297Y649635D01*
X202393Y649596D01*
X202487Y649553D01*
X202507Y649551D01*
X202525Y649543D01*
X202692Y649525D01*
X207832Y649525D01*
X208725Y648632D01*
X208725Y627368D01*
X207832Y626475D01*
X190568Y626475D01*
X189675Y627368D01*
X189675Y648632D01*
X190568Y649525D01*
X196596Y649525D01*
X196616Y649528D01*
X196635Y649526D01*
X196737Y649548D01*
X196839Y649564D01*
X196856Y649574D01*
X196876Y649578D01*
X196965Y649631D01*
X197056Y649680D01*
X197070Y649694D01*
X197087Y649704D01*
X197154Y649783D01*
X197226Y649858D01*
X197234Y649876D01*
X197247Y649891D01*
X197286Y649987D01*
X197329Y650081D01*
X197331Y650101D01*
X197339Y650119D01*
X197357Y650286D01*
X197357Y665863D01*
X197346Y665934D01*
X197344Y666006D01*
X197326Y666055D01*
X197318Y666106D01*
X197284Y666169D01*
X197259Y666237D01*
X197227Y666277D01*
X197202Y666323D01*
X197150Y666373D01*
X197106Y666429D01*
X197062Y666457D01*
X197024Y666493D01*
X196959Y666523D01*
X196899Y666562D01*
X196848Y666574D01*
X196801Y666596D01*
X196730Y666604D01*
X196660Y666622D01*
X196608Y666618D01*
X196557Y666623D01*
X196486Y666608D01*
X196415Y666603D01*
X196367Y666582D01*
X196316Y666571D01*
X196255Y666534D01*
X196189Y666506D01*
X196133Y666461D01*
X196105Y666445D01*
X196090Y666427D01*
X196058Y666401D01*
X195132Y665475D01*
X184868Y665475D01*
X183975Y666368D01*
X183975Y666750D01*
X183972Y666770D01*
X183974Y666789D01*
X183952Y666891D01*
X183936Y666993D01*
X183926Y667010D01*
X183922Y667030D01*
X183869Y667119D01*
X183820Y667210D01*
X183806Y667224D01*
X183796Y667241D01*
X183717Y667308D01*
X183642Y667380D01*
X183624Y667388D01*
X183609Y667401D01*
X183513Y667440D01*
X183419Y667483D01*
X183399Y667485D01*
X183381Y667493D01*
X183214Y667511D01*
X174498Y667511D01*
X174478Y667508D01*
X174459Y667510D01*
X174357Y667488D01*
X174255Y667472D01*
X174238Y667462D01*
X174218Y667458D01*
X174129Y667405D01*
X174038Y667356D01*
X174024Y667342D01*
X174007Y667332D01*
X173940Y667253D01*
X173868Y667178D01*
X173860Y667160D01*
X173847Y667145D01*
X173808Y667049D01*
X173765Y666955D01*
X173763Y666935D01*
X173755Y666917D01*
X173737Y666750D01*
X173737Y650286D01*
X173740Y650266D01*
X173738Y650247D01*
X173760Y650145D01*
X173776Y650043D01*
X173786Y650026D01*
X173790Y650006D01*
X173843Y649917D01*
X173892Y649826D01*
X173906Y649812D01*
X173916Y649795D01*
X173995Y649728D01*
X174070Y649656D01*
X174088Y649648D01*
X174103Y649635D01*
X174199Y649596D01*
X174293Y649553D01*
X174313Y649551D01*
X174331Y649543D01*
X174498Y649525D01*
X179832Y649525D01*
X180725Y648632D01*
X180725Y627368D01*
X179832Y626475D01*
X162568Y626475D01*
X161675Y627368D01*
X161675Y629412D01*
X161672Y629432D01*
X161674Y629451D01*
X161652Y629553D01*
X161636Y629655D01*
X161626Y629672D01*
X161622Y629692D01*
X161569Y629781D01*
X161520Y629872D01*
X161506Y629886D01*
X161496Y629903D01*
X161417Y629970D01*
X161342Y630042D01*
X161324Y630050D01*
X161309Y630063D01*
X161213Y630102D01*
X161119Y630145D01*
X161099Y630147D01*
X161081Y630155D01*
X160914Y630173D01*
X97454Y630173D01*
X97340Y630154D01*
X97223Y630137D01*
X97218Y630135D01*
X97212Y630134D01*
X97109Y630079D01*
X97004Y630026D01*
X97000Y630021D01*
X96994Y630018D01*
X96914Y629934D01*
X96832Y629850D01*
X96828Y629844D01*
X96825Y629840D01*
X96817Y629823D01*
X96751Y629703D01*
X96093Y628115D01*
X93965Y625987D01*
X91832Y625103D01*
X91771Y625065D01*
X91705Y625036D01*
X91667Y625001D01*
X91623Y624974D01*
X91577Y624918D01*
X91524Y624870D01*
X91499Y624824D01*
X91466Y624784D01*
X91440Y624717D01*
X91406Y624654D01*
X91396Y624603D01*
X91378Y624555D01*
X91375Y624483D01*
X91362Y624412D01*
X91370Y624361D01*
X91367Y624309D01*
X91387Y624240D01*
X91398Y624169D01*
X91421Y624123D01*
X91436Y624073D01*
X91477Y624014D01*
X91509Y623950D01*
X91546Y623913D01*
X91576Y623871D01*
X91634Y623828D01*
X91685Y623778D01*
X91748Y623743D01*
X91773Y623724D01*
X91796Y623717D01*
X91832Y623697D01*
X93965Y622813D01*
X96093Y620685D01*
X97245Y617905D01*
X97245Y614895D01*
X96093Y612115D01*
X93965Y609987D01*
X93159Y609653D01*
X93098Y609615D01*
X93033Y609586D01*
X92994Y609551D01*
X92950Y609524D01*
X92904Y609468D01*
X92852Y609420D01*
X92827Y609374D01*
X92793Y609334D01*
X92768Y609267D01*
X92733Y609204D01*
X92724Y609153D01*
X92705Y609104D01*
X92702Y609033D01*
X92689Y608962D01*
X92697Y608911D01*
X92695Y608859D01*
X92715Y608790D01*
X92725Y608719D01*
X92749Y608672D01*
X92763Y608622D01*
X92804Y608564D01*
X92837Y608500D01*
X92874Y608463D01*
X92904Y608420D01*
X92961Y608378D01*
X93012Y608327D01*
X93075Y608293D01*
X93101Y608274D01*
X93123Y608266D01*
X93159Y608247D01*
X93745Y608004D01*
X95150Y607065D01*
X96345Y605870D01*
X97284Y604465D01*
X97931Y602903D01*
X98126Y601923D01*
X78362Y601923D01*
X78342Y601920D01*
X78323Y601922D01*
X78221Y601900D01*
X78119Y601883D01*
X78102Y601874D01*
X78082Y601870D01*
X77993Y601817D01*
X77902Y601768D01*
X77888Y601754D01*
X77871Y601744D01*
X77804Y601665D01*
X77733Y601590D01*
X77724Y601572D01*
X77711Y601557D01*
X77673Y601461D01*
X77629Y601367D01*
X77627Y601347D01*
X77619Y601329D01*
X77601Y601162D01*
X77601Y600399D01*
X77599Y600399D01*
X77599Y601162D01*
X77596Y601182D01*
X77598Y601201D01*
X77576Y601303D01*
X77559Y601405D01*
X77550Y601422D01*
X77546Y601442D01*
X77493Y601531D01*
X77444Y601622D01*
X77430Y601636D01*
X77420Y601653D01*
X77341Y601720D01*
X77266Y601791D01*
X77248Y601800D01*
X77233Y601813D01*
X77137Y601852D01*
X77043Y601895D01*
X77023Y601897D01*
X77005Y601905D01*
X76838Y601923D01*
X69883Y601923D01*
X69818Y601913D01*
X69752Y601912D01*
X69672Y601889D01*
X69640Y601883D01*
X69623Y601874D01*
X69591Y601865D01*
X67105Y600835D01*
X52015Y600835D01*
X49235Y601987D01*
X47107Y604115D01*
X45955Y606895D01*
X45955Y609905D01*
X47107Y612685D01*
X49235Y614813D01*
X51368Y615697D01*
X51429Y615735D01*
X51495Y615764D01*
X51533Y615799D01*
X51577Y615826D01*
X51623Y615882D01*
X51676Y615930D01*
X51701Y615976D01*
X51734Y616016D01*
X51760Y616083D01*
X51794Y616146D01*
X51804Y616197D01*
X51822Y616245D01*
X51825Y616317D01*
X51838Y616388D01*
X51831Y616439D01*
X51833Y616491D01*
X51813Y616560D01*
X51802Y616631D01*
X51779Y616677D01*
X51764Y616727D01*
X51723Y616786D01*
X51691Y616850D01*
X51654Y616887D01*
X51624Y616929D01*
X51566Y616972D01*
X51515Y617022D01*
X51452Y617057D01*
X51427Y617076D01*
X51404Y617083D01*
X51368Y617103D01*
X49235Y617987D01*
X47107Y620115D01*
X45955Y622895D01*
X45955Y625905D01*
X47107Y628685D01*
X49235Y630813D01*
X52015Y631965D01*
X67105Y631965D01*
X68983Y631187D01*
X69027Y631176D01*
X69069Y631157D01*
X69146Y631148D01*
X69222Y631131D01*
X69268Y631135D01*
X69313Y631130D01*
X69390Y631146D01*
X69467Y631154D01*
X69509Y631172D01*
X69554Y631182D01*
X69621Y631222D01*
X69692Y631254D01*
X69726Y631285D01*
X69765Y631308D01*
X69816Y631367D01*
X69873Y631420D01*
X69895Y631460D01*
X69925Y631495D01*
X69954Y631567D01*
X69991Y631636D01*
X70000Y631681D01*
X70017Y631723D01*
X70032Y631859D01*
X70035Y631878D01*
X70034Y631883D01*
X70035Y631890D01*
X70035Y633905D01*
X71187Y636685D01*
X73315Y638813D01*
X76095Y639965D01*
X91185Y639965D01*
X93965Y638813D01*
X96093Y636685D01*
X96701Y635217D01*
X96763Y635117D01*
X96823Y635017D01*
X96828Y635013D01*
X96831Y635008D01*
X96921Y634933D01*
X97010Y634857D01*
X97016Y634855D01*
X97020Y634851D01*
X97129Y634809D01*
X97238Y634765D01*
X97245Y634764D01*
X97250Y634763D01*
X97268Y634762D01*
X97405Y634747D01*
X160914Y634747D01*
X160934Y634750D01*
X160953Y634748D01*
X161055Y634770D01*
X161157Y634786D01*
X161174Y634796D01*
X161194Y634800D01*
X161283Y634853D01*
X161374Y634902D01*
X161388Y634916D01*
X161405Y634926D01*
X161472Y635005D01*
X161544Y635080D01*
X161552Y635098D01*
X161565Y635113D01*
X161604Y635209D01*
X161647Y635303D01*
X161649Y635323D01*
X161657Y635341D01*
X161675Y635508D01*
X161675Y648632D01*
X162568Y649525D01*
X168402Y649525D01*
X168422Y649528D01*
X168441Y649526D01*
X168543Y649548D01*
X168645Y649564D01*
X168662Y649574D01*
X168682Y649578D01*
X168771Y649631D01*
X168862Y649680D01*
X168876Y649694D01*
X168893Y649704D01*
X168960Y649783D01*
X169032Y649858D01*
X169040Y649876D01*
X169053Y649891D01*
X169092Y649987D01*
X169135Y650081D01*
X169137Y650101D01*
X169145Y650119D01*
X169163Y650286D01*
X169163Y666750D01*
X169160Y666770D01*
X169162Y666789D01*
X169140Y666891D01*
X169124Y666993D01*
X169114Y667010D01*
X169110Y667030D01*
X169057Y667119D01*
X169008Y667210D01*
X168994Y667224D01*
X168984Y667241D01*
X168905Y667308D01*
X168830Y667380D01*
X168812Y667388D01*
X168797Y667401D01*
X168701Y667440D01*
X168607Y667483D01*
X168587Y667485D01*
X168569Y667493D01*
X168402Y667511D01*
X167186Y667511D01*
X167166Y667508D01*
X167147Y667510D01*
X167045Y667488D01*
X166943Y667472D01*
X166926Y667462D01*
X166906Y667458D01*
X166817Y667405D01*
X166726Y667356D01*
X166712Y667342D01*
X166695Y667332D01*
X166628Y667253D01*
X166556Y667178D01*
X166548Y667160D01*
X166535Y667145D01*
X166496Y667049D01*
X166453Y666955D01*
X166451Y666935D01*
X166443Y666917D01*
X166425Y666750D01*
X166425Y658868D01*
X165532Y657975D01*
X148268Y657975D01*
X147375Y658868D01*
X147375Y678132D01*
X148268Y679025D01*
X165532Y679025D01*
X166425Y678132D01*
X166425Y672846D01*
X166428Y672826D01*
X166426Y672807D01*
X166448Y672705D01*
X166464Y672603D01*
X166474Y672586D01*
X166478Y672566D01*
X166531Y672477D01*
X166580Y672386D01*
X166594Y672372D01*
X166604Y672355D01*
X166683Y672288D01*
X166758Y672216D01*
X166776Y672208D01*
X166791Y672195D01*
X166887Y672156D01*
X166981Y672113D01*
X167001Y672111D01*
X167019Y672103D01*
X167186Y672085D01*
X183214Y672085D01*
X183234Y672088D01*
X183253Y672086D01*
X183355Y672108D01*
X183457Y672124D01*
X183474Y672134D01*
X183494Y672138D01*
X183583Y672191D01*
X183674Y672240D01*
X183688Y672254D01*
X183705Y672264D01*
X183772Y672343D01*
X183844Y672418D01*
X183852Y672436D01*
X183865Y672451D01*
X183904Y672547D01*
X183947Y672641D01*
X183949Y672661D01*
X183957Y672679D01*
X183975Y672846D01*
X183975Y673686D01*
X183980Y673693D01*
X183986Y673712D01*
X183997Y673729D01*
X184023Y673829D01*
X184053Y673928D01*
X184052Y673948D01*
X184057Y673967D01*
X184049Y674070D01*
X184047Y674174D01*
X184040Y674193D01*
X184038Y674213D01*
X183998Y674308D01*
X183962Y674405D01*
X183950Y674421D01*
X183942Y674439D01*
X183837Y674570D01*
X183467Y674940D01*
X183132Y675519D01*
X182959Y676166D01*
X182959Y678001D01*
X189262Y678001D01*
X189281Y678004D01*
X189301Y678002D01*
X189403Y678024D01*
X189505Y678040D01*
X189522Y678050D01*
X189542Y678054D01*
X189631Y678107D01*
X189722Y678156D01*
X189736Y678170D01*
X189753Y678180D01*
X189820Y678259D01*
X189891Y678334D01*
X189900Y678352D01*
X189913Y678367D01*
X189951Y678463D01*
X189995Y678557D01*
X189997Y678577D01*
X190004Y678595D01*
X190017Y678519D01*
X190026Y678502D01*
X190030Y678482D01*
X190083Y678393D01*
X190132Y678302D01*
X190146Y678288D01*
X190156Y678271D01*
X190235Y678204D01*
X190310Y678132D01*
X190328Y678124D01*
X190343Y678111D01*
X190440Y678072D01*
X190533Y678029D01*
X190553Y678027D01*
X190571Y678019D01*
X190738Y678001D01*
X196677Y678001D01*
X196768Y678015D01*
X196858Y678023D01*
X196888Y678035D01*
X196920Y678040D01*
X197001Y678083D01*
X197085Y678119D01*
X197117Y678145D01*
X197138Y678156D01*
X197160Y678179D01*
X197216Y678224D01*
X198920Y679928D01*
X206752Y687760D01*
X206805Y687834D01*
X206865Y687904D01*
X206877Y687934D01*
X206896Y687960D01*
X206923Y688047D01*
X206957Y688132D01*
X206961Y688173D01*
X206968Y688195D01*
X206967Y688227D01*
X206975Y688298D01*
X206975Y691896D01*
X206972Y691916D01*
X206974Y691935D01*
X206952Y692037D01*
X206936Y692139D01*
X206926Y692156D01*
X206922Y692176D01*
X206869Y692265D01*
X206820Y692356D01*
X206806Y692370D01*
X206796Y692387D01*
X206717Y692454D01*
X206642Y692526D01*
X206624Y692534D01*
X206609Y692547D01*
X206513Y692586D01*
X206419Y692629D01*
X206399Y692631D01*
X206381Y692639D01*
X206214Y692657D01*
X196786Y692657D01*
X196766Y692654D01*
X196747Y692656D01*
X196645Y692634D01*
X196543Y692618D01*
X196526Y692608D01*
X196506Y692604D01*
X196417Y692551D01*
X196326Y692502D01*
X196312Y692488D01*
X196295Y692478D01*
X196228Y692399D01*
X196156Y692324D01*
X196148Y692306D01*
X196135Y692291D01*
X196096Y692195D01*
X196053Y692101D01*
X196051Y692081D01*
X196043Y692063D01*
X196025Y691896D01*
X196025Y685314D01*
X196020Y685307D01*
X196014Y685288D01*
X196003Y685271D01*
X195977Y685171D01*
X195947Y685072D01*
X195948Y685052D01*
X195943Y685033D01*
X195951Y684930D01*
X195953Y684826D01*
X195960Y684807D01*
X195962Y684787D01*
X196002Y684692D01*
X196038Y684595D01*
X196050Y684579D01*
X196058Y684561D01*
X196163Y684430D01*
X196533Y684060D01*
X196868Y683481D01*
X197041Y682834D01*
X197041Y680999D01*
X190738Y680999D01*
X190719Y680996D01*
X190699Y680998D01*
X190597Y680976D01*
X190495Y680960D01*
X190478Y680950D01*
X190458Y680946D01*
X190369Y680893D01*
X190278Y680844D01*
X190264Y680830D01*
X190247Y680820D01*
X190180Y680741D01*
X190109Y680666D01*
X190100Y680648D01*
X190087Y680633D01*
X190049Y680537D01*
X190005Y680443D01*
X190003Y680423D01*
X189996Y680405D01*
X189983Y680481D01*
X189974Y680498D01*
X189970Y680518D01*
X189917Y680607D01*
X189868Y680698D01*
X189854Y680712D01*
X189844Y680729D01*
X189765Y680796D01*
X189690Y680868D01*
X189672Y680876D01*
X189657Y680889D01*
X189560Y680928D01*
X189467Y680971D01*
X189447Y680973D01*
X189429Y680981D01*
X189262Y680999D01*
X182959Y680999D01*
X182959Y682834D01*
X183132Y683481D01*
X183467Y684060D01*
X183837Y684430D01*
X183849Y684446D01*
X183864Y684459D01*
X183920Y684546D01*
X183981Y684630D01*
X183986Y684649D01*
X183997Y684666D01*
X184023Y684766D01*
X184053Y684865D01*
X184052Y684885D01*
X184057Y684904D01*
X184049Y685007D01*
X184047Y685111D01*
X184040Y685130D01*
X184038Y685150D01*
X183998Y685245D01*
X183975Y685306D01*
X183975Y686562D01*
X183972Y686582D01*
X183974Y686601D01*
X183952Y686703D01*
X183936Y686805D01*
X183926Y686822D01*
X183922Y686842D01*
X183869Y686931D01*
X183820Y687022D01*
X183806Y687036D01*
X183796Y687053D01*
X183717Y687120D01*
X183642Y687192D01*
X183624Y687200D01*
X183609Y687213D01*
X183513Y687252D01*
X183419Y687295D01*
X183399Y687297D01*
X183381Y687305D01*
X183214Y687323D01*
X156787Y687323D01*
X133858Y710252D01*
X133784Y710305D01*
X133714Y710365D01*
X133684Y710377D01*
X133658Y710396D01*
X133571Y710423D01*
X133486Y710457D01*
X133445Y710461D01*
X133423Y710468D01*
X133391Y710467D01*
X133320Y710475D01*
X117368Y710475D01*
X116475Y711368D01*
X116475Y724814D01*
X116464Y724884D01*
X116462Y724956D01*
X116444Y725005D01*
X116436Y725056D01*
X116402Y725120D01*
X116377Y725187D01*
X116345Y725228D01*
X116320Y725274D01*
X116268Y725323D01*
X116224Y725379D01*
X116180Y725407D01*
X116142Y725443D01*
X116077Y725473D01*
X116017Y725512D01*
X115966Y725525D01*
X115919Y725547D01*
X115848Y725555D01*
X115778Y725572D01*
X115726Y725568D01*
X115675Y725574D01*
X115604Y725559D01*
X115533Y725553D01*
X115485Y725533D01*
X115434Y725522D01*
X115373Y725485D01*
X115307Y725457D01*
X115251Y725412D01*
X115223Y725395D01*
X115208Y725378D01*
X115176Y725352D01*
X103055Y713231D01*
X83696Y713231D01*
X83676Y713228D01*
X83657Y713230D01*
X83555Y713208D01*
X83453Y713192D01*
X83436Y713182D01*
X83416Y713178D01*
X83327Y713125D01*
X83236Y713076D01*
X83222Y713062D01*
X83205Y713052D01*
X83138Y712973D01*
X83066Y712898D01*
X83058Y712880D01*
X83045Y712865D01*
X83006Y712769D01*
X82963Y712675D01*
X82961Y712655D01*
X82953Y712637D01*
X82935Y712470D01*
X82935Y685458D01*
X82042Y684565D01*
X22358Y684565D01*
X21465Y685458D01*
X21465Y745142D01*
X22358Y746035D01*
X82042Y746035D01*
X82935Y745142D01*
X82935Y718566D01*
X82938Y718546D01*
X82936Y718527D01*
X82958Y718425D01*
X82974Y718323D01*
X82984Y718306D01*
X82988Y718286D01*
X83041Y718197D01*
X83090Y718106D01*
X83104Y718092D01*
X83114Y718075D01*
X83193Y718008D01*
X83268Y717936D01*
X83286Y717928D01*
X83301Y717915D01*
X83397Y717876D01*
X83491Y717833D01*
X83511Y717831D01*
X83529Y717823D01*
X83696Y717805D01*
X100845Y717805D01*
X100936Y717819D01*
X101026Y717827D01*
X101056Y717839D01*
X101088Y717844D01*
X101169Y717887D01*
X101253Y717923D01*
X101285Y717949D01*
X101306Y717960D01*
X101328Y717983D01*
X101384Y718028D01*
X116401Y733045D01*
X139631Y733045D01*
X170940Y701736D01*
X170998Y701694D01*
X171050Y701645D01*
X171097Y701623D01*
X171139Y701593D01*
X171208Y701572D01*
X171273Y701541D01*
X171325Y701536D01*
X171375Y701520D01*
X171446Y701522D01*
X171517Y701514D01*
X171568Y701525D01*
X171620Y701527D01*
X171688Y701551D01*
X171758Y701566D01*
X171803Y701593D01*
X171851Y701611D01*
X171907Y701656D01*
X171969Y701693D01*
X172003Y701732D01*
X172043Y701765D01*
X172082Y701825D01*
X172129Y701880D01*
X172148Y701928D01*
X172176Y701972D01*
X172194Y702041D01*
X172221Y702108D01*
X172229Y702179D01*
X172237Y702210D01*
X172235Y702234D01*
X172239Y702274D01*
X172239Y702476D01*
X175348Y705585D01*
X179744Y705585D01*
X182541Y702788D01*
X182615Y702735D01*
X182685Y702675D01*
X182715Y702663D01*
X182741Y702644D01*
X182828Y702617D01*
X182913Y702583D01*
X182954Y702579D01*
X182976Y702572D01*
X183008Y702573D01*
X183079Y702565D01*
X186951Y702565D01*
X187042Y702579D01*
X187132Y702587D01*
X187162Y702599D01*
X187194Y702604D01*
X187275Y702647D01*
X187359Y702683D01*
X187391Y702709D01*
X187412Y702720D01*
X187434Y702743D01*
X187490Y702788D01*
X215652Y730950D01*
X215705Y731024D01*
X215765Y731094D01*
X215777Y731124D01*
X215796Y731150D01*
X215823Y731237D01*
X215857Y731322D01*
X215861Y731363D01*
X215868Y731385D01*
X215867Y731417D01*
X215875Y731488D01*
X215875Y748132D01*
X216768Y749025D01*
X234032Y749025D01*
X234925Y748132D01*
X234925Y726868D01*
X234032Y725975D01*
X217460Y725975D01*
X217370Y725961D01*
X217279Y725953D01*
X217250Y725941D01*
X217218Y725936D01*
X217137Y725893D01*
X217053Y725857D01*
X217021Y725831D01*
X217000Y725820D01*
X216978Y725797D01*
X216922Y725752D01*
X189700Y698530D01*
X189658Y698472D01*
X189609Y698420D01*
X189587Y698373D01*
X189557Y698331D01*
X189536Y698262D01*
X189505Y698197D01*
X189500Y698145D01*
X189484Y698095D01*
X189486Y698024D01*
X189478Y697953D01*
X189489Y697902D01*
X189491Y697850D01*
X189515Y697782D01*
X189530Y697712D01*
X189557Y697668D01*
X189575Y697619D01*
X189620Y697563D01*
X189657Y697501D01*
X189696Y697467D01*
X189729Y697427D01*
X189789Y697388D01*
X189844Y697341D01*
X189892Y697322D01*
X189936Y697294D01*
X190005Y697276D01*
X190072Y697249D01*
X190143Y697241D01*
X190174Y697233D01*
X190198Y697235D01*
X190238Y697231D01*
X218879Y697231D01*
X222505Y693605D01*
X222505Y682752D01*
X222508Y682732D01*
X222506Y682713D01*
X222528Y682611D01*
X222544Y682509D01*
X222554Y682492D01*
X222558Y682472D01*
X222611Y682383D01*
X222660Y682292D01*
X222674Y682278D01*
X222684Y682261D01*
X222763Y682194D01*
X222838Y682122D01*
X222856Y682114D01*
X222871Y682101D01*
X222967Y682062D01*
X223061Y682019D01*
X223081Y682017D01*
X223099Y682009D01*
X223266Y681991D01*
X242214Y681991D01*
X242234Y681994D01*
X242253Y681992D01*
X242355Y682014D01*
X242457Y682030D01*
X242474Y682040D01*
X242494Y682044D01*
X242583Y682097D01*
X242674Y682146D01*
X242688Y682160D01*
X242705Y682170D01*
X242772Y682249D01*
X242844Y682324D01*
X242852Y682342D01*
X242865Y682357D01*
X242904Y682453D01*
X242947Y682547D01*
X242949Y682567D01*
X242957Y682585D01*
X242975Y682752D01*
X242975Y690332D01*
X243868Y691225D01*
X250698Y691225D01*
X250718Y691228D01*
X250737Y691226D01*
X250839Y691248D01*
X250941Y691264D01*
X250958Y691274D01*
X250978Y691278D01*
X251067Y691331D01*
X251158Y691380D01*
X251172Y691394D01*
X251189Y691404D01*
X251256Y691483D01*
X251328Y691558D01*
X251336Y691576D01*
X251349Y691591D01*
X251388Y691687D01*
X251431Y691781D01*
X251433Y691801D01*
X251441Y691819D01*
X251459Y691986D01*
X251459Y725214D01*
X251456Y725234D01*
X251458Y725253D01*
X251436Y725355D01*
X251420Y725457D01*
X251410Y725474D01*
X251406Y725494D01*
X251353Y725583D01*
X251304Y725674D01*
X251290Y725688D01*
X251280Y725705D01*
X251201Y725772D01*
X251126Y725844D01*
X251108Y725852D01*
X251093Y725865D01*
X250997Y725904D01*
X250903Y725947D01*
X250883Y725949D01*
X250865Y725957D01*
X250698Y725975D01*
X244768Y725975D01*
X243875Y726868D01*
X243875Y748132D01*
X244768Y749025D01*
X262032Y749025D01*
X262925Y748132D01*
X262925Y740664D01*
X262928Y740644D01*
X262926Y740625D01*
X262948Y740523D01*
X262964Y740421D01*
X262974Y740404D01*
X262978Y740384D01*
X263031Y740295D01*
X263080Y740204D01*
X263094Y740190D01*
X263104Y740173D01*
X263183Y740106D01*
X263258Y740034D01*
X263276Y740026D01*
X263291Y740013D01*
X263387Y739974D01*
X263481Y739931D01*
X263501Y739929D01*
X263519Y739921D01*
X263686Y739903D01*
X285714Y739903D01*
X285734Y739906D01*
X285753Y739904D01*
X285855Y739926D01*
X285957Y739942D01*
X285974Y739952D01*
X285994Y739956D01*
X286083Y740009D01*
X286174Y740058D01*
X286188Y740072D01*
X286205Y740082D01*
X286272Y740161D01*
X286344Y740236D01*
X286352Y740254D01*
X286365Y740269D01*
X286404Y740365D01*
X286447Y740459D01*
X286449Y740479D01*
X286457Y740497D01*
X286475Y740664D01*
X286475Y755032D01*
X287368Y755925D01*
X308632Y755925D01*
X309525Y755032D01*
X309525Y737768D01*
X308632Y736875D01*
X292369Y736875D01*
X292278Y736861D01*
X292188Y736853D01*
X292158Y736841D01*
X292126Y736836D01*
X292045Y736793D01*
X291961Y736757D01*
X291929Y736731D01*
X291908Y736720D01*
X291886Y736697D01*
X291830Y736652D01*
X290507Y735329D01*
X263686Y735329D01*
X263666Y735326D01*
X263647Y735328D01*
X263545Y735306D01*
X263443Y735290D01*
X263426Y735280D01*
X263406Y735276D01*
X263317Y735223D01*
X263226Y735174D01*
X263212Y735160D01*
X263195Y735150D01*
X263128Y735071D01*
X263056Y734996D01*
X263048Y734978D01*
X263035Y734963D01*
X262996Y734867D01*
X262953Y734773D01*
X262951Y734753D01*
X262943Y734735D01*
X262925Y734568D01*
X262925Y726868D01*
X262032Y725975D01*
X256794Y725975D01*
X256774Y725972D01*
X256755Y725974D01*
X256653Y725952D01*
X256551Y725936D01*
X256534Y725926D01*
X256514Y725922D01*
X256425Y725869D01*
X256334Y725820D01*
X256320Y725806D01*
X256303Y725796D01*
X256236Y725717D01*
X256164Y725642D01*
X256156Y725624D01*
X256143Y725609D01*
X256104Y725513D01*
X256061Y725419D01*
X256059Y725399D01*
X256051Y725381D01*
X256033Y725214D01*
X256033Y691986D01*
X256036Y691966D01*
X256034Y691947D01*
X256056Y691845D01*
X256072Y691743D01*
X256082Y691726D01*
X256086Y691706D01*
X256139Y691617D01*
X256188Y691526D01*
X256202Y691512D01*
X256212Y691495D01*
X256291Y691428D01*
X256366Y691356D01*
X256384Y691348D01*
X256399Y691335D01*
X256495Y691296D01*
X256589Y691253D01*
X256609Y691251D01*
X256627Y691243D01*
X256794Y691225D01*
X263132Y691225D01*
X264025Y690332D01*
X264025Y673068D01*
X263132Y672175D01*
X243868Y672175D01*
X242975Y673068D01*
X242975Y676656D01*
X242972Y676676D01*
X242974Y676695D01*
X242952Y676797D01*
X242936Y676899D01*
X242926Y676916D01*
X242922Y676936D01*
X242869Y677025D01*
X242820Y677116D01*
X242806Y677130D01*
X242796Y677147D01*
X242717Y677214D01*
X242642Y677286D01*
X242624Y677294D01*
X242609Y677307D01*
X242513Y677346D01*
X242419Y677389D01*
X242399Y677391D01*
X242381Y677399D01*
X242214Y677417D01*
X223266Y677417D01*
X223246Y677414D01*
X223227Y677416D01*
X223125Y677394D01*
X223023Y677378D01*
X223006Y677368D01*
X222986Y677364D01*
X222897Y677311D01*
X222806Y677262D01*
X222792Y677248D01*
X222775Y677238D01*
X222708Y677159D01*
X222636Y677084D01*
X222628Y677066D01*
X222615Y677051D01*
X222576Y676955D01*
X222533Y676861D01*
X222531Y676841D01*
X222523Y676823D01*
X222505Y676656D01*
X222505Y627703D01*
X157958Y563156D01*
X157905Y563082D01*
X157845Y563012D01*
X157833Y562982D01*
X157814Y562956D01*
X157787Y562869D01*
X157753Y562784D01*
X157749Y562743D01*
X157742Y562721D01*
X157743Y562689D01*
X157735Y562617D01*
X157735Y397201D01*
X157746Y397131D01*
X157748Y397059D01*
X157766Y397010D01*
X157774Y396959D01*
X157808Y396895D01*
X157833Y396828D01*
X157865Y396787D01*
X157890Y396741D01*
X157942Y396692D01*
X157986Y396636D01*
X158030Y396608D01*
X158068Y396572D01*
X158133Y396542D01*
X158193Y396503D01*
X158244Y396490D01*
X158291Y396468D01*
X158362Y396460D01*
X158432Y396443D01*
X158484Y396447D01*
X158535Y396441D01*
X158606Y396456D01*
X158677Y396462D01*
X158725Y396482D01*
X158776Y396493D01*
X158837Y396530D01*
X158903Y396558D01*
X158959Y396603D01*
X158987Y396620D01*
X159002Y396637D01*
X159034Y396663D01*
X159346Y396975D01*
X163742Y396975D01*
X166851Y393866D01*
X166851Y389470D01*
X164054Y386673D01*
X164001Y386599D01*
X163941Y386529D01*
X163929Y386499D01*
X163910Y386473D01*
X163883Y386386D01*
X163849Y386301D01*
X163845Y386260D01*
X163838Y386238D01*
X163839Y386206D01*
X163831Y386135D01*
X163831Y331285D01*
X137974Y305428D01*
X137932Y305370D01*
X137883Y305318D01*
X137861Y305271D01*
X137831Y305229D01*
X137810Y305160D01*
X137779Y305095D01*
X137774Y305043D01*
X137758Y304993D01*
X137760Y304922D01*
X137752Y304851D01*
X137763Y304800D01*
X137765Y304748D01*
X137789Y304680D01*
X137804Y304610D01*
X137831Y304565D01*
X137849Y304517D01*
X137894Y304461D01*
X137931Y304399D01*
X137970Y304365D01*
X138003Y304325D01*
X138063Y304286D01*
X138118Y304239D01*
X138166Y304220D01*
X138210Y304192D01*
X138279Y304174D01*
X138346Y304147D01*
X138417Y304139D01*
X138448Y304131D01*
X138472Y304133D01*
X138512Y304129D01*
X141467Y304129D01*
X141776Y303820D01*
X141792Y303808D01*
X141804Y303793D01*
X141891Y303737D01*
X141975Y303677D01*
X141994Y303671D01*
X142011Y303660D01*
X142112Y303635D01*
X142210Y303604D01*
X142230Y303605D01*
X142250Y303600D01*
X142353Y303608D01*
X142456Y303611D01*
X142475Y303617D01*
X142495Y303619D01*
X142590Y303659D01*
X142687Y303695D01*
X142703Y303708D01*
X142721Y303715D01*
X142852Y303820D01*
X146881Y307849D01*
X200214Y307849D01*
X200234Y307852D01*
X200253Y307850D01*
X200355Y307872D01*
X200457Y307888D01*
X200474Y307898D01*
X200494Y307902D01*
X200583Y307955D01*
X200674Y308004D01*
X200688Y308018D01*
X200705Y308028D01*
X200772Y308107D01*
X200844Y308182D01*
X200852Y308200D01*
X200865Y308215D01*
X200904Y308311D01*
X200947Y308405D01*
X200949Y308425D01*
X200957Y308443D01*
X200975Y308610D01*
X200975Y314932D01*
X201868Y315825D01*
X218142Y315825D01*
X218212Y315836D01*
X218284Y315838D01*
X218333Y315856D01*
X218384Y315864D01*
X218448Y315898D01*
X218515Y315923D01*
X218556Y315955D01*
X218602Y315980D01*
X218651Y316032D01*
X218707Y316076D01*
X218735Y316120D01*
X218771Y316158D01*
X218801Y316223D01*
X218840Y316283D01*
X218853Y316334D01*
X218875Y316381D01*
X218883Y316452D01*
X218900Y316522D01*
X218896Y316574D01*
X218902Y316625D01*
X218887Y316696D01*
X218881Y316767D01*
X218861Y316815D01*
X218850Y316866D01*
X218813Y316927D01*
X218785Y316993D01*
X218740Y317049D01*
X218723Y317077D01*
X218706Y317092D01*
X218680Y317124D01*
X213871Y321933D01*
X213871Y328667D01*
X218633Y333429D01*
X225367Y333429D01*
X230129Y328667D01*
X230129Y327660D01*
X230132Y327640D01*
X230130Y327621D01*
X230152Y327519D01*
X230168Y327417D01*
X230178Y327400D01*
X230182Y327380D01*
X230235Y327291D01*
X230284Y327200D01*
X230298Y327186D01*
X230308Y327169D01*
X230387Y327102D01*
X230462Y327030D01*
X230480Y327022D01*
X230495Y327009D01*
X230591Y326970D01*
X230685Y326927D01*
X230705Y326925D01*
X230723Y326917D01*
X230890Y326899D01*
X266468Y326899D01*
X266538Y326910D01*
X266610Y326912D01*
X266659Y326930D01*
X266710Y326938D01*
X266774Y326972D01*
X266841Y326997D01*
X266882Y327029D01*
X266928Y327054D01*
X266977Y327106D01*
X267033Y327150D01*
X267061Y327194D01*
X267097Y327232D01*
X267127Y327297D01*
X267166Y327357D01*
X267179Y327408D01*
X267201Y327455D01*
X267209Y327526D01*
X267226Y327596D01*
X267222Y327648D01*
X267228Y327699D01*
X267213Y327770D01*
X267207Y327841D01*
X267187Y327889D01*
X267176Y327940D01*
X267139Y328001D01*
X267111Y328067D01*
X267066Y328123D01*
X267049Y328151D01*
X267032Y328166D01*
X267006Y328198D01*
X262871Y332333D01*
X262871Y339067D01*
X267633Y343829D01*
X274367Y343829D01*
X279129Y339067D01*
X279129Y332333D01*
X274994Y328198D01*
X274952Y328140D01*
X274903Y328088D01*
X274881Y328041D01*
X274850Y327999D01*
X274829Y327930D01*
X274799Y327865D01*
X274793Y327813D01*
X274778Y327763D01*
X274780Y327692D01*
X274772Y327621D01*
X274783Y327570D01*
X274784Y327518D01*
X274809Y327450D01*
X274824Y327380D01*
X274851Y327335D01*
X274869Y327287D01*
X274914Y327231D01*
X274951Y327169D01*
X274990Y327135D01*
X275023Y327095D01*
X275083Y327056D01*
X275137Y327009D01*
X275186Y326990D01*
X275230Y326962D01*
X275299Y326944D01*
X275366Y326917D01*
X275437Y326909D01*
X275468Y326901D01*
X275491Y326903D01*
X275532Y326899D01*
X282125Y326899D01*
X431254Y177770D01*
X431328Y177717D01*
X431398Y177657D01*
X431428Y177645D01*
X431454Y177626D01*
X431541Y177599D01*
X431626Y177565D01*
X431667Y177561D01*
X431689Y177554D01*
X431721Y177555D01*
X431793Y177547D01*
X446414Y177547D01*
X446434Y177550D01*
X446453Y177548D01*
X446555Y177570D01*
X446657Y177586D01*
X446674Y177596D01*
X446694Y177600D01*
X446783Y177653D01*
X446874Y177702D01*
X446888Y177716D01*
X446905Y177726D01*
X446972Y177805D01*
X447044Y177880D01*
X447052Y177898D01*
X447065Y177913D01*
X447104Y178009D01*
X447147Y178103D01*
X447149Y178123D01*
X447157Y178141D01*
X447175Y178308D01*
X447175Y188832D01*
X448068Y189725D01*
X465332Y189725D01*
X466225Y188832D01*
X466225Y160568D01*
X465332Y159675D01*
X448068Y159675D01*
X447175Y160568D01*
X447175Y172212D01*
X447172Y172232D01*
X447174Y172251D01*
X447152Y172353D01*
X447136Y172455D01*
X447126Y172472D01*
X447122Y172492D01*
X447069Y172581D01*
X447020Y172672D01*
X447006Y172686D01*
X446996Y172703D01*
X446917Y172770D01*
X446842Y172842D01*
X446824Y172850D01*
X446809Y172863D01*
X446713Y172902D01*
X446619Y172945D01*
X446599Y172947D01*
X446581Y172955D01*
X446414Y172973D01*
X429583Y172973D01*
X329528Y273028D01*
X329470Y273070D01*
X329418Y273119D01*
X329371Y273141D01*
X329329Y273171D01*
X329260Y273192D01*
X329195Y273223D01*
X329143Y273228D01*
X329093Y273244D01*
X329022Y273242D01*
X328951Y273250D01*
X328900Y273239D01*
X328848Y273237D01*
X328780Y273213D01*
X328710Y273198D01*
X328666Y273171D01*
X328617Y273153D01*
X328561Y273108D01*
X328499Y273071D01*
X328465Y273032D01*
X328425Y272999D01*
X328386Y272939D01*
X328339Y272884D01*
X328320Y272836D01*
X328292Y272792D01*
X328274Y272723D01*
X328247Y272656D01*
X328239Y272585D01*
X328231Y272554D01*
X328233Y272530D01*
X328229Y272490D01*
X328229Y269633D01*
X323467Y264871D01*
X316733Y264871D01*
X311971Y269633D01*
X311971Y276367D01*
X316733Y281129D01*
X319590Y281129D01*
X319660Y281140D01*
X319732Y281142D01*
X319781Y281160D01*
X319832Y281168D01*
X319896Y281202D01*
X319963Y281227D01*
X320004Y281259D01*
X320050Y281284D01*
X320099Y281336D01*
X320155Y281380D01*
X320183Y281424D01*
X320219Y281462D01*
X320249Y281527D01*
X320288Y281587D01*
X320301Y281638D01*
X320323Y281685D01*
X320331Y281756D01*
X320348Y281826D01*
X320344Y281878D01*
X320350Y281929D01*
X320335Y282000D01*
X320329Y282071D01*
X320309Y282119D01*
X320298Y282170D01*
X320261Y282231D01*
X320233Y282297D01*
X320188Y282353D01*
X320171Y282381D01*
X320154Y282396D01*
X320128Y282428D01*
X280454Y322102D01*
X280380Y322155D01*
X280310Y322215D01*
X280280Y322227D01*
X280254Y322246D01*
X280167Y322273D01*
X280082Y322307D01*
X280041Y322311D01*
X280019Y322318D01*
X279987Y322317D01*
X279915Y322325D01*
X230836Y322325D01*
X230746Y322311D01*
X230655Y322303D01*
X230626Y322291D01*
X230594Y322286D01*
X230513Y322243D01*
X230429Y322207D01*
X230397Y322181D01*
X230376Y322170D01*
X230354Y322147D01*
X230298Y322102D01*
X225367Y317171D01*
X221623Y317171D01*
X221552Y317160D01*
X221480Y317158D01*
X221431Y317140D01*
X221380Y317132D01*
X221317Y317098D01*
X221249Y317073D01*
X221209Y317041D01*
X221163Y317016D01*
X221113Y316964D01*
X221057Y316920D01*
X221029Y316876D01*
X220993Y316838D01*
X220963Y316773D01*
X220924Y316713D01*
X220912Y316662D01*
X220890Y316615D01*
X220882Y316544D01*
X220864Y316474D01*
X220868Y316422D01*
X220863Y316371D01*
X220878Y316300D01*
X220883Y316229D01*
X220904Y316181D01*
X220915Y316130D01*
X220952Y316069D01*
X220980Y316003D01*
X221025Y315947D01*
X221041Y315919D01*
X221059Y315904D01*
X221085Y315872D01*
X222025Y314932D01*
X222025Y297668D01*
X221132Y296775D01*
X201868Y296775D01*
X200975Y297668D01*
X200975Y302514D01*
X200972Y302534D01*
X200974Y302553D01*
X200952Y302655D01*
X200936Y302757D01*
X200926Y302774D01*
X200922Y302794D01*
X200869Y302883D01*
X200820Y302974D01*
X200806Y302988D01*
X200796Y303005D01*
X200717Y303072D01*
X200642Y303144D01*
X200624Y303152D01*
X200609Y303165D01*
X200513Y303204D01*
X200419Y303247D01*
X200399Y303249D01*
X200381Y303257D01*
X200214Y303275D01*
X169558Y303275D01*
X169488Y303264D01*
X169416Y303262D01*
X169367Y303244D01*
X169316Y303236D01*
X169252Y303202D01*
X169185Y303177D01*
X169144Y303145D01*
X169098Y303120D01*
X169049Y303068D01*
X168993Y303024D01*
X168965Y302980D01*
X168929Y302942D01*
X168899Y302877D01*
X168860Y302817D01*
X168847Y302766D01*
X168825Y302719D01*
X168817Y302648D01*
X168800Y302578D01*
X168804Y302526D01*
X168798Y302475D01*
X168813Y302404D01*
X168819Y302333D01*
X168839Y302285D01*
X168850Y302234D01*
X168887Y302173D01*
X168915Y302107D01*
X168960Y302051D01*
X168977Y302023D01*
X168994Y302008D01*
X169020Y301976D01*
X171629Y299367D01*
X171629Y292633D01*
X171396Y292400D01*
X171384Y292384D01*
X171369Y292372D01*
X171313Y292285D01*
X171253Y292201D01*
X171247Y292182D01*
X171236Y292165D01*
X171211Y292064D01*
X171180Y291966D01*
X171181Y291946D01*
X171176Y291926D01*
X171184Y291823D01*
X171187Y291720D01*
X171193Y291701D01*
X171195Y291681D01*
X171235Y291586D01*
X171271Y291489D01*
X171284Y291473D01*
X171291Y291455D01*
X171396Y291324D01*
X181318Y281402D01*
X181392Y281349D01*
X181462Y281289D01*
X181492Y281277D01*
X181518Y281258D01*
X181605Y281231D01*
X181690Y281197D01*
X181731Y281193D01*
X181753Y281186D01*
X181785Y281187D01*
X181857Y281179D01*
X200214Y281179D01*
X200234Y281182D01*
X200253Y281180D01*
X200355Y281202D01*
X200457Y281218D01*
X200474Y281228D01*
X200494Y281232D01*
X200583Y281285D01*
X200674Y281334D01*
X200688Y281348D01*
X200705Y281358D01*
X200772Y281437D01*
X200844Y281512D01*
X200852Y281530D01*
X200865Y281545D01*
X200904Y281641D01*
X200947Y281735D01*
X200949Y281755D01*
X200957Y281773D01*
X200975Y281940D01*
X200975Y286932D01*
X201868Y287825D01*
X221132Y287825D01*
X222025Y286932D01*
X222025Y270510D01*
X222028Y270490D01*
X222026Y270471D01*
X222048Y270369D01*
X222064Y270267D01*
X222074Y270250D01*
X222078Y270230D01*
X222131Y270141D01*
X222180Y270050D01*
X222194Y270036D01*
X222204Y270019D01*
X222283Y269952D01*
X222358Y269880D01*
X222376Y269872D01*
X222391Y269859D01*
X222487Y269820D01*
X222581Y269777D01*
X222601Y269775D01*
X222619Y269767D01*
X222786Y269749D01*
X244101Y269749D01*
X244192Y269763D01*
X244282Y269771D01*
X244312Y269783D01*
X244344Y269788D01*
X244425Y269831D01*
X244509Y269867D01*
X244541Y269893D01*
X244562Y269904D01*
X244584Y269927D01*
X244640Y269972D01*
X247752Y273084D01*
X247805Y273158D01*
X247865Y273228D01*
X247877Y273258D01*
X247896Y273284D01*
X247923Y273371D01*
X247957Y273456D01*
X247961Y273497D01*
X247968Y273519D01*
X247967Y273551D01*
X247975Y273622D01*
X247975Y289732D01*
X248868Y290625D01*
X255531Y290625D01*
X255601Y290636D01*
X255673Y290638D01*
X255722Y290656D01*
X255773Y290664D01*
X255837Y290698D01*
X255904Y290723D01*
X255945Y290755D01*
X255991Y290780D01*
X256040Y290832D01*
X256096Y290876D01*
X256124Y290920D01*
X256160Y290958D01*
X256190Y291023D01*
X256229Y291083D01*
X256242Y291134D01*
X256264Y291181D01*
X256272Y291252D01*
X256289Y291322D01*
X256285Y291374D01*
X256291Y291425D01*
X256276Y291496D01*
X256270Y291567D01*
X256250Y291615D01*
X256239Y291666D01*
X256202Y291727D01*
X256174Y291793D01*
X256129Y291849D01*
X256112Y291877D01*
X256095Y291892D01*
X256069Y291924D01*
X255297Y292696D01*
X255297Y297092D01*
X258406Y300201D01*
X262802Y300201D01*
X265911Y297092D01*
X265911Y292696D01*
X265139Y291924D01*
X265097Y291866D01*
X265048Y291814D01*
X265026Y291767D01*
X264996Y291725D01*
X264974Y291656D01*
X264944Y291591D01*
X264939Y291539D01*
X264923Y291489D01*
X264925Y291418D01*
X264917Y291347D01*
X264928Y291296D01*
X264930Y291244D01*
X264954Y291176D01*
X264969Y291106D01*
X264996Y291061D01*
X265014Y291013D01*
X265059Y290957D01*
X265096Y290895D01*
X265135Y290861D01*
X265168Y290821D01*
X265228Y290782D01*
X265283Y290735D01*
X265331Y290716D01*
X265375Y290688D01*
X265444Y290670D01*
X265511Y290643D01*
X265582Y290635D01*
X265613Y290627D01*
X265636Y290629D01*
X265677Y290625D01*
X268132Y290625D01*
X269025Y289732D01*
X269025Y274021D01*
X269039Y273930D01*
X269047Y273840D01*
X269059Y273810D01*
X269064Y273778D01*
X269107Y273697D01*
X269143Y273613D01*
X269169Y273581D01*
X269180Y273560D01*
X269203Y273538D01*
X269248Y273482D01*
X355082Y187648D01*
X355156Y187595D01*
X355226Y187535D01*
X355256Y187523D01*
X355282Y187504D01*
X355369Y187477D01*
X355454Y187443D01*
X355495Y187439D01*
X355517Y187432D01*
X355549Y187433D01*
X355621Y187425D01*
X359576Y187425D01*
X362685Y184316D01*
X362685Y179920D01*
X359576Y176811D01*
X355180Y176811D01*
X352071Y179920D01*
X352071Y183875D01*
X352057Y183966D01*
X352049Y184056D01*
X352037Y184086D01*
X352032Y184118D01*
X351989Y184199D01*
X351953Y184283D01*
X351927Y184315D01*
X351916Y184336D01*
X351893Y184358D01*
X351848Y184414D01*
X264910Y271352D01*
X264836Y271405D01*
X264766Y271465D01*
X264736Y271477D01*
X264710Y271496D01*
X264623Y271523D01*
X264538Y271557D01*
X264497Y271561D01*
X264475Y271568D01*
X264443Y271567D01*
X264371Y271575D01*
X253026Y271575D01*
X252936Y271561D01*
X252845Y271553D01*
X252816Y271541D01*
X252784Y271536D01*
X252703Y271493D01*
X252619Y271457D01*
X252587Y271431D01*
X252566Y271420D01*
X252544Y271397D01*
X252488Y271352D01*
X246311Y265175D01*
X186505Y265175D01*
X184942Y266738D01*
X169202Y282478D01*
X169128Y282531D01*
X169058Y282591D01*
X169028Y282603D01*
X169002Y282622D01*
X168915Y282649D01*
X168830Y282683D01*
X168789Y282687D01*
X168767Y282694D01*
X168735Y282693D01*
X168663Y282701D01*
X142232Y282701D01*
X142162Y282690D01*
X142090Y282688D01*
X142041Y282670D01*
X141990Y282662D01*
X141926Y282628D01*
X141859Y282603D01*
X141818Y282571D01*
X141772Y282546D01*
X141723Y282494D01*
X141667Y282450D01*
X141639Y282406D01*
X141603Y282368D01*
X141573Y282303D01*
X141534Y282243D01*
X141521Y282192D01*
X141499Y282145D01*
X141491Y282074D01*
X141474Y282004D01*
X141478Y281952D01*
X141472Y281901D01*
X141487Y281830D01*
X141493Y281759D01*
X141513Y281711D01*
X141524Y281660D01*
X141561Y281599D01*
X141589Y281533D01*
X141634Y281477D01*
X141651Y281449D01*
X141661Y281440D01*
X141664Y281436D01*
X141673Y281428D01*
X141694Y281402D01*
X277330Y145766D01*
X277404Y145713D01*
X277474Y145653D01*
X277504Y145641D01*
X277530Y145622D01*
X277617Y145595D01*
X277702Y145561D01*
X277743Y145557D01*
X277765Y145550D01*
X277797Y145551D01*
X277869Y145543D01*
X295374Y145543D01*
X295394Y145546D01*
X295413Y145544D01*
X295515Y145566D01*
X295617Y145582D01*
X295634Y145592D01*
X295654Y145596D01*
X295743Y145649D01*
X295834Y145698D01*
X295848Y145712D01*
X295865Y145722D01*
X295932Y145801D01*
X296004Y145876D01*
X296012Y145894D01*
X296025Y145909D01*
X296064Y146005D01*
X296107Y146099D01*
X296109Y146119D01*
X296117Y146137D01*
X296135Y146304D01*
X296135Y151372D01*
X297028Y152265D01*
X313372Y152265D01*
X314265Y151372D01*
X314265Y135028D01*
X313372Y134135D01*
X297028Y134135D01*
X296135Y135028D01*
X296135Y140208D01*
X296132Y140228D01*
X296134Y140247D01*
X296112Y140349D01*
X296096Y140451D01*
X296086Y140468D01*
X296082Y140488D01*
X296029Y140577D01*
X295980Y140668D01*
X295966Y140682D01*
X295956Y140699D01*
X295877Y140766D01*
X295802Y140838D01*
X295784Y140846D01*
X295769Y140859D01*
X295673Y140898D01*
X295579Y140941D01*
X295559Y140943D01*
X295541Y140951D01*
X295374Y140969D01*
X275659Y140969D01*
X265564Y151064D01*
X265506Y151106D01*
X265454Y151155D01*
X265407Y151177D01*
X265365Y151207D01*
X265296Y151228D01*
X265231Y151259D01*
X265179Y151264D01*
X265129Y151280D01*
X265058Y151278D01*
X264987Y151286D01*
X264936Y151275D01*
X264884Y151273D01*
X264816Y151249D01*
X264746Y151234D01*
X264701Y151207D01*
X264653Y151189D01*
X264597Y151144D01*
X264535Y151107D01*
X264501Y151068D01*
X264461Y151035D01*
X264422Y150975D01*
X264375Y150920D01*
X264356Y150872D01*
X264328Y150828D01*
X264310Y150759D01*
X264283Y150692D01*
X264275Y150621D01*
X264267Y150590D01*
X264269Y150566D01*
X264265Y150526D01*
X264265Y135028D01*
X263372Y134135D01*
X250412Y134135D01*
X250342Y134124D01*
X250270Y134122D01*
X250221Y134104D01*
X250170Y134096D01*
X250106Y134062D01*
X250039Y134037D01*
X249998Y134005D01*
X249952Y133980D01*
X249903Y133928D01*
X249847Y133884D01*
X249819Y133840D01*
X249783Y133802D01*
X249753Y133737D01*
X249714Y133677D01*
X249701Y133626D01*
X249679Y133579D01*
X249671Y133508D01*
X249654Y133438D01*
X249658Y133386D01*
X249652Y133335D01*
X249667Y133264D01*
X249673Y133193D01*
X249693Y133145D01*
X249704Y133094D01*
X249741Y133033D01*
X249769Y132967D01*
X249814Y132911D01*
X249831Y132883D01*
X249848Y132868D01*
X249874Y132836D01*
X295699Y87011D01*
X295715Y87000D01*
X295727Y86984D01*
X295814Y86928D01*
X295898Y86868D01*
X295917Y86862D01*
X295934Y86851D01*
X296034Y86826D01*
X296133Y86795D01*
X296153Y86796D01*
X296173Y86791D01*
X296276Y86799D01*
X296379Y86802D01*
X296398Y86809D01*
X296418Y86810D01*
X296513Y86851D01*
X296610Y86886D01*
X296626Y86899D01*
X296644Y86907D01*
X296775Y87011D01*
X297028Y87265D01*
X313372Y87265D01*
X314265Y86372D01*
X314265Y70028D01*
X313372Y69135D01*
X297028Y69135D01*
X296135Y70028D01*
X296135Y79791D01*
X296121Y79882D01*
X296113Y79972D01*
X296101Y80002D01*
X296096Y80034D01*
X296053Y80115D01*
X296017Y80199D01*
X295991Y80231D01*
X295980Y80252D01*
X295957Y80274D01*
X295912Y80330D01*
X290564Y85678D01*
X290506Y85720D01*
X290454Y85769D01*
X290407Y85791D01*
X290365Y85821D01*
X290296Y85842D01*
X290231Y85873D01*
X290179Y85878D01*
X290129Y85894D01*
X290058Y85892D01*
X289987Y85900D01*
X289936Y85889D01*
X289884Y85887D01*
X289816Y85863D01*
X289746Y85848D01*
X289701Y85821D01*
X289653Y85803D01*
X289597Y85758D01*
X289535Y85721D01*
X289501Y85682D01*
X289461Y85649D01*
X289422Y85589D01*
X289375Y85534D01*
X289356Y85486D01*
X289328Y85442D01*
X289310Y85373D01*
X289283Y85306D01*
X289275Y85235D01*
X289267Y85204D01*
X289269Y85180D01*
X289265Y85140D01*
X289265Y70028D01*
X288372Y69135D01*
X272028Y69135D01*
G37*
%LPD*%
%LPC*%
G36*
X504157Y553975D02*
X504157Y553975D01*
X500013Y555692D01*
X496842Y558863D01*
X495125Y563007D01*
X495125Y572262D01*
X495122Y572282D01*
X495124Y572301D01*
X495102Y572403D01*
X495086Y572505D01*
X495076Y572522D01*
X495072Y572542D01*
X495019Y572631D01*
X494970Y572722D01*
X494956Y572736D01*
X494946Y572753D01*
X494867Y572820D01*
X494792Y572892D01*
X494774Y572900D01*
X494759Y572913D01*
X494663Y572952D01*
X494569Y572995D01*
X494549Y572997D01*
X494531Y573005D01*
X494364Y573023D01*
X410533Y573023D01*
X323087Y660469D01*
X323087Y676841D01*
X325951Y679705D01*
X335465Y679705D01*
X338922Y676248D01*
X338996Y676195D01*
X339066Y676135D01*
X339096Y676123D01*
X339122Y676104D01*
X339209Y676077D01*
X339294Y676043D01*
X339335Y676039D01*
X339357Y676032D01*
X339389Y676033D01*
X339460Y676025D01*
X344032Y676025D01*
X344612Y675445D01*
X344628Y675433D01*
X344640Y675417D01*
X344728Y675361D01*
X344811Y675301D01*
X344830Y675295D01*
X344847Y675284D01*
X344948Y675259D01*
X345047Y675229D01*
X345066Y675229D01*
X345086Y675224D01*
X345189Y675232D01*
X345292Y675235D01*
X345311Y675242D01*
X345331Y675243D01*
X345426Y675284D01*
X345523Y675319D01*
X345539Y675332D01*
X345557Y675340D01*
X345688Y675445D01*
X346268Y676025D01*
X353626Y676025D01*
X353701Y676006D01*
X353800Y675975D01*
X353820Y675976D01*
X353839Y675971D01*
X353942Y675979D01*
X354046Y675982D01*
X354064Y675989D01*
X354084Y675990D01*
X354179Y676031D01*
X354277Y676066D01*
X354292Y676079D01*
X354311Y676087D01*
X354441Y676191D01*
X366052Y687802D01*
X366105Y687876D01*
X366165Y687946D01*
X366177Y687976D01*
X366196Y688002D01*
X366223Y688089D01*
X366257Y688174D01*
X366261Y688215D01*
X366268Y688237D01*
X366267Y688269D01*
X366275Y688340D01*
X366275Y693982D01*
X367168Y694875D01*
X371916Y694875D01*
X372006Y694889D01*
X372097Y694897D01*
X372127Y694909D01*
X372159Y694914D01*
X372240Y694957D01*
X372324Y694993D01*
X372356Y695019D01*
X372376Y695030D01*
X372399Y695053D01*
X372455Y695098D01*
X372740Y695383D01*
X373319Y695718D01*
X373966Y695891D01*
X375176Y695891D01*
X375176Y687463D01*
X375179Y687444D01*
X375177Y687424D01*
X375190Y687364D01*
X375176Y687237D01*
X375176Y678809D01*
X373966Y678809D01*
X373319Y678982D01*
X372740Y679317D01*
X372455Y679602D01*
X372381Y679655D01*
X372311Y679715D01*
X372281Y679727D01*
X372255Y679746D01*
X372168Y679773D01*
X372083Y679807D01*
X372042Y679811D01*
X372020Y679818D01*
X371988Y679817D01*
X371916Y679825D01*
X367168Y679825D01*
X366394Y680600D01*
X366378Y680611D01*
X366365Y680627D01*
X366305Y680666D01*
X366251Y680712D01*
X366222Y680724D01*
X366194Y680743D01*
X366175Y680749D01*
X366159Y680760D01*
X366087Y680778D01*
X366023Y680804D01*
X365984Y680808D01*
X365959Y680816D01*
X365939Y680815D01*
X365920Y680820D01*
X365894Y680818D01*
X365856Y680822D01*
X365855Y680822D01*
X365789Y680811D01*
X365713Y680809D01*
X365695Y680802D01*
X365675Y680801D01*
X365643Y680787D01*
X365612Y680782D01*
X365552Y680750D01*
X365482Y680725D01*
X365467Y680712D01*
X365448Y680704D01*
X365415Y680678D01*
X365395Y680667D01*
X365373Y680644D01*
X365318Y680600D01*
X354648Y669930D01*
X354604Y669869D01*
X354568Y669831D01*
X354562Y669818D01*
X354535Y669786D01*
X354523Y669756D01*
X354504Y669730D01*
X354477Y669643D01*
X354443Y669558D01*
X354439Y669517D01*
X354432Y669495D01*
X354433Y669463D01*
X354425Y669392D01*
X354425Y665226D01*
X354428Y665206D01*
X354426Y665187D01*
X354448Y665085D01*
X354464Y664983D01*
X354474Y664966D01*
X354478Y664946D01*
X354531Y664857D01*
X354580Y664766D01*
X354594Y664752D01*
X354604Y664735D01*
X354683Y664668D01*
X354758Y664596D01*
X354776Y664588D01*
X354791Y664575D01*
X354887Y664536D01*
X354981Y664493D01*
X355001Y664491D01*
X355019Y664483D01*
X355186Y664465D01*
X415714Y664465D01*
X415734Y664468D01*
X415753Y664466D01*
X415855Y664488D01*
X415957Y664504D01*
X415974Y664514D01*
X415994Y664518D01*
X416083Y664571D01*
X416174Y664620D01*
X416188Y664634D01*
X416205Y664644D01*
X416272Y664723D01*
X416344Y664798D01*
X416352Y664816D01*
X416365Y664831D01*
X416404Y664927D01*
X416447Y665021D01*
X416449Y665041D01*
X416457Y665059D01*
X416475Y665226D01*
X416475Y670432D01*
X417368Y671325D01*
X438632Y671325D01*
X439525Y670432D01*
X439525Y656432D01*
X439526Y656425D01*
X439526Y656423D01*
X439528Y656411D01*
X439536Y656362D01*
X439538Y656290D01*
X439556Y656241D01*
X439564Y656190D01*
X439598Y656126D01*
X439623Y656059D01*
X439655Y656018D01*
X439680Y655972D01*
X439731Y655923D01*
X439776Y655867D01*
X439820Y655839D01*
X439858Y655803D01*
X439923Y655773D01*
X439983Y655734D01*
X440034Y655721D01*
X440081Y655699D01*
X440152Y655691D01*
X440222Y655674D01*
X440274Y655678D01*
X440325Y655672D01*
X440396Y655687D01*
X440467Y655693D01*
X440515Y655713D01*
X440566Y655724D01*
X440627Y655761D01*
X440693Y655789D01*
X440749Y655834D01*
X440777Y655851D01*
X440792Y655868D01*
X440824Y655894D01*
X468196Y683266D01*
X468238Y683324D01*
X468287Y683376D01*
X468309Y683423D01*
X468339Y683465D01*
X468360Y683534D01*
X468391Y683599D01*
X468396Y683651D01*
X468412Y683701D01*
X468410Y683772D01*
X468418Y683843D01*
X468407Y683894D01*
X468405Y683946D01*
X468381Y684014D01*
X468366Y684084D01*
X468339Y684128D01*
X468321Y684177D01*
X468276Y684233D01*
X468239Y684295D01*
X468200Y684329D01*
X468167Y684369D01*
X468107Y684408D01*
X468052Y684455D01*
X468004Y684474D01*
X467960Y684502D01*
X467891Y684520D01*
X467824Y684547D01*
X467753Y684555D01*
X467722Y684563D01*
X467698Y684561D01*
X467658Y684565D01*
X463458Y684565D01*
X462565Y685458D01*
X462565Y744474D01*
X462562Y744494D01*
X462564Y744513D01*
X462542Y744615D01*
X462526Y744717D01*
X462516Y744734D01*
X462512Y744754D01*
X462459Y744843D01*
X462410Y744934D01*
X462396Y744948D01*
X462386Y744965D01*
X462307Y745032D01*
X462232Y745104D01*
X462214Y745112D01*
X462199Y745125D01*
X462103Y745164D01*
X462009Y745207D01*
X461989Y745209D01*
X461971Y745217D01*
X461804Y745235D01*
X376491Y745235D01*
X376374Y745216D01*
X376256Y745198D01*
X376253Y745196D01*
X376249Y745196D01*
X376143Y745140D01*
X376038Y745085D01*
X376035Y745082D01*
X376031Y745080D01*
X375950Y744995D01*
X375867Y744909D01*
X375865Y744905D01*
X375862Y744902D01*
X375812Y744794D01*
X375761Y744687D01*
X375760Y744683D01*
X375758Y744679D01*
X375745Y744560D01*
X375731Y744443D01*
X375732Y744438D01*
X375731Y744435D01*
X375734Y744421D01*
X375741Y744378D01*
X375741Y736523D01*
X365962Y736523D01*
X365942Y736520D01*
X365923Y736522D01*
X365821Y736500D01*
X365719Y736483D01*
X365702Y736474D01*
X365682Y736470D01*
X365593Y736417D01*
X365502Y736368D01*
X365488Y736354D01*
X365471Y736344D01*
X365404Y736265D01*
X365333Y736190D01*
X365324Y736172D01*
X365311Y736157D01*
X365272Y736061D01*
X365229Y735967D01*
X365227Y735947D01*
X365219Y735929D01*
X365201Y735762D01*
X365201Y734999D01*
X365199Y734999D01*
X365199Y735762D01*
X365196Y735782D01*
X365198Y735801D01*
X365176Y735903D01*
X365159Y736005D01*
X365150Y736022D01*
X365146Y736042D01*
X365093Y736131D01*
X365044Y736222D01*
X365030Y736236D01*
X365020Y736253D01*
X364941Y736320D01*
X364866Y736391D01*
X364848Y736400D01*
X364833Y736413D01*
X364737Y736452D01*
X364643Y736495D01*
X364623Y736497D01*
X364605Y736505D01*
X364438Y736523D01*
X354659Y736523D01*
X354659Y742780D01*
X354648Y742850D01*
X354646Y742922D01*
X354628Y742971D01*
X354620Y743022D01*
X354586Y743086D01*
X354561Y743153D01*
X354529Y743194D01*
X354504Y743240D01*
X354452Y743289D01*
X354408Y743345D01*
X354364Y743373D01*
X354326Y743409D01*
X354261Y743439D01*
X354201Y743478D01*
X354150Y743491D01*
X354103Y743513D01*
X354032Y743521D01*
X353962Y743538D01*
X353910Y743534D01*
X353859Y743540D01*
X353788Y743525D01*
X353717Y743519D01*
X353669Y743499D01*
X353618Y743488D01*
X353557Y743451D01*
X353491Y743423D01*
X353435Y743378D01*
X353407Y743361D01*
X353392Y743344D01*
X353360Y743318D01*
X346948Y736906D01*
X346902Y736842D01*
X346882Y736821D01*
X346878Y736813D01*
X346835Y736762D01*
X346823Y736732D01*
X346804Y736706D01*
X346777Y736619D01*
X346743Y736534D01*
X346739Y736493D01*
X346732Y736471D01*
X346733Y736439D01*
X346725Y736367D01*
X346725Y725368D01*
X345832Y724475D01*
X342900Y724475D01*
X342880Y724472D01*
X342861Y724474D01*
X342759Y724452D01*
X342657Y724436D01*
X342640Y724426D01*
X342620Y724422D01*
X342531Y724369D01*
X342440Y724320D01*
X342426Y724306D01*
X342409Y724296D01*
X342342Y724217D01*
X342270Y724142D01*
X342262Y724124D01*
X342249Y724109D01*
X342210Y724013D01*
X342167Y723919D01*
X342165Y723899D01*
X342157Y723881D01*
X342139Y723714D01*
X342139Y699786D01*
X342142Y699766D01*
X342140Y699747D01*
X342162Y699645D01*
X342178Y699543D01*
X342188Y699526D01*
X342192Y699506D01*
X342245Y699417D01*
X342294Y699326D01*
X342308Y699312D01*
X342318Y699295D01*
X342397Y699228D01*
X342472Y699156D01*
X342490Y699148D01*
X342505Y699135D01*
X342601Y699096D01*
X342695Y699053D01*
X342715Y699051D01*
X342733Y699043D01*
X342900Y699025D01*
X344086Y699025D01*
X344093Y699020D01*
X344112Y699014D01*
X344129Y699003D01*
X344229Y698977D01*
X344328Y698947D01*
X344348Y698948D01*
X344367Y698943D01*
X344470Y698951D01*
X344574Y698953D01*
X344593Y698960D01*
X344613Y698962D01*
X344708Y699002D01*
X344805Y699038D01*
X344821Y699050D01*
X344839Y699058D01*
X344970Y699163D01*
X345340Y699533D01*
X345919Y699868D01*
X346566Y700041D01*
X348401Y700041D01*
X348401Y693738D01*
X348402Y693729D01*
X348402Y693724D01*
X348404Y693715D01*
X348402Y693699D01*
X348424Y693597D01*
X348440Y693495D01*
X348450Y693478D01*
X348454Y693458D01*
X348507Y693369D01*
X348556Y693278D01*
X348570Y693264D01*
X348580Y693247D01*
X348659Y693180D01*
X348734Y693109D01*
X348752Y693100D01*
X348767Y693087D01*
X348863Y693049D01*
X348957Y693005D01*
X348977Y693003D01*
X348995Y692996D01*
X348919Y692983D01*
X348902Y692974D01*
X348882Y692970D01*
X348793Y692917D01*
X348702Y692868D01*
X348688Y692854D01*
X348671Y692844D01*
X348604Y692765D01*
X348532Y692690D01*
X348524Y692672D01*
X348511Y692657D01*
X348472Y692560D01*
X348429Y692467D01*
X348427Y692447D01*
X348419Y692429D01*
X348401Y692262D01*
X348401Y685959D01*
X346566Y685959D01*
X345919Y686132D01*
X345340Y686467D01*
X344970Y686837D01*
X344954Y686849D01*
X344941Y686864D01*
X344854Y686920D01*
X344770Y686981D01*
X344751Y686986D01*
X344734Y686997D01*
X344634Y687023D01*
X344535Y687053D01*
X344515Y687052D01*
X344496Y687057D01*
X344393Y687049D01*
X344289Y687047D01*
X344270Y687040D01*
X344250Y687038D01*
X344155Y686998D01*
X344094Y686975D01*
X336768Y686975D01*
X336188Y687555D01*
X336172Y687567D01*
X336160Y687583D01*
X336072Y687639D01*
X335989Y687699D01*
X335970Y687705D01*
X335953Y687716D01*
X335852Y687741D01*
X335753Y687771D01*
X335734Y687771D01*
X335714Y687776D01*
X335611Y687768D01*
X335508Y687765D01*
X335489Y687758D01*
X335469Y687757D01*
X335374Y687716D01*
X335277Y687681D01*
X335261Y687668D01*
X335243Y687660D01*
X335112Y687555D01*
X334532Y686975D01*
X327268Y686975D01*
X326375Y687868D01*
X326375Y698132D01*
X327268Y699025D01*
X334532Y699025D01*
X335112Y698445D01*
X335128Y698433D01*
X335140Y698417D01*
X335228Y698361D01*
X335311Y698301D01*
X335330Y698295D01*
X335347Y698284D01*
X335448Y698259D01*
X335547Y698229D01*
X335566Y698229D01*
X335586Y698224D01*
X335689Y698232D01*
X335792Y698235D01*
X335811Y698242D01*
X335831Y698243D01*
X335926Y698284D01*
X336023Y698319D01*
X336039Y698332D01*
X336057Y698340D01*
X336188Y698445D01*
X336768Y699025D01*
X336804Y699025D01*
X336824Y699028D01*
X336843Y699026D01*
X336945Y699048D01*
X337047Y699064D01*
X337064Y699074D01*
X337084Y699078D01*
X337173Y699131D01*
X337264Y699180D01*
X337278Y699194D01*
X337295Y699204D01*
X337362Y699283D01*
X337434Y699358D01*
X337442Y699376D01*
X337455Y699391D01*
X337494Y699487D01*
X337537Y699581D01*
X337539Y699601D01*
X337547Y699619D01*
X337565Y699786D01*
X337565Y715518D01*
X337562Y715538D01*
X337564Y715557D01*
X337542Y715659D01*
X337526Y715761D01*
X337516Y715778D01*
X337512Y715798D01*
X337459Y715887D01*
X337410Y715978D01*
X337396Y715992D01*
X337386Y716009D01*
X337307Y716076D01*
X337232Y716148D01*
X337214Y716156D01*
X337199Y716169D01*
X337103Y716208D01*
X337009Y716251D01*
X336989Y716253D01*
X336971Y716261D01*
X336804Y716279D01*
X310286Y716279D01*
X310266Y716276D01*
X310247Y716278D01*
X310145Y716256D01*
X310043Y716240D01*
X310026Y716230D01*
X310006Y716226D01*
X309917Y716173D01*
X309826Y716124D01*
X309812Y716110D01*
X309795Y716100D01*
X309728Y716021D01*
X309656Y715946D01*
X309648Y715928D01*
X309635Y715913D01*
X309596Y715817D01*
X309553Y715723D01*
X309551Y715703D01*
X309543Y715685D01*
X309525Y715518D01*
X309525Y709768D01*
X308632Y708875D01*
X287368Y708875D01*
X286475Y709768D01*
X286475Y727032D01*
X287368Y727925D01*
X308632Y727925D01*
X309525Y727032D01*
X309525Y721614D01*
X309528Y721594D01*
X309526Y721575D01*
X309548Y721473D01*
X309564Y721371D01*
X309574Y721354D01*
X309578Y721334D01*
X309631Y721245D01*
X309680Y721154D01*
X309694Y721140D01*
X309704Y721123D01*
X309783Y721056D01*
X309858Y720984D01*
X309876Y720976D01*
X309891Y720963D01*
X309987Y720924D01*
X310081Y720881D01*
X310101Y720879D01*
X310119Y720871D01*
X310286Y720853D01*
X336804Y720853D01*
X336824Y720856D01*
X336843Y720854D01*
X336945Y720876D01*
X337047Y720892D01*
X337064Y720902D01*
X337084Y720906D01*
X337173Y720959D01*
X337264Y721008D01*
X337278Y721022D01*
X337295Y721032D01*
X337362Y721111D01*
X337434Y721186D01*
X337442Y721204D01*
X337455Y721219D01*
X337494Y721315D01*
X337537Y721409D01*
X337539Y721429D01*
X337547Y721447D01*
X337565Y721614D01*
X337565Y723714D01*
X337562Y723734D01*
X337564Y723753D01*
X337542Y723855D01*
X337526Y723957D01*
X337516Y723974D01*
X337512Y723994D01*
X337459Y724083D01*
X337410Y724174D01*
X337396Y724188D01*
X337386Y724205D01*
X337307Y724272D01*
X337232Y724344D01*
X337214Y724352D01*
X337199Y724365D01*
X337103Y724404D01*
X337009Y724447D01*
X336989Y724449D01*
X336971Y724457D01*
X336804Y724475D01*
X328568Y724475D01*
X327675Y725368D01*
X327675Y744632D01*
X328568Y745525D01*
X345832Y745525D01*
X346927Y744429D01*
X346943Y744418D01*
X346956Y744402D01*
X347043Y744346D01*
X347127Y744286D01*
X347146Y744280D01*
X347162Y744269D01*
X347263Y744244D01*
X347362Y744213D01*
X347382Y744214D01*
X347401Y744209D01*
X347504Y744217D01*
X347608Y744220D01*
X347626Y744227D01*
X347646Y744228D01*
X347741Y744269D01*
X347839Y744304D01*
X347854Y744317D01*
X347872Y744325D01*
X348003Y744429D01*
X353383Y749809D01*
X523679Y749809D01*
X527305Y746183D01*
X527305Y684091D01*
X509240Y666026D01*
X509187Y665952D01*
X509127Y665882D01*
X509115Y665852D01*
X509096Y665826D01*
X509069Y665739D01*
X509035Y665654D01*
X509031Y665613D01*
X509024Y665591D01*
X509025Y665559D01*
X509017Y665487D01*
X509017Y661378D01*
X509036Y661264D01*
X509053Y661147D01*
X509055Y661142D01*
X509056Y661136D01*
X509111Y661033D01*
X509164Y660928D01*
X509169Y660924D01*
X509172Y660918D01*
X509256Y660838D01*
X509340Y660756D01*
X509346Y660752D01*
X509350Y660749D01*
X509367Y660741D01*
X509487Y660675D01*
X512787Y659308D01*
X515958Y656137D01*
X517675Y651993D01*
X517675Y628007D01*
X515958Y623863D01*
X512787Y620692D01*
X508643Y618975D01*
X504157Y618975D01*
X500013Y620692D01*
X496842Y623863D01*
X495125Y628007D01*
X495125Y651993D01*
X496842Y656137D01*
X500013Y659308D01*
X503973Y660949D01*
X504073Y661010D01*
X504173Y661070D01*
X504177Y661075D01*
X504182Y661078D01*
X504257Y661168D01*
X504333Y661257D01*
X504335Y661263D01*
X504339Y661268D01*
X504381Y661376D01*
X504425Y661485D01*
X504426Y661493D01*
X504427Y661497D01*
X504428Y661516D01*
X504443Y661652D01*
X504443Y667697D01*
X520012Y683266D01*
X520054Y683324D01*
X520103Y683376D01*
X520125Y683423D01*
X520155Y683465D01*
X520176Y683534D01*
X520207Y683599D01*
X520212Y683651D01*
X520228Y683701D01*
X520226Y683772D01*
X520234Y683843D01*
X520223Y683894D01*
X520221Y683946D01*
X520197Y684014D01*
X520182Y684084D01*
X520155Y684129D01*
X520137Y684177D01*
X520092Y684233D01*
X520055Y684295D01*
X520016Y684329D01*
X519983Y684369D01*
X519923Y684408D01*
X519868Y684455D01*
X519820Y684474D01*
X519776Y684502D01*
X519707Y684520D01*
X519640Y684547D01*
X519569Y684555D01*
X519538Y684563D01*
X519514Y684561D01*
X519474Y684565D01*
X476279Y684565D01*
X476188Y684551D01*
X476098Y684543D01*
X476068Y684531D01*
X476036Y684526D01*
X475955Y684483D01*
X475871Y684447D01*
X475839Y684421D01*
X475818Y684410D01*
X475796Y684387D01*
X475740Y684342D01*
X436022Y644624D01*
X435980Y644566D01*
X435931Y644514D01*
X435909Y644467D01*
X435879Y644425D01*
X435858Y644356D01*
X435827Y644291D01*
X435822Y644239D01*
X435806Y644189D01*
X435808Y644118D01*
X435800Y644047D01*
X435811Y643996D01*
X435813Y643944D01*
X435837Y643876D01*
X435852Y643806D01*
X435879Y643761D01*
X435897Y643713D01*
X435942Y643657D01*
X435979Y643595D01*
X436018Y643561D01*
X436051Y643521D01*
X436111Y643482D01*
X436166Y643435D01*
X436214Y643416D01*
X436258Y643388D01*
X436327Y643370D01*
X436394Y643343D01*
X436465Y643335D01*
X436496Y643327D01*
X436520Y643329D01*
X436560Y643325D01*
X438632Y643325D01*
X439525Y642432D01*
X439525Y625168D01*
X438632Y624275D01*
X417368Y624275D01*
X416475Y625168D01*
X416475Y634746D01*
X416472Y634766D01*
X416474Y634785D01*
X416452Y634887D01*
X416436Y634989D01*
X416426Y635006D01*
X416422Y635026D01*
X416369Y635115D01*
X416320Y635206D01*
X416306Y635220D01*
X416296Y635237D01*
X416217Y635304D01*
X416142Y635376D01*
X416124Y635384D01*
X416109Y635397D01*
X416013Y635436D01*
X415919Y635479D01*
X415899Y635481D01*
X415881Y635489D01*
X415714Y635507D01*
X393086Y635507D01*
X393066Y635504D01*
X393047Y635506D01*
X392945Y635484D01*
X392843Y635468D01*
X392826Y635458D01*
X392806Y635454D01*
X392717Y635401D01*
X392626Y635352D01*
X392612Y635338D01*
X392595Y635328D01*
X392528Y635249D01*
X392456Y635174D01*
X392448Y635156D01*
X392435Y635141D01*
X392396Y635045D01*
X392353Y634951D01*
X392351Y634931D01*
X392343Y634913D01*
X392325Y634746D01*
X392325Y622218D01*
X391432Y621325D01*
X386668Y621325D01*
X386338Y621655D01*
X386322Y621667D01*
X386310Y621683D01*
X386223Y621739D01*
X386139Y621799D01*
X386120Y621805D01*
X386103Y621816D01*
X386002Y621841D01*
X385903Y621871D01*
X385884Y621871D01*
X385864Y621876D01*
X385761Y621868D01*
X385658Y621865D01*
X385639Y621858D01*
X385619Y621857D01*
X385524Y621816D01*
X385427Y621781D01*
X385411Y621768D01*
X385393Y621760D01*
X385262Y621655D01*
X384932Y621325D01*
X380168Y621325D01*
X379838Y621655D01*
X379822Y621667D01*
X379810Y621683D01*
X379723Y621739D01*
X379639Y621799D01*
X379620Y621805D01*
X379603Y621816D01*
X379502Y621841D01*
X379403Y621871D01*
X379384Y621871D01*
X379364Y621876D01*
X379261Y621868D01*
X379158Y621865D01*
X379139Y621858D01*
X379119Y621857D01*
X379024Y621816D01*
X378927Y621781D01*
X378911Y621768D01*
X378893Y621760D01*
X378762Y621655D01*
X378432Y621325D01*
X373668Y621325D01*
X373338Y621655D01*
X373322Y621667D01*
X373310Y621683D01*
X373223Y621739D01*
X373139Y621799D01*
X373120Y621805D01*
X373103Y621816D01*
X373002Y621841D01*
X372903Y621871D01*
X372884Y621871D01*
X372864Y621876D01*
X372761Y621868D01*
X372658Y621865D01*
X372639Y621858D01*
X372619Y621857D01*
X372524Y621816D01*
X372427Y621781D01*
X372411Y621768D01*
X372393Y621760D01*
X372262Y621655D01*
X371932Y621325D01*
X370536Y621325D01*
X370466Y621314D01*
X370394Y621312D01*
X370345Y621294D01*
X370294Y621286D01*
X370230Y621252D01*
X370163Y621227D01*
X370122Y621195D01*
X370076Y621170D01*
X370027Y621118D01*
X369971Y621074D01*
X369943Y621030D01*
X369907Y620992D01*
X369877Y620927D01*
X369838Y620867D01*
X369825Y620816D01*
X369803Y620769D01*
X369795Y620698D01*
X369778Y620628D01*
X369782Y620576D01*
X369776Y620525D01*
X369791Y620454D01*
X369797Y620383D01*
X369817Y620335D01*
X369828Y620284D01*
X369865Y620223D01*
X369893Y620157D01*
X369938Y620101D01*
X369955Y620073D01*
X369972Y620058D01*
X369998Y620026D01*
X412204Y577820D01*
X412278Y577767D01*
X412348Y577707D01*
X412378Y577695D01*
X412404Y577676D01*
X412491Y577649D01*
X412576Y577615D01*
X412617Y577611D01*
X412639Y577604D01*
X412671Y577605D01*
X412743Y577597D01*
X494364Y577597D01*
X494384Y577600D01*
X494403Y577598D01*
X494505Y577620D01*
X494607Y577636D01*
X494624Y577646D01*
X494644Y577650D01*
X494733Y577703D01*
X494824Y577752D01*
X494838Y577766D01*
X494855Y577776D01*
X494922Y577855D01*
X494994Y577930D01*
X495002Y577948D01*
X495015Y577963D01*
X495054Y578059D01*
X495097Y578153D01*
X495099Y578173D01*
X495107Y578191D01*
X495125Y578358D01*
X495125Y586993D01*
X496842Y591137D01*
X500013Y594308D01*
X504157Y596025D01*
X508643Y596025D01*
X512787Y594308D01*
X515958Y591137D01*
X517675Y586993D01*
X517675Y563007D01*
X515958Y558863D01*
X512787Y555692D01*
X508643Y553975D01*
X504157Y553975D01*
G37*
%LPD*%
%LPC*%
G36*
X272028Y41635D02*
X272028Y41635D01*
X271135Y42528D01*
X271135Y49927D01*
X271121Y50018D01*
X271113Y50108D01*
X271101Y50138D01*
X271096Y50170D01*
X271053Y50251D01*
X271017Y50335D01*
X270991Y50367D01*
X270980Y50388D01*
X270957Y50410D01*
X270912Y50466D01*
X266580Y54798D01*
X266522Y54840D01*
X266470Y54889D01*
X266423Y54911D01*
X266381Y54941D01*
X266312Y54962D01*
X266247Y54993D01*
X266195Y54998D01*
X266145Y55014D01*
X266074Y55012D01*
X266003Y55020D01*
X265952Y55009D01*
X265900Y55007D01*
X265832Y54983D01*
X265762Y54968D01*
X265717Y54941D01*
X265669Y54923D01*
X265613Y54878D01*
X265551Y54841D01*
X265517Y54802D01*
X265477Y54769D01*
X265438Y54709D01*
X265391Y54654D01*
X265372Y54606D01*
X265344Y54562D01*
X265326Y54493D01*
X265299Y54426D01*
X265291Y54355D01*
X265283Y54324D01*
X265285Y54300D01*
X265281Y54260D01*
X265281Y52223D01*
X256723Y52223D01*
X256723Y60781D01*
X258760Y60781D01*
X258830Y60792D01*
X258902Y60794D01*
X258951Y60812D01*
X259002Y60820D01*
X259066Y60854D01*
X259133Y60879D01*
X259174Y60911D01*
X259220Y60936D01*
X259269Y60988D01*
X259325Y61032D01*
X259353Y61076D01*
X259389Y61114D01*
X259419Y61179D01*
X259458Y61239D01*
X259471Y61290D01*
X259493Y61337D01*
X259501Y61408D01*
X259518Y61478D01*
X259514Y61530D01*
X259520Y61581D01*
X259505Y61652D01*
X259499Y61723D01*
X259479Y61771D01*
X259468Y61822D01*
X259431Y61883D01*
X259403Y61949D01*
X259358Y62005D01*
X259341Y62033D01*
X259324Y62048D01*
X259298Y62080D01*
X256070Y65308D01*
X255996Y65361D01*
X255926Y65421D01*
X255896Y65433D01*
X255870Y65452D01*
X255783Y65479D01*
X255698Y65513D01*
X255657Y65517D01*
X255635Y65524D01*
X255603Y65523D01*
X255531Y65531D01*
X98113Y65531D01*
X84254Y79390D01*
X84160Y79458D01*
X84065Y79528D01*
X84059Y79530D01*
X84054Y79534D01*
X83943Y79568D01*
X83831Y79604D01*
X83825Y79604D01*
X83819Y79606D01*
X83702Y79603D01*
X83585Y79602D01*
X83578Y79600D01*
X83573Y79600D01*
X83556Y79593D01*
X83424Y79555D01*
X81204Y78635D01*
X77796Y78635D01*
X74648Y79939D01*
X72239Y82348D01*
X70916Y85544D01*
X70910Y85600D01*
X70900Y85624D01*
X70896Y85650D01*
X70850Y85736D01*
X70810Y85825D01*
X70793Y85844D01*
X70780Y85867D01*
X70710Y85934D01*
X70644Y86006D01*
X70621Y86018D01*
X70602Y86036D01*
X70514Y86078D01*
X70428Y86124D01*
X70403Y86129D01*
X70379Y86140D01*
X70282Y86151D01*
X70186Y86168D01*
X70160Y86164D01*
X70135Y86167D01*
X70040Y86147D01*
X69943Y86132D01*
X69920Y86121D01*
X69894Y86115D01*
X69810Y86065D01*
X69724Y86021D01*
X69706Y86002D01*
X69683Y85989D01*
X69620Y85915D01*
X69552Y85845D01*
X69536Y85817D01*
X69523Y85802D01*
X69511Y85771D01*
X69471Y85698D01*
X69200Y85046D01*
X64654Y80500D01*
X58715Y78039D01*
X52285Y78039D01*
X46346Y80500D01*
X41800Y85046D01*
X40921Y87167D01*
X40883Y87228D01*
X40854Y87294D01*
X40819Y87332D01*
X40791Y87376D01*
X40736Y87422D01*
X40687Y87475D01*
X40642Y87500D01*
X40602Y87533D01*
X40535Y87559D01*
X40472Y87593D01*
X40421Y87603D01*
X40372Y87621D01*
X40301Y87624D01*
X40230Y87637D01*
X40178Y87630D01*
X40126Y87632D01*
X40057Y87612D01*
X39987Y87601D01*
X39940Y87578D01*
X39890Y87563D01*
X39831Y87522D01*
X39767Y87490D01*
X39731Y87453D01*
X39688Y87423D01*
X39645Y87365D01*
X39595Y87314D01*
X39561Y87251D01*
X39541Y87226D01*
X39534Y87203D01*
X39514Y87167D01*
X38761Y85348D01*
X36352Y82939D01*
X33204Y81635D01*
X29796Y81635D01*
X26648Y82939D01*
X24239Y85348D01*
X22935Y88496D01*
X22935Y91904D01*
X24239Y95052D01*
X26648Y97461D01*
X29796Y98765D01*
X33204Y98765D01*
X36352Y97461D01*
X38040Y95773D01*
X38098Y95731D01*
X38150Y95681D01*
X38197Y95659D01*
X38239Y95629D01*
X38308Y95608D01*
X38373Y95578D01*
X38425Y95572D01*
X38475Y95557D01*
X38546Y95559D01*
X38617Y95551D01*
X38668Y95562D01*
X38720Y95563D01*
X38788Y95588D01*
X38858Y95603D01*
X38903Y95630D01*
X38951Y95648D01*
X39007Y95692D01*
X39069Y95729D01*
X39103Y95769D01*
X39143Y95801D01*
X39182Y95862D01*
X39229Y95916D01*
X39248Y95964D01*
X39276Y96008D01*
X39294Y96078D01*
X39321Y96144D01*
X39329Y96216D01*
X39337Y96247D01*
X39335Y96270D01*
X39339Y96311D01*
X39339Y97415D01*
X41800Y103354D01*
X46346Y107900D01*
X52285Y110361D01*
X58715Y110361D01*
X64654Y107900D01*
X69200Y103354D01*
X71661Y97415D01*
X71661Y93311D01*
X71672Y93240D01*
X71674Y93168D01*
X71692Y93120D01*
X71700Y93068D01*
X71734Y93005D01*
X71759Y92937D01*
X71791Y92897D01*
X71816Y92851D01*
X71868Y92801D01*
X71912Y92745D01*
X71956Y92717D01*
X71994Y92681D01*
X72059Y92651D01*
X72119Y92612D01*
X72170Y92600D01*
X72217Y92578D01*
X72288Y92570D01*
X72358Y92552D01*
X72410Y92556D01*
X72461Y92551D01*
X72532Y92566D01*
X72603Y92572D01*
X72651Y92592D01*
X72702Y92603D01*
X72763Y92640D01*
X72829Y92668D01*
X72885Y92713D01*
X72913Y92729D01*
X72928Y92747D01*
X72960Y92773D01*
X74648Y94461D01*
X77796Y95765D01*
X81204Y95765D01*
X84352Y94461D01*
X86761Y92052D01*
X88065Y88904D01*
X88065Y85496D01*
X87249Y83527D01*
X87239Y83484D01*
X87221Y83446D01*
X87214Y83380D01*
X87194Y83300D01*
X87194Y83294D01*
X87193Y83288D01*
X87198Y83235D01*
X87194Y83201D01*
X87206Y83148D01*
X87213Y83055D01*
X87215Y83049D01*
X87216Y83043D01*
X87241Y82988D01*
X87246Y82961D01*
X87270Y82922D01*
X87309Y82829D01*
X87314Y82823D01*
X87316Y82818D01*
X87329Y82804D01*
X87414Y82698D01*
X99784Y70328D01*
X99858Y70275D01*
X99928Y70215D01*
X99958Y70203D01*
X99984Y70184D01*
X100071Y70157D01*
X100156Y70123D01*
X100197Y70119D01*
X100219Y70112D01*
X100251Y70113D01*
X100323Y70105D01*
X244358Y70105D01*
X244378Y70108D01*
X244397Y70106D01*
X244499Y70128D01*
X244601Y70144D01*
X244618Y70154D01*
X244638Y70158D01*
X244727Y70211D01*
X244818Y70260D01*
X244832Y70274D01*
X244849Y70284D01*
X244916Y70363D01*
X244988Y70438D01*
X244996Y70456D01*
X245009Y70471D01*
X245048Y70567D01*
X245091Y70661D01*
X245093Y70681D01*
X245101Y70699D01*
X245119Y70866D01*
X245119Y76677D01*
X254438Y76677D01*
X254458Y76680D01*
X254477Y76678D01*
X254579Y76700D01*
X254681Y76717D01*
X254698Y76726D01*
X254718Y76730D01*
X254807Y76783D01*
X254898Y76832D01*
X254912Y76846D01*
X254929Y76856D01*
X254996Y76935D01*
X255067Y77010D01*
X255076Y77028D01*
X255089Y77043D01*
X255127Y77139D01*
X255171Y77233D01*
X255173Y77253D01*
X255181Y77271D01*
X255199Y77438D01*
X255199Y78201D01*
X255201Y78201D01*
X255201Y77438D01*
X255204Y77418D01*
X255202Y77399D01*
X255224Y77297D01*
X255241Y77195D01*
X255250Y77178D01*
X255254Y77158D01*
X255307Y77069D01*
X255356Y76978D01*
X255370Y76964D01*
X255380Y76947D01*
X255459Y76880D01*
X255534Y76809D01*
X255552Y76800D01*
X255567Y76787D01*
X255663Y76748D01*
X255757Y76705D01*
X255777Y76703D01*
X255795Y76695D01*
X255962Y76677D01*
X265281Y76677D01*
X265281Y70326D01*
X265108Y69679D01*
X264773Y69100D01*
X264300Y68627D01*
X263721Y68292D01*
X263074Y68119D01*
X261564Y68119D01*
X261494Y68108D01*
X261422Y68106D01*
X261373Y68088D01*
X261322Y68080D01*
X261258Y68046D01*
X261191Y68021D01*
X261150Y67989D01*
X261104Y67964D01*
X261055Y67913D01*
X260999Y67868D01*
X260971Y67824D01*
X260935Y67786D01*
X260905Y67721D01*
X260866Y67661D01*
X260853Y67610D01*
X260831Y67563D01*
X260823Y67492D01*
X260806Y67422D01*
X260810Y67370D01*
X260804Y67319D01*
X260819Y67248D01*
X260825Y67177D01*
X260845Y67129D01*
X260856Y67078D01*
X260893Y67017D01*
X260921Y66951D01*
X260966Y66895D01*
X260983Y66867D01*
X261000Y66852D01*
X261026Y66820D01*
X269836Y58010D01*
X269894Y57968D01*
X269946Y57919D01*
X269993Y57897D01*
X270035Y57867D01*
X270104Y57846D01*
X270169Y57815D01*
X270221Y57810D01*
X270271Y57794D01*
X270342Y57796D01*
X270413Y57788D01*
X270464Y57799D01*
X270516Y57801D01*
X270584Y57825D01*
X270654Y57840D01*
X270698Y57867D01*
X270747Y57885D01*
X270803Y57930D01*
X270865Y57967D01*
X270899Y58006D01*
X270939Y58039D01*
X270978Y58099D01*
X271025Y58154D01*
X271044Y58202D01*
X271072Y58246D01*
X271090Y58315D01*
X271117Y58382D01*
X271125Y58453D01*
X271133Y58484D01*
X271131Y58508D01*
X271135Y58548D01*
X271135Y58872D01*
X272028Y59765D01*
X288372Y59765D01*
X289265Y58872D01*
X289265Y42528D01*
X288372Y41635D01*
X272028Y41635D01*
G37*
%LPD*%
%LPC*%
G36*
X492285Y78539D02*
X492285Y78539D01*
X486346Y81000D01*
X481800Y85546D01*
X480921Y87667D01*
X480883Y87728D01*
X480854Y87794D01*
X480819Y87832D01*
X480791Y87876D01*
X480736Y87922D01*
X480687Y87975D01*
X480642Y88000D01*
X480602Y88033D01*
X480535Y88059D01*
X480472Y88093D01*
X480421Y88103D01*
X480372Y88121D01*
X480301Y88124D01*
X480230Y88137D01*
X480178Y88130D01*
X480126Y88132D01*
X480057Y88112D01*
X479987Y88101D01*
X479940Y88078D01*
X479890Y88063D01*
X479831Y88022D01*
X479767Y87990D01*
X479731Y87953D01*
X479688Y87923D01*
X479645Y87865D01*
X479595Y87814D01*
X479561Y87751D01*
X479541Y87726D01*
X479534Y87703D01*
X479514Y87667D01*
X478761Y85848D01*
X476352Y83439D01*
X473204Y82135D01*
X469796Y82135D01*
X466648Y83439D01*
X464239Y85848D01*
X462935Y88996D01*
X462935Y92404D01*
X464239Y95552D01*
X466648Y97961D01*
X469796Y99265D01*
X472144Y99265D01*
X472234Y99279D01*
X472325Y99287D01*
X472354Y99299D01*
X472386Y99304D01*
X472467Y99347D01*
X472551Y99383D01*
X472583Y99409D01*
X472604Y99420D01*
X472626Y99443D01*
X472682Y99488D01*
X498767Y125573D01*
X498778Y125589D01*
X498794Y125601D01*
X498850Y125689D01*
X498910Y125772D01*
X498916Y125791D01*
X498927Y125808D01*
X498952Y125909D01*
X498983Y126008D01*
X498982Y126027D01*
X498987Y126047D01*
X498979Y126150D01*
X498976Y126253D01*
X498969Y126272D01*
X498968Y126292D01*
X498927Y126387D01*
X498892Y126484D01*
X498879Y126500D01*
X498872Y126518D01*
X498767Y126649D01*
X483107Y142309D01*
X483107Y158914D01*
X483104Y158934D01*
X483106Y158953D01*
X483084Y159055D01*
X483068Y159157D01*
X483058Y159174D01*
X483054Y159194D01*
X483001Y159283D01*
X482952Y159374D01*
X482938Y159388D01*
X482928Y159405D01*
X482849Y159472D01*
X482774Y159544D01*
X482756Y159552D01*
X482741Y159565D01*
X482645Y159604D01*
X482551Y159647D01*
X482531Y159649D01*
X482513Y159657D01*
X482346Y159675D01*
X476068Y159675D01*
X475175Y160568D01*
X475175Y188832D01*
X476068Y189725D01*
X493332Y189725D01*
X494225Y188832D01*
X494225Y160568D01*
X493332Y159675D01*
X488442Y159675D01*
X488422Y159672D01*
X488403Y159674D01*
X488301Y159652D01*
X488199Y159636D01*
X488182Y159626D01*
X488162Y159622D01*
X488073Y159569D01*
X487982Y159520D01*
X487968Y159506D01*
X487951Y159496D01*
X487884Y159417D01*
X487812Y159342D01*
X487804Y159324D01*
X487791Y159309D01*
X487752Y159213D01*
X487709Y159119D01*
X487707Y159099D01*
X487699Y159081D01*
X487681Y158914D01*
X487681Y144519D01*
X487695Y144428D01*
X487703Y144338D01*
X487715Y144308D01*
X487720Y144276D01*
X487763Y144195D01*
X487799Y144111D01*
X487825Y144079D01*
X487836Y144058D01*
X487859Y144036D01*
X487904Y143980D01*
X505049Y126835D01*
X514483Y117401D01*
X514577Y117333D01*
X514672Y117263D01*
X514678Y117261D01*
X514683Y117257D01*
X514794Y117223D01*
X514905Y117187D01*
X514912Y117187D01*
X514918Y117185D01*
X515035Y117188D01*
X515151Y117189D01*
X515159Y117191D01*
X515164Y117191D01*
X515181Y117198D01*
X515313Y117236D01*
X517796Y118265D01*
X521204Y118265D01*
X524352Y116961D01*
X526761Y114552D01*
X528065Y111404D01*
X528065Y107996D01*
X526761Y104848D01*
X524352Y102439D01*
X521204Y101135D01*
X517796Y101135D01*
X514648Y102439D01*
X512239Y104848D01*
X510935Y107996D01*
X510935Y111404D01*
X511642Y113110D01*
X511669Y113223D01*
X511697Y113337D01*
X511697Y113343D01*
X511698Y113349D01*
X511687Y113466D01*
X511678Y113582D01*
X511676Y113588D01*
X511675Y113594D01*
X511627Y113701D01*
X511582Y113808D01*
X511577Y113814D01*
X511575Y113819D01*
X511562Y113832D01*
X511477Y113939D01*
X503077Y122339D01*
X503061Y122350D01*
X503049Y122366D01*
X502961Y122422D01*
X502878Y122482D01*
X502859Y122488D01*
X502842Y122499D01*
X502741Y122524D01*
X502642Y122555D01*
X502623Y122554D01*
X502603Y122559D01*
X502500Y122551D01*
X502397Y122548D01*
X502378Y122541D01*
X502358Y122540D01*
X502263Y122500D01*
X502166Y122464D01*
X502150Y122451D01*
X502132Y122444D01*
X502001Y122339D01*
X491822Y112160D01*
X491780Y112102D01*
X491731Y112050D01*
X491709Y112003D01*
X491679Y111961D01*
X491658Y111892D01*
X491627Y111827D01*
X491622Y111775D01*
X491606Y111725D01*
X491608Y111654D01*
X491600Y111583D01*
X491611Y111532D01*
X491613Y111480D01*
X491637Y111412D01*
X491652Y111342D01*
X491679Y111297D01*
X491697Y111249D01*
X491742Y111193D01*
X491779Y111131D01*
X491818Y111097D01*
X491851Y111057D01*
X491911Y111018D01*
X491966Y110971D01*
X492014Y110952D01*
X492058Y110924D01*
X492127Y110906D01*
X492194Y110879D01*
X492265Y110871D01*
X492296Y110863D01*
X492320Y110865D01*
X492360Y110861D01*
X498715Y110861D01*
X504654Y108400D01*
X509200Y103854D01*
X511661Y97915D01*
X511661Y93811D01*
X511672Y93740D01*
X511674Y93668D01*
X511692Y93620D01*
X511700Y93568D01*
X511734Y93505D01*
X511759Y93437D01*
X511791Y93397D01*
X511816Y93351D01*
X511868Y93301D01*
X511912Y93245D01*
X511956Y93217D01*
X511994Y93181D01*
X512059Y93151D01*
X512119Y93112D01*
X512170Y93100D01*
X512217Y93078D01*
X512288Y93070D01*
X512358Y93052D01*
X512410Y93056D01*
X512461Y93051D01*
X512532Y93066D01*
X512603Y93072D01*
X512651Y93092D01*
X512702Y93103D01*
X512763Y93140D01*
X512829Y93168D01*
X512885Y93213D01*
X512913Y93229D01*
X512928Y93247D01*
X512960Y93273D01*
X514648Y94961D01*
X517796Y96265D01*
X521204Y96265D01*
X524352Y94961D01*
X526761Y92552D01*
X528065Y89404D01*
X528065Y85996D01*
X526761Y82848D01*
X524352Y80439D01*
X521204Y79135D01*
X517796Y79135D01*
X514648Y80439D01*
X512239Y82848D01*
X510916Y86044D01*
X510910Y86100D01*
X510900Y86124D01*
X510896Y86150D01*
X510850Y86236D01*
X510810Y86325D01*
X510793Y86344D01*
X510780Y86367D01*
X510710Y86434D01*
X510644Y86506D01*
X510621Y86518D01*
X510602Y86536D01*
X510514Y86578D01*
X510428Y86624D01*
X510403Y86629D01*
X510379Y86640D01*
X510282Y86651D01*
X510186Y86668D01*
X510160Y86664D01*
X510135Y86667D01*
X510040Y86647D01*
X509943Y86632D01*
X509920Y86621D01*
X509894Y86615D01*
X509810Y86565D01*
X509724Y86521D01*
X509706Y86502D01*
X509683Y86489D01*
X509620Y86415D01*
X509552Y86345D01*
X509536Y86317D01*
X509523Y86302D01*
X509511Y86271D01*
X509471Y86198D01*
X509200Y85546D01*
X504654Y81000D01*
X498715Y78539D01*
X492285Y78539D01*
G37*
%LPD*%
%LPC*%
G36*
X18684Y643525D02*
X18684Y643525D01*
X15789Y644724D01*
X13574Y646939D01*
X12375Y649834D01*
X12375Y652966D01*
X13574Y655861D01*
X15789Y658076D01*
X18684Y659275D01*
X34516Y659275D01*
X37411Y658076D01*
X39626Y655861D01*
X40825Y652966D01*
X40825Y649834D01*
X39626Y646939D01*
X37411Y644724D01*
X34516Y643525D01*
X18684Y643525D01*
G37*
%LPD*%
%LPC*%
G36*
X18555Y570835D02*
X18555Y570835D01*
X15775Y571987D01*
X13647Y574115D01*
X12495Y576895D01*
X12495Y579905D01*
X13647Y582685D01*
X15775Y584813D01*
X18555Y585965D01*
X33645Y585965D01*
X36425Y584813D01*
X38553Y582685D01*
X39705Y579905D01*
X39705Y576895D01*
X38553Y574115D01*
X36425Y571987D01*
X33645Y570835D01*
X18555Y570835D01*
G37*
%LPD*%
%LPC*%
G36*
X297028Y41635D02*
X297028Y41635D01*
X296135Y42528D01*
X296135Y58872D01*
X297028Y59765D01*
X313372Y59765D01*
X314265Y58872D01*
X314265Y42528D01*
X313372Y41635D01*
X297028Y41635D01*
G37*
%LPD*%
%LPC*%
G36*
X29796Y60635D02*
X29796Y60635D01*
X26648Y61939D01*
X24239Y64348D01*
X22935Y67496D01*
X22935Y70904D01*
X24239Y74052D01*
X26648Y76461D01*
X29796Y77765D01*
X33204Y77765D01*
X36352Y76461D01*
X38761Y74052D01*
X40065Y70904D01*
X40065Y67496D01*
X38761Y64348D01*
X36352Y61939D01*
X33204Y60635D01*
X29796Y60635D01*
G37*
%LPD*%
%LPC*%
G36*
X469796Y61135D02*
X469796Y61135D01*
X466648Y62439D01*
X464239Y64848D01*
X462935Y67996D01*
X462935Y71404D01*
X464239Y74552D01*
X466648Y76961D01*
X469796Y78265D01*
X473204Y78265D01*
X476352Y76961D01*
X478761Y74552D01*
X480065Y71404D01*
X480065Y67996D01*
X478761Y64848D01*
X476352Y62439D01*
X473204Y61135D01*
X469796Y61135D01*
G37*
%LPD*%
%LPC*%
G36*
X366633Y298971D02*
X366633Y298971D01*
X361871Y303733D01*
X361871Y310467D01*
X366633Y315229D01*
X373367Y315229D01*
X378129Y310467D01*
X378129Y303733D01*
X373367Y298971D01*
X366633Y298971D01*
G37*
%LPD*%
%LPC*%
G36*
X327633Y297971D02*
X327633Y297971D01*
X322871Y302733D01*
X322871Y309467D01*
X327633Y314229D01*
X334367Y314229D01*
X339129Y309467D01*
X339129Y302733D01*
X334367Y297971D01*
X327633Y297971D01*
G37*
%LPD*%
%LPC*%
G36*
X291333Y264871D02*
X291333Y264871D01*
X286571Y269633D01*
X286571Y276367D01*
X291333Y281129D01*
X298067Y281129D01*
X302829Y276367D01*
X302829Y269633D01*
X298067Y264871D01*
X291333Y264871D01*
G37*
%LPD*%
%LPC*%
G36*
X366633Y273571D02*
X366633Y273571D01*
X361871Y278333D01*
X361871Y285067D01*
X366633Y289829D01*
X373367Y289829D01*
X378129Y285067D01*
X378129Y278333D01*
X373367Y273571D01*
X366633Y273571D01*
G37*
%LPD*%
%LPC*%
G36*
X267633Y352971D02*
X267633Y352971D01*
X262871Y357733D01*
X262871Y364467D01*
X267633Y369229D01*
X274367Y369229D01*
X279129Y364467D01*
X279129Y357733D01*
X274367Y352971D01*
X267633Y352971D01*
G37*
%LPD*%
%LPC*%
G36*
X218633Y342571D02*
X218633Y342571D01*
X213871Y347333D01*
X213871Y354067D01*
X218633Y358829D01*
X225367Y358829D01*
X230129Y354067D01*
X230129Y347333D01*
X225367Y342571D01*
X218633Y342571D01*
G37*
%LPD*%
%LPC*%
G36*
X398633Y330171D02*
X398633Y330171D01*
X393871Y334933D01*
X393871Y341667D01*
X398633Y346429D01*
X405367Y346429D01*
X410129Y341667D01*
X410129Y334933D01*
X405367Y330171D01*
X398633Y330171D01*
G37*
%LPD*%
%LPC*%
G36*
X327633Y323371D02*
X327633Y323371D01*
X322871Y328133D01*
X322871Y334867D01*
X327633Y339629D01*
X334367Y339629D01*
X339129Y334867D01*
X339129Y328133D01*
X334367Y323371D01*
X327633Y323371D01*
G37*
%LPD*%
%LPC*%
G36*
X398633Y304771D02*
X398633Y304771D01*
X393871Y309533D01*
X393871Y316267D01*
X398633Y321029D01*
X405367Y321029D01*
X410129Y316267D01*
X410129Y309533D01*
X405367Y304771D01*
X398633Y304771D01*
G37*
%LPD*%
%LPC*%
G36*
X383424Y678809D02*
X383424Y678809D01*
X383424Y687237D01*
X383421Y687256D01*
X383423Y687276D01*
X383410Y687336D01*
X383424Y687463D01*
X383424Y695891D01*
X384634Y695891D01*
X385281Y695718D01*
X385860Y695383D01*
X386145Y695098D01*
X386219Y695045D01*
X386289Y694985D01*
X386319Y694973D01*
X386345Y694954D01*
X386432Y694927D01*
X386517Y694893D01*
X386558Y694889D01*
X386580Y694882D01*
X386612Y694883D01*
X386684Y694875D01*
X391432Y694875D01*
X392325Y693982D01*
X392325Y680718D01*
X391432Y679825D01*
X386684Y679825D01*
X386594Y679811D01*
X386503Y679803D01*
X386473Y679791D01*
X386441Y679786D01*
X386360Y679743D01*
X386276Y679707D01*
X386244Y679681D01*
X386224Y679670D01*
X386201Y679647D01*
X386145Y679602D01*
X385860Y679317D01*
X385281Y678982D01*
X384634Y678809D01*
X383424Y678809D01*
G37*
%LPD*%
%LPC*%
G36*
X79123Y591819D02*
X79123Y591819D01*
X79123Y598877D01*
X98126Y598877D01*
X97931Y597897D01*
X97284Y596335D01*
X96345Y594930D01*
X95150Y593735D01*
X93745Y592796D01*
X92183Y592149D01*
X90525Y591819D01*
X79123Y591819D01*
G37*
%LPD*%
%LPC*%
G36*
X129523Y746477D02*
X129523Y746477D01*
X140541Y746477D01*
X140541Y739666D01*
X140368Y739019D01*
X140033Y738440D01*
X139560Y737967D01*
X138981Y737632D01*
X138334Y737459D01*
X129523Y737459D01*
X129523Y746477D01*
G37*
%LPD*%
%LPC*%
G36*
X117666Y737459D02*
X117666Y737459D01*
X117019Y737632D01*
X116440Y737967D01*
X115967Y738440D01*
X115632Y739019D01*
X115459Y739666D01*
X115459Y746477D01*
X126477Y746477D01*
X126477Y737459D01*
X117666Y737459D01*
G37*
%LPD*%
%LPC*%
G36*
X130423Y670023D02*
X130423Y670023D01*
X130423Y680041D01*
X137234Y680041D01*
X137881Y679868D01*
X138460Y679533D01*
X138933Y679060D01*
X139268Y678481D01*
X139441Y677834D01*
X139441Y670023D01*
X130423Y670023D01*
G37*
%LPD*%
%LPC*%
G36*
X255023Y655223D02*
X255023Y655223D01*
X255023Y664241D01*
X262834Y664241D01*
X263481Y664068D01*
X264060Y663733D01*
X264533Y663260D01*
X264868Y662681D01*
X265041Y662034D01*
X265041Y655223D01*
X255023Y655223D01*
G37*
%LPD*%
%LPC*%
G36*
X260023Y254623D02*
X260023Y254623D01*
X260023Y263641D01*
X267834Y263641D01*
X268481Y263468D01*
X269060Y263133D01*
X269533Y262660D01*
X269868Y262081D01*
X270041Y261434D01*
X270041Y254623D01*
X260023Y254623D01*
G37*
%LPD*%
%LPC*%
G36*
X260023Y251577D02*
X260023Y251577D01*
X270041Y251577D01*
X270041Y244766D01*
X269868Y244119D01*
X269533Y243540D01*
X269060Y243067D01*
X268481Y242732D01*
X267834Y242559D01*
X260023Y242559D01*
X260023Y251577D01*
G37*
%LPD*%
%LPC*%
G36*
X246959Y254623D02*
X246959Y254623D01*
X246959Y261434D01*
X247132Y262081D01*
X247467Y262660D01*
X247940Y263133D01*
X248519Y263468D01*
X249166Y263641D01*
X256977Y263641D01*
X256977Y254623D01*
X246959Y254623D01*
G37*
%LPD*%
%LPC*%
G36*
X241959Y655223D02*
X241959Y655223D01*
X241959Y662034D01*
X242132Y662681D01*
X242467Y663260D01*
X242940Y663733D01*
X243519Y664068D01*
X244166Y664241D01*
X251977Y664241D01*
X251977Y655223D01*
X241959Y655223D01*
G37*
%LPD*%
%LPC*%
G36*
X118359Y670023D02*
X118359Y670023D01*
X118359Y677834D01*
X118532Y678481D01*
X118867Y679060D01*
X119340Y679533D01*
X119919Y679868D01*
X120566Y680041D01*
X127377Y680041D01*
X127377Y670023D01*
X118359Y670023D01*
G37*
%LPD*%
%LPC*%
G36*
X255023Y643159D02*
X255023Y643159D01*
X255023Y652177D01*
X265041Y652177D01*
X265041Y645366D01*
X264868Y644719D01*
X264533Y644140D01*
X264060Y643667D01*
X263481Y643332D01*
X262834Y643159D01*
X255023Y643159D01*
G37*
%LPD*%
%LPC*%
G36*
X366723Y723459D02*
X366723Y723459D01*
X366723Y733477D01*
X375741Y733477D01*
X375741Y725666D01*
X375568Y725019D01*
X375233Y724440D01*
X374760Y723967D01*
X374181Y723632D01*
X373534Y723459D01*
X366723Y723459D01*
G37*
%LPD*%
%LPC*%
G36*
X130423Y656959D02*
X130423Y656959D01*
X130423Y666977D01*
X139441Y666977D01*
X139441Y659166D01*
X139268Y658519D01*
X138933Y657940D01*
X138460Y657467D01*
X137881Y657132D01*
X137234Y656959D01*
X130423Y656959D01*
G37*
%LPD*%
%LPC*%
G36*
X120566Y656959D02*
X120566Y656959D01*
X119919Y657132D01*
X119340Y657467D01*
X118867Y657940D01*
X118532Y658519D01*
X118359Y659166D01*
X118359Y666977D01*
X127377Y666977D01*
X127377Y656959D01*
X120566Y656959D01*
G37*
%LPD*%
%LPC*%
G36*
X356866Y723459D02*
X356866Y723459D01*
X356219Y723632D01*
X355640Y723967D01*
X355167Y724440D01*
X354832Y725019D01*
X354659Y725666D01*
X354659Y733477D01*
X363677Y733477D01*
X363677Y723459D01*
X356866Y723459D01*
G37*
%LPD*%
%LPC*%
G36*
X244166Y643159D02*
X244166Y643159D01*
X243519Y643332D01*
X242940Y643667D01*
X242467Y644140D01*
X242132Y644719D01*
X241959Y645366D01*
X241959Y652177D01*
X251977Y652177D01*
X251977Y643159D01*
X244166Y643159D01*
G37*
%LPD*%
%LPC*%
G36*
X249166Y242559D02*
X249166Y242559D01*
X248519Y242732D01*
X247940Y243067D01*
X247467Y243540D01*
X247132Y244119D01*
X246959Y244766D01*
X246959Y251577D01*
X256977Y251577D01*
X256977Y242559D01*
X249166Y242559D01*
G37*
%LPD*%
%LPC*%
G36*
X245119Y79723D02*
X245119Y79723D01*
X245119Y86074D01*
X245292Y86721D01*
X245627Y87300D01*
X246100Y87773D01*
X246679Y88108D01*
X247326Y88281D01*
X253677Y88281D01*
X253677Y79723D01*
X245119Y79723D01*
G37*
%LPD*%
%LPC*%
G36*
X245119Y52223D02*
X245119Y52223D01*
X245119Y58574D01*
X245292Y59221D01*
X245627Y59800D01*
X246100Y60273D01*
X246679Y60608D01*
X247326Y60781D01*
X253677Y60781D01*
X253677Y52223D01*
X245119Y52223D01*
G37*
%LPD*%
%LPC*%
G36*
X256723Y40619D02*
X256723Y40619D01*
X256723Y49177D01*
X265281Y49177D01*
X265281Y42826D01*
X265108Y42179D01*
X264773Y41600D01*
X264300Y41127D01*
X263721Y40792D01*
X263074Y40619D01*
X256723Y40619D01*
G37*
%LPD*%
%LPC*%
G36*
X247326Y40619D02*
X247326Y40619D01*
X246679Y40792D01*
X246100Y41127D01*
X245627Y41600D01*
X245292Y42179D01*
X245119Y42826D01*
X245119Y49177D01*
X253677Y49177D01*
X253677Y40619D01*
X247326Y40619D01*
G37*
%LPD*%
%LPC*%
G36*
X521023Y61223D02*
X521023Y61223D01*
X521023Y69159D01*
X521743Y69045D01*
X523178Y68579D01*
X524521Y67894D01*
X525742Y67008D01*
X526808Y65942D01*
X527694Y64721D01*
X528379Y63378D01*
X528845Y61943D01*
X528959Y61223D01*
X521023Y61223D01*
G37*
%LPD*%
%LPC*%
G36*
X81023Y60723D02*
X81023Y60723D01*
X81023Y68659D01*
X81743Y68545D01*
X83178Y68079D01*
X84521Y67394D01*
X85742Y66508D01*
X86808Y65442D01*
X87694Y64221D01*
X88379Y62878D01*
X88845Y61443D01*
X88959Y60723D01*
X81023Y60723D01*
G37*
%LPD*%
%LPC*%
G36*
X473023Y41223D02*
X473023Y41223D01*
X473023Y49159D01*
X473743Y49045D01*
X475178Y48579D01*
X476521Y47894D01*
X477742Y47008D01*
X478808Y45942D01*
X479694Y44721D01*
X480379Y43378D01*
X480845Y41943D01*
X480959Y41223D01*
X473023Y41223D01*
G37*
%LPD*%
%LPC*%
G36*
X33023Y40723D02*
X33023Y40723D01*
X33023Y48659D01*
X33743Y48545D01*
X35178Y48079D01*
X36521Y47394D01*
X37742Y46508D01*
X38808Y45442D01*
X39694Y44221D01*
X40379Y42878D01*
X40845Y41443D01*
X40959Y40723D01*
X33023Y40723D01*
G37*
%LPD*%
%LPC*%
G36*
X510041Y61223D02*
X510041Y61223D01*
X510155Y61943D01*
X510621Y63378D01*
X511306Y64721D01*
X512192Y65942D01*
X513258Y67008D01*
X514479Y67894D01*
X515822Y68579D01*
X517257Y69045D01*
X517977Y69159D01*
X517977Y61223D01*
X510041Y61223D01*
G37*
%LPD*%
%LPC*%
G36*
X70041Y60723D02*
X70041Y60723D01*
X70155Y61443D01*
X70621Y62878D01*
X71306Y64221D01*
X72192Y65442D01*
X73258Y66508D01*
X74479Y67394D01*
X75822Y68079D01*
X77257Y68545D01*
X77977Y68659D01*
X77977Y60723D01*
X70041Y60723D01*
G37*
%LPD*%
%LPC*%
G36*
X22041Y40723D02*
X22041Y40723D01*
X22155Y41443D01*
X22621Y42878D01*
X23306Y44221D01*
X24192Y45442D01*
X25258Y46508D01*
X26479Y47394D01*
X27822Y48079D01*
X29257Y48545D01*
X29977Y48659D01*
X29977Y40723D01*
X22041Y40723D01*
G37*
%LPD*%
%LPC*%
G36*
X81023Y57677D02*
X81023Y57677D01*
X88959Y57677D01*
X88845Y56957D01*
X88379Y55522D01*
X87694Y54179D01*
X86808Y52958D01*
X85742Y51892D01*
X84521Y51006D01*
X83178Y50321D01*
X81743Y49855D01*
X81023Y49741D01*
X81023Y57677D01*
G37*
%LPD*%
%LPC*%
G36*
X462041Y41223D02*
X462041Y41223D01*
X462155Y41943D01*
X462621Y43378D01*
X463306Y44721D01*
X464192Y45942D01*
X465258Y47008D01*
X466479Y47894D01*
X467822Y48579D01*
X469257Y49045D01*
X469977Y49159D01*
X469977Y41223D01*
X462041Y41223D01*
G37*
%LPD*%
%LPC*%
G36*
X521023Y58177D02*
X521023Y58177D01*
X528959Y58177D01*
X528845Y57457D01*
X528379Y56022D01*
X527694Y54679D01*
X526808Y53458D01*
X525742Y52392D01*
X524521Y51506D01*
X523178Y50821D01*
X521743Y50355D01*
X521023Y50241D01*
X521023Y58177D01*
G37*
%LPD*%
%LPC*%
G36*
X77257Y49855D02*
X77257Y49855D01*
X75822Y50321D01*
X74479Y51006D01*
X73258Y51892D01*
X72192Y52958D01*
X71306Y54179D01*
X70621Y55522D01*
X70155Y56957D01*
X70041Y57677D01*
X77977Y57677D01*
X77977Y49741D01*
X77257Y49855D01*
G37*
%LPD*%
%LPC*%
G36*
X517257Y50355D02*
X517257Y50355D01*
X515822Y50821D01*
X514479Y51506D01*
X513258Y52392D01*
X512192Y53458D01*
X511306Y54679D01*
X510621Y56022D01*
X510155Y57457D01*
X510041Y58177D01*
X517977Y58177D01*
X517977Y50241D01*
X517257Y50355D01*
G37*
%LPD*%
%LPC*%
G36*
X376924Y688224D02*
X376924Y688224D01*
X376924Y695891D01*
X378134Y695891D01*
X378781Y695718D01*
X378919Y695638D01*
X378983Y695614D01*
X379042Y695581D01*
X379097Y695570D01*
X379149Y695551D01*
X379217Y695548D01*
X379283Y695536D01*
X379339Y695544D01*
X379395Y695541D01*
X379460Y695561D01*
X379527Y695570D01*
X379600Y695602D01*
X379631Y695611D01*
X379648Y695623D01*
X379681Y695637D01*
X379819Y695718D01*
X380466Y695891D01*
X381676Y695891D01*
X381676Y688224D01*
X376924Y688224D01*
G37*
%LPD*%
%LPC*%
G36*
X376924Y678809D02*
X376924Y678809D01*
X376924Y686476D01*
X381676Y686476D01*
X381676Y678809D01*
X380466Y678809D01*
X379819Y678982D01*
X379681Y679063D01*
X379617Y679086D01*
X379558Y679119D01*
X379503Y679130D01*
X379451Y679149D01*
X379383Y679152D01*
X379316Y679164D01*
X379261Y679156D01*
X379205Y679158D01*
X379140Y679139D01*
X379073Y679130D01*
X379000Y679098D01*
X378969Y679089D01*
X378952Y679077D01*
X378919Y679062D01*
X378781Y678982D01*
X378134Y678809D01*
X376924Y678809D01*
G37*
%LPD*%
%LPC*%
G36*
X75097Y592149D02*
X75097Y592149D01*
X73535Y592796D01*
X72130Y593735D01*
X70935Y594930D01*
X69996Y596335D01*
X69349Y597897D01*
X69154Y598877D01*
X76077Y598877D01*
X76077Y591954D01*
X75097Y592149D01*
G37*
%LPD*%
%LPC*%
G36*
X351399Y694499D02*
X351399Y694499D01*
X351399Y700041D01*
X353235Y700041D01*
X353881Y699868D01*
X354460Y699533D01*
X354933Y699060D01*
X355268Y698481D01*
X355441Y697834D01*
X355441Y694499D01*
X351399Y694499D01*
G37*
%LPD*%
%LPC*%
G36*
X351399Y685959D02*
X351399Y685959D01*
X351399Y691501D01*
X355441Y691501D01*
X355441Y688166D01*
X355268Y687519D01*
X354933Y686940D01*
X354460Y686467D01*
X353881Y686132D01*
X353234Y685959D01*
X351399Y685959D01*
G37*
%LPD*%
%LPC*%
G36*
X519499Y59699D02*
X519499Y59699D01*
X519499Y59701D01*
X519501Y59701D01*
X519501Y59699D01*
X519499Y59699D01*
G37*
%LPD*%
%LPC*%
G36*
X79499Y59199D02*
X79499Y59199D01*
X79499Y59201D01*
X79501Y59201D01*
X79501Y59199D01*
X79499Y59199D01*
G37*
%LPD*%
%LPC*%
G36*
X255199Y50699D02*
X255199Y50699D01*
X255199Y50701D01*
X255201Y50701D01*
X255201Y50699D01*
X255199Y50699D01*
G37*
%LPD*%
%LPC*%
G36*
X253499Y653699D02*
X253499Y653699D01*
X253499Y653701D01*
X253501Y653701D01*
X253501Y653699D01*
X253499Y653699D01*
G37*
%LPD*%
%LPC*%
G36*
X258499Y253099D02*
X258499Y253099D01*
X258499Y253101D01*
X258501Y253101D01*
X258501Y253099D01*
X258499Y253099D01*
G37*
%LPD*%
%LPC*%
G36*
X128899Y668499D02*
X128899Y668499D01*
X128899Y668501D01*
X128901Y668501D01*
X128901Y668499D01*
X128899Y668499D01*
G37*
%LPD*%
D10*
X52200Y715300D03*
X493300Y715300D03*
D11*
X506400Y649750D02*
X506400Y630250D01*
X506400Y584750D02*
X506400Y565250D01*
D12*
X337200Y735000D03*
X365200Y735000D03*
D13*
X147400Y242600D03*
X108400Y242600D03*
D14*
X456700Y174700D03*
X484700Y174700D03*
D15*
X211500Y306300D03*
X211500Y278300D03*
D12*
X156900Y668500D03*
X128900Y668500D03*
D15*
X258500Y281100D03*
X258500Y253100D03*
X253500Y681700D03*
X253500Y653700D03*
D16*
X31500Y20200D03*
X31500Y39200D03*
X31500Y69200D03*
X31500Y90200D03*
X79500Y29200D03*
X79500Y59200D03*
X79500Y87200D03*
X79500Y109200D03*
X471500Y20700D03*
X471500Y39700D03*
X471500Y69700D03*
X471500Y90700D03*
X519500Y29700D03*
X519500Y59700D03*
X519500Y87700D03*
X519500Y109700D03*
D17*
X298000Y746400D03*
X298000Y718400D03*
D18*
X331000Y331500D03*
X331000Y306100D03*
D19*
X370000Y281700D03*
X370000Y307100D03*
D18*
X402000Y338300D03*
X402000Y312900D03*
D20*
X320100Y273000D03*
X294700Y273000D03*
D18*
X271000Y361100D03*
X271000Y335700D03*
D21*
X107900Y336500D03*
X133300Y336500D03*
X138100Y296000D03*
X163500Y296000D03*
D18*
X222000Y350700D03*
X222000Y325300D03*
D17*
X428000Y633800D03*
X428000Y661800D03*
X128000Y748000D03*
X128000Y720000D03*
D22*
X171200Y638000D03*
X199200Y638000D03*
X225400Y737500D03*
X253400Y737500D03*
D23*
X349900Y670000D03*
X340400Y670000D03*
X330900Y670000D03*
X330900Y693000D03*
X340400Y693000D03*
X349900Y693000D03*
D24*
X389050Y628850D03*
X382550Y628850D03*
X376050Y628850D03*
X369550Y628850D03*
X369550Y687350D03*
X376050Y687350D03*
X382550Y687350D03*
X389050Y687350D03*
D25*
X213000Y689000D03*
X213000Y679500D03*
X213000Y670000D03*
X190000Y670000D03*
X190000Y679500D03*
X190000Y689000D03*
D26*
X89680Y616400D02*
X77600Y616400D01*
X77600Y600400D02*
X89680Y600400D01*
X89680Y632400D02*
X77600Y632400D01*
X65600Y624400D02*
X53520Y624400D01*
X53520Y608400D02*
X65600Y608400D01*
X32140Y578400D02*
X20060Y578400D01*
D27*
X20250Y651400D02*
X32950Y651400D01*
D28*
X305200Y50700D03*
X280200Y50700D03*
X255200Y50700D03*
X255200Y78200D03*
X280200Y78200D03*
X305200Y78200D03*
X255200Y143200D03*
X305200Y143200D03*
D29*
X251460Y679704D02*
X220218Y679704D01*
X213360Y679704D01*
X251460Y679704D02*
X252984Y681228D01*
X213360Y679704D02*
X213000Y679500D01*
X252984Y681228D02*
X253500Y681700D01*
X253746Y737616D02*
X289560Y737616D01*
X297942Y745998D01*
X253746Y737616D02*
X253400Y737500D01*
X297942Y745998D02*
X298000Y746400D01*
X253746Y736854D02*
X253746Y681990D01*
X253500Y681700D01*
X253746Y736854D02*
X253400Y737500D01*
X276606Y143256D02*
X304800Y143256D01*
X276606Y143256D02*
X137922Y281940D01*
X134874Y281940D01*
X125730Y291084D01*
X125730Y316230D01*
X155448Y345948D01*
X155448Y563880D01*
X220218Y628650D01*
X220218Y679704D01*
X304800Y143256D02*
X305200Y143200D01*
X102108Y715518D02*
X52578Y715518D01*
X102108Y715518D02*
X117348Y730758D01*
X138684Y730758D01*
X171450Y697992D01*
X171450Y697230D01*
X174498Y694182D01*
X184404Y694182D01*
X185166Y694944D01*
X217932Y694944D01*
X220218Y692658D01*
X220218Y679704D01*
X52578Y715518D02*
X52200Y715300D01*
X339852Y718566D02*
X339852Y732282D01*
X339852Y718566D02*
X339852Y693420D01*
X339852Y732282D02*
X337566Y734568D01*
X339852Y693420D02*
X340400Y693000D01*
X337566Y734568D02*
X337200Y735000D01*
X339852Y718566D02*
X298704Y718566D01*
X298000Y718400D01*
X506730Y666750D02*
X506730Y640080D01*
X506730Y666750D02*
X525018Y685038D01*
X525018Y745236D01*
X522732Y747522D01*
X354330Y747522D01*
X339852Y733044D01*
X506400Y640000D02*
X506730Y640080D01*
X339852Y733044D02*
X337200Y735000D01*
X331470Y669798D02*
X331470Y666750D01*
X368808Y629412D01*
X331470Y669798D02*
X330900Y670000D01*
X368808Y629412D02*
X369550Y628850D01*
X352044Y670560D02*
X350520Y670560D01*
X352044Y670560D02*
X368808Y687324D01*
X350520Y670560D02*
X349900Y670000D01*
X368808Y687324D02*
X369550Y687350D01*
X340614Y669798D02*
X340614Y668274D01*
X346710Y662178D01*
X427482Y662178D01*
X340614Y669798D02*
X340400Y670000D01*
X427482Y662178D02*
X428000Y661800D01*
X411480Y575310D02*
X505968Y575310D01*
X411480Y575310D02*
X325374Y661416D01*
X325374Y675894D01*
X326898Y677418D01*
X334518Y677418D01*
X339852Y672084D01*
X339852Y670560D01*
X505968Y575310D02*
X506400Y575000D01*
X340400Y670000D02*
X339852Y670560D01*
X376428Y629412D02*
X382524Y629412D01*
X376428Y629412D02*
X376050Y628850D01*
X382524Y629412D02*
X382550Y628850D01*
X382524Y630174D02*
X382524Y633984D01*
X386334Y637794D01*
X423672Y637794D01*
X427482Y633984D01*
X382524Y630174D02*
X382550Y628850D01*
X427482Y633984D02*
X428000Y633800D01*
X425196Y637032D02*
X493014Y704850D01*
X493014Y714756D01*
X425196Y637032D02*
X428000Y633800D01*
X493014Y714756D02*
X493300Y715300D01*
D30*
X322000Y707000D03*
X317000Y694000D03*
X290000Y661000D03*
X288000Y646000D03*
X330000Y623000D03*
X344000Y623000D03*
X337000Y635000D03*
X238000Y347000D03*
X249000Y347000D03*
X241000Y332000D03*
X254000Y332000D03*
X295000Y332000D03*
X303000Y339000D03*
D29*
X171450Y669798D02*
X157734Y669798D01*
X171450Y669798D02*
X189738Y669798D01*
X157734Y669798D02*
X156972Y669036D01*
X189738Y669798D02*
X190000Y670000D01*
X156972Y669036D02*
X156900Y668500D01*
X171450Y669798D02*
X171450Y638556D01*
X171200Y638000D01*
X165354Y632460D02*
X77724Y632460D01*
X165354Y632460D02*
X170688Y637794D01*
X77724Y632460D02*
X77600Y632400D01*
X170688Y637794D02*
X171200Y638000D01*
X157734Y689610D02*
X189738Y689610D01*
X157734Y689610D02*
X128016Y719328D01*
X189738Y689610D02*
X190000Y689000D01*
X128016Y719328D02*
X128000Y720000D01*
X211074Y688848D02*
X212598Y688848D01*
X211074Y688848D02*
X199644Y677418D01*
X199644Y638556D01*
X212598Y688848D02*
X213000Y689000D01*
X199644Y638556D02*
X199200Y638000D01*
X188214Y700278D02*
X177546Y700278D01*
X188214Y700278D02*
X224790Y736854D01*
X225400Y737500D01*
D30*
X177546Y700278D03*
D29*
X212598Y669798D02*
X212598Y625602D01*
X122682Y535686D01*
X122682Y115062D01*
X212598Y669798D02*
X213000Y670000D01*
D30*
X122682Y115062D03*
D29*
X259080Y281178D02*
X259080Y293370D01*
X260604Y294894D01*
X259080Y281178D02*
X258500Y281100D01*
X259080Y280416D02*
X357378Y182118D01*
X259080Y280416D02*
X258500Y281100D01*
X161544Y332232D02*
X161544Y391668D01*
X161544Y332232D02*
X128778Y299466D01*
X128778Y292608D01*
X136398Y284988D01*
X169926Y284988D01*
X187452Y267462D01*
X245364Y267462D01*
X258318Y280416D01*
X258500Y281100D01*
D30*
X260604Y294894D03*
X357378Y182118D03*
X161544Y391668D03*
D29*
X147828Y305562D02*
X211074Y305562D01*
X147828Y305562D02*
X138684Y296418D01*
X211074Y305562D02*
X211500Y306300D01*
X138684Y296418D02*
X138100Y296000D01*
X430530Y175260D02*
X456438Y175260D01*
X430530Y175260D02*
X281178Y324612D01*
X222504Y324612D01*
X456438Y175260D02*
X456700Y174700D01*
X222504Y324612D02*
X222000Y325300D01*
X211074Y278892D02*
X180594Y278892D01*
X163830Y295656D01*
X211074Y278892D02*
X211500Y278300D01*
X163830Y295656D02*
X163500Y296000D01*
X108204Y336042D02*
X108204Y243078D01*
X108204Y336042D02*
X107900Y336500D01*
X108204Y243078D02*
X108400Y242600D01*
X300990Y78486D02*
X304800Y78486D01*
X300990Y78486D02*
X147828Y231648D01*
X147828Y242316D01*
X304800Y78486D02*
X305200Y78200D01*
X147828Y242316D02*
X147400Y242600D01*
X273558Y78486D02*
X279654Y78486D01*
X273558Y78486D02*
X243078Y108966D01*
X80010Y108966D01*
X279654Y78486D02*
X280200Y78200D01*
X80010Y108966D02*
X79500Y109200D01*
X273558Y51054D02*
X279654Y51054D01*
X273558Y51054D02*
X256794Y67818D01*
X99060Y67818D01*
X80010Y86868D01*
X279654Y51054D02*
X280200Y50700D01*
X80010Y86868D02*
X79500Y87200D01*
X80010Y28956D02*
X463296Y28956D01*
X470916Y21336D01*
X80010Y28956D02*
X79500Y29200D01*
X470916Y21336D02*
X471500Y20700D01*
X485394Y143256D02*
X485394Y174498D01*
X502539Y126111D02*
X518922Y109728D01*
X502539Y126111D02*
X485394Y143256D01*
X485394Y174498D02*
X484700Y174700D01*
X518922Y109728D02*
X519500Y109700D01*
X471678Y95250D02*
X471678Y91440D01*
X471678Y95250D02*
X502539Y126111D01*
X471678Y91440D02*
X471500Y90700D01*
M02*
