G04 EAGLE Gerber RS-274X export*
G75*
%MOMM*%
%FSLAX34Y34*%
%LPD*%
%IN*%
%IPPOS*%
%AMOC8*
5,1,8,0,0,1.08239X$1,22.5*%
G01*
%ADD10C,0.254000*%


D10*
X0Y0D02*
X550000Y0D01*
X550000Y770000D01*
X0Y770000D01*
X0Y0D01*
X55837Y30200D02*
X56507Y30125D01*
X57164Y29975D01*
X57800Y29752D01*
X58407Y29460D01*
X58978Y29101D01*
X59504Y28681D01*
X59981Y28204D01*
X60401Y27678D01*
X60760Y27107D01*
X61052Y26500D01*
X61275Y25864D01*
X61425Y25207D01*
X61500Y24537D01*
X61500Y23863D01*
X61425Y23193D01*
X61275Y22536D01*
X61052Y21900D01*
X60760Y21293D01*
X60401Y20723D01*
X59981Y20196D01*
X59504Y19719D01*
X58978Y19299D01*
X58407Y18940D01*
X57800Y18648D01*
X57164Y18425D01*
X56507Y18275D01*
X55837Y18200D01*
X55163Y18200D01*
X54493Y18275D01*
X53836Y18425D01*
X53200Y18648D01*
X52593Y18940D01*
X52023Y19299D01*
X51496Y19719D01*
X51019Y20196D01*
X50599Y20723D01*
X50240Y21293D01*
X49948Y21900D01*
X49725Y22536D01*
X49575Y23193D01*
X49500Y23863D01*
X49500Y24537D01*
X49575Y25207D01*
X49725Y25864D01*
X49948Y26500D01*
X50240Y27107D01*
X50599Y27678D01*
X51019Y28204D01*
X51496Y28681D01*
X52023Y29101D01*
X52593Y29460D01*
X53200Y29752D01*
X53836Y29975D01*
X54493Y30125D01*
X55163Y30200D01*
X55837Y30200D01*
X55837Y100200D02*
X56507Y100125D01*
X57164Y99975D01*
X57800Y99752D01*
X58407Y99460D01*
X58978Y99101D01*
X59504Y98681D01*
X59981Y98204D01*
X60401Y97678D01*
X60760Y97107D01*
X61052Y96500D01*
X61275Y95864D01*
X61425Y95207D01*
X61500Y94537D01*
X61500Y93863D01*
X61425Y93193D01*
X61275Y92536D01*
X61052Y91900D01*
X60760Y91293D01*
X60401Y90723D01*
X59981Y90196D01*
X59504Y89719D01*
X58978Y89299D01*
X58407Y88940D01*
X57800Y88648D01*
X57164Y88425D01*
X56507Y88275D01*
X55837Y88200D01*
X55163Y88200D01*
X54493Y88275D01*
X53836Y88425D01*
X53200Y88648D01*
X52593Y88940D01*
X52023Y89299D01*
X51496Y89719D01*
X51019Y90196D01*
X50599Y90723D01*
X50240Y91293D01*
X49948Y91900D01*
X49725Y92536D01*
X49575Y93193D01*
X49500Y93863D01*
X49500Y94537D01*
X49575Y95207D01*
X49725Y95864D01*
X49948Y96500D01*
X50240Y97107D01*
X50599Y97678D01*
X51019Y98204D01*
X51496Y98681D01*
X52023Y99101D01*
X52593Y99460D01*
X53200Y99752D01*
X53836Y99975D01*
X54493Y100125D01*
X55163Y100200D01*
X55837Y100200D01*
X495837Y30700D02*
X496507Y30625D01*
X497164Y30475D01*
X497800Y30252D01*
X498407Y29960D01*
X498978Y29601D01*
X499504Y29181D01*
X499981Y28704D01*
X500401Y28178D01*
X500760Y27607D01*
X501052Y27000D01*
X501275Y26364D01*
X501425Y25707D01*
X501500Y25037D01*
X501500Y24363D01*
X501425Y23693D01*
X501275Y23036D01*
X501052Y22400D01*
X500760Y21793D01*
X500401Y21223D01*
X499981Y20696D01*
X499504Y20219D01*
X498978Y19799D01*
X498407Y19440D01*
X497800Y19148D01*
X497164Y18925D01*
X496507Y18775D01*
X495837Y18700D01*
X495163Y18700D01*
X494493Y18775D01*
X493836Y18925D01*
X493200Y19148D01*
X492593Y19440D01*
X492023Y19799D01*
X491496Y20219D01*
X491019Y20696D01*
X490599Y21223D01*
X490240Y21793D01*
X489948Y22400D01*
X489725Y23036D01*
X489575Y23693D01*
X489500Y24363D01*
X489500Y25037D01*
X489575Y25707D01*
X489725Y26364D01*
X489948Y27000D01*
X490240Y27607D01*
X490599Y28178D01*
X491019Y28704D01*
X491496Y29181D01*
X492023Y29601D01*
X492593Y29960D01*
X493200Y30252D01*
X493836Y30475D01*
X494493Y30625D01*
X495163Y30700D01*
X495837Y30700D01*
X495837Y100700D02*
X496507Y100625D01*
X497164Y100475D01*
X497800Y100252D01*
X498407Y99960D01*
X498978Y99601D01*
X499504Y99181D01*
X499981Y98704D01*
X500401Y98178D01*
X500760Y97607D01*
X501052Y97000D01*
X501275Y96364D01*
X501425Y95707D01*
X501500Y95037D01*
X501500Y94363D01*
X501425Y93693D01*
X501275Y93036D01*
X501052Y92400D01*
X500760Y91793D01*
X500401Y91223D01*
X499981Y90696D01*
X499504Y90219D01*
X498978Y89799D01*
X498407Y89440D01*
X497800Y89148D01*
X497164Y88925D01*
X496507Y88775D01*
X495837Y88700D01*
X495163Y88700D01*
X494493Y88775D01*
X493836Y88925D01*
X493200Y89148D01*
X492593Y89440D01*
X492023Y89799D01*
X491496Y90219D01*
X491019Y90696D01*
X490599Y91223D01*
X490240Y91793D01*
X489948Y92400D01*
X489725Y93036D01*
X489575Y93693D01*
X489500Y94363D01*
X489500Y95037D01*
X489575Y95707D01*
X489725Y96364D01*
X489948Y97000D01*
X490240Y97607D01*
X490599Y98178D01*
X491019Y98704D01*
X491496Y99181D01*
X492023Y99601D01*
X492593Y99960D01*
X493200Y100252D01*
X493836Y100475D01*
X494493Y100625D01*
X495163Y100700D01*
X495837Y100700D01*
M02*
