G04 EAGLE Gerber RS-274X export*
G75*
%MOMM*%
%FSLAX34Y34*%
%LPD*%
%INSilkscreen Bottom*%
%IPPOS*%
%AMOC8*
5,1,8,0,0,1.08239X$1,22.5*%
G01*
%ADD10C,0.101600*%
%ADD11C,0.152400*%
%ADD12C,0.200000*%
%ADD13C,0.203200*%
%ADD14C,0.650000*%


D10*
X349864Y710108D02*
X352461Y710108D01*
X352560Y710110D01*
X352660Y710116D01*
X352759Y710125D01*
X352857Y710138D01*
X352955Y710155D01*
X353053Y710176D01*
X353149Y710201D01*
X353244Y710229D01*
X353338Y710261D01*
X353431Y710296D01*
X353523Y710335D01*
X353613Y710378D01*
X353701Y710423D01*
X353788Y710473D01*
X353872Y710525D01*
X353955Y710581D01*
X354035Y710639D01*
X354113Y710701D01*
X354188Y710766D01*
X354261Y710834D01*
X354331Y710904D01*
X354399Y710977D01*
X354464Y711052D01*
X354526Y711130D01*
X354584Y711210D01*
X354640Y711293D01*
X354692Y711377D01*
X354742Y711464D01*
X354787Y711552D01*
X354830Y711642D01*
X354869Y711734D01*
X354904Y711827D01*
X354936Y711921D01*
X354964Y712016D01*
X354989Y712112D01*
X355010Y712210D01*
X355027Y712308D01*
X355040Y712406D01*
X355049Y712505D01*
X355055Y712605D01*
X355057Y712704D01*
X355057Y719196D01*
X355055Y719295D01*
X355049Y719395D01*
X355040Y719494D01*
X355027Y719592D01*
X355010Y719690D01*
X354989Y719788D01*
X354964Y719884D01*
X354936Y719979D01*
X354904Y720073D01*
X354869Y720166D01*
X354830Y720258D01*
X354787Y720348D01*
X354742Y720436D01*
X354692Y720523D01*
X354640Y720607D01*
X354584Y720690D01*
X354526Y720770D01*
X354464Y720848D01*
X354399Y720923D01*
X354331Y720996D01*
X354261Y721066D01*
X354188Y721134D01*
X354113Y721199D01*
X354035Y721261D01*
X353955Y721319D01*
X353872Y721375D01*
X353788Y721427D01*
X353701Y721477D01*
X353613Y721522D01*
X353523Y721565D01*
X353431Y721604D01*
X353338Y721639D01*
X353244Y721671D01*
X353149Y721699D01*
X353053Y721724D01*
X352955Y721745D01*
X352857Y721762D01*
X352759Y721775D01*
X352660Y721784D01*
X352560Y721790D01*
X352461Y721792D01*
X349864Y721792D01*
X345499Y719196D02*
X342254Y721792D01*
X342254Y710108D01*
X345499Y710108D02*
X339008Y710108D01*
X143846Y268508D02*
X141249Y268508D01*
X143846Y268508D02*
X143945Y268510D01*
X144045Y268516D01*
X144144Y268525D01*
X144242Y268538D01*
X144340Y268555D01*
X144438Y268576D01*
X144534Y268601D01*
X144629Y268629D01*
X144723Y268661D01*
X144816Y268696D01*
X144908Y268735D01*
X144998Y268778D01*
X145086Y268823D01*
X145173Y268873D01*
X145257Y268925D01*
X145340Y268981D01*
X145420Y269039D01*
X145498Y269101D01*
X145573Y269166D01*
X145646Y269234D01*
X145716Y269304D01*
X145784Y269377D01*
X145849Y269452D01*
X145911Y269530D01*
X145969Y269610D01*
X146025Y269693D01*
X146077Y269777D01*
X146127Y269864D01*
X146172Y269952D01*
X146215Y270042D01*
X146254Y270134D01*
X146289Y270227D01*
X146321Y270321D01*
X146349Y270416D01*
X146374Y270512D01*
X146395Y270610D01*
X146412Y270708D01*
X146425Y270806D01*
X146434Y270905D01*
X146440Y271005D01*
X146442Y271104D01*
X146442Y277596D01*
X146440Y277695D01*
X146434Y277795D01*
X146425Y277894D01*
X146412Y277992D01*
X146395Y278090D01*
X146374Y278188D01*
X146349Y278284D01*
X146321Y278379D01*
X146289Y278473D01*
X146254Y278566D01*
X146215Y278658D01*
X146172Y278748D01*
X146127Y278836D01*
X146077Y278923D01*
X146025Y279007D01*
X145969Y279090D01*
X145911Y279170D01*
X145849Y279248D01*
X145784Y279323D01*
X145716Y279396D01*
X145646Y279466D01*
X145573Y279534D01*
X145498Y279599D01*
X145420Y279661D01*
X145340Y279719D01*
X145257Y279775D01*
X145173Y279827D01*
X145086Y279877D01*
X144998Y279922D01*
X144908Y279965D01*
X144816Y280004D01*
X144723Y280039D01*
X144629Y280071D01*
X144534Y280099D01*
X144438Y280124D01*
X144340Y280145D01*
X144242Y280162D01*
X144144Y280175D01*
X144045Y280184D01*
X143945Y280190D01*
X143846Y280192D01*
X141249Y280192D01*
X136884Y277596D02*
X133638Y280192D01*
X133638Y268508D01*
X130393Y268508D02*
X136884Y268508D01*
X125454Y277596D02*
X122208Y280192D01*
X122208Y268508D01*
X118963Y268508D02*
X125454Y268508D01*
X474444Y143458D02*
X477041Y143458D01*
X477140Y143460D01*
X477240Y143466D01*
X477339Y143475D01*
X477437Y143488D01*
X477535Y143505D01*
X477633Y143526D01*
X477729Y143551D01*
X477824Y143579D01*
X477918Y143611D01*
X478011Y143646D01*
X478103Y143685D01*
X478193Y143728D01*
X478281Y143773D01*
X478368Y143823D01*
X478452Y143875D01*
X478535Y143931D01*
X478615Y143989D01*
X478693Y144051D01*
X478768Y144116D01*
X478841Y144184D01*
X478911Y144254D01*
X478979Y144327D01*
X479044Y144402D01*
X479106Y144480D01*
X479164Y144560D01*
X479220Y144643D01*
X479272Y144727D01*
X479322Y144814D01*
X479367Y144902D01*
X479410Y144992D01*
X479449Y145084D01*
X479484Y145177D01*
X479516Y145271D01*
X479544Y145366D01*
X479569Y145462D01*
X479590Y145560D01*
X479607Y145658D01*
X479620Y145756D01*
X479629Y145855D01*
X479635Y145955D01*
X479637Y146054D01*
X479637Y152546D01*
X479635Y152645D01*
X479629Y152745D01*
X479620Y152844D01*
X479607Y152942D01*
X479590Y153040D01*
X479569Y153138D01*
X479544Y153234D01*
X479516Y153329D01*
X479484Y153423D01*
X479449Y153516D01*
X479410Y153608D01*
X479367Y153698D01*
X479322Y153786D01*
X479272Y153873D01*
X479220Y153957D01*
X479164Y154040D01*
X479106Y154120D01*
X479044Y154198D01*
X478979Y154273D01*
X478911Y154346D01*
X478841Y154416D01*
X478768Y154484D01*
X478693Y154549D01*
X478615Y154611D01*
X478535Y154669D01*
X478452Y154725D01*
X478368Y154777D01*
X478281Y154827D01*
X478193Y154872D01*
X478103Y154915D01*
X478011Y154954D01*
X477918Y154989D01*
X477824Y155021D01*
X477729Y155049D01*
X477633Y155074D01*
X477535Y155095D01*
X477437Y155112D01*
X477339Y155125D01*
X477240Y155134D01*
X477140Y155140D01*
X477041Y155142D01*
X474444Y155142D01*
X470079Y152546D02*
X466834Y155142D01*
X466834Y143458D01*
X470079Y143458D02*
X463588Y143458D01*
X458649Y143458D02*
X455404Y143458D01*
X455291Y143460D01*
X455178Y143466D01*
X455065Y143476D01*
X454952Y143490D01*
X454840Y143507D01*
X454729Y143529D01*
X454619Y143554D01*
X454509Y143584D01*
X454401Y143617D01*
X454294Y143654D01*
X454188Y143694D01*
X454084Y143739D01*
X453981Y143787D01*
X453880Y143838D01*
X453781Y143893D01*
X453684Y143951D01*
X453589Y144013D01*
X453496Y144078D01*
X453406Y144146D01*
X453318Y144217D01*
X453232Y144292D01*
X453149Y144369D01*
X453069Y144449D01*
X452992Y144532D01*
X452917Y144618D01*
X452846Y144706D01*
X452778Y144796D01*
X452713Y144889D01*
X452651Y144984D01*
X452593Y145081D01*
X452538Y145180D01*
X452487Y145281D01*
X452439Y145384D01*
X452394Y145488D01*
X452354Y145594D01*
X452317Y145701D01*
X452284Y145809D01*
X452254Y145919D01*
X452229Y146029D01*
X452207Y146140D01*
X452190Y146252D01*
X452176Y146365D01*
X452166Y146478D01*
X452160Y146591D01*
X452158Y146704D01*
X452160Y146817D01*
X452166Y146930D01*
X452176Y147043D01*
X452190Y147156D01*
X452207Y147268D01*
X452229Y147379D01*
X452254Y147489D01*
X452284Y147599D01*
X452317Y147707D01*
X452354Y147814D01*
X452394Y147920D01*
X452439Y148024D01*
X452487Y148127D01*
X452538Y148228D01*
X452593Y148327D01*
X452651Y148424D01*
X452713Y148519D01*
X452778Y148612D01*
X452846Y148702D01*
X452917Y148790D01*
X452992Y148876D01*
X453069Y148959D01*
X453149Y149039D01*
X453232Y149116D01*
X453318Y149191D01*
X453406Y149262D01*
X453496Y149330D01*
X453589Y149395D01*
X453684Y149457D01*
X453781Y149515D01*
X453880Y149570D01*
X453981Y149621D01*
X454084Y149669D01*
X454188Y149714D01*
X454294Y149754D01*
X454401Y149791D01*
X454509Y149824D01*
X454619Y149854D01*
X454729Y149879D01*
X454840Y149901D01*
X454952Y149918D01*
X455065Y149932D01*
X455178Y149942D01*
X455291Y149948D01*
X455404Y149950D01*
X454754Y155142D02*
X458649Y155142D01*
X454754Y155142D02*
X454653Y155140D01*
X454553Y155134D01*
X454453Y155124D01*
X454353Y155111D01*
X454254Y155093D01*
X454155Y155072D01*
X454058Y155047D01*
X453961Y155018D01*
X453866Y154985D01*
X453772Y154949D01*
X453680Y154909D01*
X453589Y154866D01*
X453500Y154819D01*
X453413Y154769D01*
X453327Y154715D01*
X453244Y154658D01*
X453164Y154598D01*
X453085Y154535D01*
X453009Y154468D01*
X452936Y154399D01*
X452866Y154327D01*
X452798Y154253D01*
X452733Y154176D01*
X452672Y154096D01*
X452613Y154014D01*
X452558Y153930D01*
X452506Y153844D01*
X452457Y153756D01*
X452412Y153666D01*
X452370Y153574D01*
X452332Y153481D01*
X452298Y153386D01*
X452267Y153291D01*
X452240Y153194D01*
X452217Y153096D01*
X452197Y152997D01*
X452182Y152897D01*
X452170Y152797D01*
X452162Y152697D01*
X452158Y152596D01*
X452158Y152496D01*
X452162Y152395D01*
X452170Y152295D01*
X452182Y152195D01*
X452197Y152095D01*
X452217Y151996D01*
X452240Y151898D01*
X452267Y151801D01*
X452298Y151706D01*
X452332Y151611D01*
X452370Y151518D01*
X452412Y151426D01*
X452457Y151336D01*
X452506Y151248D01*
X452558Y151162D01*
X452613Y151078D01*
X452672Y150996D01*
X452733Y150916D01*
X452798Y150839D01*
X452866Y150765D01*
X452936Y150693D01*
X453009Y150624D01*
X453085Y150557D01*
X453164Y150494D01*
X453244Y150434D01*
X453327Y150377D01*
X453413Y150323D01*
X453500Y150273D01*
X453589Y150226D01*
X453680Y150183D01*
X453772Y150143D01*
X453866Y150107D01*
X453961Y150074D01*
X454058Y150045D01*
X454155Y150020D01*
X454254Y149999D01*
X454353Y149981D01*
X454453Y149968D01*
X454553Y149958D01*
X454653Y149952D01*
X454754Y149950D01*
X454754Y149949D02*
X457351Y149949D01*
X186608Y279609D02*
X186608Y282206D01*
X186608Y279609D02*
X186610Y279510D01*
X186616Y279410D01*
X186625Y279311D01*
X186638Y279213D01*
X186655Y279115D01*
X186676Y279017D01*
X186701Y278921D01*
X186729Y278826D01*
X186761Y278732D01*
X186796Y278639D01*
X186835Y278547D01*
X186878Y278457D01*
X186923Y278369D01*
X186973Y278282D01*
X187025Y278198D01*
X187081Y278115D01*
X187139Y278035D01*
X187201Y277957D01*
X187266Y277882D01*
X187334Y277809D01*
X187404Y277739D01*
X187477Y277671D01*
X187552Y277606D01*
X187630Y277544D01*
X187710Y277486D01*
X187793Y277430D01*
X187877Y277378D01*
X187964Y277328D01*
X188052Y277283D01*
X188142Y277240D01*
X188234Y277201D01*
X188327Y277166D01*
X188421Y277134D01*
X188516Y277106D01*
X188612Y277081D01*
X188710Y277060D01*
X188808Y277043D01*
X188906Y277030D01*
X189005Y277021D01*
X189105Y277015D01*
X189204Y277013D01*
X195696Y277013D01*
X195795Y277015D01*
X195895Y277021D01*
X195994Y277030D01*
X196092Y277043D01*
X196190Y277060D01*
X196288Y277081D01*
X196384Y277106D01*
X196479Y277134D01*
X196573Y277166D01*
X196666Y277201D01*
X196758Y277240D01*
X196848Y277283D01*
X196936Y277328D01*
X197023Y277378D01*
X197107Y277430D01*
X197190Y277486D01*
X197270Y277544D01*
X197348Y277606D01*
X197423Y277671D01*
X197496Y277739D01*
X197566Y277809D01*
X197634Y277882D01*
X197699Y277957D01*
X197761Y278035D01*
X197819Y278115D01*
X197875Y278198D01*
X197927Y278282D01*
X197977Y278369D01*
X198022Y278457D01*
X198065Y278547D01*
X198104Y278639D01*
X198139Y278731D01*
X198171Y278826D01*
X198199Y278921D01*
X198224Y279017D01*
X198245Y279115D01*
X198262Y279213D01*
X198275Y279311D01*
X198284Y279410D01*
X198290Y279510D01*
X198292Y279609D01*
X198292Y282206D01*
X195696Y286571D02*
X198292Y289816D01*
X186608Y289816D01*
X186608Y286571D02*
X186608Y293062D01*
X191801Y300597D02*
X191801Y304492D01*
X191801Y300597D02*
X191803Y300498D01*
X191809Y300398D01*
X191818Y300299D01*
X191831Y300201D01*
X191848Y300103D01*
X191869Y300005D01*
X191894Y299909D01*
X191922Y299814D01*
X191954Y299720D01*
X191989Y299627D01*
X192028Y299535D01*
X192071Y299445D01*
X192116Y299357D01*
X192166Y299270D01*
X192218Y299186D01*
X192274Y299103D01*
X192332Y299023D01*
X192394Y298945D01*
X192459Y298870D01*
X192527Y298797D01*
X192597Y298727D01*
X192670Y298659D01*
X192745Y298594D01*
X192823Y298532D01*
X192903Y298474D01*
X192986Y298418D01*
X193070Y298366D01*
X193157Y298316D01*
X193245Y298271D01*
X193335Y298228D01*
X193427Y298189D01*
X193520Y298154D01*
X193614Y298122D01*
X193709Y298094D01*
X193805Y298069D01*
X193903Y298048D01*
X194001Y298031D01*
X194099Y298018D01*
X194198Y298009D01*
X194298Y298003D01*
X194397Y298001D01*
X195046Y298001D01*
X195046Y298000D02*
X195159Y298002D01*
X195272Y298008D01*
X195385Y298018D01*
X195498Y298032D01*
X195610Y298049D01*
X195721Y298071D01*
X195831Y298096D01*
X195941Y298126D01*
X196049Y298159D01*
X196156Y298196D01*
X196262Y298236D01*
X196366Y298281D01*
X196469Y298329D01*
X196570Y298380D01*
X196669Y298435D01*
X196766Y298493D01*
X196861Y298555D01*
X196954Y298620D01*
X197044Y298688D01*
X197132Y298759D01*
X197218Y298834D01*
X197301Y298911D01*
X197381Y298991D01*
X197458Y299074D01*
X197533Y299160D01*
X197604Y299248D01*
X197672Y299338D01*
X197737Y299431D01*
X197799Y299526D01*
X197857Y299623D01*
X197912Y299722D01*
X197963Y299823D01*
X198011Y299926D01*
X198056Y300030D01*
X198096Y300136D01*
X198133Y300243D01*
X198166Y300351D01*
X198196Y300461D01*
X198221Y300571D01*
X198243Y300682D01*
X198260Y300794D01*
X198274Y300907D01*
X198284Y301020D01*
X198290Y301133D01*
X198292Y301246D01*
X198290Y301359D01*
X198284Y301472D01*
X198274Y301585D01*
X198260Y301698D01*
X198243Y301810D01*
X198221Y301921D01*
X198196Y302031D01*
X198166Y302141D01*
X198133Y302249D01*
X198096Y302356D01*
X198056Y302462D01*
X198011Y302566D01*
X197963Y302669D01*
X197912Y302770D01*
X197857Y302869D01*
X197799Y302966D01*
X197737Y303061D01*
X197672Y303154D01*
X197604Y303244D01*
X197533Y303332D01*
X197458Y303418D01*
X197381Y303501D01*
X197301Y303581D01*
X197218Y303658D01*
X197132Y303733D01*
X197044Y303804D01*
X196954Y303872D01*
X196861Y303937D01*
X196766Y303999D01*
X196669Y304057D01*
X196570Y304112D01*
X196469Y304163D01*
X196366Y304211D01*
X196262Y304256D01*
X196156Y304296D01*
X196049Y304333D01*
X195941Y304366D01*
X195831Y304396D01*
X195721Y304421D01*
X195610Y304443D01*
X195498Y304460D01*
X195385Y304474D01*
X195272Y304484D01*
X195159Y304490D01*
X195046Y304492D01*
X191801Y304492D01*
X191658Y304490D01*
X191515Y304484D01*
X191372Y304474D01*
X191230Y304460D01*
X191088Y304443D01*
X190946Y304421D01*
X190805Y304396D01*
X190665Y304366D01*
X190526Y304333D01*
X190388Y304296D01*
X190251Y304255D01*
X190115Y304211D01*
X189980Y304162D01*
X189847Y304110D01*
X189715Y304055D01*
X189585Y303995D01*
X189456Y303932D01*
X189329Y303866D01*
X189205Y303796D01*
X189082Y303723D01*
X188961Y303646D01*
X188842Y303566D01*
X188726Y303483D01*
X188611Y303397D01*
X188500Y303308D01*
X188390Y303215D01*
X188284Y303120D01*
X188180Y303021D01*
X188079Y302920D01*
X187980Y302816D01*
X187885Y302710D01*
X187792Y302600D01*
X187703Y302489D01*
X187617Y302374D01*
X187534Y302258D01*
X187454Y302139D01*
X187377Y302018D01*
X187304Y301896D01*
X187234Y301771D01*
X187168Y301644D01*
X187105Y301515D01*
X187045Y301385D01*
X186990Y301253D01*
X186938Y301120D01*
X186889Y300985D01*
X186845Y300849D01*
X186804Y300712D01*
X186767Y300574D01*
X186734Y300435D01*
X186704Y300295D01*
X186679Y300154D01*
X186657Y300012D01*
X186640Y299870D01*
X186626Y299728D01*
X186616Y299585D01*
X186610Y299442D01*
X186608Y299299D01*
X152496Y681708D02*
X149899Y681708D01*
X152496Y681708D02*
X152595Y681710D01*
X152695Y681716D01*
X152794Y681725D01*
X152892Y681738D01*
X152990Y681755D01*
X153088Y681776D01*
X153184Y681801D01*
X153279Y681829D01*
X153373Y681861D01*
X153466Y681896D01*
X153558Y681935D01*
X153648Y681978D01*
X153736Y682023D01*
X153823Y682073D01*
X153907Y682125D01*
X153990Y682181D01*
X154070Y682239D01*
X154148Y682301D01*
X154223Y682366D01*
X154296Y682434D01*
X154366Y682504D01*
X154434Y682577D01*
X154499Y682652D01*
X154561Y682730D01*
X154619Y682810D01*
X154675Y682893D01*
X154727Y682977D01*
X154777Y683064D01*
X154822Y683152D01*
X154865Y683242D01*
X154904Y683334D01*
X154939Y683427D01*
X154971Y683521D01*
X154999Y683616D01*
X155024Y683712D01*
X155045Y683810D01*
X155062Y683908D01*
X155075Y684006D01*
X155084Y684105D01*
X155090Y684205D01*
X155092Y684304D01*
X155092Y690796D01*
X155090Y690895D01*
X155084Y690995D01*
X155075Y691094D01*
X155062Y691192D01*
X155045Y691290D01*
X155024Y691388D01*
X154999Y691484D01*
X154971Y691579D01*
X154939Y691673D01*
X154904Y691766D01*
X154865Y691858D01*
X154822Y691948D01*
X154777Y692036D01*
X154727Y692123D01*
X154675Y692207D01*
X154619Y692290D01*
X154561Y692370D01*
X154499Y692448D01*
X154434Y692523D01*
X154366Y692596D01*
X154296Y692666D01*
X154223Y692734D01*
X154148Y692799D01*
X154070Y692861D01*
X153990Y692919D01*
X153907Y692975D01*
X153823Y693027D01*
X153736Y693077D01*
X153648Y693122D01*
X153558Y693165D01*
X153466Y693204D01*
X153373Y693239D01*
X153279Y693271D01*
X153184Y693299D01*
X153088Y693324D01*
X152990Y693345D01*
X152892Y693362D01*
X152794Y693375D01*
X152695Y693384D01*
X152595Y693390D01*
X152496Y693392D01*
X149899Y693392D01*
X141964Y693392D02*
X141857Y693390D01*
X141751Y693384D01*
X141645Y693374D01*
X141539Y693361D01*
X141433Y693343D01*
X141329Y693322D01*
X141225Y693297D01*
X141122Y693268D01*
X141021Y693236D01*
X140921Y693199D01*
X140822Y693159D01*
X140724Y693116D01*
X140628Y693069D01*
X140534Y693018D01*
X140442Y692964D01*
X140352Y692907D01*
X140264Y692847D01*
X140179Y692783D01*
X140096Y692716D01*
X140015Y692646D01*
X139937Y692574D01*
X139861Y692498D01*
X139789Y692420D01*
X139719Y692339D01*
X139652Y692256D01*
X139588Y692171D01*
X139528Y692083D01*
X139471Y691993D01*
X139417Y691901D01*
X139366Y691807D01*
X139319Y691711D01*
X139276Y691613D01*
X139236Y691514D01*
X139199Y691414D01*
X139167Y691313D01*
X139138Y691210D01*
X139113Y691106D01*
X139092Y691002D01*
X139074Y690896D01*
X139061Y690790D01*
X139051Y690684D01*
X139045Y690578D01*
X139043Y690471D01*
X141964Y693392D02*
X142085Y693390D01*
X142206Y693384D01*
X142326Y693374D01*
X142447Y693361D01*
X142566Y693343D01*
X142686Y693322D01*
X142804Y693297D01*
X142921Y693268D01*
X143038Y693235D01*
X143153Y693199D01*
X143267Y693158D01*
X143380Y693115D01*
X143492Y693067D01*
X143601Y693016D01*
X143709Y692961D01*
X143816Y692903D01*
X143920Y692842D01*
X144022Y692777D01*
X144122Y692709D01*
X144220Y692638D01*
X144316Y692564D01*
X144409Y692487D01*
X144499Y692406D01*
X144587Y692323D01*
X144672Y692237D01*
X144755Y692148D01*
X144834Y692057D01*
X144911Y691963D01*
X144984Y691867D01*
X145054Y691769D01*
X145121Y691668D01*
X145185Y691565D01*
X145246Y691460D01*
X145303Y691353D01*
X145356Y691245D01*
X145406Y691135D01*
X145452Y691023D01*
X145495Y690910D01*
X145534Y690795D01*
X140017Y688199D02*
X139938Y688277D01*
X139862Y688357D01*
X139789Y688440D01*
X139719Y688526D01*
X139652Y688613D01*
X139588Y688704D01*
X139528Y688796D01*
X139470Y688890D01*
X139416Y688987D01*
X139366Y689085D01*
X139319Y689185D01*
X139275Y689286D01*
X139235Y689389D01*
X139199Y689494D01*
X139167Y689599D01*
X139138Y689706D01*
X139113Y689813D01*
X139091Y689922D01*
X139074Y690031D01*
X139060Y690140D01*
X139051Y690250D01*
X139045Y690361D01*
X139043Y690471D01*
X140016Y688199D02*
X145534Y681708D01*
X139043Y681708D01*
X233608Y257006D02*
X233608Y254409D01*
X233610Y254310D01*
X233616Y254210D01*
X233625Y254111D01*
X233638Y254013D01*
X233655Y253915D01*
X233676Y253817D01*
X233701Y253721D01*
X233729Y253626D01*
X233761Y253532D01*
X233796Y253439D01*
X233835Y253347D01*
X233878Y253257D01*
X233923Y253169D01*
X233973Y253082D01*
X234025Y252998D01*
X234081Y252915D01*
X234139Y252835D01*
X234201Y252757D01*
X234266Y252682D01*
X234334Y252609D01*
X234404Y252539D01*
X234477Y252471D01*
X234552Y252406D01*
X234630Y252344D01*
X234710Y252286D01*
X234793Y252230D01*
X234877Y252178D01*
X234964Y252128D01*
X235052Y252083D01*
X235142Y252040D01*
X235234Y252001D01*
X235327Y251966D01*
X235421Y251934D01*
X235516Y251906D01*
X235612Y251881D01*
X235710Y251860D01*
X235808Y251843D01*
X235906Y251830D01*
X236005Y251821D01*
X236105Y251815D01*
X236204Y251813D01*
X242696Y251813D01*
X242795Y251815D01*
X242895Y251821D01*
X242994Y251830D01*
X243092Y251843D01*
X243190Y251860D01*
X243288Y251881D01*
X243384Y251906D01*
X243479Y251934D01*
X243573Y251966D01*
X243666Y252001D01*
X243758Y252040D01*
X243848Y252083D01*
X243936Y252128D01*
X244023Y252178D01*
X244107Y252230D01*
X244190Y252286D01*
X244270Y252344D01*
X244348Y252406D01*
X244423Y252471D01*
X244496Y252539D01*
X244566Y252609D01*
X244634Y252682D01*
X244699Y252757D01*
X244761Y252835D01*
X244819Y252915D01*
X244875Y252998D01*
X244927Y253082D01*
X244977Y253169D01*
X245022Y253257D01*
X245065Y253347D01*
X245104Y253439D01*
X245139Y253531D01*
X245171Y253626D01*
X245199Y253721D01*
X245224Y253817D01*
X245245Y253915D01*
X245262Y254013D01*
X245275Y254111D01*
X245284Y254210D01*
X245290Y254310D01*
X245292Y254409D01*
X245292Y257006D01*
X245292Y264941D02*
X245290Y265048D01*
X245284Y265154D01*
X245274Y265260D01*
X245261Y265366D01*
X245243Y265472D01*
X245222Y265576D01*
X245197Y265680D01*
X245168Y265783D01*
X245136Y265884D01*
X245099Y265984D01*
X245059Y266083D01*
X245016Y266181D01*
X244969Y266277D01*
X244918Y266371D01*
X244864Y266463D01*
X244807Y266553D01*
X244747Y266641D01*
X244683Y266726D01*
X244616Y266809D01*
X244546Y266890D01*
X244474Y266968D01*
X244398Y267044D01*
X244320Y267116D01*
X244239Y267186D01*
X244156Y267253D01*
X244071Y267317D01*
X243983Y267377D01*
X243893Y267434D01*
X243801Y267488D01*
X243707Y267539D01*
X243611Y267586D01*
X243513Y267629D01*
X243414Y267669D01*
X243314Y267706D01*
X243213Y267738D01*
X243110Y267767D01*
X243006Y267792D01*
X242902Y267813D01*
X242796Y267831D01*
X242690Y267844D01*
X242584Y267854D01*
X242478Y267860D01*
X242371Y267862D01*
X245292Y264941D02*
X245290Y264820D01*
X245284Y264699D01*
X245274Y264579D01*
X245261Y264458D01*
X245243Y264339D01*
X245222Y264219D01*
X245197Y264101D01*
X245168Y263984D01*
X245135Y263867D01*
X245099Y263752D01*
X245058Y263638D01*
X245015Y263525D01*
X244967Y263413D01*
X244916Y263304D01*
X244861Y263196D01*
X244803Y263089D01*
X244742Y262985D01*
X244677Y262883D01*
X244609Y262783D01*
X244538Y262685D01*
X244464Y262589D01*
X244387Y262496D01*
X244306Y262406D01*
X244223Y262318D01*
X244137Y262233D01*
X244048Y262150D01*
X243957Y262071D01*
X243863Y261994D01*
X243767Y261921D01*
X243669Y261851D01*
X243568Y261784D01*
X243465Y261720D01*
X243360Y261660D01*
X243253Y261603D01*
X243145Y261549D01*
X243035Y261499D01*
X242923Y261453D01*
X242810Y261410D01*
X242695Y261371D01*
X240099Y266889D02*
X240176Y266968D01*
X240257Y267044D01*
X240340Y267117D01*
X240425Y267187D01*
X240513Y267254D01*
X240603Y267318D01*
X240695Y267378D01*
X240790Y267435D01*
X240886Y267489D01*
X240984Y267540D01*
X241084Y267587D01*
X241186Y267631D01*
X241289Y267671D01*
X241393Y267707D01*
X241499Y267739D01*
X241605Y267768D01*
X241713Y267793D01*
X241821Y267815D01*
X241931Y267832D01*
X242040Y267846D01*
X242150Y267855D01*
X242261Y267861D01*
X242371Y267863D01*
X240099Y266888D02*
X233608Y261371D01*
X233608Y267862D01*
X239450Y272801D02*
X239680Y272804D01*
X239910Y272812D01*
X240139Y272826D01*
X240368Y272845D01*
X240597Y272870D01*
X240824Y272900D01*
X241052Y272935D01*
X241278Y272976D01*
X241503Y273022D01*
X241727Y273074D01*
X241949Y273131D01*
X242171Y273193D01*
X242390Y273261D01*
X242608Y273334D01*
X242825Y273412D01*
X243039Y273495D01*
X243251Y273583D01*
X243461Y273676D01*
X243669Y273775D01*
X243669Y273774D02*
X243759Y273807D01*
X243848Y273843D01*
X243936Y273883D01*
X244021Y273927D01*
X244105Y273974D01*
X244187Y274024D01*
X244267Y274078D01*
X244344Y274134D01*
X244420Y274194D01*
X244493Y274257D01*
X244563Y274322D01*
X244631Y274391D01*
X244695Y274462D01*
X244757Y274535D01*
X244816Y274611D01*
X244872Y274689D01*
X244925Y274770D01*
X244974Y274852D01*
X245020Y274936D01*
X245063Y275023D01*
X245102Y275110D01*
X245138Y275200D01*
X245170Y275290D01*
X245198Y275382D01*
X245223Y275475D01*
X245244Y275569D01*
X245261Y275663D01*
X245275Y275758D01*
X245284Y275854D01*
X245290Y275950D01*
X245292Y276046D01*
X245290Y276142D01*
X245284Y276238D01*
X245275Y276334D01*
X245261Y276429D01*
X245244Y276523D01*
X245223Y276617D01*
X245198Y276710D01*
X245170Y276802D01*
X245138Y276892D01*
X245102Y276982D01*
X245063Y277069D01*
X245020Y277156D01*
X244974Y277240D01*
X244925Y277322D01*
X244872Y277403D01*
X244816Y277481D01*
X244757Y277557D01*
X244695Y277630D01*
X244631Y277701D01*
X244563Y277770D01*
X244493Y277835D01*
X244420Y277898D01*
X244344Y277958D01*
X244267Y278014D01*
X244187Y278068D01*
X244105Y278118D01*
X244021Y278165D01*
X243936Y278209D01*
X243848Y278249D01*
X243759Y278285D01*
X243669Y278318D01*
X243669Y278319D02*
X243462Y278418D01*
X243252Y278511D01*
X243039Y278599D01*
X242825Y278682D01*
X242609Y278760D01*
X242391Y278833D01*
X242171Y278901D01*
X241950Y278963D01*
X241727Y279020D01*
X241503Y279072D01*
X241278Y279118D01*
X241052Y279159D01*
X240825Y279194D01*
X240597Y279224D01*
X240368Y279249D01*
X240139Y279268D01*
X239910Y279282D01*
X239680Y279290D01*
X239450Y279293D01*
X239450Y272801D02*
X239220Y272804D01*
X238990Y272812D01*
X238761Y272826D01*
X238532Y272845D01*
X238303Y272870D01*
X238075Y272900D01*
X237848Y272935D01*
X237622Y272976D01*
X237397Y273022D01*
X237173Y273074D01*
X236950Y273131D01*
X236729Y273193D01*
X236509Y273261D01*
X236291Y273334D01*
X236075Y273412D01*
X235861Y273495D01*
X235649Y273583D01*
X235438Y273676D01*
X235231Y273775D01*
X235231Y273774D02*
X235141Y273807D01*
X235052Y273843D01*
X234964Y273884D01*
X234879Y273927D01*
X234795Y273974D01*
X234713Y274024D01*
X234633Y274078D01*
X234556Y274134D01*
X234480Y274194D01*
X234407Y274257D01*
X234337Y274322D01*
X234269Y274391D01*
X234205Y274462D01*
X234143Y274535D01*
X234084Y274611D01*
X234028Y274689D01*
X233975Y274770D01*
X233926Y274852D01*
X233880Y274936D01*
X233837Y275023D01*
X233798Y275110D01*
X233762Y275200D01*
X233730Y275290D01*
X233702Y275382D01*
X233677Y275475D01*
X233656Y275569D01*
X233639Y275663D01*
X233625Y275758D01*
X233616Y275854D01*
X233610Y275950D01*
X233608Y276046D01*
X235231Y278318D02*
X235438Y278417D01*
X235649Y278510D01*
X235861Y278598D01*
X236075Y278681D01*
X236291Y278759D01*
X236509Y278832D01*
X236729Y278900D01*
X236950Y278962D01*
X237173Y279019D01*
X237397Y279071D01*
X237622Y279117D01*
X237848Y279158D01*
X238075Y279193D01*
X238303Y279223D01*
X238532Y279248D01*
X238761Y279267D01*
X238990Y279281D01*
X239220Y279289D01*
X239450Y279292D01*
X235231Y278318D02*
X235141Y278285D01*
X235052Y278249D01*
X234964Y278209D01*
X234879Y278165D01*
X234795Y278118D01*
X234713Y278068D01*
X234633Y278014D01*
X234556Y277958D01*
X234480Y277898D01*
X234407Y277835D01*
X234337Y277770D01*
X234269Y277701D01*
X234205Y277630D01*
X234143Y277557D01*
X234084Y277481D01*
X234028Y277403D01*
X233975Y277322D01*
X233926Y277240D01*
X233880Y277156D01*
X233837Y277069D01*
X233798Y276982D01*
X233762Y276892D01*
X233730Y276802D01*
X233702Y276710D01*
X233677Y276617D01*
X233656Y276523D01*
X233639Y276429D01*
X233625Y276334D01*
X233616Y276238D01*
X233610Y276142D01*
X233608Y276046D01*
X236204Y273450D02*
X242696Y278643D01*
X228608Y666439D02*
X228608Y669036D01*
X228608Y666439D02*
X228610Y666340D01*
X228616Y666240D01*
X228625Y666141D01*
X228638Y666043D01*
X228655Y665945D01*
X228676Y665847D01*
X228701Y665751D01*
X228729Y665656D01*
X228761Y665562D01*
X228796Y665469D01*
X228835Y665377D01*
X228878Y665287D01*
X228923Y665199D01*
X228973Y665112D01*
X229025Y665028D01*
X229081Y664945D01*
X229139Y664865D01*
X229201Y664787D01*
X229266Y664712D01*
X229334Y664639D01*
X229404Y664569D01*
X229477Y664501D01*
X229552Y664436D01*
X229630Y664374D01*
X229710Y664316D01*
X229793Y664260D01*
X229877Y664208D01*
X229964Y664158D01*
X230052Y664113D01*
X230142Y664070D01*
X230234Y664031D01*
X230327Y663996D01*
X230421Y663964D01*
X230516Y663936D01*
X230612Y663911D01*
X230710Y663890D01*
X230808Y663873D01*
X230906Y663860D01*
X231005Y663851D01*
X231105Y663845D01*
X231204Y663843D01*
X237696Y663843D01*
X237795Y663845D01*
X237895Y663851D01*
X237994Y663860D01*
X238092Y663873D01*
X238190Y663890D01*
X238288Y663911D01*
X238384Y663936D01*
X238479Y663964D01*
X238573Y663996D01*
X238666Y664031D01*
X238758Y664070D01*
X238848Y664113D01*
X238936Y664158D01*
X239023Y664208D01*
X239107Y664260D01*
X239190Y664316D01*
X239270Y664374D01*
X239348Y664436D01*
X239423Y664501D01*
X239496Y664569D01*
X239566Y664639D01*
X239634Y664712D01*
X239699Y664787D01*
X239761Y664865D01*
X239819Y664945D01*
X239875Y665028D01*
X239927Y665112D01*
X239977Y665199D01*
X240022Y665287D01*
X240065Y665377D01*
X240104Y665469D01*
X240139Y665561D01*
X240171Y665656D01*
X240199Y665751D01*
X240224Y665847D01*
X240245Y665945D01*
X240262Y666043D01*
X240275Y666141D01*
X240284Y666240D01*
X240290Y666340D01*
X240292Y666439D01*
X240292Y669036D01*
X228608Y673401D02*
X228608Y676646D01*
X228610Y676759D01*
X228616Y676872D01*
X228626Y676985D01*
X228640Y677098D01*
X228657Y677210D01*
X228679Y677321D01*
X228704Y677431D01*
X228734Y677541D01*
X228767Y677649D01*
X228804Y677756D01*
X228844Y677862D01*
X228889Y677966D01*
X228937Y678069D01*
X228988Y678170D01*
X229043Y678269D01*
X229101Y678366D01*
X229163Y678461D01*
X229228Y678554D01*
X229296Y678644D01*
X229367Y678732D01*
X229442Y678818D01*
X229519Y678901D01*
X229599Y678981D01*
X229682Y679058D01*
X229768Y679133D01*
X229856Y679204D01*
X229946Y679272D01*
X230039Y679337D01*
X230134Y679399D01*
X230231Y679457D01*
X230330Y679512D01*
X230431Y679563D01*
X230534Y679611D01*
X230638Y679656D01*
X230744Y679696D01*
X230851Y679733D01*
X230959Y679766D01*
X231069Y679796D01*
X231179Y679821D01*
X231290Y679843D01*
X231402Y679860D01*
X231515Y679874D01*
X231628Y679884D01*
X231741Y679890D01*
X231854Y679892D01*
X231967Y679890D01*
X232080Y679884D01*
X232193Y679874D01*
X232306Y679860D01*
X232418Y679843D01*
X232529Y679821D01*
X232639Y679796D01*
X232749Y679766D01*
X232857Y679733D01*
X232964Y679696D01*
X233070Y679656D01*
X233174Y679611D01*
X233277Y679563D01*
X233378Y679512D01*
X233477Y679457D01*
X233574Y679399D01*
X233669Y679337D01*
X233762Y679272D01*
X233852Y679204D01*
X233940Y679133D01*
X234026Y679058D01*
X234109Y678981D01*
X234189Y678901D01*
X234266Y678818D01*
X234341Y678732D01*
X234412Y678644D01*
X234480Y678554D01*
X234545Y678461D01*
X234607Y678366D01*
X234665Y678269D01*
X234720Y678170D01*
X234771Y678069D01*
X234819Y677966D01*
X234864Y677862D01*
X234904Y677756D01*
X234941Y677649D01*
X234974Y677541D01*
X235004Y677431D01*
X235029Y677321D01*
X235051Y677210D01*
X235068Y677098D01*
X235082Y676985D01*
X235092Y676872D01*
X235098Y676759D01*
X235100Y676646D01*
X240292Y677296D02*
X240292Y673401D01*
X240292Y677296D02*
X240290Y677397D01*
X240284Y677497D01*
X240274Y677597D01*
X240261Y677697D01*
X240243Y677796D01*
X240222Y677895D01*
X240197Y677992D01*
X240168Y678089D01*
X240135Y678184D01*
X240099Y678278D01*
X240059Y678370D01*
X240016Y678461D01*
X239969Y678550D01*
X239919Y678637D01*
X239865Y678723D01*
X239808Y678806D01*
X239748Y678886D01*
X239685Y678965D01*
X239618Y679041D01*
X239549Y679114D01*
X239477Y679184D01*
X239403Y679252D01*
X239326Y679317D01*
X239246Y679378D01*
X239164Y679437D01*
X239080Y679492D01*
X238994Y679544D01*
X238906Y679593D01*
X238816Y679638D01*
X238724Y679680D01*
X238631Y679718D01*
X238536Y679752D01*
X238441Y679783D01*
X238344Y679810D01*
X238246Y679833D01*
X238147Y679853D01*
X238047Y679868D01*
X237947Y679880D01*
X237847Y679888D01*
X237746Y679892D01*
X237646Y679892D01*
X237545Y679888D01*
X237445Y679880D01*
X237345Y679868D01*
X237245Y679853D01*
X237146Y679833D01*
X237048Y679810D01*
X236951Y679783D01*
X236856Y679752D01*
X236761Y679718D01*
X236668Y679680D01*
X236576Y679638D01*
X236486Y679593D01*
X236398Y679544D01*
X236312Y679492D01*
X236228Y679437D01*
X236146Y679378D01*
X236066Y679317D01*
X235989Y679252D01*
X235915Y679184D01*
X235843Y679114D01*
X235774Y679041D01*
X235707Y678965D01*
X235644Y678886D01*
X235584Y678806D01*
X235527Y678723D01*
X235473Y678637D01*
X235423Y678550D01*
X235376Y678461D01*
X235333Y678370D01*
X235293Y678278D01*
X235257Y678184D01*
X235224Y678089D01*
X235195Y677992D01*
X235170Y677895D01*
X235149Y677796D01*
X235131Y677697D01*
X235118Y677597D01*
X235108Y677497D01*
X235102Y677397D01*
X235100Y677296D01*
X235099Y677296D02*
X235099Y674699D01*
X273108Y726745D02*
X284792Y726745D01*
X284792Y729990D01*
X284790Y730103D01*
X284784Y730216D01*
X284774Y730329D01*
X284760Y730442D01*
X284743Y730554D01*
X284721Y730665D01*
X284696Y730775D01*
X284666Y730885D01*
X284633Y730993D01*
X284596Y731100D01*
X284556Y731206D01*
X284511Y731310D01*
X284463Y731413D01*
X284412Y731514D01*
X284357Y731613D01*
X284299Y731710D01*
X284237Y731805D01*
X284172Y731898D01*
X284104Y731988D01*
X284033Y732076D01*
X283958Y732162D01*
X283881Y732245D01*
X283801Y732325D01*
X283718Y732402D01*
X283632Y732477D01*
X283544Y732548D01*
X283454Y732616D01*
X283361Y732681D01*
X283266Y732743D01*
X283169Y732801D01*
X283070Y732856D01*
X282969Y732907D01*
X282866Y732955D01*
X282762Y733000D01*
X282656Y733040D01*
X282549Y733077D01*
X282441Y733110D01*
X282331Y733140D01*
X282221Y733165D01*
X282110Y733187D01*
X281998Y733204D01*
X281885Y733218D01*
X281772Y733228D01*
X281659Y733234D01*
X281546Y733236D01*
X281433Y733234D01*
X281320Y733228D01*
X281207Y733218D01*
X281094Y733204D01*
X280982Y733187D01*
X280871Y733165D01*
X280761Y733140D01*
X280651Y733110D01*
X280543Y733077D01*
X280436Y733040D01*
X280330Y733000D01*
X280226Y732955D01*
X280123Y732907D01*
X280022Y732856D01*
X279923Y732801D01*
X279826Y732743D01*
X279731Y732681D01*
X279638Y732616D01*
X279548Y732548D01*
X279460Y732477D01*
X279374Y732402D01*
X279291Y732325D01*
X279211Y732245D01*
X279134Y732162D01*
X279059Y732076D01*
X278988Y731988D01*
X278920Y731898D01*
X278855Y731805D01*
X278793Y731710D01*
X278735Y731613D01*
X278680Y731514D01*
X278629Y731413D01*
X278581Y731310D01*
X278536Y731206D01*
X278496Y731100D01*
X278459Y730993D01*
X278426Y730885D01*
X278396Y730775D01*
X278371Y730665D01*
X278349Y730554D01*
X278332Y730442D01*
X278318Y730329D01*
X278308Y730216D01*
X278302Y730103D01*
X278300Y729990D01*
X278301Y729990D02*
X278301Y726745D01*
X278301Y730639D02*
X273108Y733236D01*
X282196Y738101D02*
X284792Y741346D01*
X273108Y741346D01*
X273108Y738101D02*
X273108Y744592D01*
X441208Y635608D02*
X452892Y635608D01*
X452892Y638854D01*
X452890Y638967D01*
X452884Y639080D01*
X452874Y639193D01*
X452860Y639306D01*
X452843Y639418D01*
X452821Y639529D01*
X452796Y639639D01*
X452766Y639749D01*
X452733Y639857D01*
X452696Y639964D01*
X452656Y640070D01*
X452611Y640174D01*
X452563Y640277D01*
X452512Y640378D01*
X452457Y640477D01*
X452399Y640574D01*
X452337Y640669D01*
X452272Y640762D01*
X452204Y640852D01*
X452133Y640940D01*
X452058Y641026D01*
X451981Y641109D01*
X451901Y641189D01*
X451818Y641266D01*
X451732Y641341D01*
X451644Y641412D01*
X451554Y641480D01*
X451461Y641545D01*
X451366Y641607D01*
X451269Y641665D01*
X451170Y641720D01*
X451069Y641771D01*
X450966Y641819D01*
X450862Y641864D01*
X450756Y641904D01*
X450649Y641941D01*
X450541Y641974D01*
X450431Y642004D01*
X450321Y642029D01*
X450210Y642051D01*
X450098Y642068D01*
X449985Y642082D01*
X449872Y642092D01*
X449759Y642098D01*
X449646Y642100D01*
X449533Y642098D01*
X449420Y642092D01*
X449307Y642082D01*
X449194Y642068D01*
X449082Y642051D01*
X448971Y642029D01*
X448861Y642004D01*
X448751Y641974D01*
X448643Y641941D01*
X448536Y641904D01*
X448430Y641864D01*
X448326Y641819D01*
X448223Y641771D01*
X448122Y641720D01*
X448023Y641665D01*
X447926Y641607D01*
X447831Y641545D01*
X447738Y641480D01*
X447648Y641412D01*
X447560Y641341D01*
X447474Y641266D01*
X447391Y641189D01*
X447311Y641109D01*
X447234Y641026D01*
X447159Y640940D01*
X447088Y640852D01*
X447020Y640762D01*
X446955Y640669D01*
X446893Y640574D01*
X446835Y640477D01*
X446780Y640378D01*
X446729Y640277D01*
X446681Y640174D01*
X446636Y640070D01*
X446596Y639964D01*
X446559Y639857D01*
X446526Y639749D01*
X446496Y639639D01*
X446471Y639529D01*
X446449Y639418D01*
X446432Y639306D01*
X446418Y639193D01*
X446408Y639080D01*
X446402Y638967D01*
X446400Y638854D01*
X446401Y638854D02*
X446401Y635608D01*
X446401Y639503D02*
X441208Y642099D01*
X449971Y653455D02*
X450078Y653453D01*
X450184Y653447D01*
X450290Y653437D01*
X450396Y653424D01*
X450502Y653406D01*
X450606Y653385D01*
X450710Y653360D01*
X450813Y653331D01*
X450914Y653299D01*
X451014Y653262D01*
X451113Y653222D01*
X451211Y653179D01*
X451307Y653132D01*
X451401Y653081D01*
X451493Y653027D01*
X451583Y652970D01*
X451671Y652910D01*
X451756Y652846D01*
X451839Y652779D01*
X451920Y652709D01*
X451998Y652637D01*
X452074Y652561D01*
X452146Y652483D01*
X452216Y652402D01*
X452283Y652319D01*
X452347Y652234D01*
X452407Y652146D01*
X452464Y652056D01*
X452518Y651964D01*
X452569Y651870D01*
X452616Y651774D01*
X452659Y651676D01*
X452699Y651577D01*
X452736Y651477D01*
X452768Y651376D01*
X452797Y651273D01*
X452822Y651169D01*
X452843Y651065D01*
X452861Y650959D01*
X452874Y650853D01*
X452884Y650747D01*
X452890Y650641D01*
X452892Y650534D01*
X452890Y650413D01*
X452884Y650292D01*
X452874Y650172D01*
X452861Y650051D01*
X452843Y649932D01*
X452822Y649812D01*
X452797Y649694D01*
X452768Y649577D01*
X452735Y649460D01*
X452699Y649345D01*
X452658Y649231D01*
X452615Y649118D01*
X452567Y649006D01*
X452516Y648897D01*
X452461Y648789D01*
X452403Y648682D01*
X452342Y648578D01*
X452277Y648476D01*
X452209Y648376D01*
X452138Y648278D01*
X452064Y648182D01*
X451987Y648089D01*
X451906Y647999D01*
X451823Y647911D01*
X451737Y647826D01*
X451648Y647743D01*
X451557Y647664D01*
X451463Y647587D01*
X451367Y647514D01*
X451269Y647444D01*
X451168Y647377D01*
X451065Y647313D01*
X450960Y647253D01*
X450853Y647196D01*
X450745Y647142D01*
X450635Y647092D01*
X450523Y647046D01*
X450410Y647003D01*
X450295Y646964D01*
X447699Y652482D02*
X447776Y652561D01*
X447857Y652637D01*
X447940Y652710D01*
X448025Y652780D01*
X448113Y652847D01*
X448203Y652911D01*
X448295Y652971D01*
X448390Y653028D01*
X448486Y653082D01*
X448584Y653133D01*
X448684Y653180D01*
X448786Y653224D01*
X448889Y653264D01*
X448993Y653300D01*
X449099Y653332D01*
X449205Y653361D01*
X449313Y653386D01*
X449421Y653408D01*
X449531Y653425D01*
X449640Y653439D01*
X449750Y653448D01*
X449861Y653454D01*
X449971Y653456D01*
X447699Y652482D02*
X441208Y646964D01*
X441208Y653455D01*
X114792Y728345D02*
X103108Y728345D01*
X114792Y728345D02*
X114792Y731590D01*
X114790Y731703D01*
X114784Y731816D01*
X114774Y731929D01*
X114760Y732042D01*
X114743Y732154D01*
X114721Y732265D01*
X114696Y732375D01*
X114666Y732485D01*
X114633Y732593D01*
X114596Y732700D01*
X114556Y732806D01*
X114511Y732910D01*
X114463Y733013D01*
X114412Y733114D01*
X114357Y733213D01*
X114299Y733310D01*
X114237Y733405D01*
X114172Y733498D01*
X114104Y733588D01*
X114033Y733676D01*
X113958Y733762D01*
X113881Y733845D01*
X113801Y733925D01*
X113718Y734002D01*
X113632Y734077D01*
X113544Y734148D01*
X113454Y734216D01*
X113361Y734281D01*
X113266Y734343D01*
X113169Y734401D01*
X113070Y734456D01*
X112969Y734507D01*
X112866Y734555D01*
X112762Y734600D01*
X112656Y734640D01*
X112549Y734677D01*
X112441Y734710D01*
X112331Y734740D01*
X112221Y734765D01*
X112110Y734787D01*
X111998Y734804D01*
X111885Y734818D01*
X111772Y734828D01*
X111659Y734834D01*
X111546Y734836D01*
X111433Y734834D01*
X111320Y734828D01*
X111207Y734818D01*
X111094Y734804D01*
X110982Y734787D01*
X110871Y734765D01*
X110761Y734740D01*
X110651Y734710D01*
X110543Y734677D01*
X110436Y734640D01*
X110330Y734600D01*
X110226Y734555D01*
X110123Y734507D01*
X110022Y734456D01*
X109923Y734401D01*
X109826Y734343D01*
X109731Y734281D01*
X109638Y734216D01*
X109548Y734148D01*
X109460Y734077D01*
X109374Y734002D01*
X109291Y733925D01*
X109211Y733845D01*
X109134Y733762D01*
X109059Y733676D01*
X108988Y733588D01*
X108920Y733498D01*
X108855Y733405D01*
X108793Y733310D01*
X108735Y733213D01*
X108680Y733114D01*
X108629Y733013D01*
X108581Y732910D01*
X108536Y732806D01*
X108496Y732700D01*
X108459Y732593D01*
X108426Y732485D01*
X108396Y732375D01*
X108371Y732265D01*
X108349Y732154D01*
X108332Y732042D01*
X108318Y731929D01*
X108308Y731816D01*
X108302Y731703D01*
X108300Y731590D01*
X108301Y731590D02*
X108301Y728345D01*
X108301Y732239D02*
X103108Y734836D01*
X103108Y739701D02*
X103108Y742946D01*
X103110Y743059D01*
X103116Y743172D01*
X103126Y743285D01*
X103140Y743398D01*
X103157Y743510D01*
X103179Y743621D01*
X103204Y743731D01*
X103234Y743841D01*
X103267Y743949D01*
X103304Y744056D01*
X103344Y744162D01*
X103389Y744266D01*
X103437Y744369D01*
X103488Y744470D01*
X103543Y744569D01*
X103601Y744666D01*
X103663Y744761D01*
X103728Y744854D01*
X103796Y744944D01*
X103867Y745032D01*
X103942Y745118D01*
X104019Y745201D01*
X104099Y745281D01*
X104182Y745358D01*
X104268Y745433D01*
X104356Y745504D01*
X104446Y745572D01*
X104539Y745637D01*
X104634Y745699D01*
X104731Y745757D01*
X104830Y745812D01*
X104931Y745863D01*
X105034Y745911D01*
X105138Y745956D01*
X105244Y745996D01*
X105351Y746033D01*
X105459Y746066D01*
X105569Y746096D01*
X105679Y746121D01*
X105790Y746143D01*
X105902Y746160D01*
X106015Y746174D01*
X106128Y746184D01*
X106241Y746190D01*
X106354Y746192D01*
X106467Y746190D01*
X106580Y746184D01*
X106693Y746174D01*
X106806Y746160D01*
X106918Y746143D01*
X107029Y746121D01*
X107139Y746096D01*
X107249Y746066D01*
X107357Y746033D01*
X107464Y745996D01*
X107570Y745956D01*
X107674Y745911D01*
X107777Y745863D01*
X107878Y745812D01*
X107977Y745757D01*
X108074Y745699D01*
X108169Y745637D01*
X108262Y745572D01*
X108352Y745504D01*
X108440Y745433D01*
X108526Y745358D01*
X108609Y745281D01*
X108689Y745201D01*
X108766Y745118D01*
X108841Y745032D01*
X108912Y744944D01*
X108980Y744854D01*
X109045Y744761D01*
X109107Y744666D01*
X109165Y744569D01*
X109220Y744470D01*
X109271Y744369D01*
X109319Y744266D01*
X109364Y744162D01*
X109404Y744056D01*
X109441Y743949D01*
X109474Y743841D01*
X109504Y743731D01*
X109529Y743621D01*
X109551Y743510D01*
X109568Y743398D01*
X109582Y743285D01*
X109592Y743172D01*
X109598Y743059D01*
X109600Y742946D01*
X114792Y743596D02*
X114792Y739701D01*
X114792Y743596D02*
X114790Y743697D01*
X114784Y743797D01*
X114774Y743897D01*
X114761Y743997D01*
X114743Y744096D01*
X114722Y744195D01*
X114697Y744292D01*
X114668Y744389D01*
X114635Y744484D01*
X114599Y744578D01*
X114559Y744670D01*
X114516Y744761D01*
X114469Y744850D01*
X114419Y744937D01*
X114365Y745023D01*
X114308Y745106D01*
X114248Y745186D01*
X114185Y745265D01*
X114118Y745341D01*
X114049Y745414D01*
X113977Y745484D01*
X113903Y745552D01*
X113826Y745617D01*
X113746Y745678D01*
X113664Y745737D01*
X113580Y745792D01*
X113494Y745844D01*
X113406Y745893D01*
X113316Y745938D01*
X113224Y745980D01*
X113131Y746018D01*
X113036Y746052D01*
X112941Y746083D01*
X112844Y746110D01*
X112746Y746133D01*
X112647Y746153D01*
X112547Y746168D01*
X112447Y746180D01*
X112347Y746188D01*
X112246Y746192D01*
X112146Y746192D01*
X112045Y746188D01*
X111945Y746180D01*
X111845Y746168D01*
X111745Y746153D01*
X111646Y746133D01*
X111548Y746110D01*
X111451Y746083D01*
X111356Y746052D01*
X111261Y746018D01*
X111168Y745980D01*
X111076Y745938D01*
X110986Y745893D01*
X110898Y745844D01*
X110812Y745792D01*
X110728Y745737D01*
X110646Y745678D01*
X110566Y745617D01*
X110489Y745552D01*
X110415Y745484D01*
X110343Y745414D01*
X110274Y745341D01*
X110207Y745265D01*
X110144Y745186D01*
X110084Y745106D01*
X110027Y745023D01*
X109973Y744937D01*
X109923Y744850D01*
X109876Y744761D01*
X109833Y744670D01*
X109793Y744578D01*
X109757Y744484D01*
X109724Y744389D01*
X109695Y744292D01*
X109670Y744195D01*
X109649Y744096D01*
X109631Y743997D01*
X109618Y743897D01*
X109608Y743797D01*
X109602Y743697D01*
X109600Y743596D01*
X109599Y743596D02*
X109599Y740999D01*
X190855Y624792D02*
X190855Y613108D01*
X190855Y624792D02*
X187610Y624792D01*
X187497Y624790D01*
X187384Y624784D01*
X187271Y624774D01*
X187158Y624760D01*
X187046Y624743D01*
X186935Y624721D01*
X186825Y624696D01*
X186715Y624666D01*
X186607Y624633D01*
X186500Y624596D01*
X186394Y624556D01*
X186290Y624511D01*
X186187Y624463D01*
X186086Y624412D01*
X185987Y624357D01*
X185890Y624299D01*
X185795Y624237D01*
X185702Y624172D01*
X185612Y624104D01*
X185524Y624033D01*
X185438Y623958D01*
X185355Y623881D01*
X185275Y623801D01*
X185198Y623718D01*
X185123Y623632D01*
X185052Y623544D01*
X184984Y623454D01*
X184919Y623361D01*
X184857Y623266D01*
X184799Y623169D01*
X184744Y623070D01*
X184693Y622969D01*
X184645Y622866D01*
X184600Y622762D01*
X184560Y622656D01*
X184523Y622549D01*
X184490Y622441D01*
X184460Y622331D01*
X184435Y622221D01*
X184413Y622110D01*
X184396Y621998D01*
X184382Y621885D01*
X184372Y621772D01*
X184366Y621659D01*
X184364Y621546D01*
X184366Y621433D01*
X184372Y621320D01*
X184382Y621207D01*
X184396Y621094D01*
X184413Y620982D01*
X184435Y620871D01*
X184460Y620761D01*
X184490Y620651D01*
X184523Y620543D01*
X184560Y620436D01*
X184600Y620330D01*
X184645Y620226D01*
X184693Y620123D01*
X184744Y620022D01*
X184799Y619923D01*
X184857Y619826D01*
X184919Y619731D01*
X184984Y619638D01*
X185052Y619548D01*
X185123Y619460D01*
X185198Y619374D01*
X185275Y619291D01*
X185355Y619211D01*
X185438Y619134D01*
X185524Y619059D01*
X185612Y618988D01*
X185702Y618920D01*
X185795Y618855D01*
X185890Y618793D01*
X185987Y618735D01*
X186086Y618680D01*
X186187Y618629D01*
X186290Y618581D01*
X186394Y618536D01*
X186500Y618496D01*
X186607Y618459D01*
X186715Y618426D01*
X186825Y618396D01*
X186935Y618371D01*
X187046Y618349D01*
X187158Y618332D01*
X187271Y618318D01*
X187384Y618308D01*
X187497Y618302D01*
X187610Y618300D01*
X187610Y618301D02*
X190855Y618301D01*
X186961Y618301D02*
X184364Y613108D01*
X179499Y615704D02*
X176903Y624792D01*
X179499Y615704D02*
X173008Y615704D01*
X174955Y618301D02*
X174955Y613108D01*
X245055Y712608D02*
X245055Y724292D01*
X241810Y724292D01*
X241697Y724290D01*
X241584Y724284D01*
X241471Y724274D01*
X241358Y724260D01*
X241246Y724243D01*
X241135Y724221D01*
X241025Y724196D01*
X240915Y724166D01*
X240807Y724133D01*
X240700Y724096D01*
X240594Y724056D01*
X240490Y724011D01*
X240387Y723963D01*
X240286Y723912D01*
X240187Y723857D01*
X240090Y723799D01*
X239995Y723737D01*
X239902Y723672D01*
X239812Y723604D01*
X239724Y723533D01*
X239638Y723458D01*
X239555Y723381D01*
X239475Y723301D01*
X239398Y723218D01*
X239323Y723132D01*
X239252Y723044D01*
X239184Y722954D01*
X239119Y722861D01*
X239057Y722766D01*
X238999Y722669D01*
X238944Y722570D01*
X238893Y722469D01*
X238845Y722366D01*
X238800Y722262D01*
X238760Y722156D01*
X238723Y722049D01*
X238690Y721941D01*
X238660Y721831D01*
X238635Y721721D01*
X238613Y721610D01*
X238596Y721498D01*
X238582Y721385D01*
X238572Y721272D01*
X238566Y721159D01*
X238564Y721046D01*
X238566Y720933D01*
X238572Y720820D01*
X238582Y720707D01*
X238596Y720594D01*
X238613Y720482D01*
X238635Y720371D01*
X238660Y720261D01*
X238690Y720151D01*
X238723Y720043D01*
X238760Y719936D01*
X238800Y719830D01*
X238845Y719726D01*
X238893Y719623D01*
X238944Y719522D01*
X238999Y719423D01*
X239057Y719326D01*
X239119Y719231D01*
X239184Y719138D01*
X239252Y719048D01*
X239323Y718960D01*
X239398Y718874D01*
X239475Y718791D01*
X239555Y718711D01*
X239638Y718634D01*
X239724Y718559D01*
X239812Y718488D01*
X239902Y718420D01*
X239995Y718355D01*
X240090Y718293D01*
X240187Y718235D01*
X240286Y718180D01*
X240387Y718129D01*
X240490Y718081D01*
X240594Y718036D01*
X240700Y717996D01*
X240807Y717959D01*
X240915Y717926D01*
X241025Y717896D01*
X241135Y717871D01*
X241246Y717849D01*
X241358Y717832D01*
X241471Y717818D01*
X241584Y717808D01*
X241697Y717802D01*
X241810Y717800D01*
X241810Y717801D02*
X245055Y717801D01*
X241161Y717801D02*
X238564Y712608D01*
X233699Y712608D02*
X229804Y712608D01*
X229705Y712610D01*
X229605Y712616D01*
X229506Y712625D01*
X229408Y712638D01*
X229310Y712655D01*
X229212Y712676D01*
X229116Y712701D01*
X229021Y712729D01*
X228927Y712761D01*
X228834Y712796D01*
X228742Y712835D01*
X228652Y712878D01*
X228564Y712923D01*
X228477Y712973D01*
X228393Y713025D01*
X228310Y713081D01*
X228230Y713139D01*
X228152Y713201D01*
X228077Y713266D01*
X228004Y713334D01*
X227934Y713404D01*
X227866Y713477D01*
X227801Y713552D01*
X227739Y713630D01*
X227681Y713710D01*
X227625Y713793D01*
X227573Y713877D01*
X227523Y713964D01*
X227478Y714052D01*
X227435Y714142D01*
X227396Y714234D01*
X227361Y714327D01*
X227329Y714421D01*
X227301Y714516D01*
X227276Y714612D01*
X227255Y714710D01*
X227238Y714808D01*
X227225Y714906D01*
X227216Y715005D01*
X227210Y715105D01*
X227208Y715204D01*
X227208Y716503D01*
X227210Y716602D01*
X227216Y716702D01*
X227225Y716801D01*
X227238Y716899D01*
X227255Y716997D01*
X227276Y717095D01*
X227301Y717191D01*
X227329Y717286D01*
X227361Y717380D01*
X227396Y717473D01*
X227435Y717565D01*
X227478Y717655D01*
X227523Y717743D01*
X227573Y717830D01*
X227625Y717914D01*
X227681Y717997D01*
X227739Y718077D01*
X227801Y718155D01*
X227866Y718230D01*
X227934Y718303D01*
X228004Y718373D01*
X228077Y718441D01*
X228152Y718506D01*
X228230Y718568D01*
X228310Y718626D01*
X228393Y718682D01*
X228477Y718734D01*
X228564Y718784D01*
X228652Y718829D01*
X228742Y718872D01*
X228834Y718911D01*
X228927Y718946D01*
X229021Y718978D01*
X229116Y719006D01*
X229212Y719031D01*
X229310Y719052D01*
X229408Y719069D01*
X229506Y719082D01*
X229605Y719091D01*
X229705Y719097D01*
X229804Y719099D01*
X233699Y719099D01*
X233699Y724292D01*
X227208Y724292D01*
D11*
X354630Y689310D02*
X354630Y673690D01*
X326180Y673690D02*
X326180Y689310D01*
D12*
X351900Y676500D03*
D10*
X353862Y701568D02*
X353862Y708172D01*
X353862Y701568D02*
X353860Y701468D01*
X353854Y701369D01*
X353844Y701269D01*
X353831Y701171D01*
X353813Y701072D01*
X353792Y700975D01*
X353767Y700879D01*
X353738Y700783D01*
X353705Y700689D01*
X353669Y700596D01*
X353629Y700505D01*
X353585Y700415D01*
X353538Y700327D01*
X353488Y700241D01*
X353434Y700157D01*
X353377Y700075D01*
X353317Y699996D01*
X353253Y699918D01*
X353187Y699844D01*
X353118Y699772D01*
X353046Y699703D01*
X352972Y699637D01*
X352894Y699573D01*
X352815Y699513D01*
X352733Y699456D01*
X352649Y699402D01*
X352563Y699352D01*
X352475Y699305D01*
X352385Y699261D01*
X352294Y699221D01*
X352201Y699185D01*
X352107Y699152D01*
X352011Y699123D01*
X351915Y699098D01*
X351818Y699077D01*
X351719Y699059D01*
X351621Y699046D01*
X351521Y699036D01*
X351422Y699030D01*
X351322Y699028D01*
X351222Y699030D01*
X351123Y699036D01*
X351023Y699046D01*
X350925Y699059D01*
X350826Y699077D01*
X350729Y699098D01*
X350633Y699123D01*
X350537Y699152D01*
X350443Y699185D01*
X350350Y699221D01*
X350259Y699261D01*
X350169Y699305D01*
X350081Y699352D01*
X349995Y699402D01*
X349911Y699456D01*
X349829Y699513D01*
X349750Y699573D01*
X349672Y699637D01*
X349598Y699703D01*
X349526Y699772D01*
X349457Y699844D01*
X349391Y699918D01*
X349327Y699996D01*
X349267Y700075D01*
X349210Y700157D01*
X349156Y700241D01*
X349106Y700327D01*
X349059Y700415D01*
X349015Y700505D01*
X348975Y700596D01*
X348939Y700689D01*
X348906Y700783D01*
X348877Y700879D01*
X348852Y700975D01*
X348831Y701072D01*
X348813Y701171D01*
X348800Y701269D01*
X348790Y701369D01*
X348784Y701468D01*
X348782Y701568D01*
X348782Y708172D01*
X342483Y708172D02*
X342483Y699028D01*
X342483Y703600D02*
X343753Y704362D01*
X343817Y704403D01*
X343880Y704447D01*
X343940Y704495D01*
X343997Y704545D01*
X344052Y704598D01*
X344105Y704654D01*
X344154Y704712D01*
X344200Y704773D01*
X344244Y704836D01*
X344284Y704901D01*
X344321Y704968D01*
X344354Y705037D01*
X344384Y705108D01*
X344410Y705179D01*
X344432Y705253D01*
X344451Y705327D01*
X344466Y705402D01*
X344478Y705477D01*
X344485Y705553D01*
X344489Y705630D01*
X344488Y705706D01*
X344484Y705783D01*
X344476Y705859D01*
X344465Y705934D01*
X344449Y706009D01*
X344430Y706083D01*
X344407Y706156D01*
X344380Y706228D01*
X344350Y706298D01*
X344316Y706367D01*
X344279Y706434D01*
X344238Y706498D01*
X344194Y706561D01*
X344148Y706622D01*
X344098Y706680D01*
X344045Y706735D01*
X343990Y706788D01*
X343932Y706838D01*
X343871Y706885D01*
X343809Y706928D01*
X343744Y706969D01*
X343677Y707006D01*
X343608Y707040D01*
X343538Y707070D01*
X343466Y707097D01*
X343394Y707120D01*
X343320Y707140D01*
X343245Y707155D01*
X343244Y707156D02*
X343120Y707177D01*
X342995Y707194D01*
X342869Y707207D01*
X342743Y707216D01*
X342617Y707221D01*
X342491Y707222D01*
X342365Y707219D01*
X342239Y707212D01*
X342113Y707201D01*
X341988Y707187D01*
X341863Y707168D01*
X341739Y707145D01*
X341616Y707119D01*
X341493Y707089D01*
X341372Y707054D01*
X341251Y707016D01*
X341132Y706975D01*
X341014Y706929D01*
X340898Y706880D01*
X340783Y706828D01*
X340670Y706771D01*
X340559Y706712D01*
X340450Y706648D01*
X342483Y703600D02*
X341213Y702838D01*
X341149Y702797D01*
X341086Y702753D01*
X341026Y702705D01*
X340969Y702655D01*
X340914Y702602D01*
X340861Y702546D01*
X340812Y702488D01*
X340766Y702427D01*
X340722Y702364D01*
X340682Y702299D01*
X340645Y702232D01*
X340612Y702163D01*
X340582Y702092D01*
X340556Y702021D01*
X340534Y701947D01*
X340515Y701873D01*
X340500Y701798D01*
X340488Y701723D01*
X340481Y701647D01*
X340477Y701570D01*
X340478Y701494D01*
X340482Y701417D01*
X340490Y701341D01*
X340501Y701266D01*
X340517Y701191D01*
X340536Y701117D01*
X340559Y701044D01*
X340586Y700972D01*
X340616Y700902D01*
X340650Y700833D01*
X340687Y700766D01*
X340728Y700702D01*
X340772Y700639D01*
X340818Y700578D01*
X340868Y700520D01*
X340921Y700465D01*
X340976Y700412D01*
X341034Y700362D01*
X341095Y700315D01*
X341157Y700272D01*
X341222Y700231D01*
X341289Y700194D01*
X341358Y700160D01*
X341428Y700130D01*
X341500Y700103D01*
X341572Y700080D01*
X341646Y700060D01*
X341721Y700045D01*
X341721Y700044D02*
X341845Y700023D01*
X341970Y700006D01*
X342096Y699993D01*
X342222Y699984D01*
X342348Y699979D01*
X342474Y699978D01*
X342600Y699981D01*
X342726Y699988D01*
X342852Y699999D01*
X342977Y700013D01*
X343102Y700032D01*
X343226Y700055D01*
X343349Y700081D01*
X343472Y700111D01*
X343593Y700146D01*
X343714Y700184D01*
X343833Y700225D01*
X343951Y700271D01*
X344067Y700320D01*
X344182Y700372D01*
X344295Y700429D01*
X344406Y700488D01*
X344515Y700552D01*
X336488Y706140D02*
X333948Y708172D01*
X333948Y699028D01*
X336488Y699028D02*
X331408Y699028D01*
D13*
X365300Y679600D02*
X365300Y636600D01*
X365300Y679600D02*
X393300Y679600D01*
X393300Y636600D01*
X365300Y636600D01*
D14*
X385800Y641850D03*
D10*
X399304Y629358D02*
X407742Y629358D01*
X399304Y629358D02*
X399191Y629360D01*
X399078Y629366D01*
X398965Y629376D01*
X398852Y629390D01*
X398740Y629407D01*
X398629Y629429D01*
X398519Y629454D01*
X398409Y629484D01*
X398301Y629517D01*
X398194Y629554D01*
X398088Y629594D01*
X397984Y629639D01*
X397881Y629687D01*
X397780Y629738D01*
X397681Y629793D01*
X397584Y629851D01*
X397489Y629913D01*
X397396Y629978D01*
X397306Y630046D01*
X397218Y630117D01*
X397132Y630192D01*
X397049Y630269D01*
X396969Y630349D01*
X396892Y630432D01*
X396817Y630518D01*
X396746Y630606D01*
X396678Y630696D01*
X396613Y630789D01*
X396551Y630884D01*
X396493Y630981D01*
X396438Y631080D01*
X396387Y631181D01*
X396339Y631284D01*
X396294Y631388D01*
X396254Y631494D01*
X396217Y631601D01*
X396184Y631709D01*
X396154Y631819D01*
X396129Y631929D01*
X396107Y632040D01*
X396090Y632152D01*
X396076Y632265D01*
X396066Y632378D01*
X396060Y632491D01*
X396058Y632604D01*
X396060Y632717D01*
X396066Y632830D01*
X396076Y632943D01*
X396090Y633056D01*
X396107Y633168D01*
X396129Y633279D01*
X396154Y633389D01*
X396184Y633499D01*
X396217Y633607D01*
X396254Y633714D01*
X396294Y633820D01*
X396339Y633924D01*
X396387Y634027D01*
X396438Y634128D01*
X396493Y634227D01*
X396551Y634324D01*
X396613Y634419D01*
X396678Y634512D01*
X396746Y634602D01*
X396817Y634690D01*
X396892Y634776D01*
X396969Y634859D01*
X397049Y634939D01*
X397132Y635016D01*
X397218Y635091D01*
X397306Y635162D01*
X397396Y635230D01*
X397489Y635295D01*
X397584Y635357D01*
X397681Y635415D01*
X397780Y635470D01*
X397881Y635521D01*
X397984Y635569D01*
X398088Y635614D01*
X398194Y635654D01*
X398301Y635691D01*
X398409Y635724D01*
X398519Y635754D01*
X398629Y635779D01*
X398740Y635801D01*
X398852Y635818D01*
X398965Y635832D01*
X399078Y635842D01*
X399191Y635848D01*
X399304Y635850D01*
X399304Y635849D02*
X407742Y635849D01*
X407742Y643653D02*
X396058Y643653D01*
X401900Y643653D02*
X402874Y642030D01*
X402873Y642029D02*
X402920Y641956D01*
X402969Y641885D01*
X403022Y641815D01*
X403078Y641749D01*
X403137Y641685D01*
X403198Y641623D01*
X403262Y641565D01*
X403329Y641509D01*
X403398Y641457D01*
X403470Y641407D01*
X403544Y641361D01*
X403619Y641318D01*
X403697Y641279D01*
X403776Y641243D01*
X403857Y641211D01*
X403939Y641182D01*
X404022Y641157D01*
X404106Y641136D01*
X404191Y641119D01*
X404277Y641105D01*
X404363Y641096D01*
X404450Y641090D01*
X404537Y641088D01*
X404624Y641090D01*
X404711Y641096D01*
X404797Y641106D01*
X404883Y641119D01*
X404968Y641137D01*
X405052Y641158D01*
X405135Y641183D01*
X405218Y641212D01*
X405298Y641244D01*
X405377Y641280D01*
X405455Y641319D01*
X405530Y641362D01*
X405604Y641409D01*
X405675Y641458D01*
X405745Y641511D01*
X405811Y641566D01*
X405875Y641625D01*
X405937Y641686D01*
X405996Y641751D01*
X406051Y641817D01*
X406104Y641886D01*
X406154Y641958D01*
X406200Y642031D01*
X406243Y642107D01*
X406282Y642184D01*
X406318Y642263D01*
X406351Y642344D01*
X406379Y642426D01*
X406405Y642509D01*
X406426Y642593D01*
X406443Y642679D01*
X406444Y642679D02*
X406468Y642819D01*
X406488Y642961D01*
X406504Y643102D01*
X406515Y643244D01*
X406523Y643387D01*
X406527Y643529D01*
X406528Y643672D01*
X406524Y643815D01*
X406516Y643957D01*
X406504Y644099D01*
X406488Y644241D01*
X406469Y644382D01*
X406445Y644523D01*
X406418Y644663D01*
X406386Y644802D01*
X406351Y644940D01*
X406312Y645078D01*
X406269Y645214D01*
X406223Y645348D01*
X406172Y645482D01*
X406119Y645614D01*
X406061Y645744D01*
X406000Y645873D01*
X405935Y646000D01*
X405867Y646126D01*
X405795Y646249D01*
X401900Y643653D02*
X400926Y645275D01*
X400927Y645276D02*
X400880Y645349D01*
X400831Y645420D01*
X400778Y645490D01*
X400722Y645556D01*
X400663Y645620D01*
X400602Y645682D01*
X400538Y645740D01*
X400471Y645796D01*
X400402Y645848D01*
X400330Y645898D01*
X400256Y645944D01*
X400181Y645987D01*
X400103Y646026D01*
X400024Y646062D01*
X399943Y646094D01*
X399861Y646123D01*
X399778Y646148D01*
X399694Y646169D01*
X399609Y646186D01*
X399523Y646200D01*
X399437Y646209D01*
X399350Y646215D01*
X399263Y646217D01*
X399176Y646215D01*
X399089Y646209D01*
X399003Y646199D01*
X398917Y646186D01*
X398832Y646168D01*
X398748Y646147D01*
X398665Y646122D01*
X398582Y646093D01*
X398502Y646061D01*
X398423Y646025D01*
X398345Y645986D01*
X398270Y645943D01*
X398196Y645896D01*
X398125Y645847D01*
X398055Y645794D01*
X397989Y645739D01*
X397925Y645680D01*
X397863Y645619D01*
X397804Y645554D01*
X397749Y645488D01*
X397696Y645419D01*
X397646Y645347D01*
X397600Y645274D01*
X397557Y645198D01*
X397518Y645121D01*
X397482Y645042D01*
X397449Y644961D01*
X397421Y644879D01*
X397395Y644796D01*
X397374Y644712D01*
X397357Y644627D01*
X397356Y644626D02*
X397332Y644486D01*
X397312Y644344D01*
X397296Y644203D01*
X397285Y644061D01*
X397277Y643918D01*
X397273Y643776D01*
X397272Y643633D01*
X397276Y643490D01*
X397284Y643348D01*
X397296Y643206D01*
X397312Y643064D01*
X397331Y642923D01*
X397355Y642782D01*
X397382Y642642D01*
X397414Y642503D01*
X397449Y642365D01*
X397488Y642227D01*
X397531Y642091D01*
X397577Y641957D01*
X397628Y641823D01*
X397681Y641691D01*
X397739Y641561D01*
X397800Y641432D01*
X397865Y641305D01*
X397933Y641179D01*
X398005Y641056D01*
X407742Y654645D02*
X407740Y654752D01*
X407734Y654858D01*
X407724Y654964D01*
X407711Y655070D01*
X407693Y655176D01*
X407672Y655280D01*
X407647Y655384D01*
X407618Y655487D01*
X407586Y655588D01*
X407549Y655688D01*
X407509Y655787D01*
X407466Y655885D01*
X407419Y655981D01*
X407368Y656075D01*
X407314Y656167D01*
X407257Y656257D01*
X407197Y656345D01*
X407133Y656430D01*
X407066Y656513D01*
X406996Y656594D01*
X406924Y656672D01*
X406848Y656748D01*
X406770Y656820D01*
X406689Y656890D01*
X406606Y656957D01*
X406521Y657021D01*
X406433Y657081D01*
X406343Y657138D01*
X406251Y657192D01*
X406157Y657243D01*
X406061Y657290D01*
X405963Y657333D01*
X405864Y657373D01*
X405764Y657410D01*
X405663Y657442D01*
X405560Y657471D01*
X405456Y657496D01*
X405352Y657517D01*
X405246Y657535D01*
X405140Y657548D01*
X405034Y657558D01*
X404928Y657564D01*
X404821Y657566D01*
X407742Y654645D02*
X407740Y654524D01*
X407734Y654403D01*
X407724Y654283D01*
X407711Y654162D01*
X407693Y654043D01*
X407672Y653923D01*
X407647Y653805D01*
X407618Y653688D01*
X407585Y653571D01*
X407549Y653456D01*
X407508Y653342D01*
X407465Y653229D01*
X407417Y653117D01*
X407366Y653008D01*
X407311Y652900D01*
X407253Y652793D01*
X407192Y652689D01*
X407127Y652587D01*
X407059Y652487D01*
X406988Y652389D01*
X406914Y652293D01*
X406837Y652200D01*
X406756Y652110D01*
X406673Y652022D01*
X406587Y651937D01*
X406498Y651854D01*
X406407Y651775D01*
X406313Y651698D01*
X406217Y651625D01*
X406119Y651555D01*
X406018Y651488D01*
X405915Y651424D01*
X405810Y651364D01*
X405703Y651307D01*
X405595Y651253D01*
X405485Y651203D01*
X405373Y651157D01*
X405260Y651114D01*
X405145Y651075D01*
X402549Y656593D02*
X402626Y656672D01*
X402707Y656748D01*
X402790Y656821D01*
X402875Y656891D01*
X402963Y656958D01*
X403053Y657022D01*
X403145Y657082D01*
X403240Y657139D01*
X403336Y657193D01*
X403434Y657244D01*
X403534Y657291D01*
X403636Y657335D01*
X403739Y657375D01*
X403843Y657411D01*
X403949Y657443D01*
X404055Y657472D01*
X404163Y657497D01*
X404271Y657519D01*
X404381Y657536D01*
X404490Y657550D01*
X404600Y657559D01*
X404711Y657565D01*
X404821Y657567D01*
X402549Y656592D02*
X396058Y651075D01*
X396058Y657566D01*
D11*
X209310Y693730D02*
X193690Y693730D01*
X193690Y665280D02*
X209310Y665280D01*
D12*
X206500Y691000D03*
D10*
X183972Y670508D02*
X177368Y670508D01*
X177268Y670510D01*
X177169Y670516D01*
X177069Y670526D01*
X176971Y670539D01*
X176872Y670557D01*
X176775Y670578D01*
X176679Y670603D01*
X176583Y670632D01*
X176489Y670665D01*
X176396Y670701D01*
X176305Y670741D01*
X176215Y670785D01*
X176127Y670832D01*
X176041Y670882D01*
X175957Y670936D01*
X175875Y670993D01*
X175796Y671053D01*
X175718Y671117D01*
X175644Y671183D01*
X175572Y671252D01*
X175503Y671324D01*
X175437Y671398D01*
X175373Y671476D01*
X175313Y671555D01*
X175256Y671637D01*
X175202Y671721D01*
X175152Y671807D01*
X175105Y671895D01*
X175061Y671985D01*
X175021Y672076D01*
X174985Y672169D01*
X174952Y672263D01*
X174923Y672359D01*
X174898Y672455D01*
X174877Y672552D01*
X174859Y672651D01*
X174846Y672749D01*
X174836Y672849D01*
X174830Y672948D01*
X174828Y673048D01*
X174830Y673148D01*
X174836Y673247D01*
X174846Y673347D01*
X174859Y673445D01*
X174877Y673544D01*
X174898Y673641D01*
X174923Y673737D01*
X174952Y673833D01*
X174985Y673927D01*
X175021Y674020D01*
X175061Y674111D01*
X175105Y674201D01*
X175152Y674289D01*
X175202Y674375D01*
X175256Y674459D01*
X175313Y674541D01*
X175373Y674620D01*
X175437Y674698D01*
X175503Y674772D01*
X175572Y674844D01*
X175644Y674913D01*
X175718Y674979D01*
X175796Y675043D01*
X175875Y675103D01*
X175957Y675160D01*
X176041Y675214D01*
X176127Y675264D01*
X176215Y675311D01*
X176305Y675355D01*
X176396Y675395D01*
X176489Y675431D01*
X176583Y675464D01*
X176679Y675493D01*
X176775Y675518D01*
X176872Y675539D01*
X176971Y675557D01*
X177069Y675570D01*
X177169Y675580D01*
X177268Y675586D01*
X177368Y675588D01*
X183972Y675588D01*
X183972Y681888D02*
X174828Y681888D01*
X179400Y681888D02*
X180162Y680618D01*
X180162Y680617D02*
X180203Y680553D01*
X180247Y680490D01*
X180295Y680430D01*
X180345Y680373D01*
X180398Y680318D01*
X180454Y680265D01*
X180512Y680216D01*
X180573Y680170D01*
X180636Y680126D01*
X180701Y680086D01*
X180768Y680049D01*
X180837Y680016D01*
X180908Y679986D01*
X180979Y679960D01*
X181053Y679938D01*
X181127Y679919D01*
X181202Y679904D01*
X181277Y679892D01*
X181353Y679885D01*
X181430Y679881D01*
X181506Y679882D01*
X181583Y679886D01*
X181659Y679894D01*
X181734Y679905D01*
X181809Y679921D01*
X181883Y679940D01*
X181956Y679963D01*
X182028Y679990D01*
X182098Y680020D01*
X182167Y680054D01*
X182234Y680091D01*
X182298Y680132D01*
X182361Y680176D01*
X182422Y680222D01*
X182480Y680272D01*
X182535Y680325D01*
X182588Y680380D01*
X182638Y680438D01*
X182685Y680499D01*
X182728Y680561D01*
X182769Y680626D01*
X182806Y680693D01*
X182840Y680762D01*
X182870Y680832D01*
X182897Y680904D01*
X182920Y680976D01*
X182940Y681050D01*
X182955Y681125D01*
X182956Y681126D02*
X182977Y681250D01*
X182994Y681375D01*
X183007Y681501D01*
X183016Y681627D01*
X183021Y681753D01*
X183022Y681879D01*
X183019Y682005D01*
X183012Y682131D01*
X183001Y682257D01*
X182987Y682382D01*
X182968Y682507D01*
X182945Y682631D01*
X182919Y682754D01*
X182889Y682877D01*
X182854Y682998D01*
X182816Y683119D01*
X182775Y683238D01*
X182729Y683356D01*
X182680Y683472D01*
X182628Y683587D01*
X182571Y683700D01*
X182512Y683811D01*
X182448Y683920D01*
X179400Y681888D02*
X178638Y683158D01*
X178597Y683222D01*
X178553Y683285D01*
X178505Y683345D01*
X178455Y683402D01*
X178402Y683457D01*
X178346Y683510D01*
X178288Y683559D01*
X178227Y683605D01*
X178164Y683649D01*
X178099Y683689D01*
X178032Y683726D01*
X177963Y683759D01*
X177892Y683789D01*
X177821Y683815D01*
X177747Y683837D01*
X177673Y683856D01*
X177598Y683871D01*
X177523Y683883D01*
X177447Y683890D01*
X177370Y683894D01*
X177294Y683893D01*
X177217Y683889D01*
X177141Y683881D01*
X177066Y683870D01*
X176991Y683854D01*
X176917Y683835D01*
X176844Y683812D01*
X176772Y683785D01*
X176702Y683755D01*
X176633Y683721D01*
X176566Y683684D01*
X176502Y683643D01*
X176439Y683599D01*
X176378Y683553D01*
X176320Y683503D01*
X176265Y683450D01*
X176212Y683395D01*
X176162Y683337D01*
X176115Y683276D01*
X176072Y683214D01*
X176031Y683149D01*
X175994Y683082D01*
X175960Y683013D01*
X175930Y682943D01*
X175903Y682871D01*
X175880Y682799D01*
X175860Y682725D01*
X175845Y682650D01*
X175844Y682649D02*
X175823Y682525D01*
X175806Y682400D01*
X175793Y682274D01*
X175784Y682148D01*
X175779Y682022D01*
X175778Y681896D01*
X175781Y681770D01*
X175788Y681644D01*
X175799Y681518D01*
X175813Y681393D01*
X175832Y681268D01*
X175855Y681144D01*
X175881Y681021D01*
X175911Y680898D01*
X175946Y680777D01*
X175984Y680656D01*
X176025Y680537D01*
X176071Y680419D01*
X176120Y680303D01*
X176172Y680188D01*
X176229Y680075D01*
X176288Y679964D01*
X176352Y679855D01*
X174828Y687882D02*
X174828Y690422D01*
X174830Y690522D01*
X174836Y690621D01*
X174846Y690721D01*
X174859Y690819D01*
X174877Y690918D01*
X174898Y691015D01*
X174923Y691111D01*
X174952Y691207D01*
X174985Y691301D01*
X175021Y691394D01*
X175061Y691485D01*
X175105Y691575D01*
X175152Y691663D01*
X175202Y691749D01*
X175256Y691833D01*
X175313Y691915D01*
X175373Y691994D01*
X175437Y692072D01*
X175503Y692146D01*
X175572Y692218D01*
X175644Y692287D01*
X175718Y692353D01*
X175796Y692417D01*
X175875Y692477D01*
X175957Y692534D01*
X176041Y692588D01*
X176127Y692638D01*
X176215Y692685D01*
X176305Y692729D01*
X176396Y692769D01*
X176489Y692805D01*
X176583Y692838D01*
X176679Y692867D01*
X176775Y692892D01*
X176872Y692913D01*
X176971Y692931D01*
X177069Y692944D01*
X177169Y692954D01*
X177268Y692960D01*
X177368Y692962D01*
X177468Y692960D01*
X177567Y692954D01*
X177667Y692944D01*
X177765Y692931D01*
X177864Y692913D01*
X177961Y692892D01*
X178057Y692867D01*
X178153Y692838D01*
X178247Y692805D01*
X178340Y692769D01*
X178431Y692729D01*
X178521Y692685D01*
X178609Y692638D01*
X178695Y692588D01*
X178779Y692534D01*
X178861Y692477D01*
X178940Y692417D01*
X179018Y692353D01*
X179092Y692287D01*
X179164Y692218D01*
X179233Y692146D01*
X179299Y692072D01*
X179363Y691994D01*
X179423Y691915D01*
X179480Y691833D01*
X179534Y691749D01*
X179584Y691663D01*
X179631Y691575D01*
X179675Y691485D01*
X179715Y691394D01*
X179751Y691301D01*
X179784Y691207D01*
X179813Y691111D01*
X179838Y691015D01*
X179859Y690918D01*
X179877Y690819D01*
X179890Y690721D01*
X179900Y690621D01*
X179906Y690522D01*
X179908Y690422D01*
X183972Y690930D02*
X183972Y687882D01*
X183972Y690930D02*
X183970Y691019D01*
X183964Y691107D01*
X183955Y691195D01*
X183941Y691283D01*
X183924Y691370D01*
X183903Y691456D01*
X183878Y691541D01*
X183849Y691625D01*
X183817Y691708D01*
X183782Y691789D01*
X183742Y691868D01*
X183700Y691946D01*
X183654Y692022D01*
X183605Y692096D01*
X183552Y692167D01*
X183497Y692236D01*
X183438Y692303D01*
X183377Y692367D01*
X183313Y692428D01*
X183246Y692487D01*
X183177Y692542D01*
X183106Y692595D01*
X183032Y692644D01*
X182956Y692690D01*
X182878Y692732D01*
X182799Y692772D01*
X182718Y692807D01*
X182635Y692839D01*
X182551Y692868D01*
X182466Y692893D01*
X182380Y692914D01*
X182293Y692931D01*
X182205Y692945D01*
X182117Y692954D01*
X182029Y692960D01*
X181940Y692962D01*
X181851Y692960D01*
X181763Y692954D01*
X181675Y692945D01*
X181587Y692931D01*
X181500Y692914D01*
X181414Y692893D01*
X181329Y692868D01*
X181245Y692839D01*
X181162Y692807D01*
X181081Y692772D01*
X181002Y692732D01*
X180924Y692690D01*
X180848Y692644D01*
X180774Y692595D01*
X180703Y692542D01*
X180634Y692487D01*
X180567Y692428D01*
X180503Y692367D01*
X180442Y692303D01*
X180383Y692236D01*
X180328Y692167D01*
X180275Y692096D01*
X180226Y692022D01*
X180180Y691946D01*
X180138Y691868D01*
X180098Y691789D01*
X180063Y691708D01*
X180031Y691625D01*
X180002Y691541D01*
X179977Y691456D01*
X179956Y691370D01*
X179939Y691283D01*
X179925Y691195D01*
X179916Y691107D01*
X179910Y691019D01*
X179908Y690930D01*
X179908Y688898D01*
M02*
