G04 EAGLE Gerber RS-274X export*
G75*
%MOMM*%
%FSLAX34Y34*%
%LPD*%
%INSolderpaste Top*%
%IPPOS*%
%AMOC8*
5,1,8,0,0,1.08239X$1,22.5*%
G01*
%ADD10R,3.400000X1.900000*%
%ADD11R,2.700000X1.600000*%
%ADD12R,1.600000X1.800000*%
%ADD13R,1.800000X1.600000*%
%ADD14R,2.200000X1.400000*%
%ADD15R,1.400000X2.200000*%
%ADD16R,3.850000X5.500000*%
%ADD17R,1.600000X1.803000*%
%ADD18R,1.600000X2.000000*%
%ADD19R,2.000000X1.600000*%
%ADD20R,1.600000X0.300000*%
%ADD21R,1.780000X0.420000*%


D10*
X252400Y428900D03*
X252400Y389900D03*
D11*
X428300Y97900D03*
X428300Y69900D03*
D12*
X319300Y221500D03*
X291300Y221500D03*
D13*
X172500Y350100D03*
X172500Y322100D03*
D14*
X478900Y324700D03*
X446900Y324700D03*
D15*
X238700Y248600D03*
X238700Y280600D03*
D12*
X440900Y281500D03*
X412900Y281500D03*
D13*
X355000Y715300D03*
X355000Y687300D03*
D12*
X408500Y671500D03*
X380500Y671500D03*
X161300Y649000D03*
X133300Y649000D03*
X160800Y621000D03*
X132800Y621000D03*
D10*
X334400Y410900D03*
X334400Y371900D03*
X369600Y216600D03*
X369600Y255600D03*
D16*
X418550Y548800D03*
X319050Y548800D03*
D17*
X109880Y20800D03*
X138320Y20800D03*
X174380Y20800D03*
X202820Y20800D03*
D18*
X133900Y568500D03*
X161900Y568500D03*
D19*
X235000Y717700D03*
X235000Y745700D03*
X295000Y745800D03*
X295000Y717800D03*
X215000Y671800D03*
X215000Y643800D03*
D18*
X160700Y715000D03*
X188700Y715000D03*
D20*
X294400Y300900D03*
X294400Y305900D03*
X294400Y310900D03*
X294400Y315900D03*
X294400Y320900D03*
X249400Y320900D03*
X249400Y315900D03*
X249400Y310900D03*
X249400Y305900D03*
X249400Y300900D03*
D21*
X318900Y633050D03*
X318900Y639550D03*
X318900Y646050D03*
X318900Y652550D03*
X318900Y659050D03*
X318900Y665550D03*
X318900Y672050D03*
X318900Y678550D03*
X259500Y678550D03*
X259500Y672050D03*
X259500Y665550D03*
X259500Y659050D03*
X259500Y652550D03*
X259500Y646050D03*
X259500Y639550D03*
X259500Y633050D03*
D19*
X358100Y45600D03*
X358100Y73600D03*
D17*
X385380Y19400D03*
X413820Y19400D03*
M02*
