G04 EAGLE Gerber RS-274X export*
G75*
%MOMM*%
%FSLAX34Y34*%
%LPD*%
%INSoldermask Top*%
%IPPOS*%
%AMOC8*
5,1,8,0,0,1.08239X$1,22.5*%
G01*
%ADD10R,6.045200X6.045200*%
%ADD11C,2.153200*%
%ADD12R,3.603200X2.103200*%
%ADD13R,2.903200X1.803200*%
%ADD14R,1.803200X2.003200*%
%ADD15R,2.003200X1.803200*%
%ADD16R,2.403200X1.603200*%
%ADD17R,1.603200X2.403200*%
%ADD18C,1.611200*%
%ADD19C,1.403200*%
%ADD20R,4.053200X5.703200*%
%ADD21R,1.803200X2.006200*%
%ADD22R,1.803200X2.203200*%
%ADD23P,1.649562X8X292.500000*%
%ADD24P,1.649562X8X112.500000*%
%ADD25P,1.649562X8X202.500000*%
%ADD26P,1.649562X8X22.500000*%
%ADD27R,2.203200X1.803200*%
%ADD28R,1.803200X0.503200*%
%ADD29C,1.411200*%
%ADD30C,1.473200*%
%ADD31R,1.983200X0.623200*%
%ADD32R,1.711200X1.711200*%
%ADD33C,0.959600*%


D10*
X52200Y715300D03*
X493300Y715300D03*
D11*
X506400Y649750D02*
X506400Y630250D01*
X506400Y584750D02*
X506400Y565250D01*
D12*
X252400Y428900D03*
X252400Y389900D03*
D13*
X428300Y97900D03*
X428300Y69900D03*
D14*
X319300Y221500D03*
X291300Y221500D03*
D15*
X172500Y350100D03*
X172500Y322100D03*
D16*
X478900Y324700D03*
X446900Y324700D03*
D17*
X238700Y248600D03*
X238700Y280600D03*
D14*
X440900Y281500D03*
X412900Y281500D03*
D15*
X355000Y715300D03*
X355000Y687300D03*
D14*
X408500Y671500D03*
X380500Y671500D03*
X161300Y649000D03*
X133300Y649000D03*
X160800Y621000D03*
X132800Y621000D03*
D12*
X334400Y410900D03*
X334400Y371900D03*
X369600Y216600D03*
X369600Y255600D03*
D18*
X31500Y20200D03*
X31500Y39200D03*
X31500Y69200D03*
X31500Y90200D03*
X79500Y29200D03*
X79500Y59200D03*
X79500Y87200D03*
X79500Y109200D03*
D19*
X55500Y24200D03*
X55500Y94200D03*
D20*
X418550Y548800D03*
X319050Y548800D03*
D21*
X109880Y20800D03*
X138320Y20800D03*
X174380Y20800D03*
X202820Y20800D03*
D18*
X471500Y20700D03*
X471500Y39700D03*
X471500Y69700D03*
X471500Y90700D03*
X519500Y29700D03*
X519500Y59700D03*
X519500Y87700D03*
X519500Y109700D03*
D19*
X495500Y24700D03*
X495500Y94700D03*
D22*
X133900Y568500D03*
X161900Y568500D03*
D23*
X331000Y331500D03*
X331000Y306100D03*
D24*
X370000Y281700D03*
X370000Y307100D03*
D23*
X402000Y338300D03*
X402000Y312900D03*
D25*
X320100Y273000D03*
X294700Y273000D03*
D23*
X271000Y361100D03*
X271000Y335700D03*
D26*
X107900Y336500D03*
X133300Y336500D03*
X138100Y296000D03*
X163500Y296000D03*
D23*
X222000Y350700D03*
X222000Y325300D03*
D27*
X235000Y717700D03*
X235000Y745700D03*
X295000Y745800D03*
X295000Y717800D03*
X215000Y671800D03*
X215000Y643800D03*
D22*
X160700Y715000D03*
X188700Y715000D03*
D28*
X294400Y300900D03*
X294400Y305900D03*
X294400Y310900D03*
X294400Y315900D03*
X294400Y320900D03*
X249400Y320900D03*
X249400Y315900D03*
X249400Y310900D03*
X249400Y305900D03*
X249400Y300900D03*
D29*
X89680Y616400D02*
X77600Y616400D01*
X77600Y600400D02*
X89680Y600400D01*
X89680Y632400D02*
X77600Y632400D01*
X65600Y624400D02*
X53520Y624400D01*
X53520Y608400D02*
X65600Y608400D01*
X32140Y578400D02*
X20060Y578400D01*
D30*
X20250Y651400D02*
X32950Y651400D01*
D31*
X318900Y633050D03*
X318900Y639550D03*
X318900Y646050D03*
X318900Y652550D03*
X318900Y659050D03*
X318900Y665550D03*
X318900Y672050D03*
X318900Y678550D03*
X259500Y678550D03*
X259500Y672050D03*
X259500Y665550D03*
X259500Y659050D03*
X259500Y652550D03*
X259500Y646050D03*
X259500Y639550D03*
X259500Y633050D03*
D32*
X305200Y50700D03*
X280200Y50700D03*
X255200Y50700D03*
X255200Y78200D03*
X280200Y78200D03*
X305200Y78200D03*
X255200Y143200D03*
X305200Y143200D03*
D27*
X358100Y45600D03*
X358100Y73600D03*
D21*
X385380Y19400D03*
X413820Y19400D03*
D33*
X322000Y707000D03*
X317000Y694000D03*
X290000Y661000D03*
X288000Y646000D03*
X330000Y623000D03*
X344000Y623000D03*
X337000Y635000D03*
X238000Y347000D03*
X249000Y347000D03*
X241000Y332000D03*
X254000Y332000D03*
X295000Y332000D03*
X303000Y339000D03*
X177546Y700278D03*
X122682Y115062D03*
X260604Y294894D03*
X357378Y182118D03*
X161544Y391668D03*
M02*
