M48
;GenerationSoftware,Autodesk,EAGLE,9.6.0*%
;CreationDate,2020-04-26T15:54:48Z*%
FMAT,2
ICI,OFF
METRIC,TZ,000.000
T8C0.350
T7C0.700
T6C0.813
T5C0.900
T4C1.000
T3C1.200
T2C1.300
T1C2.800
%
G90
M71
T1
X5220Y71530
X49330Y71530
T2
X50640Y64000
X50640Y57500
T3
X5550Y2420
X5550Y9420
X49550Y2470
X49550Y9470
T4
X25520Y14320
X30520Y7820
X28020Y7820
X25520Y7820
X25520Y5070
X28020Y5070
X30520Y5070
X30520Y14320
T5
X7950Y8720
X7950Y10920
X47150Y2070
X47150Y3970
X47150Y6970
X51950Y10970
X51950Y8770
X51950Y5970
X51950Y2970
X47150Y9070
X3150Y2020
X3150Y3920
X3150Y6920
X3150Y9020
X7950Y2920
X7950Y5920
T6
X13330Y33650
X16350Y29600
X22200Y35070
X22200Y32530
X13810Y29600
X33100Y33150
X33100Y30610
X37000Y28170
X37000Y30710
X40200Y33830
X40200Y31290
X32010Y27300
X29470Y27300
X27100Y36110
X27100Y33570
X10790Y33650
T7
X7760Y61640
X7760Y60040
X7760Y63240
X6560Y62440
X6560Y60840
X2660Y65140
X2610Y57840
T8
X31700Y69400
X29000Y66100
X28800Y64600
X33000Y62300
X24100Y33200
X16154Y39167
X17755Y70028
X35738Y18212
X26060Y29489
X12268Y11506
X32200Y70700
X30300Y33900
X29500Y33200
X25400Y33200
X24900Y34700
X23800Y34700
X33700Y63500
X34400Y62300
M30